G04 #@! TF.GenerationSoftware,KiCad,Pcbnew,7.0.0-da2b9df05c~163~ubuntu22.04.1*
G04 #@! TF.CreationDate,2023-03-30T16:17:32+09:00*
G04 #@! TF.ProjectId,staticdetector,73746174-6963-4646-9574-6563746f722e,rev?*
G04 #@! TF.SameCoordinates,Original*
G04 #@! TF.FileFunction,Soldermask,Top*
G04 #@! TF.FilePolarity,Negative*
%FSLAX46Y46*%
G04 Gerber Fmt 4.6, Leading zero omitted, Abs format (unit mm)*
G04 Created by KiCad (PCBNEW 7.0.0-da2b9df05c~163~ubuntu22.04.1) date 2023-03-30 16:17:32*
%MOMM*%
%LPD*%
G01*
G04 APERTURE LIST*
G04 Aperture macros list*
%AMRoundRect*
0 Rectangle with rounded corners*
0 $1 Rounding radius*
0 $2 $3 $4 $5 $6 $7 $8 $9 X,Y pos of 4 corners*
0 Add a 4 corners polygon primitive as box body*
4,1,4,$2,$3,$4,$5,$6,$7,$8,$9,$2,$3,0*
0 Add four circle primitives for the rounded corners*
1,1,$1+$1,$2,$3*
1,1,$1+$1,$4,$5*
1,1,$1+$1,$6,$7*
1,1,$1+$1,$8,$9*
0 Add four rect primitives between the rounded corners*
20,1,$1+$1,$2,$3,$4,$5,0*
20,1,$1+$1,$4,$5,$6,$7,0*
20,1,$1+$1,$6,$7,$8,$9,0*
20,1,$1+$1,$8,$9,$2,$3,0*%
G04 Aperture macros list end*
%ADD10RoundRect,0.450000X0.625000X-0.400000X0.625000X0.400000X-0.625000X0.400000X-0.625000X-0.400000X0*%
%ADD11RoundRect,0.450001X-0.462499X-0.624999X0.462499X-0.624999X0.462499X0.624999X-0.462499X0.624999X0*%
%ADD12C,3.800000*%
%ADD13RoundRect,0.450000X0.412500X0.650000X-0.412500X0.650000X-0.412500X-0.650000X0.412500X-0.650000X0*%
%ADD14RoundRect,0.450000X-0.412500X-0.650000X0.412500X-0.650000X0.412500X0.650000X-0.412500X0.650000X0*%
%ADD15RoundRect,0.450000X-0.400000X-0.625000X0.400000X-0.625000X0.400000X0.625000X-0.400000X0.625000X0*%
%ADD16C,30.400000*%
%ADD17RoundRect,0.200000X-0.800000X1.550000X-0.800000X-1.550000X0.800000X-1.550000X0.800000X1.550000X0*%
%ADD18C,2.400000*%
%ADD19RoundRect,0.450000X-0.625000X0.400000X-0.625000X-0.400000X0.625000X-0.400000X0.625000X0.400000X0*%
%ADD20RoundRect,0.200000X-2.550000X2.550000X-2.550000X-2.550000X2.550000X-2.550000X2.550000X2.550000X0*%
%ADD21C,18.200000*%
%ADD22RoundRect,0.450000X-0.650000X0.412500X-0.650000X-0.412500X0.650000X-0.412500X0.650000X0.412500X0*%
%ADD23C,3.400000*%
%ADD24RoundRect,0.200000X-1.500000X-1.500000X1.500000X-1.500000X1.500000X1.500000X-1.500000X1.500000X0*%
%ADD25RoundRect,0.450000X0.400000X0.625000X-0.400000X0.625000X-0.400000X-0.625000X0.400000X-0.625000X0*%
%ADD26C,3.600000*%
%ADD27O,2.150000X1.600000*%
%ADD28RoundRect,0.450000X0.625000X-0.350000X0.625000X0.350000X-0.625000X0.350000X-0.625000X-0.350000X0*%
G04 APERTURE END LIST*
D10*
X125000000Y-117600000D03*
X125000000Y-114500000D03*
D11*
X144712500Y-70400000D03*
X147687500Y-70400000D03*
D12*
X112900000Y-109300000D03*
D13*
X139125000Y-89750000D03*
X136000000Y-89750000D03*
D12*
X122500000Y-109100000D03*
D14*
X128500000Y-89750000D03*
X131625000Y-89750000D03*
D15*
X121000000Y-84750000D03*
X124100000Y-84750000D03*
D16*
X130000000Y-57500000D03*
D10*
X117500000Y-97150000D03*
X117500000Y-94050000D03*
X146750000Y-81100000D03*
X146750000Y-78000000D03*
X112100000Y-117800000D03*
X112100000Y-114700000D03*
D17*
X133310000Y-95305000D03*
X130770000Y-95305000D03*
X128230000Y-95305000D03*
X125690000Y-95305000D03*
X125690000Y-104195000D03*
X128230000Y-104195000D03*
X130770000Y-104195000D03*
X133310000Y-104195000D03*
D18*
X126750000Y-99750000D03*
D19*
X113000000Y-101550000D03*
X113000000Y-104650000D03*
D10*
X117500000Y-104650000D03*
X117500000Y-101550000D03*
D19*
X131500000Y-76650000D03*
X131500000Y-79750000D03*
D18*
X121600000Y-100000000D03*
X131000000Y-99750000D03*
X146600000Y-74100000D03*
X146650000Y-62950000D03*
D17*
X143370000Y-75360000D03*
X140830000Y-75360000D03*
X138290000Y-75360000D03*
X135750000Y-75360000D03*
X135750000Y-84250000D03*
X138290000Y-84250000D03*
X140830000Y-84250000D03*
X143370000Y-84250000D03*
D19*
X123500000Y-76900000D03*
X123500000Y-80000000D03*
D20*
X145000000Y-89900000D03*
X145000000Y-115500000D03*
D21*
X145000000Y-102700000D03*
D18*
X131300000Y-109300000D03*
D22*
X127500000Y-76875000D03*
X127500000Y-80000000D03*
D23*
X117450000Y-70750000D03*
X117450000Y-77250000D03*
D24*
X112950000Y-70750000D03*
X112950000Y-77250000D03*
D18*
X117500000Y-109600000D03*
D25*
X128500000Y-84750000D03*
X131600000Y-84750000D03*
D18*
X127100000Y-109400000D03*
D25*
X124100000Y-89750000D03*
X121000000Y-89750000D03*
D26*
X130000000Y-117500000D03*
D10*
X116600000Y-114650000D03*
X116600000Y-117750000D03*
D15*
X112900000Y-84800000D03*
X116000000Y-84800000D03*
D11*
X144712500Y-66500000D03*
X147687500Y-66500000D03*
D25*
X116050000Y-89800000D03*
X112950000Y-89800000D03*
D19*
X120900000Y-114600000D03*
X120900000Y-117700000D03*
D27*
X135249999Y-111999999D03*
X135249999Y-113999999D03*
X135249999Y-115999999D03*
D28*
X135250000Y-118000000D03*
D19*
X113000000Y-94000000D03*
X113000000Y-97100000D03*
M02*
