G04 #@! TF.GenerationSoftware,KiCad,Pcbnew,7.0.0-da2b9df05c~163~ubuntu22.04.1*
G04 #@! TF.CreationDate,2023-03-30T16:17:32+09:00*
G04 #@! TF.ProjectId,staticdetector,73746174-6963-4646-9574-6563746f722e,rev?*
G04 #@! TF.SameCoordinates,Original*
G04 #@! TF.FileFunction,Legend,Top*
G04 #@! TF.FilePolarity,Positive*
%FSLAX46Y46*%
G04 Gerber Fmt 4.6, Leading zero omitted, Abs format (unit mm)*
G04 Created by KiCad (PCBNEW 7.0.0-da2b9df05c~163~ubuntu22.04.1) date 2023-03-30 16:17:32*
%MOMM*%
%LPD*%
G01*
G04 APERTURE LIST*
%ADD10C,0.150000*%
%ADD11C,0.300000*%
%ADD12C,0.100000*%
%ADD13C,0.120000*%
G04 APERTURE END LIST*
D10*
X133914333Y-78533333D02*
X133881000Y-78566666D01*
X133881000Y-78566666D02*
X133781000Y-78633333D01*
X133781000Y-78633333D02*
X133714333Y-78666666D01*
X133714333Y-78666666D02*
X133614333Y-78700000D01*
X133614333Y-78700000D02*
X133447666Y-78733333D01*
X133447666Y-78733333D02*
X133314333Y-78733333D01*
X133314333Y-78733333D02*
X133147666Y-78700000D01*
X133147666Y-78700000D02*
X133047666Y-78666666D01*
X133047666Y-78666666D02*
X132981000Y-78633333D01*
X132981000Y-78633333D02*
X132881000Y-78566666D01*
X132881000Y-78566666D02*
X132847666Y-78533333D01*
X133147666Y-78033333D02*
X133147666Y-77566666D01*
X133314333Y-78099999D02*
X133314333Y-77533333D01*
X133014333Y-78199999D02*
X133647666Y-78199999D01*
X132914333Y-78033333D02*
X133147666Y-78033333D01*
X133147666Y-77799999D02*
X133647666Y-77799999D01*
X132914333Y-78033333D02*
X132914333Y-77566666D01*
X132914333Y-77566666D02*
X133147666Y-77566666D01*
X133381000Y-77766666D02*
X133581000Y-77533333D01*
X133347666Y-77799999D02*
X133381000Y-77866666D01*
X133381000Y-77866666D02*
X133581000Y-78066666D01*
X132881000Y-78133333D02*
X133047666Y-78199999D01*
X133047666Y-78199999D02*
X133214333Y-78366666D01*
X132881000Y-77300000D02*
X132881000Y-77066666D01*
X132914333Y-77000000D02*
X132914333Y-76466666D01*
X133014333Y-77333333D02*
X133014333Y-77066666D01*
X133081000Y-76966666D02*
X133081000Y-76500000D01*
X133114333Y-77300000D02*
X133114333Y-77066666D01*
X133181000Y-76933333D02*
X133181000Y-76533333D01*
X133247666Y-77300000D02*
X133247666Y-77066666D01*
X133247666Y-76933333D02*
X133247666Y-76533333D01*
X133347666Y-76933333D02*
X133347666Y-76466666D01*
X133581000Y-77300000D02*
X133581000Y-77066666D01*
X133381000Y-77300000D02*
X133647666Y-77300000D01*
X133381000Y-77300000D02*
X133381000Y-77066666D01*
X133381000Y-77066666D02*
X133581000Y-77066666D01*
X133047666Y-76900000D02*
X133347666Y-76900000D01*
X132847666Y-76833333D02*
X132981000Y-76833333D01*
X133047666Y-76733333D02*
X133347666Y-76733333D01*
X132847666Y-76633333D02*
X132981000Y-76633333D01*
X133014333Y-76900000D02*
X133147666Y-77033333D01*
X133414333Y-76900000D02*
X133514333Y-76800000D01*
X133514333Y-76800000D02*
X133581000Y-76666666D01*
X133581000Y-76666666D02*
X133647666Y-76466666D01*
X133414333Y-77000000D02*
X133414333Y-76533333D01*
X133414333Y-76533333D02*
X133514333Y-76633333D01*
X133514333Y-76633333D02*
X133581000Y-76766666D01*
X133581000Y-76766666D02*
X133647666Y-77000000D01*
X133047666Y-76300000D02*
X133047666Y-76000000D01*
X133181000Y-75933333D02*
X133181000Y-75466667D01*
X133614333Y-76000000D02*
X133614333Y-75633333D01*
X133647666Y-76266667D02*
X133647666Y-76133333D01*
X132847666Y-76133333D02*
X133647666Y-76133333D01*
X132947666Y-75933333D02*
X133481000Y-75933333D01*
X133247666Y-76000000D02*
X133347666Y-76300000D01*
X132914333Y-75666667D02*
X133114333Y-75633333D01*
X133114333Y-75633333D02*
X133214333Y-75666667D01*
X133214333Y-75666667D02*
X133547666Y-75600000D01*
X132881000Y-75533333D02*
X132947666Y-75866667D01*
X133447666Y-75700000D02*
X133481000Y-76033333D01*
X133481000Y-75433333D02*
X133647666Y-75466667D01*
X133647666Y-75466667D02*
X133614333Y-75533333D01*
X133014333Y-74933334D02*
X133014333Y-74433334D01*
X133047666Y-75266667D02*
X133047666Y-74966667D01*
X133647666Y-75233334D02*
X133647666Y-75100000D01*
X132847666Y-75100000D02*
X133647666Y-75100000D01*
X132847666Y-74700000D02*
X132981000Y-74700000D01*
X133281000Y-74966667D02*
X133347666Y-75266667D01*
X133147666Y-74833334D02*
X133381000Y-74833334D01*
X133381000Y-74833334D02*
X133547666Y-74866667D01*
X133147666Y-74833334D02*
X133147666Y-74566667D01*
X133147666Y-74566667D02*
X133647666Y-74533334D01*
X133647666Y-74533334D02*
X133647666Y-74433334D01*
X133647666Y-74433334D02*
X133514333Y-74366667D01*
X133914333Y-74200001D02*
X133881000Y-74166667D01*
X133881000Y-74166667D02*
X133781000Y-74100001D01*
X133781000Y-74100001D02*
X133714333Y-74066667D01*
X133714333Y-74066667D02*
X133614333Y-74033334D01*
X133614333Y-74033334D02*
X133447666Y-74000001D01*
X133447666Y-74000001D02*
X133314333Y-74000001D01*
X133314333Y-74000001D02*
X133147666Y-74033334D01*
X133147666Y-74033334D02*
X133047666Y-74066667D01*
X133047666Y-74066667D02*
X132981000Y-74100001D01*
X132981000Y-74100001D02*
X132881000Y-74166667D01*
X132881000Y-74166667D02*
X132847666Y-74200001D01*
X149119000Y-80966666D02*
X149119000Y-81233333D01*
X149085666Y-81300000D02*
X149085666Y-81833333D01*
X148952333Y-81300000D02*
X148952333Y-81833333D01*
X148719000Y-81366666D02*
X148719000Y-81800000D01*
X148585666Y-81366666D02*
X148585666Y-81800000D01*
X149319000Y-81133333D02*
X148752333Y-81133333D01*
X149219000Y-81300000D02*
X148952333Y-81300000D01*
X148852333Y-81366666D02*
X148552333Y-81366666D01*
X149219000Y-81566666D02*
X148952333Y-81566666D01*
X148852333Y-81366666D02*
X148852333Y-81800000D01*
X148852333Y-81800000D02*
X148552333Y-81800000D01*
X149219000Y-81300000D02*
X149219000Y-81833333D01*
X149219000Y-81833333D02*
X148952333Y-81833333D01*
X149352333Y-81400000D02*
X149252333Y-81433333D01*
X149352333Y-81733333D02*
X149219000Y-81700000D01*
X148819000Y-81266666D02*
X148719000Y-80966666D01*
X149285666Y-82366666D02*
X149285666Y-82866666D01*
X149019000Y-82399999D02*
X149019000Y-82799999D01*
X148752333Y-82199999D02*
X148752333Y-82266666D01*
X148719000Y-82366666D02*
X148719000Y-82833333D01*
X148585666Y-82366666D02*
X148585666Y-82833333D01*
X149152333Y-81999999D02*
X148752333Y-81999999D01*
X149352333Y-82133333D02*
X148552333Y-82133333D01*
X149152333Y-81999999D02*
X149152333Y-82266666D01*
X149152333Y-82266666D02*
X148752333Y-82266666D01*
X148885666Y-82366666D02*
X148552333Y-82366666D01*
X149185666Y-82399999D02*
X149019000Y-82399999D01*
X148885666Y-82599999D02*
X148585666Y-82599999D01*
X149185666Y-82399999D02*
X149185666Y-82799999D01*
X149185666Y-82799999D02*
X149019000Y-82799999D01*
X148885666Y-82366666D02*
X148885666Y-82833333D01*
X148885666Y-82833333D02*
X148552333Y-82833333D01*
X149219000Y-83066666D02*
X149219000Y-83866666D01*
X148885666Y-83266666D02*
X148885666Y-83633332D01*
X148752333Y-83033332D02*
X148752333Y-83899999D01*
X148852333Y-83466666D02*
X148552333Y-83466666D01*
X149085666Y-83299999D02*
X149019000Y-83433332D01*
X148985666Y-83533332D02*
X148852333Y-83666666D01*
X149352333Y-83466666D02*
X149185666Y-83433332D01*
X149185666Y-83433332D02*
X149085666Y-83333332D01*
X149119000Y-83566666D02*
X148885666Y-83333332D01*
X148952333Y-83666666D02*
X148852333Y-83899999D01*
X149119000Y-83099999D02*
X149085666Y-83233332D01*
X148952333Y-83266666D02*
X148885666Y-83033332D01*
X149152333Y-83833332D02*
X149085666Y-83666666D01*
X148919000Y-84166665D02*
X148919000Y-84699999D01*
X148719000Y-84699999D02*
X148719000Y-84166665D01*
X148552333Y-85399999D02*
X148552333Y-84999999D01*
X148552333Y-85199999D02*
X149252333Y-85199999D01*
X149252333Y-85199999D02*
X149152333Y-85133332D01*
X149152333Y-85133332D02*
X149085666Y-85066666D01*
X149085666Y-85066666D02*
X149052333Y-84999999D01*
X148819000Y-85699999D02*
X148819000Y-86233333D01*
X148552333Y-85966666D02*
X149085666Y-85966666D01*
X148285666Y-86766666D02*
X148319000Y-86733333D01*
X148319000Y-86733333D02*
X148419000Y-86666666D01*
X148419000Y-86666666D02*
X148485666Y-86633333D01*
X148485666Y-86633333D02*
X148585666Y-86600000D01*
X148585666Y-86600000D02*
X148752333Y-86566666D01*
X148752333Y-86566666D02*
X148885666Y-86566666D01*
X148885666Y-86566666D02*
X149052333Y-86600000D01*
X149052333Y-86600000D02*
X149152333Y-86633333D01*
X149152333Y-86633333D02*
X149219000Y-86666666D01*
X149219000Y-86666666D02*
X149319000Y-86733333D01*
X149319000Y-86733333D02*
X149352333Y-86766666D01*
X148552333Y-87433333D02*
X148885666Y-87200000D01*
X148552333Y-87033333D02*
X149252333Y-87033333D01*
X149252333Y-87033333D02*
X149252333Y-87300000D01*
X149252333Y-87300000D02*
X149219000Y-87366667D01*
X149219000Y-87366667D02*
X149185666Y-87400000D01*
X149185666Y-87400000D02*
X149119000Y-87433333D01*
X149119000Y-87433333D02*
X149019000Y-87433333D01*
X149019000Y-87433333D02*
X148952333Y-87400000D01*
X148952333Y-87400000D02*
X148919000Y-87366667D01*
X148919000Y-87366667D02*
X148885666Y-87300000D01*
X148885666Y-87300000D02*
X148885666Y-87033333D01*
X149252333Y-87666667D02*
X149252333Y-88100000D01*
X149252333Y-88100000D02*
X148985666Y-87866667D01*
X148985666Y-87866667D02*
X148985666Y-87966667D01*
X148985666Y-87966667D02*
X148952333Y-88033333D01*
X148952333Y-88033333D02*
X148919000Y-88066667D01*
X148919000Y-88066667D02*
X148852333Y-88100000D01*
X148852333Y-88100000D02*
X148685666Y-88100000D01*
X148685666Y-88100000D02*
X148619000Y-88066667D01*
X148619000Y-88066667D02*
X148585666Y-88033333D01*
X148585666Y-88033333D02*
X148552333Y-87966667D01*
X148552333Y-87966667D02*
X148552333Y-87766667D01*
X148552333Y-87766667D02*
X148585666Y-87700000D01*
X148585666Y-87700000D02*
X148619000Y-87666667D01*
X149285666Y-88900000D02*
X148385666Y-88300000D01*
X148552333Y-89533333D02*
X148885666Y-89300000D01*
X148552333Y-89133333D02*
X149252333Y-89133333D01*
X149252333Y-89133333D02*
X149252333Y-89400000D01*
X149252333Y-89400000D02*
X149219000Y-89466667D01*
X149219000Y-89466667D02*
X149185666Y-89500000D01*
X149185666Y-89500000D02*
X149119000Y-89533333D01*
X149119000Y-89533333D02*
X149019000Y-89533333D01*
X149019000Y-89533333D02*
X148952333Y-89500000D01*
X148952333Y-89500000D02*
X148919000Y-89466667D01*
X148919000Y-89466667D02*
X148885666Y-89400000D01*
X148885666Y-89400000D02*
X148885666Y-89133333D01*
X149019000Y-90133333D02*
X148552333Y-90133333D01*
X149285666Y-89966667D02*
X148785666Y-89800000D01*
X148785666Y-89800000D02*
X148785666Y-90233333D01*
X148285666Y-90433334D02*
X148319000Y-90466667D01*
X148319000Y-90466667D02*
X148419000Y-90533334D01*
X148419000Y-90533334D02*
X148485666Y-90566667D01*
X148485666Y-90566667D02*
X148585666Y-90600000D01*
X148585666Y-90600000D02*
X148752333Y-90633334D01*
X148752333Y-90633334D02*
X148885666Y-90633334D01*
X148885666Y-90633334D02*
X149052333Y-90600000D01*
X149052333Y-90600000D02*
X149152333Y-90566667D01*
X149152333Y-90566667D02*
X149219000Y-90533334D01*
X149219000Y-90533334D02*
X149319000Y-90466667D01*
X149319000Y-90466667D02*
X149352333Y-90433334D01*
X133806666Y-110054333D02*
X133773333Y-110021000D01*
X133773333Y-110021000D02*
X133706666Y-109921000D01*
X133706666Y-109921000D02*
X133673333Y-109854333D01*
X133673333Y-109854333D02*
X133640000Y-109754333D01*
X133640000Y-109754333D02*
X133606666Y-109587666D01*
X133606666Y-109587666D02*
X133606666Y-109454333D01*
X133606666Y-109454333D02*
X133640000Y-109287666D01*
X133640000Y-109287666D02*
X133673333Y-109187666D01*
X133673333Y-109187666D02*
X133706666Y-109121000D01*
X133706666Y-109121000D02*
X133773333Y-109021000D01*
X133773333Y-109021000D02*
X133806666Y-108987666D01*
X134173333Y-109787666D02*
X134106667Y-109754333D01*
X134106667Y-109754333D02*
X134073333Y-109721000D01*
X134073333Y-109721000D02*
X134040000Y-109654333D01*
X134040000Y-109654333D02*
X134040000Y-109454333D01*
X134040000Y-109454333D02*
X134073333Y-109387666D01*
X134073333Y-109387666D02*
X134106667Y-109354333D01*
X134106667Y-109354333D02*
X134173333Y-109321000D01*
X134173333Y-109321000D02*
X134273333Y-109321000D01*
X134273333Y-109321000D02*
X134340000Y-109354333D01*
X134340000Y-109354333D02*
X134373333Y-109387666D01*
X134373333Y-109387666D02*
X134406667Y-109454333D01*
X134406667Y-109454333D02*
X134406667Y-109654333D01*
X134406667Y-109654333D02*
X134373333Y-109721000D01*
X134373333Y-109721000D02*
X134340000Y-109754333D01*
X134340000Y-109754333D02*
X134273333Y-109787666D01*
X134273333Y-109787666D02*
X134173333Y-109787666D01*
X134706666Y-109321000D02*
X134706666Y-110021000D01*
X134706666Y-109354333D02*
X134773333Y-109321000D01*
X134773333Y-109321000D02*
X134906666Y-109321000D01*
X134906666Y-109321000D02*
X134973333Y-109354333D01*
X134973333Y-109354333D02*
X135006666Y-109387666D01*
X135006666Y-109387666D02*
X135040000Y-109454333D01*
X135040000Y-109454333D02*
X135040000Y-109654333D01*
X135040000Y-109654333D02*
X135006666Y-109721000D01*
X135006666Y-109721000D02*
X134973333Y-109754333D01*
X134973333Y-109754333D02*
X134906666Y-109787666D01*
X134906666Y-109787666D02*
X134773333Y-109787666D01*
X134773333Y-109787666D02*
X134706666Y-109754333D01*
X135239999Y-109321000D02*
X135506666Y-109321000D01*
X135339999Y-109087666D02*
X135339999Y-109687666D01*
X135339999Y-109687666D02*
X135373333Y-109754333D01*
X135373333Y-109754333D02*
X135439999Y-109787666D01*
X135439999Y-109787666D02*
X135506666Y-109787666D01*
X135739999Y-109787666D02*
X135739999Y-109321000D01*
X135739999Y-109087666D02*
X135706666Y-109121000D01*
X135706666Y-109121000D02*
X135739999Y-109154333D01*
X135739999Y-109154333D02*
X135773333Y-109121000D01*
X135773333Y-109121000D02*
X135739999Y-109087666D01*
X135739999Y-109087666D02*
X135739999Y-109154333D01*
X136173332Y-109787666D02*
X136106666Y-109754333D01*
X136106666Y-109754333D02*
X136073332Y-109721000D01*
X136073332Y-109721000D02*
X136039999Y-109654333D01*
X136039999Y-109654333D02*
X136039999Y-109454333D01*
X136039999Y-109454333D02*
X136073332Y-109387666D01*
X136073332Y-109387666D02*
X136106666Y-109354333D01*
X136106666Y-109354333D02*
X136173332Y-109321000D01*
X136173332Y-109321000D02*
X136273332Y-109321000D01*
X136273332Y-109321000D02*
X136339999Y-109354333D01*
X136339999Y-109354333D02*
X136373332Y-109387666D01*
X136373332Y-109387666D02*
X136406666Y-109454333D01*
X136406666Y-109454333D02*
X136406666Y-109654333D01*
X136406666Y-109654333D02*
X136373332Y-109721000D01*
X136373332Y-109721000D02*
X136339999Y-109754333D01*
X136339999Y-109754333D02*
X136273332Y-109787666D01*
X136273332Y-109787666D02*
X136173332Y-109787666D01*
X136706665Y-109321000D02*
X136706665Y-109787666D01*
X136706665Y-109387666D02*
X136739999Y-109354333D01*
X136739999Y-109354333D02*
X136806665Y-109321000D01*
X136806665Y-109321000D02*
X136906665Y-109321000D01*
X136906665Y-109321000D02*
X136973332Y-109354333D01*
X136973332Y-109354333D02*
X137006665Y-109421000D01*
X137006665Y-109421000D02*
X137006665Y-109787666D01*
X137639998Y-109787666D02*
X137639998Y-109421000D01*
X137639998Y-109421000D02*
X137606665Y-109354333D01*
X137606665Y-109354333D02*
X137539998Y-109321000D01*
X137539998Y-109321000D02*
X137406665Y-109321000D01*
X137406665Y-109321000D02*
X137339998Y-109354333D01*
X137639998Y-109754333D02*
X137573332Y-109787666D01*
X137573332Y-109787666D02*
X137406665Y-109787666D01*
X137406665Y-109787666D02*
X137339998Y-109754333D01*
X137339998Y-109754333D02*
X137306665Y-109687666D01*
X137306665Y-109687666D02*
X137306665Y-109621000D01*
X137306665Y-109621000D02*
X137339998Y-109554333D01*
X137339998Y-109554333D02*
X137406665Y-109521000D01*
X137406665Y-109521000D02*
X137573332Y-109521000D01*
X137573332Y-109521000D02*
X137639998Y-109487666D01*
X138073331Y-109787666D02*
X138006665Y-109754333D01*
X138006665Y-109754333D02*
X137973331Y-109687666D01*
X137973331Y-109687666D02*
X137973331Y-109087666D01*
X138273332Y-110054333D02*
X138306665Y-110021000D01*
X138306665Y-110021000D02*
X138373332Y-109921000D01*
X138373332Y-109921000D02*
X138406665Y-109854333D01*
X138406665Y-109854333D02*
X138439998Y-109754333D01*
X138439998Y-109754333D02*
X138473332Y-109587666D01*
X138473332Y-109587666D02*
X138473332Y-109454333D01*
X138473332Y-109454333D02*
X138439998Y-109287666D01*
X138439998Y-109287666D02*
X138406665Y-109187666D01*
X138406665Y-109187666D02*
X138373332Y-109121000D01*
X138373332Y-109121000D02*
X138306665Y-109021000D01*
X138306665Y-109021000D02*
X138273332Y-108987666D01*
X125614333Y-78633333D02*
X125581000Y-78666666D01*
X125581000Y-78666666D02*
X125481000Y-78733333D01*
X125481000Y-78733333D02*
X125414333Y-78766666D01*
X125414333Y-78766666D02*
X125314333Y-78800000D01*
X125314333Y-78800000D02*
X125147666Y-78833333D01*
X125147666Y-78833333D02*
X125014333Y-78833333D01*
X125014333Y-78833333D02*
X124847666Y-78800000D01*
X124847666Y-78800000D02*
X124747666Y-78766666D01*
X124747666Y-78766666D02*
X124681000Y-78733333D01*
X124681000Y-78733333D02*
X124581000Y-78666666D01*
X124581000Y-78666666D02*
X124547666Y-78633333D01*
X125347666Y-78266666D02*
X125314333Y-78333333D01*
X125314333Y-78333333D02*
X125281000Y-78366666D01*
X125281000Y-78366666D02*
X125214333Y-78399999D01*
X125214333Y-78399999D02*
X125014333Y-78399999D01*
X125014333Y-78399999D02*
X124947666Y-78366666D01*
X124947666Y-78366666D02*
X124914333Y-78333333D01*
X124914333Y-78333333D02*
X124881000Y-78266666D01*
X124881000Y-78266666D02*
X124881000Y-78166666D01*
X124881000Y-78166666D02*
X124914333Y-78099999D01*
X124914333Y-78099999D02*
X124947666Y-78066666D01*
X124947666Y-78066666D02*
X125014333Y-78033333D01*
X125014333Y-78033333D02*
X125214333Y-78033333D01*
X125214333Y-78033333D02*
X125281000Y-78066666D01*
X125281000Y-78066666D02*
X125314333Y-78099999D01*
X125314333Y-78099999D02*
X125347666Y-78166666D01*
X125347666Y-78166666D02*
X125347666Y-78266666D01*
X124881000Y-77733333D02*
X125581000Y-77733333D01*
X124914333Y-77733333D02*
X124881000Y-77666666D01*
X124881000Y-77666666D02*
X124881000Y-77533333D01*
X124881000Y-77533333D02*
X124914333Y-77466666D01*
X124914333Y-77466666D02*
X124947666Y-77433333D01*
X124947666Y-77433333D02*
X125014333Y-77400000D01*
X125014333Y-77400000D02*
X125214333Y-77400000D01*
X125214333Y-77400000D02*
X125281000Y-77433333D01*
X125281000Y-77433333D02*
X125314333Y-77466666D01*
X125314333Y-77466666D02*
X125347666Y-77533333D01*
X125347666Y-77533333D02*
X125347666Y-77666666D01*
X125347666Y-77666666D02*
X125314333Y-77733333D01*
X124881000Y-77200000D02*
X124881000Y-76933333D01*
X124647666Y-77100000D02*
X125247666Y-77100000D01*
X125247666Y-77100000D02*
X125314333Y-77066667D01*
X125314333Y-77066667D02*
X125347666Y-77000000D01*
X125347666Y-77000000D02*
X125347666Y-76933333D01*
X125347666Y-76700000D02*
X124881000Y-76700000D01*
X124647666Y-76700000D02*
X124681000Y-76733333D01*
X124681000Y-76733333D02*
X124714333Y-76700000D01*
X124714333Y-76700000D02*
X124681000Y-76666667D01*
X124681000Y-76666667D02*
X124647666Y-76700000D01*
X124647666Y-76700000D02*
X124714333Y-76700000D01*
X125347666Y-76266667D02*
X125314333Y-76333334D01*
X125314333Y-76333334D02*
X125281000Y-76366667D01*
X125281000Y-76366667D02*
X125214333Y-76400000D01*
X125214333Y-76400000D02*
X125014333Y-76400000D01*
X125014333Y-76400000D02*
X124947666Y-76366667D01*
X124947666Y-76366667D02*
X124914333Y-76333334D01*
X124914333Y-76333334D02*
X124881000Y-76266667D01*
X124881000Y-76266667D02*
X124881000Y-76166667D01*
X124881000Y-76166667D02*
X124914333Y-76100000D01*
X124914333Y-76100000D02*
X124947666Y-76066667D01*
X124947666Y-76066667D02*
X125014333Y-76033334D01*
X125014333Y-76033334D02*
X125214333Y-76033334D01*
X125214333Y-76033334D02*
X125281000Y-76066667D01*
X125281000Y-76066667D02*
X125314333Y-76100000D01*
X125314333Y-76100000D02*
X125347666Y-76166667D01*
X125347666Y-76166667D02*
X125347666Y-76266667D01*
X124881000Y-75733334D02*
X125347666Y-75733334D01*
X124947666Y-75733334D02*
X124914333Y-75700001D01*
X124914333Y-75700001D02*
X124881000Y-75633334D01*
X124881000Y-75633334D02*
X124881000Y-75533334D01*
X124881000Y-75533334D02*
X124914333Y-75466667D01*
X124914333Y-75466667D02*
X124981000Y-75433334D01*
X124981000Y-75433334D02*
X125347666Y-75433334D01*
X125347666Y-74800001D02*
X124981000Y-74800001D01*
X124981000Y-74800001D02*
X124914333Y-74833334D01*
X124914333Y-74833334D02*
X124881000Y-74900001D01*
X124881000Y-74900001D02*
X124881000Y-75033334D01*
X124881000Y-75033334D02*
X124914333Y-75100001D01*
X125314333Y-74800001D02*
X125347666Y-74866668D01*
X125347666Y-74866668D02*
X125347666Y-75033334D01*
X125347666Y-75033334D02*
X125314333Y-75100001D01*
X125314333Y-75100001D02*
X125247666Y-75133334D01*
X125247666Y-75133334D02*
X125181000Y-75133334D01*
X125181000Y-75133334D02*
X125114333Y-75100001D01*
X125114333Y-75100001D02*
X125081000Y-75033334D01*
X125081000Y-75033334D02*
X125081000Y-74866668D01*
X125081000Y-74866668D02*
X125047666Y-74800001D01*
X125347666Y-74366668D02*
X125314333Y-74433335D01*
X125314333Y-74433335D02*
X125247666Y-74466668D01*
X125247666Y-74466668D02*
X124647666Y-74466668D01*
X125614333Y-74166668D02*
X125581000Y-74133334D01*
X125581000Y-74133334D02*
X125481000Y-74066668D01*
X125481000Y-74066668D02*
X125414333Y-74033334D01*
X125414333Y-74033334D02*
X125314333Y-74000001D01*
X125314333Y-74000001D02*
X125147666Y-73966668D01*
X125147666Y-73966668D02*
X125014333Y-73966668D01*
X125014333Y-73966668D02*
X124847666Y-74000001D01*
X124847666Y-74000001D02*
X124747666Y-74033334D01*
X124747666Y-74033334D02*
X124681000Y-74066668D01*
X124681000Y-74066668D02*
X124581000Y-74133334D01*
X124581000Y-74133334D02*
X124547666Y-74166668D01*
X120814333Y-76233333D02*
X120781000Y-76266666D01*
X120781000Y-76266666D02*
X120681000Y-76333333D01*
X120681000Y-76333333D02*
X120614333Y-76366666D01*
X120614333Y-76366666D02*
X120514333Y-76400000D01*
X120514333Y-76400000D02*
X120347666Y-76433333D01*
X120347666Y-76433333D02*
X120214333Y-76433333D01*
X120214333Y-76433333D02*
X120047666Y-76400000D01*
X120047666Y-76400000D02*
X119947666Y-76366666D01*
X119947666Y-76366666D02*
X119881000Y-76333333D01*
X119881000Y-76333333D02*
X119781000Y-76266666D01*
X119781000Y-76266666D02*
X119747666Y-76233333D01*
X120547666Y-75866666D02*
X120514333Y-75933333D01*
X120514333Y-75933333D02*
X120481000Y-75966666D01*
X120481000Y-75966666D02*
X120414333Y-75999999D01*
X120414333Y-75999999D02*
X120214333Y-75999999D01*
X120214333Y-75999999D02*
X120147666Y-75966666D01*
X120147666Y-75966666D02*
X120114333Y-75933333D01*
X120114333Y-75933333D02*
X120081000Y-75866666D01*
X120081000Y-75866666D02*
X120081000Y-75766666D01*
X120081000Y-75766666D02*
X120114333Y-75699999D01*
X120114333Y-75699999D02*
X120147666Y-75666666D01*
X120147666Y-75666666D02*
X120214333Y-75633333D01*
X120214333Y-75633333D02*
X120414333Y-75633333D01*
X120414333Y-75633333D02*
X120481000Y-75666666D01*
X120481000Y-75666666D02*
X120514333Y-75699999D01*
X120514333Y-75699999D02*
X120547666Y-75766666D01*
X120547666Y-75766666D02*
X120547666Y-75866666D01*
X120081000Y-75333333D02*
X120781000Y-75333333D01*
X120114333Y-75333333D02*
X120081000Y-75266666D01*
X120081000Y-75266666D02*
X120081000Y-75133333D01*
X120081000Y-75133333D02*
X120114333Y-75066666D01*
X120114333Y-75066666D02*
X120147666Y-75033333D01*
X120147666Y-75033333D02*
X120214333Y-75000000D01*
X120214333Y-75000000D02*
X120414333Y-75000000D01*
X120414333Y-75000000D02*
X120481000Y-75033333D01*
X120481000Y-75033333D02*
X120514333Y-75066666D01*
X120514333Y-75066666D02*
X120547666Y-75133333D01*
X120547666Y-75133333D02*
X120547666Y-75266666D01*
X120547666Y-75266666D02*
X120514333Y-75333333D01*
X120081000Y-74800000D02*
X120081000Y-74533333D01*
X119847666Y-74700000D02*
X120447666Y-74700000D01*
X120447666Y-74700000D02*
X120514333Y-74666667D01*
X120514333Y-74666667D02*
X120547666Y-74600000D01*
X120547666Y-74600000D02*
X120547666Y-74533333D01*
X120547666Y-74300000D02*
X120081000Y-74300000D01*
X119847666Y-74300000D02*
X119881000Y-74333333D01*
X119881000Y-74333333D02*
X119914333Y-74300000D01*
X119914333Y-74300000D02*
X119881000Y-74266667D01*
X119881000Y-74266667D02*
X119847666Y-74300000D01*
X119847666Y-74300000D02*
X119914333Y-74300000D01*
X120547666Y-73866667D02*
X120514333Y-73933334D01*
X120514333Y-73933334D02*
X120481000Y-73966667D01*
X120481000Y-73966667D02*
X120414333Y-74000000D01*
X120414333Y-74000000D02*
X120214333Y-74000000D01*
X120214333Y-74000000D02*
X120147666Y-73966667D01*
X120147666Y-73966667D02*
X120114333Y-73933334D01*
X120114333Y-73933334D02*
X120081000Y-73866667D01*
X120081000Y-73866667D02*
X120081000Y-73766667D01*
X120081000Y-73766667D02*
X120114333Y-73700000D01*
X120114333Y-73700000D02*
X120147666Y-73666667D01*
X120147666Y-73666667D02*
X120214333Y-73633334D01*
X120214333Y-73633334D02*
X120414333Y-73633334D01*
X120414333Y-73633334D02*
X120481000Y-73666667D01*
X120481000Y-73666667D02*
X120514333Y-73700000D01*
X120514333Y-73700000D02*
X120547666Y-73766667D01*
X120547666Y-73766667D02*
X120547666Y-73866667D01*
X120081000Y-73333334D02*
X120547666Y-73333334D01*
X120147666Y-73333334D02*
X120114333Y-73300001D01*
X120114333Y-73300001D02*
X120081000Y-73233334D01*
X120081000Y-73233334D02*
X120081000Y-73133334D01*
X120081000Y-73133334D02*
X120114333Y-73066667D01*
X120114333Y-73066667D02*
X120181000Y-73033334D01*
X120181000Y-73033334D02*
X120547666Y-73033334D01*
X120547666Y-72400001D02*
X120181000Y-72400001D01*
X120181000Y-72400001D02*
X120114333Y-72433334D01*
X120114333Y-72433334D02*
X120081000Y-72500001D01*
X120081000Y-72500001D02*
X120081000Y-72633334D01*
X120081000Y-72633334D02*
X120114333Y-72700001D01*
X120514333Y-72400001D02*
X120547666Y-72466668D01*
X120547666Y-72466668D02*
X120547666Y-72633334D01*
X120547666Y-72633334D02*
X120514333Y-72700001D01*
X120514333Y-72700001D02*
X120447666Y-72733334D01*
X120447666Y-72733334D02*
X120381000Y-72733334D01*
X120381000Y-72733334D02*
X120314333Y-72700001D01*
X120314333Y-72700001D02*
X120281000Y-72633334D01*
X120281000Y-72633334D02*
X120281000Y-72466668D01*
X120281000Y-72466668D02*
X120247666Y-72400001D01*
X120547666Y-71966668D02*
X120514333Y-72033335D01*
X120514333Y-72033335D02*
X120447666Y-72066668D01*
X120447666Y-72066668D02*
X119847666Y-72066668D01*
X120814333Y-71766668D02*
X120781000Y-71733334D01*
X120781000Y-71733334D02*
X120681000Y-71666668D01*
X120681000Y-71666668D02*
X120614333Y-71633334D01*
X120614333Y-71633334D02*
X120514333Y-71600001D01*
X120514333Y-71600001D02*
X120347666Y-71566668D01*
X120347666Y-71566668D02*
X120214333Y-71566668D01*
X120214333Y-71566668D02*
X120047666Y-71600001D01*
X120047666Y-71600001D02*
X119947666Y-71633334D01*
X119947666Y-71633334D02*
X119881000Y-71666668D01*
X119881000Y-71666668D02*
X119781000Y-71733334D01*
X119781000Y-71733334D02*
X119747666Y-71766668D01*
X129814333Y-78733333D02*
X129781000Y-78766666D01*
X129781000Y-78766666D02*
X129681000Y-78833333D01*
X129681000Y-78833333D02*
X129614333Y-78866666D01*
X129614333Y-78866666D02*
X129514333Y-78900000D01*
X129514333Y-78900000D02*
X129347666Y-78933333D01*
X129347666Y-78933333D02*
X129214333Y-78933333D01*
X129214333Y-78933333D02*
X129047666Y-78900000D01*
X129047666Y-78900000D02*
X128947666Y-78866666D01*
X128947666Y-78866666D02*
X128881000Y-78833333D01*
X128881000Y-78833333D02*
X128781000Y-78766666D01*
X128781000Y-78766666D02*
X128747666Y-78733333D01*
X129547666Y-78366666D02*
X129514333Y-78433333D01*
X129514333Y-78433333D02*
X129481000Y-78466666D01*
X129481000Y-78466666D02*
X129414333Y-78499999D01*
X129414333Y-78499999D02*
X129214333Y-78499999D01*
X129214333Y-78499999D02*
X129147666Y-78466666D01*
X129147666Y-78466666D02*
X129114333Y-78433333D01*
X129114333Y-78433333D02*
X129081000Y-78366666D01*
X129081000Y-78366666D02*
X129081000Y-78266666D01*
X129081000Y-78266666D02*
X129114333Y-78199999D01*
X129114333Y-78199999D02*
X129147666Y-78166666D01*
X129147666Y-78166666D02*
X129214333Y-78133333D01*
X129214333Y-78133333D02*
X129414333Y-78133333D01*
X129414333Y-78133333D02*
X129481000Y-78166666D01*
X129481000Y-78166666D02*
X129514333Y-78199999D01*
X129514333Y-78199999D02*
X129547666Y-78266666D01*
X129547666Y-78266666D02*
X129547666Y-78366666D01*
X129081000Y-77833333D02*
X129781000Y-77833333D01*
X129114333Y-77833333D02*
X129081000Y-77766666D01*
X129081000Y-77766666D02*
X129081000Y-77633333D01*
X129081000Y-77633333D02*
X129114333Y-77566666D01*
X129114333Y-77566666D02*
X129147666Y-77533333D01*
X129147666Y-77533333D02*
X129214333Y-77500000D01*
X129214333Y-77500000D02*
X129414333Y-77500000D01*
X129414333Y-77500000D02*
X129481000Y-77533333D01*
X129481000Y-77533333D02*
X129514333Y-77566666D01*
X129514333Y-77566666D02*
X129547666Y-77633333D01*
X129547666Y-77633333D02*
X129547666Y-77766666D01*
X129547666Y-77766666D02*
X129514333Y-77833333D01*
X129081000Y-77300000D02*
X129081000Y-77033333D01*
X128847666Y-77200000D02*
X129447666Y-77200000D01*
X129447666Y-77200000D02*
X129514333Y-77166667D01*
X129514333Y-77166667D02*
X129547666Y-77100000D01*
X129547666Y-77100000D02*
X129547666Y-77033333D01*
X129547666Y-76800000D02*
X129081000Y-76800000D01*
X128847666Y-76800000D02*
X128881000Y-76833333D01*
X128881000Y-76833333D02*
X128914333Y-76800000D01*
X128914333Y-76800000D02*
X128881000Y-76766667D01*
X128881000Y-76766667D02*
X128847666Y-76800000D01*
X128847666Y-76800000D02*
X128914333Y-76800000D01*
X129547666Y-76366667D02*
X129514333Y-76433334D01*
X129514333Y-76433334D02*
X129481000Y-76466667D01*
X129481000Y-76466667D02*
X129414333Y-76500000D01*
X129414333Y-76500000D02*
X129214333Y-76500000D01*
X129214333Y-76500000D02*
X129147666Y-76466667D01*
X129147666Y-76466667D02*
X129114333Y-76433334D01*
X129114333Y-76433334D02*
X129081000Y-76366667D01*
X129081000Y-76366667D02*
X129081000Y-76266667D01*
X129081000Y-76266667D02*
X129114333Y-76200000D01*
X129114333Y-76200000D02*
X129147666Y-76166667D01*
X129147666Y-76166667D02*
X129214333Y-76133334D01*
X129214333Y-76133334D02*
X129414333Y-76133334D01*
X129414333Y-76133334D02*
X129481000Y-76166667D01*
X129481000Y-76166667D02*
X129514333Y-76200000D01*
X129514333Y-76200000D02*
X129547666Y-76266667D01*
X129547666Y-76266667D02*
X129547666Y-76366667D01*
X129081000Y-75833334D02*
X129547666Y-75833334D01*
X129147666Y-75833334D02*
X129114333Y-75800001D01*
X129114333Y-75800001D02*
X129081000Y-75733334D01*
X129081000Y-75733334D02*
X129081000Y-75633334D01*
X129081000Y-75633334D02*
X129114333Y-75566667D01*
X129114333Y-75566667D02*
X129181000Y-75533334D01*
X129181000Y-75533334D02*
X129547666Y-75533334D01*
X129547666Y-74900001D02*
X129181000Y-74900001D01*
X129181000Y-74900001D02*
X129114333Y-74933334D01*
X129114333Y-74933334D02*
X129081000Y-75000001D01*
X129081000Y-75000001D02*
X129081000Y-75133334D01*
X129081000Y-75133334D02*
X129114333Y-75200001D01*
X129514333Y-74900001D02*
X129547666Y-74966668D01*
X129547666Y-74966668D02*
X129547666Y-75133334D01*
X129547666Y-75133334D02*
X129514333Y-75200001D01*
X129514333Y-75200001D02*
X129447666Y-75233334D01*
X129447666Y-75233334D02*
X129381000Y-75233334D01*
X129381000Y-75233334D02*
X129314333Y-75200001D01*
X129314333Y-75200001D02*
X129281000Y-75133334D01*
X129281000Y-75133334D02*
X129281000Y-74966668D01*
X129281000Y-74966668D02*
X129247666Y-74900001D01*
X129547666Y-74466668D02*
X129514333Y-74533335D01*
X129514333Y-74533335D02*
X129447666Y-74566668D01*
X129447666Y-74566668D02*
X128847666Y-74566668D01*
X129814333Y-74266668D02*
X129781000Y-74233334D01*
X129781000Y-74233334D02*
X129681000Y-74166668D01*
X129681000Y-74166668D02*
X129614333Y-74133334D01*
X129614333Y-74133334D02*
X129514333Y-74100001D01*
X129514333Y-74100001D02*
X129347666Y-74066668D01*
X129347666Y-74066668D02*
X129214333Y-74066668D01*
X129214333Y-74066668D02*
X129047666Y-74100001D01*
X129047666Y-74100001D02*
X128947666Y-74133334D01*
X128947666Y-74133334D02*
X128881000Y-74166668D01*
X128881000Y-74166668D02*
X128781000Y-74233334D01*
X128781000Y-74233334D02*
X128747666Y-74266668D01*
X144366666Y-72347666D02*
X144366666Y-71647666D01*
X144366666Y-71647666D02*
X144766666Y-72347666D01*
X144766666Y-72347666D02*
X144766666Y-71647666D01*
X145366666Y-72314333D02*
X145299999Y-72347666D01*
X145299999Y-72347666D02*
X145166666Y-72347666D01*
X145166666Y-72347666D02*
X145099999Y-72314333D01*
X145099999Y-72314333D02*
X145066666Y-72247666D01*
X145066666Y-72247666D02*
X145066666Y-71981000D01*
X145066666Y-71981000D02*
X145099999Y-71914333D01*
X145099999Y-71914333D02*
X145166666Y-71881000D01*
X145166666Y-71881000D02*
X145299999Y-71881000D01*
X145299999Y-71881000D02*
X145366666Y-71914333D01*
X145366666Y-71914333D02*
X145399999Y-71981000D01*
X145399999Y-71981000D02*
X145399999Y-72047666D01*
X145399999Y-72047666D02*
X145066666Y-72114333D01*
X145999999Y-71881000D02*
X145999999Y-72447666D01*
X145999999Y-72447666D02*
X145966666Y-72514333D01*
X145966666Y-72514333D02*
X145933333Y-72547666D01*
X145933333Y-72547666D02*
X145866666Y-72581000D01*
X145866666Y-72581000D02*
X145766666Y-72581000D01*
X145766666Y-72581000D02*
X145699999Y-72547666D01*
X145999999Y-72314333D02*
X145933333Y-72347666D01*
X145933333Y-72347666D02*
X145799999Y-72347666D01*
X145799999Y-72347666D02*
X145733333Y-72314333D01*
X145733333Y-72314333D02*
X145699999Y-72281000D01*
X145699999Y-72281000D02*
X145666666Y-72214333D01*
X145666666Y-72214333D02*
X145666666Y-72014333D01*
X145666666Y-72014333D02*
X145699999Y-71947666D01*
X145699999Y-71947666D02*
X145733333Y-71914333D01*
X145733333Y-71914333D02*
X145799999Y-71881000D01*
X145799999Y-71881000D02*
X145933333Y-71881000D01*
X145933333Y-71881000D02*
X145999999Y-71914333D01*
X146166666Y-72414333D02*
X146699999Y-72414333D01*
X147199999Y-72347666D02*
X146866665Y-72347666D01*
X146866665Y-72347666D02*
X146866665Y-71647666D01*
X147433332Y-71981000D02*
X147666666Y-71981000D01*
X147766666Y-72347666D02*
X147433332Y-72347666D01*
X147433332Y-72347666D02*
X147433332Y-71647666D01*
X147433332Y-71647666D02*
X147766666Y-71647666D01*
X148066665Y-72347666D02*
X148066665Y-71647666D01*
X148066665Y-71647666D02*
X148233332Y-71647666D01*
X148233332Y-71647666D02*
X148333332Y-71681000D01*
X148333332Y-71681000D02*
X148399999Y-71747666D01*
X148399999Y-71747666D02*
X148433332Y-71814333D01*
X148433332Y-71814333D02*
X148466665Y-71947666D01*
X148466665Y-71947666D02*
X148466665Y-72047666D01*
X148466665Y-72047666D02*
X148433332Y-72181000D01*
X148433332Y-72181000D02*
X148399999Y-72247666D01*
X148399999Y-72247666D02*
X148333332Y-72314333D01*
X148333332Y-72314333D02*
X148233332Y-72347666D01*
X148233332Y-72347666D02*
X148066665Y-72347666D01*
X144566666Y-65247666D02*
X144566666Y-64547666D01*
X144566666Y-64547666D02*
X144833333Y-64547666D01*
X144833333Y-64547666D02*
X144900000Y-64581000D01*
X144900000Y-64581000D02*
X144933333Y-64614333D01*
X144933333Y-64614333D02*
X144966666Y-64681000D01*
X144966666Y-64681000D02*
X144966666Y-64781000D01*
X144966666Y-64781000D02*
X144933333Y-64847666D01*
X144933333Y-64847666D02*
X144900000Y-64881000D01*
X144900000Y-64881000D02*
X144833333Y-64914333D01*
X144833333Y-64914333D02*
X144566666Y-64914333D01*
X145366666Y-65247666D02*
X145300000Y-65214333D01*
X145300000Y-65214333D02*
X145266666Y-65181000D01*
X145266666Y-65181000D02*
X145233333Y-65114333D01*
X145233333Y-65114333D02*
X145233333Y-64914333D01*
X145233333Y-64914333D02*
X145266666Y-64847666D01*
X145266666Y-64847666D02*
X145300000Y-64814333D01*
X145300000Y-64814333D02*
X145366666Y-64781000D01*
X145366666Y-64781000D02*
X145466666Y-64781000D01*
X145466666Y-64781000D02*
X145533333Y-64814333D01*
X145533333Y-64814333D02*
X145566666Y-64847666D01*
X145566666Y-64847666D02*
X145600000Y-64914333D01*
X145600000Y-64914333D02*
X145600000Y-65114333D01*
X145600000Y-65114333D02*
X145566666Y-65181000D01*
X145566666Y-65181000D02*
X145533333Y-65214333D01*
X145533333Y-65214333D02*
X145466666Y-65247666D01*
X145466666Y-65247666D02*
X145366666Y-65247666D01*
X145866666Y-65214333D02*
X145933333Y-65247666D01*
X145933333Y-65247666D02*
X146066666Y-65247666D01*
X146066666Y-65247666D02*
X146133333Y-65214333D01*
X146133333Y-65214333D02*
X146166666Y-65147666D01*
X146166666Y-65147666D02*
X146166666Y-65114333D01*
X146166666Y-65114333D02*
X146133333Y-65047666D01*
X146133333Y-65047666D02*
X146066666Y-65014333D01*
X146066666Y-65014333D02*
X145966666Y-65014333D01*
X145966666Y-65014333D02*
X145899999Y-64981000D01*
X145899999Y-64981000D02*
X145866666Y-64914333D01*
X145866666Y-64914333D02*
X145866666Y-64881000D01*
X145866666Y-64881000D02*
X145899999Y-64814333D01*
X145899999Y-64814333D02*
X145966666Y-64781000D01*
X145966666Y-64781000D02*
X146066666Y-64781000D01*
X146066666Y-64781000D02*
X146133333Y-64814333D01*
X146300000Y-65314333D02*
X146833333Y-65314333D01*
X147333333Y-65247666D02*
X146999999Y-65247666D01*
X146999999Y-65247666D02*
X146999999Y-64547666D01*
X147566666Y-64881000D02*
X147800000Y-64881000D01*
X147900000Y-65247666D02*
X147566666Y-65247666D01*
X147566666Y-65247666D02*
X147566666Y-64547666D01*
X147566666Y-64547666D02*
X147900000Y-64547666D01*
X148199999Y-65247666D02*
X148199999Y-64547666D01*
X148199999Y-64547666D02*
X148366666Y-64547666D01*
X148366666Y-64547666D02*
X148466666Y-64581000D01*
X148466666Y-64581000D02*
X148533333Y-64647666D01*
X148533333Y-64647666D02*
X148566666Y-64714333D01*
X148566666Y-64714333D02*
X148599999Y-64847666D01*
X148599999Y-64847666D02*
X148599999Y-64947666D01*
X148599999Y-64947666D02*
X148566666Y-65081000D01*
X148566666Y-65081000D02*
X148533333Y-65147666D01*
X148533333Y-65147666D02*
X148466666Y-65214333D01*
X148466666Y-65214333D02*
X148366666Y-65247666D01*
X148366666Y-65247666D02*
X148199999Y-65247666D01*
X121742857Y-111962380D02*
X121171429Y-111962380D01*
X121457143Y-111962380D02*
X121457143Y-110962380D01*
X121457143Y-110962380D02*
X121361905Y-111105238D01*
X121361905Y-111105238D02*
X121266667Y-111200476D01*
X121266667Y-111200476D02*
X121171429Y-111248095D01*
X122171429Y-111867142D02*
X122219048Y-111914761D01*
X122219048Y-111914761D02*
X122171429Y-111962380D01*
X122171429Y-111962380D02*
X122123810Y-111914761D01*
X122123810Y-111914761D02*
X122171429Y-111867142D01*
X122171429Y-111867142D02*
X122171429Y-111962380D01*
X123076190Y-110962380D02*
X122885714Y-110962380D01*
X122885714Y-110962380D02*
X122790476Y-111010000D01*
X122790476Y-111010000D02*
X122742857Y-111057619D01*
X122742857Y-111057619D02*
X122647619Y-111200476D01*
X122647619Y-111200476D02*
X122600000Y-111390952D01*
X122600000Y-111390952D02*
X122600000Y-111771904D01*
X122600000Y-111771904D02*
X122647619Y-111867142D01*
X122647619Y-111867142D02*
X122695238Y-111914761D01*
X122695238Y-111914761D02*
X122790476Y-111962380D01*
X122790476Y-111962380D02*
X122980952Y-111962380D01*
X122980952Y-111962380D02*
X123076190Y-111914761D01*
X123076190Y-111914761D02*
X123123809Y-111867142D01*
X123123809Y-111867142D02*
X123171428Y-111771904D01*
X123171428Y-111771904D02*
X123171428Y-111533809D01*
X123171428Y-111533809D02*
X123123809Y-111438571D01*
X123123809Y-111438571D02*
X123076190Y-111390952D01*
X123076190Y-111390952D02*
X122980952Y-111343333D01*
X122980952Y-111343333D02*
X122790476Y-111343333D01*
X122790476Y-111343333D02*
X122695238Y-111390952D01*
X122695238Y-111390952D02*
X122647619Y-111438571D01*
X122647619Y-111438571D02*
X122600000Y-111533809D01*
X123457143Y-110962380D02*
X123790476Y-111962380D01*
X123790476Y-111962380D02*
X124123809Y-110962380D01*
X120933333Y-113963333D02*
X120885714Y-113915714D01*
X120885714Y-113915714D02*
X120790476Y-113772857D01*
X120790476Y-113772857D02*
X120742857Y-113677619D01*
X120742857Y-113677619D02*
X120695238Y-113534761D01*
X120695238Y-113534761D02*
X120647619Y-113296666D01*
X120647619Y-113296666D02*
X120647619Y-113106190D01*
X120647619Y-113106190D02*
X120695238Y-112868095D01*
X120695238Y-112868095D02*
X120742857Y-112725238D01*
X120742857Y-112725238D02*
X120790476Y-112630000D01*
X120790476Y-112630000D02*
X120885714Y-112487142D01*
X120885714Y-112487142D02*
X120933333Y-112439523D01*
X121838095Y-112630000D02*
X121742857Y-112582380D01*
X121742857Y-112582380D02*
X121600000Y-112582380D01*
X121600000Y-112582380D02*
X121457143Y-112630000D01*
X121457143Y-112630000D02*
X121361905Y-112725238D01*
X121361905Y-112725238D02*
X121314286Y-112820476D01*
X121314286Y-112820476D02*
X121266667Y-113010952D01*
X121266667Y-113010952D02*
X121266667Y-113153809D01*
X121266667Y-113153809D02*
X121314286Y-113344285D01*
X121314286Y-113344285D02*
X121361905Y-113439523D01*
X121361905Y-113439523D02*
X121457143Y-113534761D01*
X121457143Y-113534761D02*
X121600000Y-113582380D01*
X121600000Y-113582380D02*
X121695238Y-113582380D01*
X121695238Y-113582380D02*
X121838095Y-113534761D01*
X121838095Y-113534761D02*
X121885714Y-113487142D01*
X121885714Y-113487142D02*
X121885714Y-113153809D01*
X121885714Y-113153809D02*
X121695238Y-113153809D01*
X122314286Y-113582380D02*
X122314286Y-112582380D01*
X122314286Y-112582380D02*
X122885714Y-113582380D01*
X122885714Y-113582380D02*
X122885714Y-112582380D01*
X123361905Y-113582380D02*
X123361905Y-112582380D01*
X123361905Y-112582380D02*
X123600000Y-112582380D01*
X123600000Y-112582380D02*
X123742857Y-112630000D01*
X123742857Y-112630000D02*
X123838095Y-112725238D01*
X123838095Y-112725238D02*
X123885714Y-112820476D01*
X123885714Y-112820476D02*
X123933333Y-113010952D01*
X123933333Y-113010952D02*
X123933333Y-113153809D01*
X123933333Y-113153809D02*
X123885714Y-113344285D01*
X123885714Y-113344285D02*
X123838095Y-113439523D01*
X123838095Y-113439523D02*
X123742857Y-113534761D01*
X123742857Y-113534761D02*
X123600000Y-113582380D01*
X123600000Y-113582380D02*
X123361905Y-113582380D01*
X124266667Y-113963333D02*
X124314286Y-113915714D01*
X124314286Y-113915714D02*
X124409524Y-113772857D01*
X124409524Y-113772857D02*
X124457143Y-113677619D01*
X124457143Y-113677619D02*
X124504762Y-113534761D01*
X124504762Y-113534761D02*
X124552381Y-113296666D01*
X124552381Y-113296666D02*
X124552381Y-113106190D01*
X124552381Y-113106190D02*
X124504762Y-112868095D01*
X124504762Y-112868095D02*
X124457143Y-112725238D01*
X124457143Y-112725238D02*
X124409524Y-112630000D01*
X124409524Y-112630000D02*
X124314286Y-112487142D01*
X124314286Y-112487142D02*
X124266667Y-112439523D01*
X133250000Y-110500000D02*
X134050000Y-110550000D01*
X145600000Y-66500000D02*
X146600000Y-66500000D01*
X146500000Y-67850000D02*
X146500000Y-69350000D01*
X146000000Y-67500000D02*
X145750000Y-67500000D01*
X138250000Y-113000000D02*
X139750000Y-113000000D01*
X134050000Y-112500000D02*
X134050000Y-117500000D01*
X146700000Y-69300000D02*
X146700000Y-71300000D01*
X144250000Y-68600000D02*
X147750000Y-68600000D01*
X134050000Y-118475000D02*
X133340000Y-118450000D01*
X139750000Y-113000000D02*
X139750000Y-117000000D01*
X145500000Y-67850000D02*
X145500000Y-69350000D01*
X145675000Y-71400000D02*
X145675000Y-71650000D01*
X137050000Y-113100000D02*
X137050000Y-116900000D01*
X145925000Y-71400000D02*
X145675000Y-71400000D01*
X146000000Y-67750000D02*
X146000000Y-67500000D01*
X145750000Y-67500000D02*
X145750000Y-67750000D01*
X145750000Y-67750000D02*
X146000000Y-67750000D01*
X145500000Y-68725000D02*
X146500000Y-67850000D01*
X133250000Y-111500000D02*
X133250000Y-110500000D01*
X145675000Y-71650000D02*
X145925000Y-71650000D01*
X146700000Y-65500000D02*
X146700000Y-67400000D01*
X134050000Y-111525000D02*
X133250000Y-111500000D01*
X133250000Y-119500000D02*
X133240000Y-118450000D01*
X145925000Y-71650000D02*
X145925000Y-71400000D01*
X145600000Y-70400000D02*
X146600000Y-70400000D01*
X134050000Y-119450000D02*
X133250000Y-119500000D01*
X146500000Y-69350000D02*
X145500000Y-68350000D01*
X139000000Y-113000000D02*
X139000000Y-117000000D01*
X139750000Y-117000000D02*
X138250000Y-117000000D01*
D11*
X112614285Y-68573571D02*
X112114285Y-67859285D01*
X111757142Y-68573571D02*
X111757142Y-67073571D01*
X111757142Y-67073571D02*
X112328571Y-67073571D01*
X112328571Y-67073571D02*
X112471428Y-67145000D01*
X112471428Y-67145000D02*
X112542857Y-67216428D01*
X112542857Y-67216428D02*
X112614285Y-67359285D01*
X112614285Y-67359285D02*
X112614285Y-67573571D01*
X112614285Y-67573571D02*
X112542857Y-67716428D01*
X112542857Y-67716428D02*
X112471428Y-67787857D01*
X112471428Y-67787857D02*
X112328571Y-67859285D01*
X112328571Y-67859285D02*
X111757142Y-67859285D01*
X113257142Y-67787857D02*
X113757142Y-67787857D01*
X113971428Y-68573571D02*
X113257142Y-68573571D01*
X113257142Y-68573571D02*
X113257142Y-67073571D01*
X113257142Y-67073571D02*
X113971428Y-67073571D01*
X114542857Y-68502142D02*
X114757143Y-68573571D01*
X114757143Y-68573571D02*
X115114285Y-68573571D01*
X115114285Y-68573571D02*
X115257143Y-68502142D01*
X115257143Y-68502142D02*
X115328571Y-68430714D01*
X115328571Y-68430714D02*
X115400000Y-68287857D01*
X115400000Y-68287857D02*
X115400000Y-68145000D01*
X115400000Y-68145000D02*
X115328571Y-68002142D01*
X115328571Y-68002142D02*
X115257143Y-67930714D01*
X115257143Y-67930714D02*
X115114285Y-67859285D01*
X115114285Y-67859285D02*
X114828571Y-67787857D01*
X114828571Y-67787857D02*
X114685714Y-67716428D01*
X114685714Y-67716428D02*
X114614285Y-67645000D01*
X114614285Y-67645000D02*
X114542857Y-67502142D01*
X114542857Y-67502142D02*
X114542857Y-67359285D01*
X114542857Y-67359285D02*
X114614285Y-67216428D01*
X114614285Y-67216428D02*
X114685714Y-67145000D01*
X114685714Y-67145000D02*
X114828571Y-67073571D01*
X114828571Y-67073571D02*
X115185714Y-67073571D01*
X115185714Y-67073571D02*
X115400000Y-67145000D01*
X116042856Y-67787857D02*
X116542856Y-67787857D01*
X116757142Y-68573571D02*
X116042856Y-68573571D01*
X116042856Y-68573571D02*
X116042856Y-67073571D01*
X116042856Y-67073571D02*
X116757142Y-67073571D01*
X117185714Y-67073571D02*
X118042857Y-67073571D01*
X117614285Y-68573571D02*
X117614285Y-67073571D01*
D10*
X143102142Y-71642857D02*
X143102142Y-70500000D01*
X143102142Y-67085714D02*
X143102142Y-65942857D01*
X143673571Y-66514285D02*
X142530714Y-66514285D01*
X113059523Y-83282380D02*
X112726190Y-82806190D01*
X112488095Y-83282380D02*
X112488095Y-82282380D01*
X112488095Y-82282380D02*
X112869047Y-82282380D01*
X112869047Y-82282380D02*
X112964285Y-82330000D01*
X112964285Y-82330000D02*
X113011904Y-82377619D01*
X113011904Y-82377619D02*
X113059523Y-82472857D01*
X113059523Y-82472857D02*
X113059523Y-82615714D01*
X113059523Y-82615714D02*
X113011904Y-82710952D01*
X113011904Y-82710952D02*
X112964285Y-82758571D01*
X112964285Y-82758571D02*
X112869047Y-82806190D01*
X112869047Y-82806190D02*
X112488095Y-82806190D01*
X113916666Y-82615714D02*
X113916666Y-83282380D01*
X113678571Y-82234761D02*
X113440476Y-82949047D01*
X113440476Y-82949047D02*
X114059523Y-82949047D01*
X114297619Y-82901428D02*
X114345238Y-82853809D01*
X114345238Y-82853809D02*
X114440476Y-82806190D01*
X114440476Y-82806190D02*
X114630952Y-82901428D01*
X114630952Y-82901428D02*
X114726190Y-82853809D01*
X114726190Y-82853809D02*
X114773809Y-82806190D01*
X115726190Y-83282380D02*
X115392857Y-82806190D01*
X115154762Y-83282380D02*
X115154762Y-82282380D01*
X115154762Y-82282380D02*
X115535714Y-82282380D01*
X115535714Y-82282380D02*
X115630952Y-82330000D01*
X115630952Y-82330000D02*
X115678571Y-82377619D01*
X115678571Y-82377619D02*
X115726190Y-82472857D01*
X115726190Y-82472857D02*
X115726190Y-82615714D01*
X115726190Y-82615714D02*
X115678571Y-82710952D01*
X115678571Y-82710952D02*
X115630952Y-82758571D01*
X115630952Y-82758571D02*
X115535714Y-82806190D01*
X115535714Y-82806190D02*
X115154762Y-82806190D01*
X116678571Y-83282380D02*
X116107143Y-83282380D01*
X116392857Y-83282380D02*
X116392857Y-82282380D01*
X116392857Y-82282380D02*
X116297619Y-82425238D01*
X116297619Y-82425238D02*
X116202381Y-82520476D01*
X116202381Y-82520476D02*
X116107143Y-82568095D01*
X117535714Y-82282380D02*
X117345238Y-82282380D01*
X117345238Y-82282380D02*
X117250000Y-82330000D01*
X117250000Y-82330000D02*
X117202381Y-82377619D01*
X117202381Y-82377619D02*
X117107143Y-82520476D01*
X117107143Y-82520476D02*
X117059524Y-82710952D01*
X117059524Y-82710952D02*
X117059524Y-83091904D01*
X117059524Y-83091904D02*
X117107143Y-83187142D01*
X117107143Y-83187142D02*
X117154762Y-83234761D01*
X117154762Y-83234761D02*
X117250000Y-83282380D01*
X117250000Y-83282380D02*
X117440476Y-83282380D01*
X117440476Y-83282380D02*
X117535714Y-83234761D01*
X117535714Y-83234761D02*
X117583333Y-83187142D01*
X117583333Y-83187142D02*
X117630952Y-83091904D01*
X117630952Y-83091904D02*
X117630952Y-82853809D01*
X117630952Y-82853809D02*
X117583333Y-82758571D01*
X117583333Y-82758571D02*
X117535714Y-82710952D01*
X117535714Y-82710952D02*
X117440476Y-82663333D01*
X117440476Y-82663333D02*
X117250000Y-82663333D01*
X117250000Y-82663333D02*
X117154762Y-82710952D01*
X117154762Y-82710952D02*
X117107143Y-82758571D01*
X117107143Y-82758571D02*
X117059524Y-82853809D01*
X118059524Y-83187142D02*
X118107143Y-83234761D01*
X118107143Y-83234761D02*
X118059524Y-83282380D01*
X118059524Y-83282380D02*
X118011905Y-83234761D01*
X118011905Y-83234761D02*
X118059524Y-83187142D01*
X118059524Y-83187142D02*
X118059524Y-83282380D01*
X118059524Y-82663333D02*
X118107143Y-82710952D01*
X118107143Y-82710952D02*
X118059524Y-82758571D01*
X118059524Y-82758571D02*
X118011905Y-82710952D01*
X118011905Y-82710952D02*
X118059524Y-82663333D01*
X118059524Y-82663333D02*
X118059524Y-82758571D01*
X118488095Y-82377619D02*
X118535714Y-82330000D01*
X118535714Y-82330000D02*
X118630952Y-82282380D01*
X118630952Y-82282380D02*
X118869047Y-82282380D01*
X118869047Y-82282380D02*
X118964285Y-82330000D01*
X118964285Y-82330000D02*
X119011904Y-82377619D01*
X119011904Y-82377619D02*
X119059523Y-82472857D01*
X119059523Y-82472857D02*
X119059523Y-82568095D01*
X119059523Y-82568095D02*
X119011904Y-82710952D01*
X119011904Y-82710952D02*
X118440476Y-83282380D01*
X118440476Y-83282380D02*
X119059523Y-83282380D01*
X119440476Y-82377619D02*
X119488095Y-82330000D01*
X119488095Y-82330000D02*
X119583333Y-82282380D01*
X119583333Y-82282380D02*
X119821428Y-82282380D01*
X119821428Y-82282380D02*
X119916666Y-82330000D01*
X119916666Y-82330000D02*
X119964285Y-82377619D01*
X119964285Y-82377619D02*
X120011904Y-82472857D01*
X120011904Y-82472857D02*
X120011904Y-82568095D01*
X120011904Y-82568095D02*
X119964285Y-82710952D01*
X119964285Y-82710952D02*
X119392857Y-83282380D01*
X119392857Y-83282380D02*
X120011904Y-83282380D01*
X120440476Y-83282380D02*
X120440476Y-82282380D01*
X120535714Y-82901428D02*
X120821428Y-83282380D01*
X120821428Y-82615714D02*
X120440476Y-82996666D01*
X121202381Y-83282380D02*
X121440476Y-83282380D01*
X121440476Y-83282380D02*
X121440476Y-83091904D01*
X121440476Y-83091904D02*
X121345238Y-83044285D01*
X121345238Y-83044285D02*
X121250000Y-82949047D01*
X121250000Y-82949047D02*
X121202381Y-82806190D01*
X121202381Y-82806190D02*
X121202381Y-82568095D01*
X121202381Y-82568095D02*
X121250000Y-82425238D01*
X121250000Y-82425238D02*
X121345238Y-82330000D01*
X121345238Y-82330000D02*
X121488095Y-82282380D01*
X121488095Y-82282380D02*
X121678571Y-82282380D01*
X121678571Y-82282380D02*
X121821428Y-82330000D01*
X121821428Y-82330000D02*
X121916666Y-82425238D01*
X121916666Y-82425238D02*
X121964285Y-82568095D01*
X121964285Y-82568095D02*
X121964285Y-82806190D01*
X121964285Y-82806190D02*
X121916666Y-82949047D01*
X121916666Y-82949047D02*
X121821428Y-83044285D01*
X121821428Y-83044285D02*
X121726190Y-83091904D01*
X121726190Y-83091904D02*
X121726190Y-83282380D01*
X121726190Y-83282380D02*
X121964285Y-83282380D01*
X122678571Y-83663333D02*
X122630952Y-83615714D01*
X122630952Y-83615714D02*
X122535714Y-83472857D01*
X122535714Y-83472857D02*
X122488095Y-83377619D01*
X122488095Y-83377619D02*
X122440476Y-83234761D01*
X122440476Y-83234761D02*
X122392857Y-82996666D01*
X122392857Y-82996666D02*
X122392857Y-82806190D01*
X122392857Y-82806190D02*
X122440476Y-82568095D01*
X122440476Y-82568095D02*
X122488095Y-82425238D01*
X122488095Y-82425238D02*
X122535714Y-82330000D01*
X122535714Y-82330000D02*
X122630952Y-82187142D01*
X122630952Y-82187142D02*
X122678571Y-82139523D01*
X123250000Y-82282380D02*
X123345238Y-82282380D01*
X123345238Y-82282380D02*
X123440476Y-82330000D01*
X123440476Y-82330000D02*
X123488095Y-82377619D01*
X123488095Y-82377619D02*
X123535714Y-82472857D01*
X123535714Y-82472857D02*
X123583333Y-82663333D01*
X123583333Y-82663333D02*
X123583333Y-82901428D01*
X123583333Y-82901428D02*
X123535714Y-83091904D01*
X123535714Y-83091904D02*
X123488095Y-83187142D01*
X123488095Y-83187142D02*
X123440476Y-83234761D01*
X123440476Y-83234761D02*
X123345238Y-83282380D01*
X123345238Y-83282380D02*
X123250000Y-83282380D01*
X123250000Y-83282380D02*
X123154762Y-83234761D01*
X123154762Y-83234761D02*
X123107143Y-83187142D01*
X123107143Y-83187142D02*
X123059524Y-83091904D01*
X123059524Y-83091904D02*
X123011905Y-82901428D01*
X123011905Y-82901428D02*
X123011905Y-82663333D01*
X123011905Y-82663333D02*
X123059524Y-82472857D01*
X123059524Y-82472857D02*
X123107143Y-82377619D01*
X123107143Y-82377619D02*
X123154762Y-82330000D01*
X123154762Y-82330000D02*
X123250000Y-82282380D01*
X123964286Y-82377619D02*
X124011905Y-82330000D01*
X124011905Y-82330000D02*
X124107143Y-82282380D01*
X124107143Y-82282380D02*
X124345238Y-82282380D01*
X124345238Y-82282380D02*
X124440476Y-82330000D01*
X124440476Y-82330000D02*
X124488095Y-82377619D01*
X124488095Y-82377619D02*
X124535714Y-82472857D01*
X124535714Y-82472857D02*
X124535714Y-82568095D01*
X124535714Y-82568095D02*
X124488095Y-82710952D01*
X124488095Y-82710952D02*
X123916667Y-83282380D01*
X123916667Y-83282380D02*
X124535714Y-83282380D01*
X125154762Y-82282380D02*
X125250000Y-82282380D01*
X125250000Y-82282380D02*
X125345238Y-82330000D01*
X125345238Y-82330000D02*
X125392857Y-82377619D01*
X125392857Y-82377619D02*
X125440476Y-82472857D01*
X125440476Y-82472857D02*
X125488095Y-82663333D01*
X125488095Y-82663333D02*
X125488095Y-82901428D01*
X125488095Y-82901428D02*
X125440476Y-83091904D01*
X125440476Y-83091904D02*
X125392857Y-83187142D01*
X125392857Y-83187142D02*
X125345238Y-83234761D01*
X125345238Y-83234761D02*
X125250000Y-83282380D01*
X125250000Y-83282380D02*
X125154762Y-83282380D01*
X125154762Y-83282380D02*
X125059524Y-83234761D01*
X125059524Y-83234761D02*
X125011905Y-83187142D01*
X125011905Y-83187142D02*
X124964286Y-83091904D01*
X124964286Y-83091904D02*
X124916667Y-82901428D01*
X124916667Y-82901428D02*
X124916667Y-82663333D01*
X124916667Y-82663333D02*
X124964286Y-82472857D01*
X124964286Y-82472857D02*
X125011905Y-82377619D01*
X125011905Y-82377619D02*
X125059524Y-82330000D01*
X125059524Y-82330000D02*
X125154762Y-82282380D01*
X126440476Y-83282380D02*
X125869048Y-83282380D01*
X126154762Y-83282380D02*
X126154762Y-82282380D01*
X126154762Y-82282380D02*
X126059524Y-82425238D01*
X126059524Y-82425238D02*
X125964286Y-82520476D01*
X125964286Y-82520476D02*
X125869048Y-82568095D01*
X126773810Y-83663333D02*
X126821429Y-83615714D01*
X126821429Y-83615714D02*
X126916667Y-83472857D01*
X126916667Y-83472857D02*
X126964286Y-83377619D01*
X126964286Y-83377619D02*
X127011905Y-83234761D01*
X127011905Y-83234761D02*
X127059524Y-82996666D01*
X127059524Y-82996666D02*
X127059524Y-82806190D01*
X127059524Y-82806190D02*
X127011905Y-82568095D01*
X127011905Y-82568095D02*
X126964286Y-82425238D01*
X126964286Y-82425238D02*
X126916667Y-82330000D01*
X126916667Y-82330000D02*
X126821429Y-82187142D01*
X126821429Y-82187142D02*
X126773810Y-82139523D01*
X139433333Y-111477000D02*
X139366666Y-111443666D01*
X139366666Y-111443666D02*
X139266666Y-111443666D01*
X139266666Y-111443666D02*
X139166666Y-111477000D01*
X139166666Y-111477000D02*
X139100000Y-111543666D01*
X139100000Y-111543666D02*
X139066666Y-111610333D01*
X139066666Y-111610333D02*
X139033333Y-111743666D01*
X139033333Y-111743666D02*
X139033333Y-111843666D01*
X139033333Y-111843666D02*
X139066666Y-111977000D01*
X139066666Y-111977000D02*
X139100000Y-112043666D01*
X139100000Y-112043666D02*
X139166666Y-112110333D01*
X139166666Y-112110333D02*
X139266666Y-112143666D01*
X139266666Y-112143666D02*
X139333333Y-112143666D01*
X139333333Y-112143666D02*
X139433333Y-112110333D01*
X139433333Y-112110333D02*
X139466666Y-112077000D01*
X139466666Y-112077000D02*
X139466666Y-111843666D01*
X139466666Y-111843666D02*
X139333333Y-111843666D01*
X139766666Y-112143666D02*
X139766666Y-111443666D01*
X139766666Y-111443666D02*
X140166666Y-112143666D01*
X140166666Y-112143666D02*
X140166666Y-111443666D01*
X140499999Y-112143666D02*
X140499999Y-111443666D01*
X140499999Y-111443666D02*
X140666666Y-111443666D01*
X140666666Y-111443666D02*
X140766666Y-111477000D01*
X140766666Y-111477000D02*
X140833333Y-111543666D01*
X140833333Y-111543666D02*
X140866666Y-111610333D01*
X140866666Y-111610333D02*
X140899999Y-111743666D01*
X140899999Y-111743666D02*
X140899999Y-111843666D01*
X140899999Y-111843666D02*
X140866666Y-111977000D01*
X140866666Y-111977000D02*
X140833333Y-112043666D01*
X140833333Y-112043666D02*
X140766666Y-112110333D01*
X140766666Y-112110333D02*
X140666666Y-112143666D01*
X140666666Y-112143666D02*
X140499999Y-112143666D01*
X139806666Y-113711666D02*
X140040000Y-114411666D01*
X140040000Y-114411666D02*
X140273333Y-113711666D01*
X140906666Y-114345000D02*
X140873333Y-114378333D01*
X140873333Y-114378333D02*
X140773333Y-114411666D01*
X140773333Y-114411666D02*
X140706666Y-114411666D01*
X140706666Y-114411666D02*
X140606666Y-114378333D01*
X140606666Y-114378333D02*
X140540000Y-114311666D01*
X140540000Y-114311666D02*
X140506666Y-114245000D01*
X140506666Y-114245000D02*
X140473333Y-114111666D01*
X140473333Y-114111666D02*
X140473333Y-114011666D01*
X140473333Y-114011666D02*
X140506666Y-113878333D01*
X140506666Y-113878333D02*
X140540000Y-113811666D01*
X140540000Y-113811666D02*
X140606666Y-113745000D01*
X140606666Y-113745000D02*
X140706666Y-113711666D01*
X140706666Y-113711666D02*
X140773333Y-113711666D01*
X140773333Y-113711666D02*
X140873333Y-113745000D01*
X140873333Y-113745000D02*
X140906666Y-113778333D01*
X141606666Y-114345000D02*
X141573333Y-114378333D01*
X141573333Y-114378333D02*
X141473333Y-114411666D01*
X141473333Y-114411666D02*
X141406666Y-114411666D01*
X141406666Y-114411666D02*
X141306666Y-114378333D01*
X141306666Y-114378333D02*
X141240000Y-114311666D01*
X141240000Y-114311666D02*
X141206666Y-114245000D01*
X141206666Y-114245000D02*
X141173333Y-114111666D01*
X141173333Y-114111666D02*
X141173333Y-114011666D01*
X141173333Y-114011666D02*
X141206666Y-113878333D01*
X141206666Y-113878333D02*
X141240000Y-113811666D01*
X141240000Y-113811666D02*
X141306666Y-113745000D01*
X141306666Y-113745000D02*
X141406666Y-113711666D01*
X141406666Y-113711666D02*
X141473333Y-113711666D01*
X141473333Y-113711666D02*
X141573333Y-113745000D01*
X141573333Y-113745000D02*
X141606666Y-113778333D01*
X139906666Y-116679666D02*
X139906666Y-115979666D01*
X139906666Y-115979666D02*
X140306666Y-116679666D01*
X140306666Y-116679666D02*
X140306666Y-115979666D01*
X141039999Y-116613000D02*
X141006666Y-116646333D01*
X141006666Y-116646333D02*
X140906666Y-116679666D01*
X140906666Y-116679666D02*
X140839999Y-116679666D01*
X140839999Y-116679666D02*
X140739999Y-116646333D01*
X140739999Y-116646333D02*
X140673333Y-116579666D01*
X140673333Y-116579666D02*
X140639999Y-116513000D01*
X140639999Y-116513000D02*
X140606666Y-116379666D01*
X140606666Y-116379666D02*
X140606666Y-116279666D01*
X140606666Y-116279666D02*
X140639999Y-116146333D01*
X140639999Y-116146333D02*
X140673333Y-116079666D01*
X140673333Y-116079666D02*
X140739999Y-116013000D01*
X140739999Y-116013000D02*
X140839999Y-115979666D01*
X140839999Y-115979666D02*
X140906666Y-115979666D01*
X140906666Y-115979666D02*
X141006666Y-116013000D01*
X141006666Y-116013000D02*
X141039999Y-116046333D01*
X139033333Y-118914333D02*
X139133333Y-118947666D01*
X139133333Y-118947666D02*
X139300000Y-118947666D01*
X139300000Y-118947666D02*
X139366666Y-118914333D01*
X139366666Y-118914333D02*
X139400000Y-118881000D01*
X139400000Y-118881000D02*
X139433333Y-118814333D01*
X139433333Y-118814333D02*
X139433333Y-118747666D01*
X139433333Y-118747666D02*
X139400000Y-118681000D01*
X139400000Y-118681000D02*
X139366666Y-118647666D01*
X139366666Y-118647666D02*
X139300000Y-118614333D01*
X139300000Y-118614333D02*
X139166666Y-118581000D01*
X139166666Y-118581000D02*
X139100000Y-118547666D01*
X139100000Y-118547666D02*
X139066666Y-118514333D01*
X139066666Y-118514333D02*
X139033333Y-118447666D01*
X139033333Y-118447666D02*
X139033333Y-118381000D01*
X139033333Y-118381000D02*
X139066666Y-118314333D01*
X139066666Y-118314333D02*
X139100000Y-118281000D01*
X139100000Y-118281000D02*
X139166666Y-118247666D01*
X139166666Y-118247666D02*
X139333333Y-118247666D01*
X139333333Y-118247666D02*
X139433333Y-118281000D01*
X139733333Y-118947666D02*
X139733333Y-118247666D01*
X140433333Y-118281000D02*
X140366666Y-118247666D01*
X140366666Y-118247666D02*
X140266666Y-118247666D01*
X140266666Y-118247666D02*
X140166666Y-118281000D01*
X140166666Y-118281000D02*
X140100000Y-118347666D01*
X140100000Y-118347666D02*
X140066666Y-118414333D01*
X140066666Y-118414333D02*
X140033333Y-118547666D01*
X140033333Y-118547666D02*
X140033333Y-118647666D01*
X140033333Y-118647666D02*
X140066666Y-118781000D01*
X140066666Y-118781000D02*
X140100000Y-118847666D01*
X140100000Y-118847666D02*
X140166666Y-118914333D01*
X140166666Y-118914333D02*
X140266666Y-118947666D01*
X140266666Y-118947666D02*
X140333333Y-118947666D01*
X140333333Y-118947666D02*
X140433333Y-118914333D01*
X140433333Y-118914333D02*
X140466666Y-118881000D01*
X140466666Y-118881000D02*
X140466666Y-118647666D01*
X140466666Y-118647666D02*
X140333333Y-118647666D01*
X140766666Y-118947666D02*
X140766666Y-118247666D01*
X140766666Y-118247666D02*
X141166666Y-118947666D01*
X141166666Y-118947666D02*
X141166666Y-118247666D01*
X141466666Y-118747666D02*
X141799999Y-118747666D01*
X141399999Y-118947666D02*
X141633333Y-118247666D01*
X141633333Y-118247666D02*
X141866666Y-118947666D01*
X142433333Y-118947666D02*
X142099999Y-118947666D01*
X142099999Y-118947666D02*
X142099999Y-118247666D01*
D12*
X142214285Y-68982380D02*
X141738095Y-68982380D01*
X141738095Y-68982380D02*
X141738095Y-67982380D01*
X142547619Y-68458571D02*
X142880952Y-68458571D01*
X143023809Y-68982380D02*
X142547619Y-68982380D01*
X142547619Y-68982380D02*
X142547619Y-67982380D01*
X142547619Y-67982380D02*
X143023809Y-67982380D01*
X143452381Y-68982380D02*
X143452381Y-67982380D01*
X143452381Y-67982380D02*
X143690476Y-67982380D01*
X143690476Y-67982380D02*
X143833333Y-68030000D01*
X143833333Y-68030000D02*
X143928571Y-68125238D01*
X143928571Y-68125238D02*
X143976190Y-68220476D01*
X143976190Y-68220476D02*
X144023809Y-68410952D01*
X144023809Y-68410952D02*
X144023809Y-68553809D01*
X144023809Y-68553809D02*
X143976190Y-68744285D01*
X143976190Y-68744285D02*
X143928571Y-68839523D01*
X143928571Y-68839523D02*
X143833333Y-68934761D01*
X143833333Y-68934761D02*
X143690476Y-68982380D01*
X143690476Y-68982380D02*
X143452381Y-68982380D01*
D10*
X125938095Y-123050714D02*
X125938095Y-123717380D01*
X125700000Y-122669761D02*
X125461905Y-123384047D01*
X125461905Y-123384047D02*
X126080952Y-123384047D01*
X126652381Y-122717380D02*
X126747619Y-122717380D01*
X126747619Y-122717380D02*
X126842857Y-122765000D01*
X126842857Y-122765000D02*
X126890476Y-122812619D01*
X126890476Y-122812619D02*
X126938095Y-122907857D01*
X126938095Y-122907857D02*
X126985714Y-123098333D01*
X126985714Y-123098333D02*
X126985714Y-123336428D01*
X126985714Y-123336428D02*
X126938095Y-123526904D01*
X126938095Y-123526904D02*
X126890476Y-123622142D01*
X126890476Y-123622142D02*
X126842857Y-123669761D01*
X126842857Y-123669761D02*
X126747619Y-123717380D01*
X126747619Y-123717380D02*
X126652381Y-123717380D01*
X126652381Y-123717380D02*
X126557143Y-123669761D01*
X126557143Y-123669761D02*
X126509524Y-123622142D01*
X126509524Y-123622142D02*
X126461905Y-123526904D01*
X126461905Y-123526904D02*
X126414286Y-123336428D01*
X126414286Y-123336428D02*
X126414286Y-123098333D01*
X126414286Y-123098333D02*
X126461905Y-122907857D01*
X126461905Y-122907857D02*
X126509524Y-122812619D01*
X126509524Y-122812619D02*
X126557143Y-122765000D01*
X126557143Y-122765000D02*
X126652381Y-122717380D01*
X127414286Y-123622142D02*
X127461905Y-123669761D01*
X127461905Y-123669761D02*
X127414286Y-123717380D01*
X127414286Y-123717380D02*
X127366667Y-123669761D01*
X127366667Y-123669761D02*
X127414286Y-123622142D01*
X127414286Y-123622142D02*
X127414286Y-123717380D01*
X128080952Y-122717380D02*
X128176190Y-122717380D01*
X128176190Y-122717380D02*
X128271428Y-122765000D01*
X128271428Y-122765000D02*
X128319047Y-122812619D01*
X128319047Y-122812619D02*
X128366666Y-122907857D01*
X128366666Y-122907857D02*
X128414285Y-123098333D01*
X128414285Y-123098333D02*
X128414285Y-123336428D01*
X128414285Y-123336428D02*
X128366666Y-123526904D01*
X128366666Y-123526904D02*
X128319047Y-123622142D01*
X128319047Y-123622142D02*
X128271428Y-123669761D01*
X128271428Y-123669761D02*
X128176190Y-123717380D01*
X128176190Y-123717380D02*
X128080952Y-123717380D01*
X128080952Y-123717380D02*
X127985714Y-123669761D01*
X127985714Y-123669761D02*
X127938095Y-123622142D01*
X127938095Y-123622142D02*
X127890476Y-123526904D01*
X127890476Y-123526904D02*
X127842857Y-123336428D01*
X127842857Y-123336428D02*
X127842857Y-123098333D01*
X127842857Y-123098333D02*
X127890476Y-122907857D01*
X127890476Y-122907857D02*
X127938095Y-122812619D01*
X127938095Y-122812619D02*
X127985714Y-122765000D01*
X127985714Y-122765000D02*
X128080952Y-122717380D01*
X129033333Y-122717380D02*
X129128571Y-122717380D01*
X129128571Y-122717380D02*
X129223809Y-122765000D01*
X129223809Y-122765000D02*
X129271428Y-122812619D01*
X129271428Y-122812619D02*
X129319047Y-122907857D01*
X129319047Y-122907857D02*
X129366666Y-123098333D01*
X129366666Y-123098333D02*
X129366666Y-123336428D01*
X129366666Y-123336428D02*
X129319047Y-123526904D01*
X129319047Y-123526904D02*
X129271428Y-123622142D01*
X129271428Y-123622142D02*
X129223809Y-123669761D01*
X129223809Y-123669761D02*
X129128571Y-123717380D01*
X129128571Y-123717380D02*
X129033333Y-123717380D01*
X129033333Y-123717380D02*
X128938095Y-123669761D01*
X128938095Y-123669761D02*
X128890476Y-123622142D01*
X128890476Y-123622142D02*
X128842857Y-123526904D01*
X128842857Y-123526904D02*
X128795238Y-123336428D01*
X128795238Y-123336428D02*
X128795238Y-123098333D01*
X128795238Y-123098333D02*
X128842857Y-122907857D01*
X128842857Y-122907857D02*
X128890476Y-122812619D01*
X128890476Y-122812619D02*
X128938095Y-122765000D01*
X128938095Y-122765000D02*
X129033333Y-122717380D01*
X129985714Y-122717380D02*
X130080952Y-122717380D01*
X130080952Y-122717380D02*
X130176190Y-122765000D01*
X130176190Y-122765000D02*
X130223809Y-122812619D01*
X130223809Y-122812619D02*
X130271428Y-122907857D01*
X130271428Y-122907857D02*
X130319047Y-123098333D01*
X130319047Y-123098333D02*
X130319047Y-123336428D01*
X130319047Y-123336428D02*
X130271428Y-123526904D01*
X130271428Y-123526904D02*
X130223809Y-123622142D01*
X130223809Y-123622142D02*
X130176190Y-123669761D01*
X130176190Y-123669761D02*
X130080952Y-123717380D01*
X130080952Y-123717380D02*
X129985714Y-123717380D01*
X129985714Y-123717380D02*
X129890476Y-123669761D01*
X129890476Y-123669761D02*
X129842857Y-123622142D01*
X129842857Y-123622142D02*
X129795238Y-123526904D01*
X129795238Y-123526904D02*
X129747619Y-123336428D01*
X129747619Y-123336428D02*
X129747619Y-123098333D01*
X129747619Y-123098333D02*
X129795238Y-122907857D01*
X129795238Y-122907857D02*
X129842857Y-122812619D01*
X129842857Y-122812619D02*
X129890476Y-122765000D01*
X129890476Y-122765000D02*
X129985714Y-122717380D01*
X130938095Y-122717380D02*
X131033333Y-122717380D01*
X131033333Y-122717380D02*
X131128571Y-122765000D01*
X131128571Y-122765000D02*
X131176190Y-122812619D01*
X131176190Y-122812619D02*
X131223809Y-122907857D01*
X131223809Y-122907857D02*
X131271428Y-123098333D01*
X131271428Y-123098333D02*
X131271428Y-123336428D01*
X131271428Y-123336428D02*
X131223809Y-123526904D01*
X131223809Y-123526904D02*
X131176190Y-123622142D01*
X131176190Y-123622142D02*
X131128571Y-123669761D01*
X131128571Y-123669761D02*
X131033333Y-123717380D01*
X131033333Y-123717380D02*
X130938095Y-123717380D01*
X130938095Y-123717380D02*
X130842857Y-123669761D01*
X130842857Y-123669761D02*
X130795238Y-123622142D01*
X130795238Y-123622142D02*
X130747619Y-123526904D01*
X130747619Y-123526904D02*
X130700000Y-123336428D01*
X130700000Y-123336428D02*
X130700000Y-123098333D01*
X130700000Y-123098333D02*
X130747619Y-122907857D01*
X130747619Y-122907857D02*
X130795238Y-122812619D01*
X130795238Y-122812619D02*
X130842857Y-122765000D01*
X130842857Y-122765000D02*
X130938095Y-122717380D01*
X132300000Y-123717380D02*
X132300000Y-123050714D01*
X132300000Y-123145952D02*
X132347619Y-123098333D01*
X132347619Y-123098333D02*
X132442857Y-123050714D01*
X132442857Y-123050714D02*
X132585714Y-123050714D01*
X132585714Y-123050714D02*
X132680952Y-123098333D01*
X132680952Y-123098333D02*
X132728571Y-123193571D01*
X132728571Y-123193571D02*
X132728571Y-123717380D01*
X132728571Y-123193571D02*
X132776190Y-123098333D01*
X132776190Y-123098333D02*
X132871428Y-123050714D01*
X132871428Y-123050714D02*
X133014285Y-123050714D01*
X133014285Y-123050714D02*
X133109524Y-123098333D01*
X133109524Y-123098333D02*
X133157143Y-123193571D01*
X133157143Y-123193571D02*
X133157143Y-123717380D01*
X133633333Y-123717380D02*
X133633333Y-123050714D01*
X133633333Y-123145952D02*
X133680952Y-123098333D01*
X133680952Y-123098333D02*
X133776190Y-123050714D01*
X133776190Y-123050714D02*
X133919047Y-123050714D01*
X133919047Y-123050714D02*
X134014285Y-123098333D01*
X134014285Y-123098333D02*
X134061904Y-123193571D01*
X134061904Y-123193571D02*
X134061904Y-123717380D01*
X134061904Y-123193571D02*
X134109523Y-123098333D01*
X134109523Y-123098333D02*
X134204761Y-123050714D01*
X134204761Y-123050714D02*
X134347618Y-123050714D01*
X134347618Y-123050714D02*
X134442857Y-123098333D01*
X134442857Y-123098333D02*
X134490476Y-123193571D01*
X134490476Y-123193571D02*
X134490476Y-123717380D01*
X110000000Y-120500000D02*
X110000000Y-125086420D01*
X150000000Y-120500000D02*
X150000000Y-125086420D01*
X110000000Y-124500000D02*
X150000000Y-124500000D01*
X110000000Y-124500000D02*
X150000000Y-124500000D01*
X110000000Y-124500000D02*
X111126504Y-123913579D01*
X110000000Y-124500000D02*
X111126504Y-125086421D01*
X150000000Y-124500000D02*
X148873496Y-125086421D01*
X150000000Y-124500000D02*
X148873496Y-123913579D01*
X153645952Y-84347618D02*
X153598333Y-84442856D01*
X153598333Y-84442856D02*
X153550714Y-84490475D01*
X153550714Y-84490475D02*
X153455476Y-84538094D01*
X153455476Y-84538094D02*
X153407857Y-84538094D01*
X153407857Y-84538094D02*
X153312619Y-84490475D01*
X153312619Y-84490475D02*
X153265000Y-84442856D01*
X153265000Y-84442856D02*
X153217380Y-84347618D01*
X153217380Y-84347618D02*
X153217380Y-84157142D01*
X153217380Y-84157142D02*
X153265000Y-84061904D01*
X153265000Y-84061904D02*
X153312619Y-84014285D01*
X153312619Y-84014285D02*
X153407857Y-83966666D01*
X153407857Y-83966666D02*
X153455476Y-83966666D01*
X153455476Y-83966666D02*
X153550714Y-84014285D01*
X153550714Y-84014285D02*
X153598333Y-84061904D01*
X153598333Y-84061904D02*
X153645952Y-84157142D01*
X153645952Y-84157142D02*
X153645952Y-84347618D01*
X153645952Y-84347618D02*
X153693571Y-84442856D01*
X153693571Y-84442856D02*
X153741190Y-84490475D01*
X153741190Y-84490475D02*
X153836428Y-84538094D01*
X153836428Y-84538094D02*
X154026904Y-84538094D01*
X154026904Y-84538094D02*
X154122142Y-84490475D01*
X154122142Y-84490475D02*
X154169761Y-84442856D01*
X154169761Y-84442856D02*
X154217380Y-84347618D01*
X154217380Y-84347618D02*
X154217380Y-84157142D01*
X154217380Y-84157142D02*
X154169761Y-84061904D01*
X154169761Y-84061904D02*
X154122142Y-84014285D01*
X154122142Y-84014285D02*
X154026904Y-83966666D01*
X154026904Y-83966666D02*
X153836428Y-83966666D01*
X153836428Y-83966666D02*
X153741190Y-84014285D01*
X153741190Y-84014285D02*
X153693571Y-84061904D01*
X153693571Y-84061904D02*
X153645952Y-84157142D01*
X153217380Y-83347618D02*
X153217380Y-83252380D01*
X153217380Y-83252380D02*
X153265000Y-83157142D01*
X153265000Y-83157142D02*
X153312619Y-83109523D01*
X153312619Y-83109523D02*
X153407857Y-83061904D01*
X153407857Y-83061904D02*
X153598333Y-83014285D01*
X153598333Y-83014285D02*
X153836428Y-83014285D01*
X153836428Y-83014285D02*
X154026904Y-83061904D01*
X154026904Y-83061904D02*
X154122142Y-83109523D01*
X154122142Y-83109523D02*
X154169761Y-83157142D01*
X154169761Y-83157142D02*
X154217380Y-83252380D01*
X154217380Y-83252380D02*
X154217380Y-83347618D01*
X154217380Y-83347618D02*
X154169761Y-83442856D01*
X154169761Y-83442856D02*
X154122142Y-83490475D01*
X154122142Y-83490475D02*
X154026904Y-83538094D01*
X154026904Y-83538094D02*
X153836428Y-83585713D01*
X153836428Y-83585713D02*
X153598333Y-83585713D01*
X153598333Y-83585713D02*
X153407857Y-83538094D01*
X153407857Y-83538094D02*
X153312619Y-83490475D01*
X153312619Y-83490475D02*
X153265000Y-83442856D01*
X153265000Y-83442856D02*
X153217380Y-83347618D01*
X154122142Y-82585713D02*
X154169761Y-82538094D01*
X154169761Y-82538094D02*
X154217380Y-82585713D01*
X154217380Y-82585713D02*
X154169761Y-82633332D01*
X154169761Y-82633332D02*
X154122142Y-82585713D01*
X154122142Y-82585713D02*
X154217380Y-82585713D01*
X153217380Y-81919047D02*
X153217380Y-81823809D01*
X153217380Y-81823809D02*
X153265000Y-81728571D01*
X153265000Y-81728571D02*
X153312619Y-81680952D01*
X153312619Y-81680952D02*
X153407857Y-81633333D01*
X153407857Y-81633333D02*
X153598333Y-81585714D01*
X153598333Y-81585714D02*
X153836428Y-81585714D01*
X153836428Y-81585714D02*
X154026904Y-81633333D01*
X154026904Y-81633333D02*
X154122142Y-81680952D01*
X154122142Y-81680952D02*
X154169761Y-81728571D01*
X154169761Y-81728571D02*
X154217380Y-81823809D01*
X154217380Y-81823809D02*
X154217380Y-81919047D01*
X154217380Y-81919047D02*
X154169761Y-82014285D01*
X154169761Y-82014285D02*
X154122142Y-82061904D01*
X154122142Y-82061904D02*
X154026904Y-82109523D01*
X154026904Y-82109523D02*
X153836428Y-82157142D01*
X153836428Y-82157142D02*
X153598333Y-82157142D01*
X153598333Y-82157142D02*
X153407857Y-82109523D01*
X153407857Y-82109523D02*
X153312619Y-82061904D01*
X153312619Y-82061904D02*
X153265000Y-82014285D01*
X153265000Y-82014285D02*
X153217380Y-81919047D01*
X153217380Y-80966666D02*
X153217380Y-80871428D01*
X153217380Y-80871428D02*
X153265000Y-80776190D01*
X153265000Y-80776190D02*
X153312619Y-80728571D01*
X153312619Y-80728571D02*
X153407857Y-80680952D01*
X153407857Y-80680952D02*
X153598333Y-80633333D01*
X153598333Y-80633333D02*
X153836428Y-80633333D01*
X153836428Y-80633333D02*
X154026904Y-80680952D01*
X154026904Y-80680952D02*
X154122142Y-80728571D01*
X154122142Y-80728571D02*
X154169761Y-80776190D01*
X154169761Y-80776190D02*
X154217380Y-80871428D01*
X154217380Y-80871428D02*
X154217380Y-80966666D01*
X154217380Y-80966666D02*
X154169761Y-81061904D01*
X154169761Y-81061904D02*
X154122142Y-81109523D01*
X154122142Y-81109523D02*
X154026904Y-81157142D01*
X154026904Y-81157142D02*
X153836428Y-81204761D01*
X153836428Y-81204761D02*
X153598333Y-81204761D01*
X153598333Y-81204761D02*
X153407857Y-81157142D01*
X153407857Y-81157142D02*
X153312619Y-81109523D01*
X153312619Y-81109523D02*
X153265000Y-81061904D01*
X153265000Y-81061904D02*
X153217380Y-80966666D01*
X153217380Y-80014285D02*
X153217380Y-79919047D01*
X153217380Y-79919047D02*
X153265000Y-79823809D01*
X153265000Y-79823809D02*
X153312619Y-79776190D01*
X153312619Y-79776190D02*
X153407857Y-79728571D01*
X153407857Y-79728571D02*
X153598333Y-79680952D01*
X153598333Y-79680952D02*
X153836428Y-79680952D01*
X153836428Y-79680952D02*
X154026904Y-79728571D01*
X154026904Y-79728571D02*
X154122142Y-79776190D01*
X154122142Y-79776190D02*
X154169761Y-79823809D01*
X154169761Y-79823809D02*
X154217380Y-79919047D01*
X154217380Y-79919047D02*
X154217380Y-80014285D01*
X154217380Y-80014285D02*
X154169761Y-80109523D01*
X154169761Y-80109523D02*
X154122142Y-80157142D01*
X154122142Y-80157142D02*
X154026904Y-80204761D01*
X154026904Y-80204761D02*
X153836428Y-80252380D01*
X153836428Y-80252380D02*
X153598333Y-80252380D01*
X153598333Y-80252380D02*
X153407857Y-80204761D01*
X153407857Y-80204761D02*
X153312619Y-80157142D01*
X153312619Y-80157142D02*
X153265000Y-80109523D01*
X153265000Y-80109523D02*
X153217380Y-80014285D01*
X153217380Y-79061904D02*
X153217380Y-78966666D01*
X153217380Y-78966666D02*
X153265000Y-78871428D01*
X153265000Y-78871428D02*
X153312619Y-78823809D01*
X153312619Y-78823809D02*
X153407857Y-78776190D01*
X153407857Y-78776190D02*
X153598333Y-78728571D01*
X153598333Y-78728571D02*
X153836428Y-78728571D01*
X153836428Y-78728571D02*
X154026904Y-78776190D01*
X154026904Y-78776190D02*
X154122142Y-78823809D01*
X154122142Y-78823809D02*
X154169761Y-78871428D01*
X154169761Y-78871428D02*
X154217380Y-78966666D01*
X154217380Y-78966666D02*
X154217380Y-79061904D01*
X154217380Y-79061904D02*
X154169761Y-79157142D01*
X154169761Y-79157142D02*
X154122142Y-79204761D01*
X154122142Y-79204761D02*
X154026904Y-79252380D01*
X154026904Y-79252380D02*
X153836428Y-79299999D01*
X153836428Y-79299999D02*
X153598333Y-79299999D01*
X153598333Y-79299999D02*
X153407857Y-79252380D01*
X153407857Y-79252380D02*
X153312619Y-79204761D01*
X153312619Y-79204761D02*
X153265000Y-79157142D01*
X153265000Y-79157142D02*
X153217380Y-79061904D01*
X154217380Y-77699999D02*
X153550714Y-77699999D01*
X153645952Y-77699999D02*
X153598333Y-77652380D01*
X153598333Y-77652380D02*
X153550714Y-77557142D01*
X153550714Y-77557142D02*
X153550714Y-77414285D01*
X153550714Y-77414285D02*
X153598333Y-77319047D01*
X153598333Y-77319047D02*
X153693571Y-77271428D01*
X153693571Y-77271428D02*
X154217380Y-77271428D01*
X153693571Y-77271428D02*
X153598333Y-77223809D01*
X153598333Y-77223809D02*
X153550714Y-77128571D01*
X153550714Y-77128571D02*
X153550714Y-76985714D01*
X153550714Y-76985714D02*
X153598333Y-76890475D01*
X153598333Y-76890475D02*
X153693571Y-76842856D01*
X153693571Y-76842856D02*
X154217380Y-76842856D01*
X154217380Y-76366666D02*
X153550714Y-76366666D01*
X153645952Y-76366666D02*
X153598333Y-76319047D01*
X153598333Y-76319047D02*
X153550714Y-76223809D01*
X153550714Y-76223809D02*
X153550714Y-76080952D01*
X153550714Y-76080952D02*
X153598333Y-75985714D01*
X153598333Y-75985714D02*
X153693571Y-75938095D01*
X153693571Y-75938095D02*
X154217380Y-75938095D01*
X153693571Y-75938095D02*
X153598333Y-75890476D01*
X153598333Y-75890476D02*
X153550714Y-75795238D01*
X153550714Y-75795238D02*
X153550714Y-75652381D01*
X153550714Y-75652381D02*
X153598333Y-75557142D01*
X153598333Y-75557142D02*
X153693571Y-75509523D01*
X153693571Y-75509523D02*
X154217380Y-75509523D01*
X150500000Y-120000000D02*
X155586420Y-120000000D01*
X150500000Y-40000000D02*
X155586420Y-40000000D01*
X155000000Y-120000000D02*
X155000000Y-40000000D01*
X155000000Y-120000000D02*
X155000000Y-40000000D01*
X155000000Y-120000000D02*
X154413579Y-118873496D01*
X155000000Y-120000000D02*
X155586421Y-118873496D01*
X155000000Y-40000000D02*
X155586421Y-41126504D01*
X155000000Y-40000000D02*
X154413579Y-41126504D01*
X127567380Y-114366666D02*
X127091190Y-114699999D01*
X127567380Y-114938094D02*
X126567380Y-114938094D01*
X126567380Y-114938094D02*
X126567380Y-114557142D01*
X126567380Y-114557142D02*
X126615000Y-114461904D01*
X126615000Y-114461904D02*
X126662619Y-114414285D01*
X126662619Y-114414285D02*
X126757857Y-114366666D01*
X126757857Y-114366666D02*
X126900714Y-114366666D01*
X126900714Y-114366666D02*
X126995952Y-114414285D01*
X126995952Y-114414285D02*
X127043571Y-114461904D01*
X127043571Y-114461904D02*
X127091190Y-114557142D01*
X127091190Y-114557142D02*
X127091190Y-114938094D01*
X126567380Y-113509523D02*
X126567380Y-113699999D01*
X126567380Y-113699999D02*
X126615000Y-113795237D01*
X126615000Y-113795237D02*
X126662619Y-113842856D01*
X126662619Y-113842856D02*
X126805476Y-113938094D01*
X126805476Y-113938094D02*
X126995952Y-113985713D01*
X126995952Y-113985713D02*
X127376904Y-113985713D01*
X127376904Y-113985713D02*
X127472142Y-113938094D01*
X127472142Y-113938094D02*
X127519761Y-113890475D01*
X127519761Y-113890475D02*
X127567380Y-113795237D01*
X127567380Y-113795237D02*
X127567380Y-113604761D01*
X127567380Y-113604761D02*
X127519761Y-113509523D01*
X127519761Y-113509523D02*
X127472142Y-113461904D01*
X127472142Y-113461904D02*
X127376904Y-113414285D01*
X127376904Y-113414285D02*
X127138809Y-113414285D01*
X127138809Y-113414285D02*
X127043571Y-113461904D01*
X127043571Y-113461904D02*
X126995952Y-113509523D01*
X126995952Y-113509523D02*
X126948333Y-113604761D01*
X126948333Y-113604761D02*
X126948333Y-113795237D01*
X126948333Y-113795237D02*
X126995952Y-113890475D01*
X126995952Y-113890475D02*
X127043571Y-113938094D01*
X127043571Y-113938094D02*
X127138809Y-113985713D01*
X149554880Y-71138094D02*
X148554880Y-71138094D01*
X148554880Y-71138094D02*
X148554880Y-70899999D01*
X148554880Y-70899999D02*
X148602500Y-70757142D01*
X148602500Y-70757142D02*
X148697738Y-70661904D01*
X148697738Y-70661904D02*
X148792976Y-70614285D01*
X148792976Y-70614285D02*
X148983452Y-70566666D01*
X148983452Y-70566666D02*
X149126309Y-70566666D01*
X149126309Y-70566666D02*
X149316785Y-70614285D01*
X149316785Y-70614285D02*
X149412023Y-70661904D01*
X149412023Y-70661904D02*
X149507261Y-70757142D01*
X149507261Y-70757142D02*
X149554880Y-70899999D01*
X149554880Y-70899999D02*
X149554880Y-71138094D01*
X148650119Y-70185713D02*
X148602500Y-70138094D01*
X148602500Y-70138094D02*
X148554880Y-70042856D01*
X148554880Y-70042856D02*
X148554880Y-69804761D01*
X148554880Y-69804761D02*
X148602500Y-69709523D01*
X148602500Y-69709523D02*
X148650119Y-69661904D01*
X148650119Y-69661904D02*
X148745357Y-69614285D01*
X148745357Y-69614285D02*
X148840595Y-69614285D01*
X148840595Y-69614285D02*
X148983452Y-69661904D01*
X148983452Y-69661904D02*
X149554880Y-70233332D01*
X149554880Y-70233332D02*
X149554880Y-69614285D01*
X110416666Y-106957166D02*
X110816666Y-106957166D01*
X110616666Y-107657166D02*
X110616666Y-106957166D01*
X111049999Y-107657166D02*
X111049999Y-106957166D01*
X111049999Y-106957166D02*
X111316666Y-106957166D01*
X111316666Y-106957166D02*
X111383333Y-106990500D01*
X111383333Y-106990500D02*
X111416666Y-107023833D01*
X111416666Y-107023833D02*
X111449999Y-107090500D01*
X111449999Y-107090500D02*
X111449999Y-107190500D01*
X111449999Y-107190500D02*
X111416666Y-107257166D01*
X111416666Y-107257166D02*
X111383333Y-107290500D01*
X111383333Y-107290500D02*
X111316666Y-107323833D01*
X111316666Y-107323833D02*
X111049999Y-107323833D01*
X111683333Y-106957166D02*
X112149999Y-106957166D01*
X112149999Y-106957166D02*
X111849999Y-107657166D01*
X112423809Y-111467380D02*
X112519047Y-111467380D01*
X112519047Y-111467380D02*
X112614285Y-111515000D01*
X112614285Y-111515000D02*
X112661904Y-111562619D01*
X112661904Y-111562619D02*
X112709523Y-111657857D01*
X112709523Y-111657857D02*
X112757142Y-111848333D01*
X112757142Y-111848333D02*
X112757142Y-112086428D01*
X112757142Y-112086428D02*
X112709523Y-112276904D01*
X112709523Y-112276904D02*
X112661904Y-112372142D01*
X112661904Y-112372142D02*
X112614285Y-112419761D01*
X112614285Y-112419761D02*
X112519047Y-112467380D01*
X112519047Y-112467380D02*
X112423809Y-112467380D01*
X112423809Y-112467380D02*
X112328571Y-112419761D01*
X112328571Y-112419761D02*
X112280952Y-112372142D01*
X112280952Y-112372142D02*
X112233333Y-112276904D01*
X112233333Y-112276904D02*
X112185714Y-112086428D01*
X112185714Y-112086428D02*
X112185714Y-111848333D01*
X112185714Y-111848333D02*
X112233333Y-111657857D01*
X112233333Y-111657857D02*
X112280952Y-111562619D01*
X112280952Y-111562619D02*
X112328571Y-111515000D01*
X112328571Y-111515000D02*
X112423809Y-111467380D01*
X113042857Y-111467380D02*
X113376190Y-112467380D01*
X113376190Y-112467380D02*
X113709523Y-111467380D01*
X137395833Y-91872142D02*
X137348214Y-91919761D01*
X137348214Y-91919761D02*
X137205357Y-91967380D01*
X137205357Y-91967380D02*
X137110119Y-91967380D01*
X137110119Y-91967380D02*
X136967262Y-91919761D01*
X136967262Y-91919761D02*
X136872024Y-91824523D01*
X136872024Y-91824523D02*
X136824405Y-91729285D01*
X136824405Y-91729285D02*
X136776786Y-91538809D01*
X136776786Y-91538809D02*
X136776786Y-91395952D01*
X136776786Y-91395952D02*
X136824405Y-91205476D01*
X136824405Y-91205476D02*
X136872024Y-91110238D01*
X136872024Y-91110238D02*
X136967262Y-91015000D01*
X136967262Y-91015000D02*
X137110119Y-90967380D01*
X137110119Y-90967380D02*
X137205357Y-90967380D01*
X137205357Y-90967380D02*
X137348214Y-91015000D01*
X137348214Y-91015000D02*
X137395833Y-91062619D01*
X137729167Y-90967380D02*
X138348214Y-90967380D01*
X138348214Y-90967380D02*
X138014881Y-91348333D01*
X138014881Y-91348333D02*
X138157738Y-91348333D01*
X138157738Y-91348333D02*
X138252976Y-91395952D01*
X138252976Y-91395952D02*
X138300595Y-91443571D01*
X138300595Y-91443571D02*
X138348214Y-91538809D01*
X138348214Y-91538809D02*
X138348214Y-91776904D01*
X138348214Y-91776904D02*
X138300595Y-91872142D01*
X138300595Y-91872142D02*
X138252976Y-91919761D01*
X138252976Y-91919761D02*
X138157738Y-91967380D01*
X138157738Y-91967380D02*
X137872024Y-91967380D01*
X137872024Y-91967380D02*
X137776786Y-91919761D01*
X137776786Y-91919761D02*
X137729167Y-91872142D01*
X119266666Y-106707166D02*
X119666666Y-106707166D01*
X119466666Y-107407166D02*
X119466666Y-106707166D01*
X119899999Y-107407166D02*
X119899999Y-106707166D01*
X119899999Y-106707166D02*
X120166666Y-106707166D01*
X120166666Y-106707166D02*
X120233333Y-106740500D01*
X120233333Y-106740500D02*
X120266666Y-106773833D01*
X120266666Y-106773833D02*
X120299999Y-106840500D01*
X120299999Y-106840500D02*
X120299999Y-106940500D01*
X120299999Y-106940500D02*
X120266666Y-107007166D01*
X120266666Y-107007166D02*
X120233333Y-107040500D01*
X120233333Y-107040500D02*
X120166666Y-107073833D01*
X120166666Y-107073833D02*
X119899999Y-107073833D01*
X120933333Y-106707166D02*
X120599999Y-106707166D01*
X120599999Y-106707166D02*
X120566666Y-107040500D01*
X120566666Y-107040500D02*
X120599999Y-107007166D01*
X120599999Y-107007166D02*
X120666666Y-106973833D01*
X120666666Y-106973833D02*
X120833333Y-106973833D01*
X120833333Y-106973833D02*
X120899999Y-107007166D01*
X120899999Y-107007166D02*
X120933333Y-107040500D01*
X120933333Y-107040500D02*
X120966666Y-107107166D01*
X120966666Y-107107166D02*
X120966666Y-107273833D01*
X120966666Y-107273833D02*
X120933333Y-107340500D01*
X120933333Y-107340500D02*
X120899999Y-107373833D01*
X120899999Y-107373833D02*
X120833333Y-107407166D01*
X120833333Y-107407166D02*
X120666666Y-107407166D01*
X120666666Y-107407166D02*
X120599999Y-107373833D01*
X120599999Y-107373833D02*
X120566666Y-107340500D01*
X129833333Y-91872142D02*
X129785714Y-91919761D01*
X129785714Y-91919761D02*
X129642857Y-91967380D01*
X129642857Y-91967380D02*
X129547619Y-91967380D01*
X129547619Y-91967380D02*
X129404762Y-91919761D01*
X129404762Y-91919761D02*
X129309524Y-91824523D01*
X129309524Y-91824523D02*
X129261905Y-91729285D01*
X129261905Y-91729285D02*
X129214286Y-91538809D01*
X129214286Y-91538809D02*
X129214286Y-91395952D01*
X129214286Y-91395952D02*
X129261905Y-91205476D01*
X129261905Y-91205476D02*
X129309524Y-91110238D01*
X129309524Y-91110238D02*
X129404762Y-91015000D01*
X129404762Y-91015000D02*
X129547619Y-90967380D01*
X129547619Y-90967380D02*
X129642857Y-90967380D01*
X129642857Y-90967380D02*
X129785714Y-91015000D01*
X129785714Y-91015000D02*
X129833333Y-91062619D01*
X130214286Y-91062619D02*
X130261905Y-91015000D01*
X130261905Y-91015000D02*
X130357143Y-90967380D01*
X130357143Y-90967380D02*
X130595238Y-90967380D01*
X130595238Y-90967380D02*
X130690476Y-91015000D01*
X130690476Y-91015000D02*
X130738095Y-91062619D01*
X130738095Y-91062619D02*
X130785714Y-91157857D01*
X130785714Y-91157857D02*
X130785714Y-91253095D01*
X130785714Y-91253095D02*
X130738095Y-91395952D01*
X130738095Y-91395952D02*
X130166667Y-91967380D01*
X130166667Y-91967380D02*
X130785714Y-91967380D01*
X122383333Y-86867380D02*
X122050000Y-86391190D01*
X121811905Y-86867380D02*
X121811905Y-85867380D01*
X121811905Y-85867380D02*
X122192857Y-85867380D01*
X122192857Y-85867380D02*
X122288095Y-85915000D01*
X122288095Y-85915000D02*
X122335714Y-85962619D01*
X122335714Y-85962619D02*
X122383333Y-86057857D01*
X122383333Y-86057857D02*
X122383333Y-86200714D01*
X122383333Y-86200714D02*
X122335714Y-86295952D01*
X122335714Y-86295952D02*
X122288095Y-86343571D01*
X122288095Y-86343571D02*
X122192857Y-86391190D01*
X122192857Y-86391190D02*
X121811905Y-86391190D01*
X123288095Y-85867380D02*
X122811905Y-85867380D01*
X122811905Y-85867380D02*
X122764286Y-86343571D01*
X122764286Y-86343571D02*
X122811905Y-86295952D01*
X122811905Y-86295952D02*
X122907143Y-86248333D01*
X122907143Y-86248333D02*
X123145238Y-86248333D01*
X123145238Y-86248333D02*
X123240476Y-86295952D01*
X123240476Y-86295952D02*
X123288095Y-86343571D01*
X123288095Y-86343571D02*
X123335714Y-86438809D01*
X123335714Y-86438809D02*
X123335714Y-86676904D01*
X123335714Y-86676904D02*
X123288095Y-86772142D01*
X123288095Y-86772142D02*
X123240476Y-86819761D01*
X123240476Y-86819761D02*
X123145238Y-86867380D01*
X123145238Y-86867380D02*
X122907143Y-86867380D01*
X122907143Y-86867380D02*
X122811905Y-86819761D01*
X122811905Y-86819761D02*
X122764286Y-86772142D01*
X128738095Y-53969380D02*
X129309523Y-53969380D01*
X129023809Y-54969380D02*
X129023809Y-53969380D01*
X129642857Y-54969380D02*
X129642857Y-53969380D01*
X129642857Y-53969380D02*
X130023809Y-53969380D01*
X130023809Y-53969380D02*
X130119047Y-54017000D01*
X130119047Y-54017000D02*
X130166666Y-54064619D01*
X130166666Y-54064619D02*
X130214285Y-54159857D01*
X130214285Y-54159857D02*
X130214285Y-54302714D01*
X130214285Y-54302714D02*
X130166666Y-54397952D01*
X130166666Y-54397952D02*
X130119047Y-54445571D01*
X130119047Y-54445571D02*
X130023809Y-54493190D01*
X130023809Y-54493190D02*
X129642857Y-54493190D01*
X131166666Y-54969380D02*
X130595238Y-54969380D01*
X130880952Y-54969380D02*
X130880952Y-53969380D01*
X130880952Y-53969380D02*
X130785714Y-54112238D01*
X130785714Y-54112238D02*
X130690476Y-54207476D01*
X130690476Y-54207476D02*
X130595238Y-54255095D01*
X116047380Y-96242857D02*
X115571190Y-96576190D01*
X116047380Y-96814285D02*
X115047380Y-96814285D01*
X115047380Y-96814285D02*
X115047380Y-96433333D01*
X115047380Y-96433333D02*
X115095000Y-96338095D01*
X115095000Y-96338095D02*
X115142619Y-96290476D01*
X115142619Y-96290476D02*
X115237857Y-96242857D01*
X115237857Y-96242857D02*
X115380714Y-96242857D01*
X115380714Y-96242857D02*
X115475952Y-96290476D01*
X115475952Y-96290476D02*
X115523571Y-96338095D01*
X115523571Y-96338095D02*
X115571190Y-96433333D01*
X115571190Y-96433333D02*
X115571190Y-96814285D01*
X116047380Y-95290476D02*
X116047380Y-95861904D01*
X116047380Y-95576190D02*
X115047380Y-95576190D01*
X115047380Y-95576190D02*
X115190238Y-95671428D01*
X115190238Y-95671428D02*
X115285476Y-95766666D01*
X115285476Y-95766666D02*
X115333095Y-95861904D01*
X115047380Y-94433333D02*
X115047380Y-94623809D01*
X115047380Y-94623809D02*
X115095000Y-94719047D01*
X115095000Y-94719047D02*
X115142619Y-94766666D01*
X115142619Y-94766666D02*
X115285476Y-94861904D01*
X115285476Y-94861904D02*
X115475952Y-94909523D01*
X115475952Y-94909523D02*
X115856904Y-94909523D01*
X115856904Y-94909523D02*
X115952142Y-94861904D01*
X115952142Y-94861904D02*
X115999761Y-94814285D01*
X115999761Y-94814285D02*
X116047380Y-94719047D01*
X116047380Y-94719047D02*
X116047380Y-94528571D01*
X116047380Y-94528571D02*
X115999761Y-94433333D01*
X115999761Y-94433333D02*
X115952142Y-94385714D01*
X115952142Y-94385714D02*
X115856904Y-94338095D01*
X115856904Y-94338095D02*
X115618809Y-94338095D01*
X115618809Y-94338095D02*
X115523571Y-94385714D01*
X115523571Y-94385714D02*
X115475952Y-94433333D01*
X115475952Y-94433333D02*
X115428333Y-94528571D01*
X115428333Y-94528571D02*
X115428333Y-94719047D01*
X115428333Y-94719047D02*
X115475952Y-94814285D01*
X115475952Y-94814285D02*
X115523571Y-94861904D01*
X115523571Y-94861904D02*
X115618809Y-94909523D01*
X148132619Y-79333333D02*
X148608809Y-79000000D01*
X148132619Y-78761905D02*
X149132619Y-78761905D01*
X149132619Y-78761905D02*
X149132619Y-79142857D01*
X149132619Y-79142857D02*
X149085000Y-79238095D01*
X149085000Y-79238095D02*
X149037380Y-79285714D01*
X149037380Y-79285714D02*
X148942142Y-79333333D01*
X148942142Y-79333333D02*
X148799285Y-79333333D01*
X148799285Y-79333333D02*
X148704047Y-79285714D01*
X148704047Y-79285714D02*
X148656428Y-79238095D01*
X148656428Y-79238095D02*
X148608809Y-79142857D01*
X148608809Y-79142857D02*
X148608809Y-78761905D01*
X149132619Y-79666667D02*
X149132619Y-80285714D01*
X149132619Y-80285714D02*
X148751666Y-79952381D01*
X148751666Y-79952381D02*
X148751666Y-80095238D01*
X148751666Y-80095238D02*
X148704047Y-80190476D01*
X148704047Y-80190476D02*
X148656428Y-80238095D01*
X148656428Y-80238095D02*
X148561190Y-80285714D01*
X148561190Y-80285714D02*
X148323095Y-80285714D01*
X148323095Y-80285714D02*
X148227857Y-80238095D01*
X148227857Y-80238095D02*
X148180238Y-80190476D01*
X148180238Y-80190476D02*
X148132619Y-80095238D01*
X148132619Y-80095238D02*
X148132619Y-79809524D01*
X148132619Y-79809524D02*
X148180238Y-79714286D01*
X148180238Y-79714286D02*
X148227857Y-79666667D01*
X114567380Y-116291666D02*
X114091190Y-116624999D01*
X114567380Y-116863094D02*
X113567380Y-116863094D01*
X113567380Y-116863094D02*
X113567380Y-116482142D01*
X113567380Y-116482142D02*
X113615000Y-116386904D01*
X113615000Y-116386904D02*
X113662619Y-116339285D01*
X113662619Y-116339285D02*
X113757857Y-116291666D01*
X113757857Y-116291666D02*
X113900714Y-116291666D01*
X113900714Y-116291666D02*
X113995952Y-116339285D01*
X113995952Y-116339285D02*
X114043571Y-116386904D01*
X114043571Y-116386904D02*
X114091190Y-116482142D01*
X114091190Y-116482142D02*
X114091190Y-116863094D01*
X114567380Y-115815475D02*
X114567380Y-115624999D01*
X114567380Y-115624999D02*
X114519761Y-115529761D01*
X114519761Y-115529761D02*
X114472142Y-115482142D01*
X114472142Y-115482142D02*
X114329285Y-115386904D01*
X114329285Y-115386904D02*
X114138809Y-115339285D01*
X114138809Y-115339285D02*
X113757857Y-115339285D01*
X113757857Y-115339285D02*
X113662619Y-115386904D01*
X113662619Y-115386904D02*
X113615000Y-115434523D01*
X113615000Y-115434523D02*
X113567380Y-115529761D01*
X113567380Y-115529761D02*
X113567380Y-115720237D01*
X113567380Y-115720237D02*
X113615000Y-115815475D01*
X113615000Y-115815475D02*
X113662619Y-115863094D01*
X113662619Y-115863094D02*
X113757857Y-115910713D01*
X113757857Y-115910713D02*
X113995952Y-115910713D01*
X113995952Y-115910713D02*
X114091190Y-115863094D01*
X114091190Y-115863094D02*
X114138809Y-115815475D01*
X114138809Y-115815475D02*
X114186428Y-115720237D01*
X114186428Y-115720237D02*
X114186428Y-115529761D01*
X114186428Y-115529761D02*
X114138809Y-115434523D01*
X114138809Y-115434523D02*
X114091190Y-115386904D01*
X114091190Y-115386904D02*
X113995952Y-115339285D01*
X136192619Y-94293095D02*
X135383095Y-94293095D01*
X135383095Y-94293095D02*
X135287857Y-94340714D01*
X135287857Y-94340714D02*
X135240238Y-94388333D01*
X135240238Y-94388333D02*
X135192619Y-94483571D01*
X135192619Y-94483571D02*
X135192619Y-94674047D01*
X135192619Y-94674047D02*
X135240238Y-94769285D01*
X135240238Y-94769285D02*
X135287857Y-94816904D01*
X135287857Y-94816904D02*
X135383095Y-94864523D01*
X135383095Y-94864523D02*
X136192619Y-94864523D01*
X136097380Y-95293095D02*
X136145000Y-95340714D01*
X136145000Y-95340714D02*
X136192619Y-95435952D01*
X136192619Y-95435952D02*
X136192619Y-95674047D01*
X136192619Y-95674047D02*
X136145000Y-95769285D01*
X136145000Y-95769285D02*
X136097380Y-95816904D01*
X136097380Y-95816904D02*
X136002142Y-95864523D01*
X136002142Y-95864523D02*
X135906904Y-95864523D01*
X135906904Y-95864523D02*
X135764047Y-95816904D01*
X135764047Y-95816904D02*
X135192619Y-95245476D01*
X135192619Y-95245476D02*
X135192619Y-95864523D01*
X126188095Y-101617380D02*
X126759523Y-101617380D01*
X126473809Y-102617380D02*
X126473809Y-101617380D01*
X127092857Y-102617380D02*
X127092857Y-101617380D01*
X127092857Y-101617380D02*
X127473809Y-101617380D01*
X127473809Y-101617380D02*
X127569047Y-101665000D01*
X127569047Y-101665000D02*
X127616666Y-101712619D01*
X127616666Y-101712619D02*
X127664285Y-101807857D01*
X127664285Y-101807857D02*
X127664285Y-101950714D01*
X127664285Y-101950714D02*
X127616666Y-102045952D01*
X127616666Y-102045952D02*
X127569047Y-102093571D01*
X127569047Y-102093571D02*
X127473809Y-102141190D01*
X127473809Y-102141190D02*
X127092857Y-102141190D01*
X128140476Y-102617380D02*
X128330952Y-102617380D01*
X128330952Y-102617380D02*
X128426190Y-102569761D01*
X128426190Y-102569761D02*
X128473809Y-102522142D01*
X128473809Y-102522142D02*
X128569047Y-102379285D01*
X128569047Y-102379285D02*
X128616666Y-102188809D01*
X128616666Y-102188809D02*
X128616666Y-101807857D01*
X128616666Y-101807857D02*
X128569047Y-101712619D01*
X128569047Y-101712619D02*
X128521428Y-101665000D01*
X128521428Y-101665000D02*
X128426190Y-101617380D01*
X128426190Y-101617380D02*
X128235714Y-101617380D01*
X128235714Y-101617380D02*
X128140476Y-101665000D01*
X128140476Y-101665000D02*
X128092857Y-101712619D01*
X128092857Y-101712619D02*
X128045238Y-101807857D01*
X128045238Y-101807857D02*
X128045238Y-102045952D01*
X128045238Y-102045952D02*
X128092857Y-102141190D01*
X128092857Y-102141190D02*
X128140476Y-102188809D01*
X128140476Y-102188809D02*
X128235714Y-102236428D01*
X128235714Y-102236428D02*
X128426190Y-102236428D01*
X128426190Y-102236428D02*
X128521428Y-102188809D01*
X128521428Y-102188809D02*
X128569047Y-102141190D01*
X128569047Y-102141190D02*
X128616666Y-102045952D01*
X111617380Y-103692857D02*
X111141190Y-104026190D01*
X111617380Y-104264285D02*
X110617380Y-104264285D01*
X110617380Y-104264285D02*
X110617380Y-103883333D01*
X110617380Y-103883333D02*
X110665000Y-103788095D01*
X110665000Y-103788095D02*
X110712619Y-103740476D01*
X110712619Y-103740476D02*
X110807857Y-103692857D01*
X110807857Y-103692857D02*
X110950714Y-103692857D01*
X110950714Y-103692857D02*
X111045952Y-103740476D01*
X111045952Y-103740476D02*
X111093571Y-103788095D01*
X111093571Y-103788095D02*
X111141190Y-103883333D01*
X111141190Y-103883333D02*
X111141190Y-104264285D01*
X111617380Y-102740476D02*
X111617380Y-103311904D01*
X111617380Y-103026190D02*
X110617380Y-103026190D01*
X110617380Y-103026190D02*
X110760238Y-103121428D01*
X110760238Y-103121428D02*
X110855476Y-103216666D01*
X110855476Y-103216666D02*
X110903095Y-103311904D01*
X110950714Y-101883333D02*
X111617380Y-101883333D01*
X110569761Y-102121428D02*
X111284047Y-102359523D01*
X111284047Y-102359523D02*
X111284047Y-101740476D01*
X116047380Y-103742857D02*
X115571190Y-104076190D01*
X116047380Y-104314285D02*
X115047380Y-104314285D01*
X115047380Y-104314285D02*
X115047380Y-103933333D01*
X115047380Y-103933333D02*
X115095000Y-103838095D01*
X115095000Y-103838095D02*
X115142619Y-103790476D01*
X115142619Y-103790476D02*
X115237857Y-103742857D01*
X115237857Y-103742857D02*
X115380714Y-103742857D01*
X115380714Y-103742857D02*
X115475952Y-103790476D01*
X115475952Y-103790476D02*
X115523571Y-103838095D01*
X115523571Y-103838095D02*
X115571190Y-103933333D01*
X115571190Y-103933333D02*
X115571190Y-104314285D01*
X116047380Y-102790476D02*
X116047380Y-103361904D01*
X116047380Y-103076190D02*
X115047380Y-103076190D01*
X115047380Y-103076190D02*
X115190238Y-103171428D01*
X115190238Y-103171428D02*
X115285476Y-103266666D01*
X115285476Y-103266666D02*
X115333095Y-103361904D01*
X115047380Y-101885714D02*
X115047380Y-102361904D01*
X115047380Y-102361904D02*
X115523571Y-102409523D01*
X115523571Y-102409523D02*
X115475952Y-102361904D01*
X115475952Y-102361904D02*
X115428333Y-102266666D01*
X115428333Y-102266666D02*
X115428333Y-102028571D01*
X115428333Y-102028571D02*
X115475952Y-101933333D01*
X115475952Y-101933333D02*
X115523571Y-101885714D01*
X115523571Y-101885714D02*
X115618809Y-101838095D01*
X115618809Y-101838095D02*
X115856904Y-101838095D01*
X115856904Y-101838095D02*
X115952142Y-101885714D01*
X115952142Y-101885714D02*
X115999761Y-101933333D01*
X115999761Y-101933333D02*
X116047380Y-102028571D01*
X116047380Y-102028571D02*
X116047380Y-102266666D01*
X116047380Y-102266666D02*
X115999761Y-102361904D01*
X115999761Y-102361904D02*
X115952142Y-102409523D01*
X133867380Y-79966666D02*
X133391190Y-80299999D01*
X133867380Y-80538094D02*
X132867380Y-80538094D01*
X132867380Y-80538094D02*
X132867380Y-80157142D01*
X132867380Y-80157142D02*
X132915000Y-80061904D01*
X132915000Y-80061904D02*
X132962619Y-80014285D01*
X132962619Y-80014285D02*
X133057857Y-79966666D01*
X133057857Y-79966666D02*
X133200714Y-79966666D01*
X133200714Y-79966666D02*
X133295952Y-80014285D01*
X133295952Y-80014285D02*
X133343571Y-80061904D01*
X133343571Y-80061904D02*
X133391190Y-80157142D01*
X133391190Y-80157142D02*
X133391190Y-80538094D01*
X132962619Y-79585713D02*
X132915000Y-79538094D01*
X132915000Y-79538094D02*
X132867380Y-79442856D01*
X132867380Y-79442856D02*
X132867380Y-79204761D01*
X132867380Y-79204761D02*
X132915000Y-79109523D01*
X132915000Y-79109523D02*
X132962619Y-79061904D01*
X132962619Y-79061904D02*
X133057857Y-79014285D01*
X133057857Y-79014285D02*
X133153095Y-79014285D01*
X133153095Y-79014285D02*
X133295952Y-79061904D01*
X133295952Y-79061904D02*
X133867380Y-79633332D01*
X133867380Y-79633332D02*
X133867380Y-79014285D01*
X120666666Y-96457166D02*
X121066666Y-96457166D01*
X120866666Y-97157166D02*
X120866666Y-96457166D01*
X121299999Y-97157166D02*
X121299999Y-96457166D01*
X121299999Y-96457166D02*
X121566666Y-96457166D01*
X121566666Y-96457166D02*
X121633333Y-96490500D01*
X121633333Y-96490500D02*
X121666666Y-96523833D01*
X121666666Y-96523833D02*
X121699999Y-96590500D01*
X121699999Y-96590500D02*
X121699999Y-96690500D01*
X121699999Y-96690500D02*
X121666666Y-96757166D01*
X121666666Y-96757166D02*
X121633333Y-96790500D01*
X121633333Y-96790500D02*
X121566666Y-96823833D01*
X121566666Y-96823833D02*
X121299999Y-96823833D01*
X121966666Y-96523833D02*
X121999999Y-96490500D01*
X121999999Y-96490500D02*
X122066666Y-96457166D01*
X122066666Y-96457166D02*
X122233333Y-96457166D01*
X122233333Y-96457166D02*
X122299999Y-96490500D01*
X122299999Y-96490500D02*
X122333333Y-96523833D01*
X122333333Y-96523833D02*
X122366666Y-96590500D01*
X122366666Y-96590500D02*
X122366666Y-96657166D01*
X122366666Y-96657166D02*
X122333333Y-96757166D01*
X122333333Y-96757166D02*
X121933333Y-97157166D01*
X121933333Y-97157166D02*
X122366666Y-97157166D01*
X119650000Y-98057166D02*
X119583334Y-98023833D01*
X119583334Y-98023833D02*
X119550000Y-97990500D01*
X119550000Y-97990500D02*
X119516667Y-97923833D01*
X119516667Y-97923833D02*
X119516667Y-97723833D01*
X119516667Y-97723833D02*
X119550000Y-97657166D01*
X119550000Y-97657166D02*
X119583334Y-97623833D01*
X119583334Y-97623833D02*
X119650000Y-97590500D01*
X119650000Y-97590500D02*
X119750000Y-97590500D01*
X119750000Y-97590500D02*
X119816667Y-97623833D01*
X119816667Y-97623833D02*
X119850000Y-97657166D01*
X119850000Y-97657166D02*
X119883334Y-97723833D01*
X119883334Y-97723833D02*
X119883334Y-97923833D01*
X119883334Y-97923833D02*
X119850000Y-97990500D01*
X119850000Y-97990500D02*
X119816667Y-98023833D01*
X119816667Y-98023833D02*
X119750000Y-98057166D01*
X119750000Y-98057166D02*
X119650000Y-98057166D01*
X120483333Y-97590500D02*
X120483333Y-98057166D01*
X120183333Y-97590500D02*
X120183333Y-97957166D01*
X120183333Y-97957166D02*
X120216667Y-98023833D01*
X120216667Y-98023833D02*
X120283333Y-98057166D01*
X120283333Y-98057166D02*
X120383333Y-98057166D01*
X120383333Y-98057166D02*
X120450000Y-98023833D01*
X120450000Y-98023833D02*
X120483333Y-97990500D01*
X120716666Y-97590500D02*
X120983333Y-97590500D01*
X120816666Y-97357166D02*
X120816666Y-97957166D01*
X120816666Y-97957166D02*
X120850000Y-98023833D01*
X120850000Y-98023833D02*
X120916666Y-98057166D01*
X120916666Y-98057166D02*
X120983333Y-98057166D01*
X121216666Y-97590500D02*
X121216666Y-98290500D01*
X121216666Y-97623833D02*
X121283333Y-97590500D01*
X121283333Y-97590500D02*
X121416666Y-97590500D01*
X121416666Y-97590500D02*
X121483333Y-97623833D01*
X121483333Y-97623833D02*
X121516666Y-97657166D01*
X121516666Y-97657166D02*
X121550000Y-97723833D01*
X121550000Y-97723833D02*
X121550000Y-97923833D01*
X121550000Y-97923833D02*
X121516666Y-97990500D01*
X121516666Y-97990500D02*
X121483333Y-98023833D01*
X121483333Y-98023833D02*
X121416666Y-98057166D01*
X121416666Y-98057166D02*
X121283333Y-98057166D01*
X121283333Y-98057166D02*
X121216666Y-98023833D01*
X122149999Y-97590500D02*
X122149999Y-98057166D01*
X121849999Y-97590500D02*
X121849999Y-97957166D01*
X121849999Y-97957166D02*
X121883333Y-98023833D01*
X121883333Y-98023833D02*
X121949999Y-98057166D01*
X121949999Y-98057166D02*
X122049999Y-98057166D01*
X122049999Y-98057166D02*
X122116666Y-98023833D01*
X122116666Y-98023833D02*
X122149999Y-97990500D01*
X122383332Y-97590500D02*
X122649999Y-97590500D01*
X122483332Y-97357166D02*
X122483332Y-97957166D01*
X122483332Y-97957166D02*
X122516666Y-98023833D01*
X122516666Y-98023833D02*
X122583332Y-98057166D01*
X122583332Y-98057166D02*
X122649999Y-98057166D01*
X130438095Y-101617380D02*
X131009523Y-101617380D01*
X130723809Y-102617380D02*
X130723809Y-101617380D01*
X131342857Y-102617380D02*
X131342857Y-101617380D01*
X131342857Y-101617380D02*
X131723809Y-101617380D01*
X131723809Y-101617380D02*
X131819047Y-101665000D01*
X131819047Y-101665000D02*
X131866666Y-101712619D01*
X131866666Y-101712619D02*
X131914285Y-101807857D01*
X131914285Y-101807857D02*
X131914285Y-101950714D01*
X131914285Y-101950714D02*
X131866666Y-102045952D01*
X131866666Y-102045952D02*
X131819047Y-102093571D01*
X131819047Y-102093571D02*
X131723809Y-102141190D01*
X131723809Y-102141190D02*
X131342857Y-102141190D01*
X132485714Y-102045952D02*
X132390476Y-101998333D01*
X132390476Y-101998333D02*
X132342857Y-101950714D01*
X132342857Y-101950714D02*
X132295238Y-101855476D01*
X132295238Y-101855476D02*
X132295238Y-101807857D01*
X132295238Y-101807857D02*
X132342857Y-101712619D01*
X132342857Y-101712619D02*
X132390476Y-101665000D01*
X132390476Y-101665000D02*
X132485714Y-101617380D01*
X132485714Y-101617380D02*
X132676190Y-101617380D01*
X132676190Y-101617380D02*
X132771428Y-101665000D01*
X132771428Y-101665000D02*
X132819047Y-101712619D01*
X132819047Y-101712619D02*
X132866666Y-101807857D01*
X132866666Y-101807857D02*
X132866666Y-101855476D01*
X132866666Y-101855476D02*
X132819047Y-101950714D01*
X132819047Y-101950714D02*
X132771428Y-101998333D01*
X132771428Y-101998333D02*
X132676190Y-102045952D01*
X132676190Y-102045952D02*
X132485714Y-102045952D01*
X132485714Y-102045952D02*
X132390476Y-102093571D01*
X132390476Y-102093571D02*
X132342857Y-102141190D01*
X132342857Y-102141190D02*
X132295238Y-102236428D01*
X132295238Y-102236428D02*
X132295238Y-102426904D01*
X132295238Y-102426904D02*
X132342857Y-102522142D01*
X132342857Y-102522142D02*
X132390476Y-102569761D01*
X132390476Y-102569761D02*
X132485714Y-102617380D01*
X132485714Y-102617380D02*
X132676190Y-102617380D01*
X132676190Y-102617380D02*
X132771428Y-102569761D01*
X132771428Y-102569761D02*
X132819047Y-102522142D01*
X132819047Y-102522142D02*
X132866666Y-102426904D01*
X132866666Y-102426904D02*
X132866666Y-102236428D01*
X132866666Y-102236428D02*
X132819047Y-102141190D01*
X132819047Y-102141190D02*
X132771428Y-102093571D01*
X132771428Y-102093571D02*
X132676190Y-102045952D01*
X145561905Y-75967380D02*
X146133333Y-75967380D01*
X145847619Y-76967380D02*
X145847619Y-75967380D01*
X146466667Y-76967380D02*
X146466667Y-75967380D01*
X146466667Y-75967380D02*
X146847619Y-75967380D01*
X146847619Y-75967380D02*
X146942857Y-76015000D01*
X146942857Y-76015000D02*
X146990476Y-76062619D01*
X146990476Y-76062619D02*
X147038095Y-76157857D01*
X147038095Y-76157857D02*
X147038095Y-76300714D01*
X147038095Y-76300714D02*
X146990476Y-76395952D01*
X146990476Y-76395952D02*
X146942857Y-76443571D01*
X146942857Y-76443571D02*
X146847619Y-76491190D01*
X146847619Y-76491190D02*
X146466667Y-76491190D01*
X147990476Y-76967380D02*
X147419048Y-76967380D01*
X147704762Y-76967380D02*
X147704762Y-75967380D01*
X147704762Y-75967380D02*
X147609524Y-76110238D01*
X147609524Y-76110238D02*
X147514286Y-76205476D01*
X147514286Y-76205476D02*
X147419048Y-76253095D01*
X148609524Y-75967380D02*
X148704762Y-75967380D01*
X148704762Y-75967380D02*
X148800000Y-76015000D01*
X148800000Y-76015000D02*
X148847619Y-76062619D01*
X148847619Y-76062619D02*
X148895238Y-76157857D01*
X148895238Y-76157857D02*
X148942857Y-76348333D01*
X148942857Y-76348333D02*
X148942857Y-76586428D01*
X148942857Y-76586428D02*
X148895238Y-76776904D01*
X148895238Y-76776904D02*
X148847619Y-76872142D01*
X148847619Y-76872142D02*
X148800000Y-76919761D01*
X148800000Y-76919761D02*
X148704762Y-76967380D01*
X148704762Y-76967380D02*
X148609524Y-76967380D01*
X148609524Y-76967380D02*
X148514286Y-76919761D01*
X148514286Y-76919761D02*
X148466667Y-76872142D01*
X148466667Y-76872142D02*
X148419048Y-76776904D01*
X148419048Y-76776904D02*
X148371429Y-76586428D01*
X148371429Y-76586428D02*
X148371429Y-76348333D01*
X148371429Y-76348333D02*
X148419048Y-76157857D01*
X148419048Y-76157857D02*
X148466667Y-76062619D01*
X148466667Y-76062619D02*
X148514286Y-76015000D01*
X148514286Y-76015000D02*
X148609524Y-75967380D01*
X145461905Y-59967380D02*
X146033333Y-59967380D01*
X145747619Y-60967380D02*
X145747619Y-59967380D01*
X146366667Y-60967380D02*
X146366667Y-59967380D01*
X146366667Y-59967380D02*
X146747619Y-59967380D01*
X146747619Y-59967380D02*
X146842857Y-60015000D01*
X146842857Y-60015000D02*
X146890476Y-60062619D01*
X146890476Y-60062619D02*
X146938095Y-60157857D01*
X146938095Y-60157857D02*
X146938095Y-60300714D01*
X146938095Y-60300714D02*
X146890476Y-60395952D01*
X146890476Y-60395952D02*
X146842857Y-60443571D01*
X146842857Y-60443571D02*
X146747619Y-60491190D01*
X146747619Y-60491190D02*
X146366667Y-60491190D01*
X147890476Y-60967380D02*
X147319048Y-60967380D01*
X147604762Y-60967380D02*
X147604762Y-59967380D01*
X147604762Y-59967380D02*
X147509524Y-60110238D01*
X147509524Y-60110238D02*
X147414286Y-60205476D01*
X147414286Y-60205476D02*
X147319048Y-60253095D01*
X148842857Y-60967380D02*
X148271429Y-60967380D01*
X148557143Y-60967380D02*
X148557143Y-59967380D01*
X148557143Y-59967380D02*
X148461905Y-60110238D01*
X148461905Y-60110238D02*
X148366667Y-60205476D01*
X148366667Y-60205476D02*
X148271429Y-60253095D01*
X146232619Y-83638095D02*
X145423095Y-83638095D01*
X145423095Y-83638095D02*
X145327857Y-83685714D01*
X145327857Y-83685714D02*
X145280238Y-83733333D01*
X145280238Y-83733333D02*
X145232619Y-83828571D01*
X145232619Y-83828571D02*
X145232619Y-84019047D01*
X145232619Y-84019047D02*
X145280238Y-84114285D01*
X145280238Y-84114285D02*
X145327857Y-84161904D01*
X145327857Y-84161904D02*
X145423095Y-84209523D01*
X145423095Y-84209523D02*
X146232619Y-84209523D01*
X145232619Y-85209523D02*
X145232619Y-84638095D01*
X145232619Y-84923809D02*
X146232619Y-84923809D01*
X146232619Y-84923809D02*
X146089761Y-84828571D01*
X146089761Y-84828571D02*
X145994523Y-84733333D01*
X145994523Y-84733333D02*
X145946904Y-84638095D01*
X125667380Y-79966666D02*
X125191190Y-80299999D01*
X125667380Y-80538094D02*
X124667380Y-80538094D01*
X124667380Y-80538094D02*
X124667380Y-80157142D01*
X124667380Y-80157142D02*
X124715000Y-80061904D01*
X124715000Y-80061904D02*
X124762619Y-80014285D01*
X124762619Y-80014285D02*
X124857857Y-79966666D01*
X124857857Y-79966666D02*
X125000714Y-79966666D01*
X125000714Y-79966666D02*
X125095952Y-80014285D01*
X125095952Y-80014285D02*
X125143571Y-80061904D01*
X125143571Y-80061904D02*
X125191190Y-80157142D01*
X125191190Y-80157142D02*
X125191190Y-80538094D01*
X125667380Y-79014285D02*
X125667380Y-79585713D01*
X125667380Y-79299999D02*
X124667380Y-79299999D01*
X124667380Y-79299999D02*
X124810238Y-79395237D01*
X124810238Y-79395237D02*
X124905476Y-79490475D01*
X124905476Y-79490475D02*
X124953095Y-79585713D01*
X140343571Y-117035714D02*
X140391190Y-116892857D01*
X140391190Y-116892857D02*
X140438809Y-116845238D01*
X140438809Y-116845238D02*
X140534047Y-116797619D01*
X140534047Y-116797619D02*
X140676904Y-116797619D01*
X140676904Y-116797619D02*
X140772142Y-116845238D01*
X140772142Y-116845238D02*
X140819761Y-116892857D01*
X140819761Y-116892857D02*
X140867380Y-116988095D01*
X140867380Y-116988095D02*
X140867380Y-117369047D01*
X140867380Y-117369047D02*
X139867380Y-117369047D01*
X139867380Y-117369047D02*
X139867380Y-117035714D01*
X139867380Y-117035714D02*
X139915000Y-116940476D01*
X139915000Y-116940476D02*
X139962619Y-116892857D01*
X139962619Y-116892857D02*
X140057857Y-116845238D01*
X140057857Y-116845238D02*
X140153095Y-116845238D01*
X140153095Y-116845238D02*
X140248333Y-116892857D01*
X140248333Y-116892857D02*
X140295952Y-116940476D01*
X140295952Y-116940476D02*
X140343571Y-117035714D01*
X140343571Y-117035714D02*
X140343571Y-117369047D01*
X139867380Y-116511904D02*
X139867380Y-115940476D01*
X140867380Y-116226190D02*
X139867380Y-116226190D01*
X140867380Y-115083333D02*
X140867380Y-115654761D01*
X140867380Y-115369047D02*
X139867380Y-115369047D01*
X139867380Y-115369047D02*
X140010238Y-115464285D01*
X140010238Y-115464285D02*
X140105476Y-115559523D01*
X140105476Y-115559523D02*
X140153095Y-115654761D01*
X128116666Y-107357166D02*
X128516666Y-107357166D01*
X128316666Y-108057166D02*
X128316666Y-107357166D01*
X128749999Y-108057166D02*
X128749999Y-107357166D01*
X128749999Y-107357166D02*
X129016666Y-107357166D01*
X129016666Y-107357166D02*
X129083333Y-107390500D01*
X129083333Y-107390500D02*
X129116666Y-107423833D01*
X129116666Y-107423833D02*
X129149999Y-107490500D01*
X129149999Y-107490500D02*
X129149999Y-107590500D01*
X129149999Y-107590500D02*
X129116666Y-107657166D01*
X129116666Y-107657166D02*
X129083333Y-107690500D01*
X129083333Y-107690500D02*
X129016666Y-107723833D01*
X129016666Y-107723833D02*
X128749999Y-107723833D01*
X129383333Y-107357166D02*
X129816666Y-107357166D01*
X129816666Y-107357166D02*
X129583333Y-107623833D01*
X129583333Y-107623833D02*
X129683333Y-107623833D01*
X129683333Y-107623833D02*
X129749999Y-107657166D01*
X129749999Y-107657166D02*
X129783333Y-107690500D01*
X129783333Y-107690500D02*
X129816666Y-107757166D01*
X129816666Y-107757166D02*
X129816666Y-107923833D01*
X129816666Y-107923833D02*
X129783333Y-107990500D01*
X129783333Y-107990500D02*
X129749999Y-108023833D01*
X129749999Y-108023833D02*
X129683333Y-108057166D01*
X129683333Y-108057166D02*
X129483333Y-108057166D01*
X129483333Y-108057166D02*
X129416666Y-108023833D01*
X129416666Y-108023833D02*
X129383333Y-107990500D01*
X129923810Y-111167380D02*
X130542857Y-111167380D01*
X130542857Y-111167380D02*
X130209524Y-111548333D01*
X130209524Y-111548333D02*
X130352381Y-111548333D01*
X130352381Y-111548333D02*
X130447619Y-111595952D01*
X130447619Y-111595952D02*
X130495238Y-111643571D01*
X130495238Y-111643571D02*
X130542857Y-111738809D01*
X130542857Y-111738809D02*
X130542857Y-111976904D01*
X130542857Y-111976904D02*
X130495238Y-112072142D01*
X130495238Y-112072142D02*
X130447619Y-112119761D01*
X130447619Y-112119761D02*
X130352381Y-112167380D01*
X130352381Y-112167380D02*
X130066667Y-112167380D01*
X130066667Y-112167380D02*
X129971429Y-112119761D01*
X129971429Y-112119761D02*
X129923810Y-112072142D01*
X130971429Y-112072142D02*
X131019048Y-112119761D01*
X131019048Y-112119761D02*
X130971429Y-112167380D01*
X130971429Y-112167380D02*
X130923810Y-112119761D01*
X130923810Y-112119761D02*
X130971429Y-112072142D01*
X130971429Y-112072142D02*
X130971429Y-112167380D01*
X131400000Y-111262619D02*
X131447619Y-111215000D01*
X131447619Y-111215000D02*
X131542857Y-111167380D01*
X131542857Y-111167380D02*
X131780952Y-111167380D01*
X131780952Y-111167380D02*
X131876190Y-111215000D01*
X131876190Y-111215000D02*
X131923809Y-111262619D01*
X131923809Y-111262619D02*
X131971428Y-111357857D01*
X131971428Y-111357857D02*
X131971428Y-111453095D01*
X131971428Y-111453095D02*
X131923809Y-111595952D01*
X131923809Y-111595952D02*
X131352381Y-112167380D01*
X131352381Y-112167380D02*
X131971428Y-112167380D01*
X132257143Y-111167380D02*
X132590476Y-112167380D01*
X132590476Y-112167380D02*
X132923809Y-111167380D01*
X129672142Y-79966666D02*
X129719761Y-80014285D01*
X129719761Y-80014285D02*
X129767380Y-80157142D01*
X129767380Y-80157142D02*
X129767380Y-80252380D01*
X129767380Y-80252380D02*
X129719761Y-80395237D01*
X129719761Y-80395237D02*
X129624523Y-80490475D01*
X129624523Y-80490475D02*
X129529285Y-80538094D01*
X129529285Y-80538094D02*
X129338809Y-80585713D01*
X129338809Y-80585713D02*
X129195952Y-80585713D01*
X129195952Y-80585713D02*
X129005476Y-80538094D01*
X129005476Y-80538094D02*
X128910238Y-80490475D01*
X128910238Y-80490475D02*
X128815000Y-80395237D01*
X128815000Y-80395237D02*
X128767380Y-80252380D01*
X128767380Y-80252380D02*
X128767380Y-80157142D01*
X128767380Y-80157142D02*
X128815000Y-80014285D01*
X128815000Y-80014285D02*
X128862619Y-79966666D01*
X129767380Y-79014285D02*
X129767380Y-79585713D01*
X129767380Y-79299999D02*
X128767380Y-79299999D01*
X128767380Y-79299999D02*
X128910238Y-79395237D01*
X128910238Y-79395237D02*
X129005476Y-79490475D01*
X129005476Y-79490475D02*
X129053095Y-79585713D01*
X119769761Y-75333332D02*
X119817380Y-75190475D01*
X119817380Y-75190475D02*
X119817380Y-74952380D01*
X119817380Y-74952380D02*
X119769761Y-74857142D01*
X119769761Y-74857142D02*
X119722142Y-74809523D01*
X119722142Y-74809523D02*
X119626904Y-74761904D01*
X119626904Y-74761904D02*
X119531666Y-74761904D01*
X119531666Y-74761904D02*
X119436428Y-74809523D01*
X119436428Y-74809523D02*
X119388809Y-74857142D01*
X119388809Y-74857142D02*
X119341190Y-74952380D01*
X119341190Y-74952380D02*
X119293571Y-75142856D01*
X119293571Y-75142856D02*
X119245952Y-75238094D01*
X119245952Y-75238094D02*
X119198333Y-75285713D01*
X119198333Y-75285713D02*
X119103095Y-75333332D01*
X119103095Y-75333332D02*
X119007857Y-75333332D01*
X119007857Y-75333332D02*
X118912619Y-75285713D01*
X118912619Y-75285713D02*
X118865000Y-75238094D01*
X118865000Y-75238094D02*
X118817380Y-75142856D01*
X118817380Y-75142856D02*
X118817380Y-74904761D01*
X118817380Y-74904761D02*
X118865000Y-74761904D01*
X118817380Y-74428570D02*
X119817380Y-74190475D01*
X119817380Y-74190475D02*
X119103095Y-73999999D01*
X119103095Y-73999999D02*
X119817380Y-73809523D01*
X119817380Y-73809523D02*
X118817380Y-73571428D01*
X119817380Y-72666666D02*
X119817380Y-73238094D01*
X119817380Y-72952380D02*
X118817380Y-72952380D01*
X118817380Y-72952380D02*
X118960238Y-73047618D01*
X118960238Y-73047618D02*
X119055476Y-73142856D01*
X119055476Y-73142856D02*
X119103095Y-73238094D01*
X114566666Y-107557166D02*
X114966666Y-107557166D01*
X114766666Y-108257166D02*
X114766666Y-107557166D01*
X115199999Y-108257166D02*
X115199999Y-107557166D01*
X115199999Y-107557166D02*
X115466666Y-107557166D01*
X115466666Y-107557166D02*
X115533333Y-107590500D01*
X115533333Y-107590500D02*
X115566666Y-107623833D01*
X115566666Y-107623833D02*
X115599999Y-107690500D01*
X115599999Y-107690500D02*
X115599999Y-107790500D01*
X115599999Y-107790500D02*
X115566666Y-107857166D01*
X115566666Y-107857166D02*
X115533333Y-107890500D01*
X115533333Y-107890500D02*
X115466666Y-107923833D01*
X115466666Y-107923833D02*
X115199999Y-107923833D01*
X116199999Y-107557166D02*
X116066666Y-107557166D01*
X116066666Y-107557166D02*
X115999999Y-107590500D01*
X115999999Y-107590500D02*
X115966666Y-107623833D01*
X115966666Y-107623833D02*
X115899999Y-107723833D01*
X115899999Y-107723833D02*
X115866666Y-107857166D01*
X115866666Y-107857166D02*
X115866666Y-108123833D01*
X115866666Y-108123833D02*
X115899999Y-108190500D01*
X115899999Y-108190500D02*
X115933333Y-108223833D01*
X115933333Y-108223833D02*
X115999999Y-108257166D01*
X115999999Y-108257166D02*
X116133333Y-108257166D01*
X116133333Y-108257166D02*
X116199999Y-108223833D01*
X116199999Y-108223833D02*
X116233333Y-108190500D01*
X116233333Y-108190500D02*
X116266666Y-108123833D01*
X116266666Y-108123833D02*
X116266666Y-107957166D01*
X116266666Y-107957166D02*
X116233333Y-107890500D01*
X116233333Y-107890500D02*
X116199999Y-107857166D01*
X116199999Y-107857166D02*
X116133333Y-107823833D01*
X116133333Y-107823833D02*
X115999999Y-107823833D01*
X115999999Y-107823833D02*
X115933333Y-107857166D01*
X115933333Y-107857166D02*
X115899999Y-107890500D01*
X115899999Y-107890500D02*
X115866666Y-107957166D01*
X116309524Y-111767380D02*
X116404762Y-111767380D01*
X116404762Y-111767380D02*
X116500000Y-111815000D01*
X116500000Y-111815000D02*
X116547619Y-111862619D01*
X116547619Y-111862619D02*
X116595238Y-111957857D01*
X116595238Y-111957857D02*
X116642857Y-112148333D01*
X116642857Y-112148333D02*
X116642857Y-112386428D01*
X116642857Y-112386428D02*
X116595238Y-112576904D01*
X116595238Y-112576904D02*
X116547619Y-112672142D01*
X116547619Y-112672142D02*
X116500000Y-112719761D01*
X116500000Y-112719761D02*
X116404762Y-112767380D01*
X116404762Y-112767380D02*
X116309524Y-112767380D01*
X116309524Y-112767380D02*
X116214286Y-112719761D01*
X116214286Y-112719761D02*
X116166667Y-112672142D01*
X116166667Y-112672142D02*
X116119048Y-112576904D01*
X116119048Y-112576904D02*
X116071429Y-112386428D01*
X116071429Y-112386428D02*
X116071429Y-112148333D01*
X116071429Y-112148333D02*
X116119048Y-111957857D01*
X116119048Y-111957857D02*
X116166667Y-111862619D01*
X116166667Y-111862619D02*
X116214286Y-111815000D01*
X116214286Y-111815000D02*
X116309524Y-111767380D01*
X117071429Y-112672142D02*
X117119048Y-112719761D01*
X117119048Y-112719761D02*
X117071429Y-112767380D01*
X117071429Y-112767380D02*
X117023810Y-112719761D01*
X117023810Y-112719761D02*
X117071429Y-112672142D01*
X117071429Y-112672142D02*
X117071429Y-112767380D01*
X117690476Y-112195952D02*
X117595238Y-112148333D01*
X117595238Y-112148333D02*
X117547619Y-112100714D01*
X117547619Y-112100714D02*
X117500000Y-112005476D01*
X117500000Y-112005476D02*
X117500000Y-111957857D01*
X117500000Y-111957857D02*
X117547619Y-111862619D01*
X117547619Y-111862619D02*
X117595238Y-111815000D01*
X117595238Y-111815000D02*
X117690476Y-111767380D01*
X117690476Y-111767380D02*
X117880952Y-111767380D01*
X117880952Y-111767380D02*
X117976190Y-111815000D01*
X117976190Y-111815000D02*
X118023809Y-111862619D01*
X118023809Y-111862619D02*
X118071428Y-111957857D01*
X118071428Y-111957857D02*
X118071428Y-112005476D01*
X118071428Y-112005476D02*
X118023809Y-112100714D01*
X118023809Y-112100714D02*
X117976190Y-112148333D01*
X117976190Y-112148333D02*
X117880952Y-112195952D01*
X117880952Y-112195952D02*
X117690476Y-112195952D01*
X117690476Y-112195952D02*
X117595238Y-112243571D01*
X117595238Y-112243571D02*
X117547619Y-112291190D01*
X117547619Y-112291190D02*
X117500000Y-112386428D01*
X117500000Y-112386428D02*
X117500000Y-112576904D01*
X117500000Y-112576904D02*
X117547619Y-112672142D01*
X117547619Y-112672142D02*
X117595238Y-112719761D01*
X117595238Y-112719761D02*
X117690476Y-112767380D01*
X117690476Y-112767380D02*
X117880952Y-112767380D01*
X117880952Y-112767380D02*
X117976190Y-112719761D01*
X117976190Y-112719761D02*
X118023809Y-112672142D01*
X118023809Y-112672142D02*
X118071428Y-112576904D01*
X118071428Y-112576904D02*
X118071428Y-112386428D01*
X118071428Y-112386428D02*
X118023809Y-112291190D01*
X118023809Y-112291190D02*
X117976190Y-112243571D01*
X117976190Y-112243571D02*
X117880952Y-112195952D01*
X118357143Y-111767380D02*
X118690476Y-112767380D01*
X118690476Y-112767380D02*
X119023809Y-111767380D01*
X129883333Y-86937380D02*
X129550000Y-86461190D01*
X129311905Y-86937380D02*
X129311905Y-85937380D01*
X129311905Y-85937380D02*
X129692857Y-85937380D01*
X129692857Y-85937380D02*
X129788095Y-85985000D01*
X129788095Y-85985000D02*
X129835714Y-86032619D01*
X129835714Y-86032619D02*
X129883333Y-86127857D01*
X129883333Y-86127857D02*
X129883333Y-86270714D01*
X129883333Y-86270714D02*
X129835714Y-86365952D01*
X129835714Y-86365952D02*
X129788095Y-86413571D01*
X129788095Y-86413571D02*
X129692857Y-86461190D01*
X129692857Y-86461190D02*
X129311905Y-86461190D01*
X130740476Y-86270714D02*
X130740476Y-86937380D01*
X130502381Y-85889761D02*
X130264286Y-86604047D01*
X130264286Y-86604047D02*
X130883333Y-86604047D01*
X124266666Y-107457166D02*
X124666666Y-107457166D01*
X124466666Y-108157166D02*
X124466666Y-107457166D01*
X124899999Y-108157166D02*
X124899999Y-107457166D01*
X124899999Y-107457166D02*
X125166666Y-107457166D01*
X125166666Y-107457166D02*
X125233333Y-107490500D01*
X125233333Y-107490500D02*
X125266666Y-107523833D01*
X125266666Y-107523833D02*
X125299999Y-107590500D01*
X125299999Y-107590500D02*
X125299999Y-107690500D01*
X125299999Y-107690500D02*
X125266666Y-107757166D01*
X125266666Y-107757166D02*
X125233333Y-107790500D01*
X125233333Y-107790500D02*
X125166666Y-107823833D01*
X125166666Y-107823833D02*
X124899999Y-107823833D01*
X125899999Y-107690500D02*
X125899999Y-108157166D01*
X125733333Y-107423833D02*
X125566666Y-107923833D01*
X125566666Y-107923833D02*
X125999999Y-107923833D01*
X125671429Y-111662619D02*
X125719048Y-111615000D01*
X125719048Y-111615000D02*
X125814286Y-111567380D01*
X125814286Y-111567380D02*
X126052381Y-111567380D01*
X126052381Y-111567380D02*
X126147619Y-111615000D01*
X126147619Y-111615000D02*
X126195238Y-111662619D01*
X126195238Y-111662619D02*
X126242857Y-111757857D01*
X126242857Y-111757857D02*
X126242857Y-111853095D01*
X126242857Y-111853095D02*
X126195238Y-111995952D01*
X126195238Y-111995952D02*
X125623810Y-112567380D01*
X125623810Y-112567380D02*
X126242857Y-112567380D01*
X126671429Y-112472142D02*
X126719048Y-112519761D01*
X126719048Y-112519761D02*
X126671429Y-112567380D01*
X126671429Y-112567380D02*
X126623810Y-112519761D01*
X126623810Y-112519761D02*
X126671429Y-112472142D01*
X126671429Y-112472142D02*
X126671429Y-112567380D01*
X127576190Y-111900714D02*
X127576190Y-112567380D01*
X127338095Y-111519761D02*
X127100000Y-112234047D01*
X127100000Y-112234047D02*
X127719047Y-112234047D01*
X127957143Y-111567380D02*
X128290476Y-112567380D01*
X128290476Y-112567380D02*
X128623809Y-111567380D01*
X121907142Y-91937380D02*
X121573809Y-91461190D01*
X121335714Y-91937380D02*
X121335714Y-90937380D01*
X121335714Y-90937380D02*
X121716666Y-90937380D01*
X121716666Y-90937380D02*
X121811904Y-90985000D01*
X121811904Y-90985000D02*
X121859523Y-91032619D01*
X121859523Y-91032619D02*
X121907142Y-91127857D01*
X121907142Y-91127857D02*
X121907142Y-91270714D01*
X121907142Y-91270714D02*
X121859523Y-91365952D01*
X121859523Y-91365952D02*
X121811904Y-91413571D01*
X121811904Y-91413571D02*
X121716666Y-91461190D01*
X121716666Y-91461190D02*
X121335714Y-91461190D01*
X122859523Y-91937380D02*
X122288095Y-91937380D01*
X122573809Y-91937380D02*
X122573809Y-90937380D01*
X122573809Y-90937380D02*
X122478571Y-91080238D01*
X122478571Y-91080238D02*
X122383333Y-91175476D01*
X122383333Y-91175476D02*
X122288095Y-91223095D01*
X123240476Y-91032619D02*
X123288095Y-90985000D01*
X123288095Y-90985000D02*
X123383333Y-90937380D01*
X123383333Y-90937380D02*
X123621428Y-90937380D01*
X123621428Y-90937380D02*
X123716666Y-90985000D01*
X123716666Y-90985000D02*
X123764285Y-91032619D01*
X123764285Y-91032619D02*
X123811904Y-91127857D01*
X123811904Y-91127857D02*
X123811904Y-91223095D01*
X123811904Y-91223095D02*
X123764285Y-91365952D01*
X123764285Y-91365952D02*
X123192857Y-91937380D01*
X123192857Y-91937380D02*
X123811904Y-91937380D01*
X119067380Y-116266666D02*
X118591190Y-116599999D01*
X119067380Y-116838094D02*
X118067380Y-116838094D01*
X118067380Y-116838094D02*
X118067380Y-116457142D01*
X118067380Y-116457142D02*
X118115000Y-116361904D01*
X118115000Y-116361904D02*
X118162619Y-116314285D01*
X118162619Y-116314285D02*
X118257857Y-116266666D01*
X118257857Y-116266666D02*
X118400714Y-116266666D01*
X118400714Y-116266666D02*
X118495952Y-116314285D01*
X118495952Y-116314285D02*
X118543571Y-116361904D01*
X118543571Y-116361904D02*
X118591190Y-116457142D01*
X118591190Y-116457142D02*
X118591190Y-116838094D01*
X118495952Y-115695237D02*
X118448333Y-115790475D01*
X118448333Y-115790475D02*
X118400714Y-115838094D01*
X118400714Y-115838094D02*
X118305476Y-115885713D01*
X118305476Y-115885713D02*
X118257857Y-115885713D01*
X118257857Y-115885713D02*
X118162619Y-115838094D01*
X118162619Y-115838094D02*
X118115000Y-115790475D01*
X118115000Y-115790475D02*
X118067380Y-115695237D01*
X118067380Y-115695237D02*
X118067380Y-115504761D01*
X118067380Y-115504761D02*
X118115000Y-115409523D01*
X118115000Y-115409523D02*
X118162619Y-115361904D01*
X118162619Y-115361904D02*
X118257857Y-115314285D01*
X118257857Y-115314285D02*
X118305476Y-115314285D01*
X118305476Y-115314285D02*
X118400714Y-115361904D01*
X118400714Y-115361904D02*
X118448333Y-115409523D01*
X118448333Y-115409523D02*
X118495952Y-115504761D01*
X118495952Y-115504761D02*
X118495952Y-115695237D01*
X118495952Y-115695237D02*
X118543571Y-115790475D01*
X118543571Y-115790475D02*
X118591190Y-115838094D01*
X118591190Y-115838094D02*
X118686428Y-115885713D01*
X118686428Y-115885713D02*
X118876904Y-115885713D01*
X118876904Y-115885713D02*
X118972142Y-115838094D01*
X118972142Y-115838094D02*
X119019761Y-115790475D01*
X119019761Y-115790475D02*
X119067380Y-115695237D01*
X119067380Y-115695237D02*
X119067380Y-115504761D01*
X119067380Y-115504761D02*
X119019761Y-115409523D01*
X119019761Y-115409523D02*
X118972142Y-115361904D01*
X118972142Y-115361904D02*
X118876904Y-115314285D01*
X118876904Y-115314285D02*
X118686428Y-115314285D01*
X118686428Y-115314285D02*
X118591190Y-115361904D01*
X118591190Y-115361904D02*
X118543571Y-115409523D01*
X118543571Y-115409523D02*
X118495952Y-115504761D01*
X113607142Y-86917380D02*
X113273809Y-86441190D01*
X113035714Y-86917380D02*
X113035714Y-85917380D01*
X113035714Y-85917380D02*
X113416666Y-85917380D01*
X113416666Y-85917380D02*
X113511904Y-85965000D01*
X113511904Y-85965000D02*
X113559523Y-86012619D01*
X113559523Y-86012619D02*
X113607142Y-86107857D01*
X113607142Y-86107857D02*
X113607142Y-86250714D01*
X113607142Y-86250714D02*
X113559523Y-86345952D01*
X113559523Y-86345952D02*
X113511904Y-86393571D01*
X113511904Y-86393571D02*
X113416666Y-86441190D01*
X113416666Y-86441190D02*
X113035714Y-86441190D01*
X114559523Y-86917380D02*
X113988095Y-86917380D01*
X114273809Y-86917380D02*
X114273809Y-85917380D01*
X114273809Y-85917380D02*
X114178571Y-86060238D01*
X114178571Y-86060238D02*
X114083333Y-86155476D01*
X114083333Y-86155476D02*
X113988095Y-86203095D01*
X115178571Y-85917380D02*
X115273809Y-85917380D01*
X115273809Y-85917380D02*
X115369047Y-85965000D01*
X115369047Y-85965000D02*
X115416666Y-86012619D01*
X115416666Y-86012619D02*
X115464285Y-86107857D01*
X115464285Y-86107857D02*
X115511904Y-86298333D01*
X115511904Y-86298333D02*
X115511904Y-86536428D01*
X115511904Y-86536428D02*
X115464285Y-86726904D01*
X115464285Y-86726904D02*
X115416666Y-86822142D01*
X115416666Y-86822142D02*
X115369047Y-86869761D01*
X115369047Y-86869761D02*
X115273809Y-86917380D01*
X115273809Y-86917380D02*
X115178571Y-86917380D01*
X115178571Y-86917380D02*
X115083333Y-86869761D01*
X115083333Y-86869761D02*
X115035714Y-86822142D01*
X115035714Y-86822142D02*
X114988095Y-86726904D01*
X114988095Y-86726904D02*
X114940476Y-86536428D01*
X114940476Y-86536428D02*
X114940476Y-86298333D01*
X114940476Y-86298333D02*
X114988095Y-86107857D01*
X114988095Y-86107857D02*
X115035714Y-86012619D01*
X115035714Y-86012619D02*
X115083333Y-85965000D01*
X115083333Y-85965000D02*
X115178571Y-85917380D01*
X149554880Y-67238094D02*
X148554880Y-67238094D01*
X148554880Y-67238094D02*
X148554880Y-66999999D01*
X148554880Y-66999999D02*
X148602500Y-66857142D01*
X148602500Y-66857142D02*
X148697738Y-66761904D01*
X148697738Y-66761904D02*
X148792976Y-66714285D01*
X148792976Y-66714285D02*
X148983452Y-66666666D01*
X148983452Y-66666666D02*
X149126309Y-66666666D01*
X149126309Y-66666666D02*
X149316785Y-66714285D01*
X149316785Y-66714285D02*
X149412023Y-66761904D01*
X149412023Y-66761904D02*
X149507261Y-66857142D01*
X149507261Y-66857142D02*
X149554880Y-66999999D01*
X149554880Y-66999999D02*
X149554880Y-67238094D01*
X149554880Y-65714285D02*
X149554880Y-66285713D01*
X149554880Y-65999999D02*
X148554880Y-65999999D01*
X148554880Y-65999999D02*
X148697738Y-66095237D01*
X148697738Y-66095237D02*
X148792976Y-66190475D01*
X148792976Y-66190475D02*
X148840595Y-66285713D01*
X113857142Y-91987380D02*
X113523809Y-91511190D01*
X113285714Y-91987380D02*
X113285714Y-90987380D01*
X113285714Y-90987380D02*
X113666666Y-90987380D01*
X113666666Y-90987380D02*
X113761904Y-91035000D01*
X113761904Y-91035000D02*
X113809523Y-91082619D01*
X113809523Y-91082619D02*
X113857142Y-91177857D01*
X113857142Y-91177857D02*
X113857142Y-91320714D01*
X113857142Y-91320714D02*
X113809523Y-91415952D01*
X113809523Y-91415952D02*
X113761904Y-91463571D01*
X113761904Y-91463571D02*
X113666666Y-91511190D01*
X113666666Y-91511190D02*
X113285714Y-91511190D01*
X114809523Y-91987380D02*
X114238095Y-91987380D01*
X114523809Y-91987380D02*
X114523809Y-90987380D01*
X114523809Y-90987380D02*
X114428571Y-91130238D01*
X114428571Y-91130238D02*
X114333333Y-91225476D01*
X114333333Y-91225476D02*
X114238095Y-91273095D01*
X115761904Y-91987380D02*
X115190476Y-91987380D01*
X115476190Y-91987380D02*
X115476190Y-90987380D01*
X115476190Y-90987380D02*
X115380952Y-91130238D01*
X115380952Y-91130238D02*
X115285714Y-91225476D01*
X115285714Y-91225476D02*
X115190476Y-91273095D01*
X123367380Y-116266666D02*
X122891190Y-116599999D01*
X123367380Y-116838094D02*
X122367380Y-116838094D01*
X122367380Y-116838094D02*
X122367380Y-116457142D01*
X122367380Y-116457142D02*
X122415000Y-116361904D01*
X122415000Y-116361904D02*
X122462619Y-116314285D01*
X122462619Y-116314285D02*
X122557857Y-116266666D01*
X122557857Y-116266666D02*
X122700714Y-116266666D01*
X122700714Y-116266666D02*
X122795952Y-116314285D01*
X122795952Y-116314285D02*
X122843571Y-116361904D01*
X122843571Y-116361904D02*
X122891190Y-116457142D01*
X122891190Y-116457142D02*
X122891190Y-116838094D01*
X122367380Y-115933332D02*
X122367380Y-115266666D01*
X122367380Y-115266666D02*
X123367380Y-115695237D01*
X131717380Y-115333333D02*
X132431666Y-115333333D01*
X132431666Y-115333333D02*
X132574523Y-115380952D01*
X132574523Y-115380952D02*
X132669761Y-115476190D01*
X132669761Y-115476190D02*
X132717380Y-115619047D01*
X132717380Y-115619047D02*
X132717380Y-115714285D01*
X132717380Y-114333333D02*
X132717380Y-114904761D01*
X132717380Y-114619047D02*
X131717380Y-114619047D01*
X131717380Y-114619047D02*
X131860238Y-114714285D01*
X131860238Y-114714285D02*
X131955476Y-114809523D01*
X131955476Y-114809523D02*
X132003095Y-114904761D01*
X111617380Y-96192857D02*
X111141190Y-96526190D01*
X111617380Y-96764285D02*
X110617380Y-96764285D01*
X110617380Y-96764285D02*
X110617380Y-96383333D01*
X110617380Y-96383333D02*
X110665000Y-96288095D01*
X110665000Y-96288095D02*
X110712619Y-96240476D01*
X110712619Y-96240476D02*
X110807857Y-96192857D01*
X110807857Y-96192857D02*
X110950714Y-96192857D01*
X110950714Y-96192857D02*
X111045952Y-96240476D01*
X111045952Y-96240476D02*
X111093571Y-96288095D01*
X111093571Y-96288095D02*
X111141190Y-96383333D01*
X111141190Y-96383333D02*
X111141190Y-96764285D01*
X111617380Y-95240476D02*
X111617380Y-95811904D01*
X111617380Y-95526190D02*
X110617380Y-95526190D01*
X110617380Y-95526190D02*
X110760238Y-95621428D01*
X110760238Y-95621428D02*
X110855476Y-95716666D01*
X110855476Y-95716666D02*
X110903095Y-95811904D01*
X110617380Y-94907142D02*
X110617380Y-94288095D01*
X110617380Y-94288095D02*
X110998333Y-94621428D01*
X110998333Y-94621428D02*
X110998333Y-94478571D01*
X110998333Y-94478571D02*
X111045952Y-94383333D01*
X111045952Y-94383333D02*
X111093571Y-94335714D01*
X111093571Y-94335714D02*
X111188809Y-94288095D01*
X111188809Y-94288095D02*
X111426904Y-94288095D01*
X111426904Y-94288095D02*
X111522142Y-94335714D01*
X111522142Y-94335714D02*
X111569761Y-94383333D01*
X111569761Y-94383333D02*
X111617380Y-94478571D01*
X111617380Y-94478571D02*
X111617380Y-94764285D01*
X111617380Y-94764285D02*
X111569761Y-94859523D01*
X111569761Y-94859523D02*
X111522142Y-94907142D01*
D13*
X124090000Y-116777064D02*
X124090000Y-115322936D01*
X125910000Y-116777064D02*
X125910000Y-115322936D01*
X114800000Y-109300000D02*
G75*
G03*
X114800000Y-109300000I-1900000J0D01*
G01*
X138273752Y-90660000D02*
X136851248Y-90660000D01*
X138273752Y-88840000D02*
X136851248Y-88840000D01*
X124400000Y-109100000D02*
G75*
G03*
X124400000Y-109100000I-1900000J0D01*
G01*
X129351248Y-88840000D02*
X130773752Y-88840000D01*
X129351248Y-90660000D02*
X130773752Y-90660000D01*
X121822936Y-83840000D02*
X123277064Y-83840000D01*
X121822936Y-85660000D02*
X123277064Y-85660000D01*
X132250000Y-57500000D02*
G75*
G03*
X132250000Y-57500000I-2250000J0D01*
G01*
X116590000Y-96327064D02*
X116590000Y-94872936D01*
X118410000Y-96327064D02*
X118410000Y-94872936D01*
X145840000Y-80277064D02*
X145840000Y-78822936D01*
X147660000Y-80277064D02*
X147660000Y-78822936D01*
X111190000Y-116977064D02*
X111190000Y-115522936D01*
X113010000Y-116977064D02*
X113010000Y-115522936D01*
X134700000Y-93515000D02*
X124300000Y-93515000D01*
X124300000Y-93515000D02*
X124300000Y-105985000D01*
X134640000Y-97215000D02*
X124360000Y-97215000D01*
X124360000Y-97215000D02*
X124360000Y-102285000D01*
X134640000Y-98750000D02*
X134640000Y-97215000D01*
X134640000Y-102285000D02*
X134640000Y-100750000D01*
X124360000Y-102285000D02*
X134640000Y-102285000D01*
X134700000Y-105985000D02*
X134700000Y-93515000D01*
X124300000Y-105985000D02*
X134700000Y-105985000D01*
X134640000Y-98750000D02*
G75*
G03*
X134640000Y-100750000I0J-1000000D01*
G01*
X128250000Y-99750000D02*
G75*
G03*
X128250000Y-99750000I-1500000J0D01*
G01*
X113910000Y-102372936D02*
X113910000Y-103827064D01*
X112090000Y-102372936D02*
X112090000Y-103827064D01*
X116590000Y-103827064D02*
X116590000Y-102372936D01*
X118410000Y-103827064D02*
X118410000Y-102372936D01*
X132410000Y-77472936D02*
X132410000Y-78927064D01*
X130590000Y-77472936D02*
X130590000Y-78927064D01*
X123100000Y-100000000D02*
G75*
G03*
X123100000Y-100000000I-1500000J0D01*
G01*
X132500000Y-99750000D02*
G75*
G03*
X132500000Y-99750000I-1500000J0D01*
G01*
X148100000Y-74100000D02*
G75*
G03*
X148100000Y-74100000I-1500000J0D01*
G01*
X148150000Y-62950000D02*
G75*
G03*
X148150000Y-62950000I-1500000J0D01*
G01*
X144760000Y-73570000D02*
X134360000Y-73570000D01*
X134360000Y-73570000D02*
X134360000Y-86040000D01*
X144700000Y-77270000D02*
X134420000Y-77270000D01*
X134420000Y-77270000D02*
X134420000Y-82340000D01*
X144700000Y-78805000D02*
X144700000Y-77270000D01*
X144700000Y-82340000D02*
X144700000Y-80805000D01*
X134420000Y-82340000D02*
X144700000Y-82340000D01*
X144760000Y-86040000D02*
X144760000Y-73570000D01*
X134360000Y-86040000D02*
X144760000Y-86040000D01*
X144700000Y-78805000D02*
G75*
G03*
X144700000Y-80805000I0J-1000000D01*
G01*
X124410000Y-77722936D02*
X124410000Y-79177064D01*
X122590000Y-77722936D02*
X122590000Y-79177064D01*
X147750000Y-87150000D02*
X142250000Y-87150000D01*
X142250000Y-87150000D02*
X142250000Y-91950000D01*
X138950000Y-91900000D02*
X134150000Y-98750000D01*
X147750000Y-91950000D02*
X147750000Y-87150000D01*
X154500000Y-92150000D02*
X154500000Y-98850000D01*
X134150000Y-98750000D02*
X134150000Y-106650000D01*
X134150000Y-106650000D02*
X138950000Y-113450000D01*
X154500000Y-113250000D02*
X154500000Y-106550000D01*
X142250000Y-113450000D02*
X142250000Y-118250000D01*
X147750000Y-118250000D02*
X147750000Y-113450000D01*
X142250000Y-118250000D02*
X147750000Y-118250000D01*
X154499999Y-106550000D02*
G75*
G03*
X154501463Y-98853615I-9499999J3850000D01*
G01*
X132800000Y-109300000D02*
G75*
G03*
X132800000Y-109300000I-1500000J0D01*
G01*
X128410000Y-77726248D02*
X128410000Y-79148752D01*
X126590000Y-77726248D02*
X126590000Y-79148752D01*
X115950000Y-70500000D02*
X114450000Y-70500000D01*
X111950000Y-71750000D02*
X111950000Y-76250000D01*
X118450000Y-76250000D02*
X118450000Y-71750000D01*
X114450000Y-77500000D02*
X115950000Y-77500000D01*
X119000000Y-109600000D02*
G75*
G03*
X119000000Y-109600000I-1500000J0D01*
G01*
X130777064Y-83840000D02*
X129322936Y-83840000D01*
X130777064Y-85660000D02*
X129322936Y-85660000D01*
X128600000Y-109400000D02*
G75*
G03*
X128600000Y-109400000I-1500000J0D01*
G01*
X123277064Y-90660000D02*
X121822936Y-90660000D01*
X123277064Y-88840000D02*
X121822936Y-88840000D01*
X117510000Y-116927064D02*
X117510000Y-115472936D01*
X115690000Y-116927064D02*
X115690000Y-115472936D01*
X113722936Y-83890000D02*
X115177064Y-83890000D01*
X113722936Y-85710000D02*
X115177064Y-85710000D01*
X115227064Y-90710000D02*
X113772936Y-90710000D01*
X115227064Y-88890000D02*
X113772936Y-88890000D01*
X121810000Y-115422936D02*
X121810000Y-116877064D01*
X119990000Y-115422936D02*
X119990000Y-116877064D01*
X138160000Y-109940000D02*
X133440000Y-109940000D01*
X136050000Y-109940000D02*
X136050000Y-110550000D01*
X134750000Y-109940000D02*
X134750000Y-110550000D01*
X133440000Y-109940000D02*
X133440000Y-120060000D01*
X137550000Y-110550000D02*
X134050000Y-110550000D01*
X134050000Y-110550000D02*
X134050000Y-112500000D01*
X134050000Y-112500000D02*
X133440000Y-112500000D01*
X137050000Y-112900000D02*
X137550000Y-112900000D01*
X137550000Y-113000000D02*
X137050000Y-113000000D01*
X137550000Y-113100000D02*
X137050000Y-113100000D01*
X137050000Y-113100000D02*
X137050000Y-112900000D01*
X137050000Y-114900000D02*
X137550000Y-114900000D01*
X137550000Y-115000000D02*
X137050000Y-115000000D01*
X137550000Y-115100000D02*
X137050000Y-115100000D01*
X137050000Y-115100000D02*
X137050000Y-114900000D01*
X137050000Y-116900000D02*
X137550000Y-116900000D01*
X137550000Y-117000000D02*
X137050000Y-117000000D01*
X137550000Y-117100000D02*
X137050000Y-117100000D01*
X137050000Y-117100000D02*
X137050000Y-116900000D01*
X134050000Y-117500000D02*
X134050000Y-119450000D01*
X133440000Y-117500000D02*
X134050000Y-117500000D01*
X133440000Y-118300000D02*
X133240000Y-118300000D01*
X133340000Y-118300000D02*
X133340000Y-118600000D01*
X133240000Y-118300000D02*
X133240000Y-118600000D01*
X133240000Y-118600000D02*
X133440000Y-118600000D01*
X133140000Y-119110000D02*
X133140000Y-120360000D01*
X137550000Y-119450000D02*
X137550000Y-110550000D01*
X134050000Y-119450000D02*
X137550000Y-119450000D01*
X138160000Y-120060000D02*
X138160000Y-109940000D01*
X136050000Y-120060000D02*
X136050000Y-119450000D01*
X134750000Y-120060000D02*
X134750000Y-119450000D01*
X133440000Y-120060000D02*
X138160000Y-120060000D01*
X133140000Y-120360000D02*
X134390000Y-120360000D01*
X113910000Y-94822936D02*
X113910000Y-96277064D01*
X112090000Y-94822936D02*
X112090000Y-96277064D01*
M02*
