G04 #@! TF.GenerationSoftware,KiCad,Pcbnew,7.0.0-da2b9df05c~163~ubuntu22.04.1*
G04 #@! TF.CreationDate,2023-03-30T16:17:32+09:00*
G04 #@! TF.ProjectId,staticdetector,73746174-6963-4646-9574-6563746f722e,rev?*
G04 #@! TF.SameCoordinates,Original*
G04 #@! TF.FileFunction,Copper,L2,Bot*
G04 #@! TF.FilePolarity,Positive*
%FSLAX46Y46*%
G04 Gerber Fmt 4.6, Leading zero omitted, Abs format (unit mm)*
G04 Created by KiCad (PCBNEW 7.0.0-da2b9df05c~163~ubuntu22.04.1) date 2023-03-30 16:17:32*
%MOMM*%
%LPD*%
G01*
G04 APERTURE LIST*
G04 Aperture macros list*
%AMRoundRect*
0 Rectangle with rounded corners*
0 $1 Rounding radius*
0 $2 $3 $4 $5 $6 $7 $8 $9 X,Y pos of 4 corners*
0 Add a 4 corners polygon primitive as box body*
4,1,4,$2,$3,$4,$5,$6,$7,$8,$9,$2,$3,0*
0 Add four circle primitives for the rounded corners*
1,1,$1+$1,$2,$3*
1,1,$1+$1,$4,$5*
1,1,$1+$1,$6,$7*
1,1,$1+$1,$8,$9*
0 Add four rect primitives between the rounded corners*
20,1,$1+$1,$2,$3,$4,$5,0*
20,1,$1+$1,$4,$5,$6,$7,0*
20,1,$1+$1,$6,$7,$8,$9,0*
20,1,$1+$1,$8,$9,$2,$3,0*%
G04 Aperture macros list end*
G04 #@! TA.AperFunction,ComponentPad*
%ADD10C,3.400000*%
G04 #@! TD*
G04 #@! TA.AperFunction,ComponentPad*
%ADD11C,2.000000*%
G04 #@! TD*
G04 #@! TA.AperFunction,ComponentPad*
%ADD12C,3.000000*%
G04 #@! TD*
G04 #@! TA.AperFunction,ComponentPad*
%ADD13R,3.000000X3.000000*%
G04 #@! TD*
G04 #@! TA.AperFunction,ComponentPad*
%ADD14O,1.750000X1.200000*%
G04 #@! TD*
G04 #@! TA.AperFunction,ComponentPad*
%ADD15RoundRect,0.250000X0.625000X-0.350000X0.625000X0.350000X-0.625000X0.350000X-0.625000X-0.350000X0*%
G04 #@! TD*
G04 #@! TA.AperFunction,ViaPad*
%ADD16C,0.800000*%
G04 #@! TD*
G04 #@! TA.AperFunction,ViaPad*
%ADD17C,1.399540*%
G04 #@! TD*
G04 #@! TA.AperFunction,ViaPad*
%ADD18C,6.000000*%
G04 #@! TD*
G04 #@! TA.AperFunction,Conductor*
%ADD19C,0.508000*%
G04 #@! TD*
G04 #@! TA.AperFunction,Conductor*
%ADD20C,0.381000*%
G04 #@! TD*
G04 APERTURE END LIST*
D10*
X112900000Y-109300000D03*
X122500000Y-109100000D03*
D11*
X126750000Y-99750000D03*
X121600000Y-100000000D03*
X131000000Y-99750000D03*
X146600000Y-74100000D03*
X146650000Y-62950000D03*
X131300000Y-109300000D03*
D12*
X117450000Y-70750000D03*
X117450000Y-77250000D03*
D13*
X112949999Y-70749999D03*
X112949999Y-77249999D03*
D11*
X117500000Y-109600000D03*
X127100000Y-109400000D03*
D14*
X135249999Y-111999999D03*
X135249999Y-113999999D03*
X135249999Y-115999999D03*
D15*
X135250000Y-118000000D03*
D16*
X126500000Y-84700000D03*
X143800000Y-81300000D03*
X138300000Y-81500000D03*
X144000000Y-79900000D03*
X138500000Y-80020000D03*
X132100000Y-106900000D03*
X135750000Y-108750000D03*
X127100000Y-89600000D03*
X125588155Y-92065326D03*
X122800000Y-93700000D03*
D17*
X138500000Y-72200000D03*
X134000000Y-91750000D03*
D18*
X145000000Y-102700000D03*
D17*
X134000000Y-88289770D03*
D19*
X134000000Y-76700000D02*
X138500000Y-72200000D01*
X134000000Y-88289770D02*
X134000000Y-76700000D01*
X134000000Y-91750000D02*
X134000000Y-88289770D01*
D20*
X138300000Y-81500000D02*
X138500000Y-81300000D01*
X138500000Y-81300000D02*
X143800000Y-81300000D01*
X143700000Y-80200000D02*
X138680000Y-80200000D01*
X144000000Y-79900000D02*
X143700000Y-80200000D01*
X138680000Y-80200000D02*
X138500000Y-80020000D01*
X133950000Y-108750000D02*
X135750000Y-108750000D01*
X132100000Y-106900000D02*
X133950000Y-108750000D01*
X131300000Y-109300000D02*
X131300000Y-111900000D01*
X131300000Y-111900000D02*
X134300000Y-114000000D01*
X134300000Y-114000000D02*
X135250000Y-114000000D01*
X127100000Y-109400000D02*
X125219741Y-107519741D01*
X125219741Y-107519741D02*
X125219741Y-93919741D01*
X125219741Y-93919741D02*
X125000000Y-93700000D01*
X125000000Y-93700000D02*
X122800000Y-93700000D01*
X129659500Y-107659500D02*
X131300000Y-109300000D01*
X127100000Y-89600000D02*
X127006962Y-89600000D01*
X126900706Y-92400000D02*
X129659500Y-95158794D01*
X126400000Y-92400000D02*
X126900706Y-92400000D01*
X125830501Y-92969499D02*
X126400000Y-92400000D01*
X129659500Y-95158794D02*
X129659500Y-107659500D01*
X125162537Y-92969499D02*
X125830501Y-92969499D01*
X124400000Y-92206962D02*
X125162537Y-92969499D01*
X127006962Y-89600000D02*
X124400000Y-92206962D01*
X126283982Y-91369499D02*
X125588155Y-92065326D01*
X133619499Y-91369499D02*
X126283982Y-91369499D01*
X134000000Y-91750000D02*
X133619499Y-91369499D01*
D19*
X145000000Y-102700000D02*
X134050000Y-91750000D01*
X134050000Y-91750000D02*
X134000000Y-91750000D01*
G04 #@! TA.AperFunction,Conductor*
G36*
X149837500Y-60016613D02*
G01*
X149882887Y-60062000D01*
X149899500Y-60124000D01*
X149899500Y-119775500D01*
X149882887Y-119837500D01*
X149837500Y-119882887D01*
X149775500Y-119899500D01*
X110224500Y-119899500D01*
X110162500Y-119882887D01*
X110117113Y-119837500D01*
X110100500Y-119775500D01*
X110100500Y-117567765D01*
X128145788Y-117567765D01*
X128146282Y-117572262D01*
X128146283Y-117572267D01*
X128174917Y-117832506D01*
X128174918Y-117832513D01*
X128175414Y-117837018D01*
X128176559Y-117841398D01*
X128176561Y-117841408D01*
X128208830Y-117964838D01*
X128243928Y-118099088D01*
X128245693Y-118103242D01*
X128245696Y-118103250D01*
X128348099Y-118344223D01*
X128349870Y-118348390D01*
X128352226Y-118352251D01*
X128352229Y-118352256D01*
X128432629Y-118483996D01*
X128490982Y-118579610D01*
X128664255Y-118787820D01*
X128667630Y-118790844D01*
X128667631Y-118790845D01*
X128772330Y-118884656D01*
X128865998Y-118968582D01*
X129091910Y-119118044D01*
X129337176Y-119233020D01*
X129596569Y-119311060D01*
X129864561Y-119350500D01*
X130065369Y-119350500D01*
X130067631Y-119350500D01*
X130270156Y-119335677D01*
X130534553Y-119276780D01*
X130787558Y-119180014D01*
X131023777Y-119047441D01*
X131238177Y-118881888D01*
X131426186Y-118686881D01*
X131583799Y-118466579D01*
X131630030Y-118376659D01*
X134224500Y-118376659D01*
X134224501Y-118381518D01*
X134225261Y-118386320D01*
X134225262Y-118386326D01*
X134236243Y-118455662D01*
X134239354Y-118475304D01*
X134243780Y-118483991D01*
X134243782Y-118483996D01*
X134290527Y-118575737D01*
X134296950Y-118588342D01*
X134386658Y-118678050D01*
X134499696Y-118735646D01*
X134593481Y-118750500D01*
X135906518Y-118750499D01*
X136000304Y-118735646D01*
X136113342Y-118678050D01*
X136203050Y-118588342D01*
X136260646Y-118475304D01*
X136275500Y-118381519D01*
X136275499Y-117618482D01*
X136260646Y-117524696D01*
X136203050Y-117411658D01*
X136113342Y-117321950D01*
X136000304Y-117264354D01*
X135990667Y-117262827D01*
X135990662Y-117262826D01*
X135911339Y-117250263D01*
X135911333Y-117250262D01*
X135906519Y-117249500D01*
X135901640Y-117249500D01*
X134598352Y-117249500D01*
X134598339Y-117249500D01*
X134593482Y-117249501D01*
X134588680Y-117250261D01*
X134588673Y-117250262D01*
X134509331Y-117262828D01*
X134509330Y-117262828D01*
X134499696Y-117264354D01*
X134491010Y-117268779D01*
X134491003Y-117268782D01*
X134395353Y-117317519D01*
X134395349Y-117317521D01*
X134386658Y-117321950D01*
X134379759Y-117328848D01*
X134379756Y-117328851D01*
X134303851Y-117404756D01*
X134303848Y-117404759D01*
X134296950Y-117411658D01*
X134292521Y-117420349D01*
X134292519Y-117420353D01*
X134243785Y-117515999D01*
X134239354Y-117524696D01*
X134237827Y-117534330D01*
X134237826Y-117534337D01*
X134225263Y-117613660D01*
X134225262Y-117613667D01*
X134224500Y-117618481D01*
X134224500Y-117623358D01*
X134224500Y-117623359D01*
X134224500Y-118376647D01*
X134224500Y-118376659D01*
X131630030Y-118376659D01*
X131707656Y-118225675D01*
X131795118Y-117969305D01*
X131844319Y-117702933D01*
X131854212Y-117432235D01*
X131824586Y-117162982D01*
X131756072Y-116900912D01*
X131650130Y-116651610D01*
X131509018Y-116420390D01*
X131335745Y-116212180D01*
X131245377Y-116131210D01*
X131147972Y-116043935D01*
X134220669Y-116043935D01*
X134251135Y-116216711D01*
X134320623Y-116377804D01*
X134425390Y-116518530D01*
X134559786Y-116631302D01*
X134716567Y-116710040D01*
X134887279Y-116750500D01*
X135565111Y-116750500D01*
X135568709Y-116750500D01*
X135699255Y-116735241D01*
X135864117Y-116675237D01*
X136010696Y-116578830D01*
X136131092Y-116451218D01*
X136218812Y-116299281D01*
X136269130Y-116131210D01*
X136279331Y-115956065D01*
X136248865Y-115783289D01*
X136179377Y-115622196D01*
X136074610Y-115481470D01*
X136002747Y-115421170D01*
X135945745Y-115373339D01*
X135945744Y-115373338D01*
X135940214Y-115368698D01*
X135847810Y-115322291D01*
X135789883Y-115293199D01*
X135789880Y-115293198D01*
X135783433Y-115289960D01*
X135776407Y-115288294D01*
X135776405Y-115288294D01*
X135619749Y-115251165D01*
X135619743Y-115251164D01*
X135612721Y-115249500D01*
X134931291Y-115249500D01*
X134927725Y-115249916D01*
X134927721Y-115249917D01*
X134807915Y-115263920D01*
X134807907Y-115263921D01*
X134800745Y-115264759D01*
X134793967Y-115267225D01*
X134793958Y-115267228D01*
X134642674Y-115322291D01*
X134642671Y-115322292D01*
X134635883Y-115324763D01*
X134629850Y-115328730D01*
X134629842Y-115328735D01*
X134495340Y-115417199D01*
X134495334Y-115417203D01*
X134489304Y-115421170D01*
X134484351Y-115426419D01*
X134484346Y-115426424D01*
X134373865Y-115543527D01*
X134373861Y-115543531D01*
X134368908Y-115548782D01*
X134365299Y-115555032D01*
X134365296Y-115555037D01*
X134284799Y-115694463D01*
X134284796Y-115694468D01*
X134281188Y-115700719D01*
X134279117Y-115707634D01*
X134279117Y-115707636D01*
X134232941Y-115861869D01*
X134232939Y-115861877D01*
X134230870Y-115868790D01*
X134230450Y-115875996D01*
X134230449Y-115876004D01*
X134221088Y-116036725D01*
X134221088Y-116036733D01*
X134220669Y-116043935D01*
X131147972Y-116043935D01*
X131137382Y-116034446D01*
X131137378Y-116034442D01*
X131134002Y-116031418D01*
X130908090Y-115881956D01*
X130903996Y-115880036D01*
X130903991Y-115880034D01*
X130666929Y-115768904D01*
X130666925Y-115768902D01*
X130662824Y-115766980D01*
X130658477Y-115765672D01*
X130658474Y-115765671D01*
X130407772Y-115690246D01*
X130407771Y-115690245D01*
X130403431Y-115688940D01*
X130398957Y-115688281D01*
X130398950Y-115688280D01*
X130139913Y-115650158D01*
X130139907Y-115650157D01*
X130135439Y-115649500D01*
X129932369Y-115649500D01*
X129930120Y-115649664D01*
X129930109Y-115649665D01*
X129734363Y-115663992D01*
X129734359Y-115663992D01*
X129729844Y-115664323D01*
X129725426Y-115665307D01*
X129725420Y-115665308D01*
X129469877Y-115722232D01*
X129469861Y-115722236D01*
X129465447Y-115723220D01*
X129461216Y-115724838D01*
X129461210Y-115724840D01*
X129216673Y-115818367D01*
X129216663Y-115818371D01*
X129212442Y-115819986D01*
X129208494Y-115822201D01*
X129208489Y-115822204D01*
X128980176Y-115950340D01*
X128980171Y-115950343D01*
X128976223Y-115952559D01*
X128972639Y-115955325D01*
X128972635Y-115955329D01*
X128765407Y-116115343D01*
X128765394Y-116115354D01*
X128761823Y-116118112D01*
X128758685Y-116121366D01*
X128758678Y-116121373D01*
X128576958Y-116309857D01*
X128576952Y-116309864D01*
X128573814Y-116313119D01*
X128571189Y-116316787D01*
X128571179Y-116316800D01*
X128418834Y-116529740D01*
X128418830Y-116529745D01*
X128416201Y-116533421D01*
X128414132Y-116537444D01*
X128414129Y-116537450D01*
X128294416Y-116770293D01*
X128294411Y-116770304D01*
X128292344Y-116774325D01*
X128290884Y-116778602D01*
X128290879Y-116778616D01*
X128206348Y-117026395D01*
X128206344Y-117026407D01*
X128204882Y-117030695D01*
X128204057Y-117035159D01*
X128204057Y-117035161D01*
X128156504Y-117292606D01*
X128156502Y-117292619D01*
X128155681Y-117297067D01*
X128155515Y-117301593D01*
X128155515Y-117301599D01*
X128147010Y-117534337D01*
X128145788Y-117567765D01*
X110100500Y-117567765D01*
X110100500Y-109300000D01*
X111044773Y-109300000D01*
X111045181Y-109305709D01*
X111063340Y-109559603D01*
X111063341Y-109559612D01*
X111063657Y-109564026D01*
X111064597Y-109568351D01*
X111064599Y-109568359D01*
X111118980Y-109818344D01*
X111119923Y-109822678D01*
X111121472Y-109826831D01*
X111210878Y-110066540D01*
X111210880Y-110066546D01*
X111212426Y-110070689D01*
X111339284Y-110303011D01*
X111497913Y-110514915D01*
X111685085Y-110702087D01*
X111896989Y-110860716D01*
X112129311Y-110987574D01*
X112377322Y-111080077D01*
X112635974Y-111136343D01*
X112900000Y-111155227D01*
X113164026Y-111136343D01*
X113422678Y-111080077D01*
X113670689Y-110987574D01*
X113903011Y-110860716D01*
X113952075Y-110823987D01*
X121134748Y-110823987D01*
X121142181Y-110835379D01*
X121154800Y-110846445D01*
X121161231Y-110851379D01*
X121394265Y-111007089D01*
X121401280Y-111011139D01*
X121652648Y-111135100D01*
X121660137Y-111138201D01*
X121925521Y-111228287D01*
X121933368Y-111230390D01*
X122208243Y-111285065D01*
X122216279Y-111286123D01*
X122495942Y-111304454D01*
X122504058Y-111304454D01*
X122783720Y-111286123D01*
X122791756Y-111285065D01*
X123066631Y-111230390D01*
X123074478Y-111228287D01*
X123339862Y-111138201D01*
X123347351Y-111135100D01*
X123598719Y-111011139D01*
X123605734Y-111007089D01*
X123838769Y-110851379D01*
X123845203Y-110846442D01*
X123857817Y-110835379D01*
X123865250Y-110823987D01*
X123858575Y-110812129D01*
X122511542Y-109465095D01*
X122500000Y-109458431D01*
X122488457Y-109465095D01*
X121141422Y-110812130D01*
X121134748Y-110823987D01*
X113952075Y-110823987D01*
X114114915Y-110702087D01*
X114302087Y-110514915D01*
X114460716Y-110303011D01*
X114587574Y-110070689D01*
X114680077Y-109822678D01*
X114728517Y-109600000D01*
X116344571Y-109600000D01*
X116364244Y-109812310D01*
X116365812Y-109817821D01*
X116365814Y-109817831D01*
X116421024Y-110011870D01*
X116421026Y-110011876D01*
X116422595Y-110017389D01*
X116517634Y-110208255D01*
X116549789Y-110250835D01*
X116614383Y-110336371D01*
X116646128Y-110378407D01*
X116650360Y-110382265D01*
X116741389Y-110465250D01*
X116803698Y-110522052D01*
X116984981Y-110634298D01*
X117183802Y-110711321D01*
X117393390Y-110750500D01*
X117600881Y-110750500D01*
X117606610Y-110750500D01*
X117816198Y-110711321D01*
X118015019Y-110634298D01*
X118196302Y-110522052D01*
X118353872Y-110378407D01*
X118482366Y-110208255D01*
X118577405Y-110017389D01*
X118635756Y-109812310D01*
X118655429Y-109600000D01*
X118635756Y-109387690D01*
X118577405Y-109182611D01*
X118538291Y-109104058D01*
X120295546Y-109104058D01*
X120313876Y-109383720D01*
X120314934Y-109391756D01*
X120369609Y-109666631D01*
X120371712Y-109674478D01*
X120461798Y-109939862D01*
X120464899Y-109947351D01*
X120588860Y-110198719D01*
X120592910Y-110205734D01*
X120748618Y-110438766D01*
X120753559Y-110445205D01*
X120764617Y-110457815D01*
X120776012Y-110465250D01*
X120787868Y-110458576D01*
X122134903Y-109111542D01*
X122141567Y-109100000D01*
X122141566Y-109099999D01*
X122858431Y-109099999D01*
X122865095Y-109111542D01*
X124212129Y-110458575D01*
X124223987Y-110465250D01*
X124235379Y-110457817D01*
X124246442Y-110445203D01*
X124251379Y-110438769D01*
X124407089Y-110205734D01*
X124411139Y-110198719D01*
X124535100Y-109947351D01*
X124538201Y-109939862D01*
X124628287Y-109674478D01*
X124630390Y-109666631D01*
X124685065Y-109391756D01*
X124686123Y-109383720D01*
X124704454Y-109104058D01*
X124704454Y-109095942D01*
X124686123Y-108816279D01*
X124685065Y-108808243D01*
X124630390Y-108533368D01*
X124628287Y-108525521D01*
X124538201Y-108260137D01*
X124535100Y-108252648D01*
X124411139Y-108001280D01*
X124407089Y-107994265D01*
X124251379Y-107761231D01*
X124246445Y-107754800D01*
X124235379Y-107742181D01*
X124223987Y-107734748D01*
X124212130Y-107741422D01*
X122865095Y-109088457D01*
X122858431Y-109099999D01*
X122141566Y-109099999D01*
X122134903Y-109088457D01*
X120787866Y-107741420D01*
X120776012Y-107734747D01*
X120764620Y-107742181D01*
X120753554Y-107754799D01*
X120748622Y-107761227D01*
X120592910Y-107994265D01*
X120588860Y-108001280D01*
X120464899Y-108252648D01*
X120461798Y-108260137D01*
X120371712Y-108525521D01*
X120369609Y-108533368D01*
X120314934Y-108808243D01*
X120313876Y-108816279D01*
X120295546Y-109095942D01*
X120295546Y-109104058D01*
X118538291Y-109104058D01*
X118482366Y-108991745D01*
X118353872Y-108821593D01*
X118316115Y-108787173D01*
X118200531Y-108681803D01*
X118200529Y-108681801D01*
X118196302Y-108677948D01*
X118191438Y-108674936D01*
X118191435Y-108674934D01*
X118019890Y-108568718D01*
X118019889Y-108568717D01*
X118015019Y-108565702D01*
X118009681Y-108563634D01*
X118009677Y-108563632D01*
X117821545Y-108490750D01*
X117821540Y-108490748D01*
X117816198Y-108488679D01*
X117758793Y-108477948D01*
X117612239Y-108450552D01*
X117612236Y-108450551D01*
X117606610Y-108449500D01*
X117393390Y-108449500D01*
X117387764Y-108450551D01*
X117387760Y-108450552D01*
X117189439Y-108487625D01*
X117189436Y-108487625D01*
X117183802Y-108488679D01*
X117178461Y-108490747D01*
X117178454Y-108490750D01*
X116990322Y-108563632D01*
X116990313Y-108563636D01*
X116984981Y-108565702D01*
X116980114Y-108568715D01*
X116980109Y-108568718D01*
X116808564Y-108674934D01*
X116808555Y-108674940D01*
X116803698Y-108677948D01*
X116799475Y-108681797D01*
X116799468Y-108681803D01*
X116650360Y-108817734D01*
X116650354Y-108817739D01*
X116646128Y-108821593D01*
X116642681Y-108826156D01*
X116642675Y-108826164D01*
X116521086Y-108987173D01*
X116521083Y-108987177D01*
X116517634Y-108991745D01*
X116515082Y-108996870D01*
X116515079Y-108996875D01*
X116425153Y-109177473D01*
X116422595Y-109182611D01*
X116421027Y-109188119D01*
X116421024Y-109188129D01*
X116365814Y-109382168D01*
X116365811Y-109382179D01*
X116364244Y-109387690D01*
X116363714Y-109393400D01*
X116363714Y-109393405D01*
X116352185Y-109517831D01*
X116344571Y-109600000D01*
X114728517Y-109600000D01*
X114736343Y-109564026D01*
X114755227Y-109300000D01*
X114736343Y-109035974D01*
X114680077Y-108777322D01*
X114587574Y-108529311D01*
X114460716Y-108296989D01*
X114302087Y-108085085D01*
X114114915Y-107897913D01*
X113903011Y-107739284D01*
X113891356Y-107732920D01*
X113674575Y-107614548D01*
X113670689Y-107612426D01*
X113666546Y-107610880D01*
X113666540Y-107610878D01*
X113426831Y-107521472D01*
X113422678Y-107519923D01*
X113418346Y-107518980D01*
X113418344Y-107518980D01*
X113168359Y-107464599D01*
X113168351Y-107464597D01*
X113164026Y-107463657D01*
X113159612Y-107463341D01*
X113159603Y-107463340D01*
X112904418Y-107445089D01*
X112900000Y-107444773D01*
X112895582Y-107445089D01*
X112640396Y-107463340D01*
X112640385Y-107463341D01*
X112635974Y-107463657D01*
X112631650Y-107464597D01*
X112631640Y-107464599D01*
X112381655Y-107518980D01*
X112381649Y-107518981D01*
X112377322Y-107519923D01*
X112373172Y-107521470D01*
X112373168Y-107521472D01*
X112133459Y-107610878D01*
X112133448Y-107610882D01*
X112129311Y-107612426D01*
X112125429Y-107614545D01*
X112125424Y-107614548D01*
X111900883Y-107737157D01*
X111900875Y-107737161D01*
X111896989Y-107739284D01*
X111893439Y-107741941D01*
X111893435Y-107741944D01*
X111688636Y-107895254D01*
X111688629Y-107895259D01*
X111685085Y-107897913D01*
X111681954Y-107901043D01*
X111681947Y-107901050D01*
X111501050Y-108081947D01*
X111501043Y-108081954D01*
X111497913Y-108085085D01*
X111495259Y-108088629D01*
X111495254Y-108088636D01*
X111343954Y-108290750D01*
X111339284Y-108296989D01*
X111337161Y-108300875D01*
X111337157Y-108300883D01*
X111216640Y-108521593D01*
X111212426Y-108529311D01*
X111210882Y-108533448D01*
X111210878Y-108533459D01*
X111124916Y-108763935D01*
X111119923Y-108777322D01*
X111118981Y-108781649D01*
X111118980Y-108781655D01*
X111064599Y-109031640D01*
X111064597Y-109031650D01*
X111063657Y-109035974D01*
X111063341Y-109040385D01*
X111063340Y-109040396D01*
X111045973Y-109283217D01*
X111044773Y-109300000D01*
X110100500Y-109300000D01*
X110100500Y-107376012D01*
X121134747Y-107376012D01*
X121141420Y-107387866D01*
X122488457Y-108734903D01*
X122500000Y-108741567D01*
X122511542Y-108734903D01*
X123858576Y-107387868D01*
X123865250Y-107376012D01*
X123857815Y-107364617D01*
X123845205Y-107353559D01*
X123838766Y-107348618D01*
X123605734Y-107192910D01*
X123598719Y-107188860D01*
X123347351Y-107064899D01*
X123339862Y-107061798D01*
X123074478Y-106971712D01*
X123066631Y-106969609D01*
X122791756Y-106914934D01*
X122783720Y-106913876D01*
X122504058Y-106895546D01*
X122495942Y-106895546D01*
X122216279Y-106913876D01*
X122208243Y-106914934D01*
X121933368Y-106969609D01*
X121925521Y-106971712D01*
X121660137Y-107061798D01*
X121652648Y-107064899D01*
X121401280Y-107188860D01*
X121394265Y-107192910D01*
X121161227Y-107348622D01*
X121154799Y-107353554D01*
X121142181Y-107364620D01*
X121134747Y-107376012D01*
X110100500Y-107376012D01*
X110100500Y-100000000D01*
X120444571Y-100000000D01*
X120445100Y-100005709D01*
X120463372Y-100202906D01*
X120464244Y-100212310D01*
X120465812Y-100217821D01*
X120465814Y-100217831D01*
X120521024Y-100411870D01*
X120521026Y-100411876D01*
X120522595Y-100417389D01*
X120617634Y-100608255D01*
X120746128Y-100778407D01*
X120750360Y-100782265D01*
X120878901Y-100899447D01*
X120903698Y-100922052D01*
X121084981Y-101034298D01*
X121283802Y-101111321D01*
X121493390Y-101150500D01*
X121700881Y-101150500D01*
X121706610Y-101150500D01*
X121916198Y-101111321D01*
X122115019Y-101034298D01*
X122296302Y-100922052D01*
X122453872Y-100778407D01*
X122582366Y-100608255D01*
X122677405Y-100417389D01*
X122735756Y-100212310D01*
X122755429Y-100000000D01*
X122735756Y-99787690D01*
X122726656Y-99755709D01*
X122678975Y-99588129D01*
X122677405Y-99582611D01*
X122582366Y-99391745D01*
X122453872Y-99221593D01*
X122404029Y-99176155D01*
X122300531Y-99081803D01*
X122300529Y-99081801D01*
X122296302Y-99077948D01*
X122291438Y-99074936D01*
X122291435Y-99074934D01*
X122119890Y-98968718D01*
X122119889Y-98968717D01*
X122115019Y-98965702D01*
X122109681Y-98963634D01*
X122109677Y-98963632D01*
X121921545Y-98890750D01*
X121921540Y-98890748D01*
X121916198Y-98888679D01*
X121910560Y-98887625D01*
X121712239Y-98850552D01*
X121712236Y-98850551D01*
X121706610Y-98849500D01*
X121493390Y-98849500D01*
X121487764Y-98850551D01*
X121487760Y-98850552D01*
X121289439Y-98887625D01*
X121289436Y-98887625D01*
X121283802Y-98888679D01*
X121278461Y-98890747D01*
X121278454Y-98890750D01*
X121090322Y-98963632D01*
X121090313Y-98963636D01*
X121084981Y-98965702D01*
X121080114Y-98968715D01*
X121080109Y-98968718D01*
X120908564Y-99074934D01*
X120908555Y-99074940D01*
X120903698Y-99077948D01*
X120899475Y-99081797D01*
X120899468Y-99081803D01*
X120750360Y-99217734D01*
X120750354Y-99217739D01*
X120746128Y-99221593D01*
X120742681Y-99226156D01*
X120742675Y-99226164D01*
X120621086Y-99387173D01*
X120621083Y-99387177D01*
X120617634Y-99391745D01*
X120615082Y-99396870D01*
X120615079Y-99396875D01*
X120531771Y-99564182D01*
X120522595Y-99582611D01*
X120521027Y-99588119D01*
X120521024Y-99588129D01*
X120465814Y-99782168D01*
X120465811Y-99782179D01*
X120464244Y-99787690D01*
X120463714Y-99793400D01*
X120463714Y-99793405D01*
X120457819Y-99857025D01*
X120444571Y-100000000D01*
X110100500Y-100000000D01*
X110100500Y-93700000D01*
X122244750Y-93700000D01*
X122245811Y-93708059D01*
X122259494Y-93811995D01*
X122263670Y-93843709D01*
X122266781Y-93851220D01*
X122266782Y-93851223D01*
X122301331Y-93934631D01*
X122319139Y-93977625D01*
X122324084Y-93984069D01*
X122324085Y-93984071D01*
X122377581Y-94053788D01*
X122407379Y-94092621D01*
X122522375Y-94180861D01*
X122656291Y-94236330D01*
X122800000Y-94255250D01*
X122943709Y-94236330D01*
X123077625Y-94180861D01*
X123192621Y-94092621D01*
X123197567Y-94086174D01*
X123203314Y-94080428D01*
X123204559Y-94081673D01*
X123238536Y-94053788D01*
X123293381Y-94041000D01*
X124754741Y-94041000D01*
X124816741Y-94057613D01*
X124862128Y-94103000D01*
X124878741Y-94165000D01*
X124878741Y-107499439D01*
X124878268Y-107510246D01*
X124874798Y-107549920D01*
X124877604Y-107560395D01*
X124877605Y-107560396D01*
X124885108Y-107588397D01*
X124887449Y-107598958D01*
X124892478Y-107627482D01*
X124892479Y-107627485D01*
X124894363Y-107638169D01*
X124899787Y-107647564D01*
X124901279Y-107651662D01*
X124903115Y-107655601D01*
X124905923Y-107666077D01*
X124912143Y-107674961D01*
X124912144Y-107674962D01*
X124928760Y-107698692D01*
X124934571Y-107707813D01*
X124954490Y-107742313D01*
X124984997Y-107767911D01*
X124992973Y-107775220D01*
X126018601Y-108800848D01*
X126046546Y-108843735D01*
X126054788Y-108894255D01*
X126041921Y-108943798D01*
X126022595Y-108982611D01*
X126021027Y-108988119D01*
X126021024Y-108988129D01*
X125965814Y-109182168D01*
X125965811Y-109182179D01*
X125964244Y-109187690D01*
X125963714Y-109193400D01*
X125963714Y-109193405D01*
X125953308Y-109305709D01*
X125944571Y-109400000D01*
X125964244Y-109612310D01*
X125965812Y-109617821D01*
X125965814Y-109617831D01*
X126021024Y-109811870D01*
X126021026Y-109811876D01*
X126022595Y-109817389D01*
X126117634Y-110008255D01*
X126246128Y-110178407D01*
X126250360Y-110182265D01*
X126386708Y-110306564D01*
X126403698Y-110322052D01*
X126584981Y-110434298D01*
X126783802Y-110511321D01*
X126993390Y-110550500D01*
X127200881Y-110550500D01*
X127206610Y-110550500D01*
X127416198Y-110511321D01*
X127615019Y-110434298D01*
X127796302Y-110322052D01*
X127953872Y-110178407D01*
X128082366Y-110008255D01*
X128177405Y-109817389D01*
X128235756Y-109612310D01*
X128255429Y-109400000D01*
X128235756Y-109187690D01*
X128211883Y-109103788D01*
X128178975Y-108988129D01*
X128177405Y-108982611D01*
X128082366Y-108791745D01*
X127953872Y-108621593D01*
X127857194Y-108533459D01*
X127800531Y-108481803D01*
X127800529Y-108481801D01*
X127796302Y-108477948D01*
X127791438Y-108474936D01*
X127791435Y-108474934D01*
X127619890Y-108368718D01*
X127619889Y-108368717D01*
X127615019Y-108365702D01*
X127609681Y-108363634D01*
X127609677Y-108363632D01*
X127421545Y-108290750D01*
X127421540Y-108290748D01*
X127416198Y-108288679D01*
X127369037Y-108279863D01*
X127212239Y-108250552D01*
X127212236Y-108250551D01*
X127206610Y-108249500D01*
X126993390Y-108249500D01*
X126987764Y-108250551D01*
X126987760Y-108250552D01*
X126789439Y-108287625D01*
X126789436Y-108287625D01*
X126783802Y-108288679D01*
X126778461Y-108290747D01*
X126778454Y-108290750D01*
X126633631Y-108346855D01*
X126586927Y-108355213D01*
X126540503Y-108345420D01*
X126501156Y-108318909D01*
X125597060Y-107414813D01*
X125570180Y-107374585D01*
X125560741Y-107327132D01*
X125560741Y-100454250D01*
X125575859Y-100394915D01*
X125617526Y-100350047D01*
X125675583Y-100330589D01*
X125735873Y-100341283D01*
X125783695Y-100379523D01*
X125851076Y-100468750D01*
X125896128Y-100528407D01*
X125900360Y-100532265D01*
X125997929Y-100621212D01*
X126053698Y-100672052D01*
X126234981Y-100784298D01*
X126433802Y-100861321D01*
X126643390Y-100900500D01*
X126850881Y-100900500D01*
X126856610Y-100900500D01*
X127066198Y-100861321D01*
X127265019Y-100784298D01*
X127446302Y-100672052D01*
X127603872Y-100528407D01*
X127732366Y-100358255D01*
X127827405Y-100167389D01*
X127885756Y-99962310D01*
X127905429Y-99750000D01*
X127885756Y-99537690D01*
X127842929Y-99387173D01*
X127828975Y-99338129D01*
X127827405Y-99332611D01*
X127732366Y-99141745D01*
X127603872Y-98971593D01*
X127511764Y-98887625D01*
X127450531Y-98831803D01*
X127450529Y-98831801D01*
X127446302Y-98827948D01*
X127441438Y-98824936D01*
X127441435Y-98824934D01*
X127269890Y-98718718D01*
X127269889Y-98718717D01*
X127265019Y-98715702D01*
X127259681Y-98713634D01*
X127259677Y-98713632D01*
X127071545Y-98640750D01*
X127071540Y-98640748D01*
X127066198Y-98638679D01*
X127060560Y-98637625D01*
X126862239Y-98600552D01*
X126862236Y-98600551D01*
X126856610Y-98599500D01*
X126643390Y-98599500D01*
X126637764Y-98600551D01*
X126637760Y-98600552D01*
X126439439Y-98637625D01*
X126439436Y-98637625D01*
X126433802Y-98638679D01*
X126428461Y-98640747D01*
X126428454Y-98640750D01*
X126240322Y-98713632D01*
X126240313Y-98713636D01*
X126234981Y-98715702D01*
X126230114Y-98718715D01*
X126230109Y-98718718D01*
X126058564Y-98824934D01*
X126058555Y-98824940D01*
X126053698Y-98827948D01*
X126049475Y-98831797D01*
X126049468Y-98831803D01*
X125900360Y-98967734D01*
X125900354Y-98967739D01*
X125896128Y-98971593D01*
X125892681Y-98976156D01*
X125892675Y-98976164D01*
X125783695Y-99120477D01*
X125735873Y-99158717D01*
X125675583Y-99169411D01*
X125617526Y-99149953D01*
X125575859Y-99105085D01*
X125560741Y-99045750D01*
X125560741Y-93940043D01*
X125561213Y-93929235D01*
X125564684Y-93889563D01*
X125554373Y-93851085D01*
X125552037Y-93840548D01*
X125545119Y-93801313D01*
X125539692Y-93791913D01*
X125538205Y-93787828D01*
X125536366Y-93783886D01*
X125533559Y-93773405D01*
X125510720Y-93740787D01*
X125504908Y-93731665D01*
X125484992Y-93697169D01*
X125454478Y-93671565D01*
X125446502Y-93664256D01*
X125304426Y-93522180D01*
X125274176Y-93472817D01*
X125269634Y-93415101D01*
X125291789Y-93361614D01*
X125335812Y-93324014D01*
X125392107Y-93310499D01*
X125810199Y-93310499D01*
X125821006Y-93310971D01*
X125860680Y-93314442D01*
X125899148Y-93304133D01*
X125909713Y-93301791D01*
X125911496Y-93301476D01*
X125948929Y-93294877D01*
X125958332Y-93289447D01*
X125962407Y-93287964D01*
X125966345Y-93286127D01*
X125976837Y-93283317D01*
X126009486Y-93260454D01*
X126018552Y-93254679D01*
X126053073Y-93234750D01*
X126078673Y-93204239D01*
X126085970Y-93196275D01*
X126504927Y-92777319D01*
X126545156Y-92750439D01*
X126592609Y-92741000D01*
X126708097Y-92741000D01*
X126755550Y-92750439D01*
X126795778Y-92777319D01*
X129282181Y-95263722D01*
X129309061Y-95303950D01*
X129318500Y-95351403D01*
X129318500Y-107639198D01*
X129318028Y-107650005D01*
X129315845Y-107674962D01*
X129314557Y-107689679D01*
X129317363Y-107700154D01*
X129317364Y-107700155D01*
X129324867Y-107728156D01*
X129327208Y-107738717D01*
X129332237Y-107767241D01*
X129332238Y-107767244D01*
X129334122Y-107777928D01*
X129339546Y-107787323D01*
X129341038Y-107791421D01*
X129342874Y-107795360D01*
X129345682Y-107805836D01*
X129351902Y-107814720D01*
X129351903Y-107814721D01*
X129368519Y-107838451D01*
X129374330Y-107847572D01*
X129394249Y-107882072D01*
X129424756Y-107907670D01*
X129432732Y-107914979D01*
X130218601Y-108700848D01*
X130246546Y-108743735D01*
X130254788Y-108794255D01*
X130241921Y-108843798D01*
X130222595Y-108882611D01*
X130221027Y-108888119D01*
X130221024Y-108888129D01*
X130165814Y-109082168D01*
X130165811Y-109082179D01*
X130164244Y-109087690D01*
X130163714Y-109093400D01*
X130163714Y-109093405D01*
X130150689Y-109233971D01*
X130144571Y-109300000D01*
X130145100Y-109305709D01*
X130152696Y-109387690D01*
X130164244Y-109512310D01*
X130165812Y-109517821D01*
X130165814Y-109517831D01*
X130221024Y-109711870D01*
X130221026Y-109711876D01*
X130222595Y-109717389D01*
X130317634Y-109908255D01*
X130321086Y-109912826D01*
X130440299Y-110070689D01*
X130446128Y-110078407D01*
X130450360Y-110082265D01*
X130593577Y-110212826D01*
X130603698Y-110222052D01*
X130784981Y-110334298D01*
X130790327Y-110336369D01*
X130790331Y-110336371D01*
X130879794Y-110371030D01*
X130921321Y-110397635D01*
X130949192Y-110438323D01*
X130959000Y-110486656D01*
X130959000Y-111840929D01*
X130958529Y-111851721D01*
X130957858Y-111859392D01*
X130955053Y-111869869D01*
X130955999Y-111880668D01*
X130955999Y-111880672D01*
X130958527Y-111909516D01*
X130959000Y-111920340D01*
X130959000Y-111929831D01*
X130959940Y-111935166D01*
X130959941Y-111935170D01*
X130960659Y-111939245D01*
X130962067Y-111949938D01*
X130964601Y-111978855D01*
X130964603Y-111978864D01*
X130965550Y-111989665D01*
X130970133Y-111999489D01*
X130971252Y-112003663D01*
X130972738Y-112007747D01*
X130974622Y-112018428D01*
X130994555Y-112052955D01*
X130999533Y-112062516D01*
X131016388Y-112098646D01*
X131024061Y-112106317D01*
X131026547Y-112109866D01*
X131029323Y-112113175D01*
X131034749Y-112122572D01*
X131043059Y-112129544D01*
X131043060Y-112129546D01*
X131065282Y-112148192D01*
X131073245Y-112155488D01*
X131076178Y-112158421D01*
X131076189Y-112158430D01*
X131080011Y-112162251D01*
X131087788Y-112167695D01*
X131096381Y-112174286D01*
X131126870Y-112199870D01*
X131137062Y-112203579D01*
X131143738Y-112207434D01*
X131152845Y-112213235D01*
X134056094Y-114245510D01*
X134064688Y-114252103D01*
X134070455Y-114256942D01*
X134077428Y-114265251D01*
X134111951Y-114285182D01*
X134121061Y-114290986D01*
X134124450Y-114293359D01*
X134124455Y-114293362D01*
X134128888Y-114296465D01*
X134137502Y-114300480D01*
X134147103Y-114305477D01*
X134181572Y-114325378D01*
X134192260Y-114327262D01*
X134196370Y-114328758D01*
X134200591Y-114329888D01*
X134210428Y-114334474D01*
X134238345Y-114336912D01*
X134287978Y-114352160D01*
X134327018Y-114386394D01*
X134425390Y-114518530D01*
X134559786Y-114631302D01*
X134716567Y-114710040D01*
X134887279Y-114750500D01*
X135565111Y-114750500D01*
X135568709Y-114750500D01*
X135699255Y-114735241D01*
X135864117Y-114675237D01*
X136010696Y-114578830D01*
X136131092Y-114451218D01*
X136218812Y-114299281D01*
X136269130Y-114131210D01*
X136279331Y-113956065D01*
X136248865Y-113783289D01*
X136179377Y-113622196D01*
X136074610Y-113481470D01*
X136002747Y-113421170D01*
X135945745Y-113373339D01*
X135945744Y-113373338D01*
X135940214Y-113368698D01*
X135847810Y-113322291D01*
X135789883Y-113293199D01*
X135789880Y-113293198D01*
X135783433Y-113289960D01*
X135776407Y-113288294D01*
X135776405Y-113288294D01*
X135619749Y-113251165D01*
X135619743Y-113251164D01*
X135612721Y-113249500D01*
X134931291Y-113249500D01*
X134927725Y-113249916D01*
X134927721Y-113249917D01*
X134807915Y-113263920D01*
X134807907Y-113263921D01*
X134800745Y-113264759D01*
X134793967Y-113267225D01*
X134793958Y-113267228D01*
X134642674Y-113322291D01*
X134642671Y-113322292D01*
X134635883Y-113324763D01*
X134629850Y-113328730D01*
X134629842Y-113328735D01*
X134495340Y-113417199D01*
X134495334Y-113417203D01*
X134489304Y-113421170D01*
X134484351Y-113426419D01*
X134484346Y-113426424D01*
X134395155Y-113520961D01*
X134346245Y-113552793D01*
X134288191Y-113558728D01*
X134233852Y-113537452D01*
X132336910Y-112209594D01*
X132100254Y-112043935D01*
X134220669Y-112043935D01*
X134251135Y-112216711D01*
X134320623Y-112377804D01*
X134425390Y-112518530D01*
X134559786Y-112631302D01*
X134716567Y-112710040D01*
X134887279Y-112750500D01*
X135565111Y-112750500D01*
X135568709Y-112750500D01*
X135699255Y-112735241D01*
X135864117Y-112675237D01*
X136010696Y-112578830D01*
X136131092Y-112451218D01*
X136218812Y-112299281D01*
X136269130Y-112131210D01*
X136279331Y-111956065D01*
X136248865Y-111783289D01*
X136179377Y-111622196D01*
X136074610Y-111481470D01*
X136002747Y-111421170D01*
X135945745Y-111373339D01*
X135945744Y-111373338D01*
X135940214Y-111368698D01*
X135847810Y-111322291D01*
X135789883Y-111293199D01*
X135789880Y-111293198D01*
X135783433Y-111289960D01*
X135776407Y-111288294D01*
X135776405Y-111288294D01*
X135619749Y-111251165D01*
X135619743Y-111251164D01*
X135612721Y-111249500D01*
X134931291Y-111249500D01*
X134927725Y-111249916D01*
X134927721Y-111249917D01*
X134807915Y-111263920D01*
X134807907Y-111263921D01*
X134800745Y-111264759D01*
X134793967Y-111267225D01*
X134793958Y-111267228D01*
X134642674Y-111322291D01*
X134642671Y-111322292D01*
X134635883Y-111324763D01*
X134629850Y-111328730D01*
X134629842Y-111328735D01*
X134495340Y-111417199D01*
X134495334Y-111417203D01*
X134489304Y-111421170D01*
X134484351Y-111426419D01*
X134484346Y-111426424D01*
X134373865Y-111543527D01*
X134373861Y-111543531D01*
X134368908Y-111548782D01*
X134365299Y-111555032D01*
X134365296Y-111555037D01*
X134284799Y-111694463D01*
X134284796Y-111694468D01*
X134281188Y-111700719D01*
X134279117Y-111707634D01*
X134279117Y-111707636D01*
X134232941Y-111861869D01*
X134232939Y-111861877D01*
X134230870Y-111868790D01*
X134230450Y-111875996D01*
X134230449Y-111876004D01*
X134221088Y-112036725D01*
X134221088Y-112036733D01*
X134220669Y-112043935D01*
X132100254Y-112043935D01*
X131693890Y-111759480D01*
X131655015Y-111715161D01*
X131641000Y-111657896D01*
X131641000Y-110486656D01*
X131650808Y-110438323D01*
X131678679Y-110397635D01*
X131720206Y-110371030D01*
X131809668Y-110336371D01*
X131809668Y-110336370D01*
X131815019Y-110334298D01*
X131996302Y-110222052D01*
X132153872Y-110078407D01*
X132282366Y-109908255D01*
X132377405Y-109717389D01*
X132435756Y-109512310D01*
X132455429Y-109300000D01*
X132435756Y-109087690D01*
X132422299Y-109040396D01*
X132378975Y-108888129D01*
X132377405Y-108882611D01*
X132282366Y-108691745D01*
X132162764Y-108533368D01*
X132157324Y-108526164D01*
X132157323Y-108526163D01*
X132153872Y-108521593D01*
X131996302Y-108377948D01*
X131991438Y-108374936D01*
X131991435Y-108374934D01*
X131819890Y-108268718D01*
X131819889Y-108268717D01*
X131815019Y-108265702D01*
X131809681Y-108263634D01*
X131809677Y-108263632D01*
X131621545Y-108190750D01*
X131621540Y-108190748D01*
X131616198Y-108188679D01*
X131610560Y-108187625D01*
X131412239Y-108150552D01*
X131412236Y-108150551D01*
X131406610Y-108149500D01*
X131193390Y-108149500D01*
X131187764Y-108150551D01*
X131187760Y-108150552D01*
X130989439Y-108187625D01*
X130989436Y-108187625D01*
X130983802Y-108188679D01*
X130978461Y-108190747D01*
X130978454Y-108190750D01*
X130833631Y-108246855D01*
X130786927Y-108255213D01*
X130740503Y-108245420D01*
X130701156Y-108218909D01*
X130036819Y-107554572D01*
X130009939Y-107514344D01*
X130000500Y-107466891D01*
X130000500Y-106900000D01*
X131544750Y-106900000D01*
X131545811Y-106908059D01*
X131558935Y-107007749D01*
X131563670Y-107043709D01*
X131566781Y-107051220D01*
X131566782Y-107051223D01*
X131572447Y-107064899D01*
X131619139Y-107177625D01*
X131624084Y-107184069D01*
X131624085Y-107184071D01*
X131702435Y-107286178D01*
X131707379Y-107292621D01*
X131822375Y-107380861D01*
X131956291Y-107436330D01*
X132100000Y-107455250D01*
X132108058Y-107454189D01*
X132116188Y-107454189D01*
X132116188Y-107455956D01*
X132159909Y-107460252D01*
X132207749Y-107489996D01*
X133694519Y-108976766D01*
X133701828Y-108984742D01*
X133727428Y-109015251D01*
X133761933Y-109035172D01*
X133771027Y-109040965D01*
X133803664Y-109063818D01*
X133814144Y-109066625D01*
X133818087Y-109068464D01*
X133822172Y-109069951D01*
X133831572Y-109075378D01*
X133870795Y-109082293D01*
X133881342Y-109084631D01*
X133919821Y-109094943D01*
X133959490Y-109091472D01*
X133970299Y-109091000D01*
X135256619Y-109091000D01*
X135311464Y-109103788D01*
X135345440Y-109131673D01*
X135346686Y-109130428D01*
X135352433Y-109136175D01*
X135357379Y-109142621D01*
X135472375Y-109230861D01*
X135606291Y-109286330D01*
X135750000Y-109305250D01*
X135893709Y-109286330D01*
X136027625Y-109230861D01*
X136142621Y-109142621D01*
X136230861Y-109027625D01*
X136286330Y-108893709D01*
X136305250Y-108750000D01*
X136286330Y-108606291D01*
X136230861Y-108472375D01*
X136142621Y-108357379D01*
X136092486Y-108318909D01*
X136034071Y-108274085D01*
X136034069Y-108274084D01*
X136027625Y-108269139D01*
X135973826Y-108246855D01*
X135901223Y-108216782D01*
X135901220Y-108216781D01*
X135893709Y-108213670D01*
X135885649Y-108212608D01*
X135885646Y-108212608D01*
X135758059Y-108195811D01*
X135750000Y-108194750D01*
X135741941Y-108195811D01*
X135614353Y-108212608D01*
X135614348Y-108212609D01*
X135606291Y-108213670D01*
X135598781Y-108216780D01*
X135598776Y-108216782D01*
X135479885Y-108266028D01*
X135479883Y-108266029D01*
X135472375Y-108269139D01*
X135465933Y-108274082D01*
X135465928Y-108274085D01*
X135363822Y-108352434D01*
X135363817Y-108352438D01*
X135357379Y-108357379D01*
X135352436Y-108363821D01*
X135346686Y-108369572D01*
X135345440Y-108368326D01*
X135311464Y-108396212D01*
X135256619Y-108409000D01*
X134142609Y-108409000D01*
X134095156Y-108399561D01*
X134054928Y-108372681D01*
X132689996Y-107007749D01*
X132660252Y-106959909D01*
X132655956Y-106916188D01*
X132654189Y-106916188D01*
X132654189Y-106908058D01*
X132655250Y-106900000D01*
X132636330Y-106756291D01*
X132580861Y-106622375D01*
X132492621Y-106507379D01*
X132377625Y-106419139D01*
X132341592Y-106404214D01*
X132251223Y-106366782D01*
X132251220Y-106366781D01*
X132243709Y-106363670D01*
X132235649Y-106362608D01*
X132235646Y-106362608D01*
X132108059Y-106345811D01*
X132100000Y-106344750D01*
X132091941Y-106345811D01*
X131964353Y-106362608D01*
X131964348Y-106362609D01*
X131956291Y-106363670D01*
X131948781Y-106366780D01*
X131948776Y-106366782D01*
X131829885Y-106416028D01*
X131829883Y-106416029D01*
X131822375Y-106419139D01*
X131815933Y-106424082D01*
X131815928Y-106424085D01*
X131713821Y-106502435D01*
X131713817Y-106502438D01*
X131707379Y-106507379D01*
X131702438Y-106513817D01*
X131702435Y-106513821D01*
X131624085Y-106615928D01*
X131624082Y-106615933D01*
X131619139Y-106622375D01*
X131616029Y-106629883D01*
X131616028Y-106629885D01*
X131566782Y-106748776D01*
X131566780Y-106748781D01*
X131563670Y-106756291D01*
X131562609Y-106764348D01*
X131562608Y-106764353D01*
X131545811Y-106891941D01*
X131544750Y-106900000D01*
X130000500Y-106900000D01*
X130000500Y-100676484D01*
X130013500Y-100621212D01*
X130049773Y-100577530D01*
X130101715Y-100554595D01*
X130158434Y-100557218D01*
X130208038Y-100584847D01*
X130299462Y-100668191D01*
X130299466Y-100668194D01*
X130303698Y-100672052D01*
X130484981Y-100784298D01*
X130683802Y-100861321D01*
X130893390Y-100900500D01*
X131100881Y-100900500D01*
X131106610Y-100900500D01*
X131316198Y-100861321D01*
X131515019Y-100784298D01*
X131696302Y-100672052D01*
X131853872Y-100528407D01*
X131982366Y-100358255D01*
X132077405Y-100167389D01*
X132135756Y-99962310D01*
X132155429Y-99750000D01*
X132135756Y-99537690D01*
X132092929Y-99387173D01*
X132078975Y-99338129D01*
X132077405Y-99332611D01*
X131982366Y-99141745D01*
X131853872Y-98971593D01*
X131761764Y-98887625D01*
X131700531Y-98831803D01*
X131700529Y-98831801D01*
X131696302Y-98827948D01*
X131691438Y-98824936D01*
X131691435Y-98824934D01*
X131519890Y-98718718D01*
X131519889Y-98718717D01*
X131515019Y-98715702D01*
X131509681Y-98713634D01*
X131509677Y-98713632D01*
X131321545Y-98640750D01*
X131321540Y-98640748D01*
X131316198Y-98638679D01*
X131310560Y-98637625D01*
X131112239Y-98600552D01*
X131112236Y-98600551D01*
X131106610Y-98599500D01*
X130893390Y-98599500D01*
X130887764Y-98600551D01*
X130887760Y-98600552D01*
X130689439Y-98637625D01*
X130689436Y-98637625D01*
X130683802Y-98638679D01*
X130678461Y-98640747D01*
X130678454Y-98640750D01*
X130490322Y-98713632D01*
X130490313Y-98713636D01*
X130484981Y-98715702D01*
X130480114Y-98718715D01*
X130480109Y-98718718D01*
X130308564Y-98824934D01*
X130308555Y-98824940D01*
X130303698Y-98827948D01*
X130299472Y-98831800D01*
X130299462Y-98831808D01*
X130208038Y-98915153D01*
X130158434Y-98942782D01*
X130101715Y-98945405D01*
X130049773Y-98922470D01*
X130013500Y-98878788D01*
X130000500Y-98823516D01*
X130000500Y-95179096D01*
X130000972Y-95168289D01*
X130003497Y-95139423D01*
X130004443Y-95128615D01*
X129994131Y-95090136D01*
X129991792Y-95079583D01*
X129984878Y-95040366D01*
X129979451Y-95030966D01*
X129977964Y-95026881D01*
X129976125Y-95022938D01*
X129973318Y-95012458D01*
X129950465Y-94979821D01*
X129944672Y-94970727D01*
X129924751Y-94936222D01*
X129894242Y-94910622D01*
X129886266Y-94903313D01*
X127156185Y-92173232D01*
X127148876Y-92165256D01*
X127123278Y-92134749D01*
X127104328Y-92123808D01*
X127088778Y-92114830D01*
X127079657Y-92109019D01*
X127055927Y-92092403D01*
X127055926Y-92092402D01*
X127047042Y-92086182D01*
X127036566Y-92083374D01*
X127032627Y-92081538D01*
X127028529Y-92080046D01*
X127019134Y-92074622D01*
X127008450Y-92072738D01*
X127008447Y-92072737D01*
X126979923Y-92067708D01*
X126969362Y-92065367D01*
X126941361Y-92057864D01*
X126941360Y-92057863D01*
X126930885Y-92055057D01*
X126920080Y-92056002D01*
X126920078Y-92056002D01*
X126891211Y-92058528D01*
X126880404Y-92059000D01*
X126420299Y-92059000D01*
X126409491Y-92058528D01*
X126369821Y-92055057D01*
X126370091Y-92051968D01*
X126330972Y-92045759D01*
X126283074Y-92009645D01*
X126257733Y-91955272D01*
X126260879Y-91895367D01*
X126291774Y-91843952D01*
X126388912Y-91746815D01*
X126429139Y-91719938D01*
X126476591Y-91710499D01*
X133029244Y-91710499D01*
X133087458Y-91725013D01*
X133132045Y-91765159D01*
X133152565Y-91821537D01*
X133163049Y-91921293D01*
X133163050Y-91921300D01*
X133163729Y-91927755D01*
X133165736Y-91933934D01*
X133165737Y-91933935D01*
X133210836Y-92072737D01*
X133218961Y-92097741D01*
X133222208Y-92103365D01*
X133222209Y-92103367D01*
X133299443Y-92237141D01*
X133308328Y-92252529D01*
X133312674Y-92257356D01*
X133312675Y-92257357D01*
X133421400Y-92378110D01*
X133427924Y-92385355D01*
X133572523Y-92490412D01*
X133735805Y-92563110D01*
X133910633Y-92600270D01*
X134082863Y-92600270D01*
X134089367Y-92600270D01*
X134220497Y-92572398D01*
X134281494Y-92574794D01*
X134333957Y-92606007D01*
X142428865Y-100700914D01*
X142458971Y-100749836D01*
X142463799Y-100807076D01*
X142442314Y-100860350D01*
X142330199Y-101018362D01*
X142330191Y-101018374D01*
X142328192Y-101021192D01*
X142326521Y-101024213D01*
X142326513Y-101024228D01*
X142158707Y-101327851D01*
X142157025Y-101330895D01*
X142155698Y-101334098D01*
X142155693Y-101334109D01*
X142022942Y-101654598D01*
X142022936Y-101654612D01*
X142021610Y-101657816D01*
X142020651Y-101661144D01*
X142020646Y-101661159D01*
X141924613Y-101994498D01*
X141924610Y-101994509D01*
X141923650Y-101997843D01*
X141923068Y-102001263D01*
X141923066Y-102001276D01*
X141864958Y-102343275D01*
X141864956Y-102343291D01*
X141864377Y-102346700D01*
X141844536Y-102700000D01*
X141864377Y-103053300D01*
X141864956Y-103056710D01*
X141864958Y-103056724D01*
X141923066Y-103398723D01*
X141923068Y-103398732D01*
X141923650Y-103402157D01*
X141924611Y-103405494D01*
X141924613Y-103405501D01*
X142020646Y-103738840D01*
X142020649Y-103738849D01*
X142021610Y-103742184D01*
X142022939Y-103745392D01*
X142022942Y-103745401D01*
X142155693Y-104065890D01*
X142157025Y-104069105D01*
X142158707Y-104072148D01*
X142326513Y-104375771D01*
X142326517Y-104375777D01*
X142328192Y-104378808D01*
X142532959Y-104667400D01*
X142768750Y-104931250D01*
X143032600Y-105167041D01*
X143321192Y-105371808D01*
X143630895Y-105542975D01*
X143957816Y-105678390D01*
X144297843Y-105776350D01*
X144646700Y-105835623D01*
X145000000Y-105855464D01*
X145353300Y-105835623D01*
X145702157Y-105776350D01*
X146042184Y-105678390D01*
X146369105Y-105542975D01*
X146678808Y-105371808D01*
X146967400Y-105167041D01*
X147231250Y-104931250D01*
X147467041Y-104667400D01*
X147671808Y-104378808D01*
X147842975Y-104069105D01*
X147978390Y-103742184D01*
X148076350Y-103402157D01*
X148135623Y-103053300D01*
X148155464Y-102700000D01*
X148135623Y-102346700D01*
X148076350Y-101997843D01*
X147978390Y-101657816D01*
X147842975Y-101330895D01*
X147671808Y-101021192D01*
X147467041Y-100732600D01*
X147231250Y-100468750D01*
X147101865Y-100353124D01*
X146969993Y-100235276D01*
X146969990Y-100235273D01*
X146967400Y-100232959D01*
X146925044Y-100202906D01*
X146820693Y-100128865D01*
X146678808Y-100028192D01*
X146675777Y-100026517D01*
X146675771Y-100026513D01*
X146372148Y-99858707D01*
X146369105Y-99857025D01*
X146365894Y-99855695D01*
X146365890Y-99855693D01*
X146045401Y-99722942D01*
X146045392Y-99722939D01*
X146042184Y-99721610D01*
X146038849Y-99720649D01*
X146038840Y-99720646D01*
X145705501Y-99624613D01*
X145705494Y-99624611D01*
X145702157Y-99623650D01*
X145698732Y-99623068D01*
X145698723Y-99623066D01*
X145356724Y-99564958D01*
X145356710Y-99564956D01*
X145353300Y-99564377D01*
X145349836Y-99564182D01*
X145349832Y-99564182D01*
X145003472Y-99544731D01*
X145000000Y-99544536D01*
X144996528Y-99544731D01*
X144650167Y-99564182D01*
X144650161Y-99564182D01*
X144646700Y-99564377D01*
X144643291Y-99564956D01*
X144643275Y-99564958D01*
X144301276Y-99623066D01*
X144301263Y-99623068D01*
X144297843Y-99623650D01*
X144294509Y-99624610D01*
X144294498Y-99624613D01*
X143961159Y-99720646D01*
X143961144Y-99720651D01*
X143957816Y-99721610D01*
X143954612Y-99722936D01*
X143954598Y-99722942D01*
X143634109Y-99855693D01*
X143634098Y-99855698D01*
X143630895Y-99857025D01*
X143627856Y-99858704D01*
X143627851Y-99858707D01*
X143324228Y-100026513D01*
X143324213Y-100026521D01*
X143321192Y-100028192D01*
X143318374Y-100030191D01*
X143318362Y-100030199D01*
X143160350Y-100142314D01*
X143107076Y-100163799D01*
X143049836Y-100158971D01*
X143000914Y-100128865D01*
X134874625Y-92002575D01*
X134845418Y-91956286D01*
X134838985Y-91901932D01*
X134854275Y-91756460D01*
X134854954Y-91750000D01*
X134836271Y-91572245D01*
X134781039Y-91402259D01*
X134691672Y-91247471D01*
X134572076Y-91114645D01*
X134566818Y-91110825D01*
X134566816Y-91110823D01*
X134455615Y-91030031D01*
X134418015Y-90986008D01*
X134404500Y-90929713D01*
X134404500Y-89110057D01*
X134418015Y-89053762D01*
X134455615Y-89009739D01*
X134499389Y-88977934D01*
X134572076Y-88925125D01*
X134691672Y-88792299D01*
X134781039Y-88637511D01*
X134836271Y-88467525D01*
X134854954Y-88289770D01*
X134836271Y-88112015D01*
X134781039Y-87942029D01*
X134691672Y-87787241D01*
X134572076Y-87654415D01*
X134566818Y-87650595D01*
X134566816Y-87650593D01*
X134455615Y-87569801D01*
X134418015Y-87525778D01*
X134404500Y-87469483D01*
X134404500Y-81500000D01*
X137744750Y-81500000D01*
X137745811Y-81508059D01*
X137754969Y-81577625D01*
X137763670Y-81643709D01*
X137766781Y-81651220D01*
X137766782Y-81651223D01*
X137794255Y-81717548D01*
X137819139Y-81777625D01*
X137907379Y-81892621D01*
X138022375Y-81980861D01*
X138156291Y-82036330D01*
X138300000Y-82055250D01*
X138443709Y-82036330D01*
X138577625Y-81980861D01*
X138692621Y-81892621D01*
X138780861Y-81777625D01*
X138805747Y-81717542D01*
X138832624Y-81677319D01*
X138872853Y-81650439D01*
X138920306Y-81641000D01*
X143306619Y-81641000D01*
X143361464Y-81653788D01*
X143395440Y-81681673D01*
X143396686Y-81680428D01*
X143402433Y-81686175D01*
X143407379Y-81692621D01*
X143522375Y-81780861D01*
X143656291Y-81836330D01*
X143800000Y-81855250D01*
X143943709Y-81836330D01*
X144077625Y-81780861D01*
X144192621Y-81692621D01*
X144280861Y-81577625D01*
X144336330Y-81443709D01*
X144355250Y-81300000D01*
X144336330Y-81156291D01*
X144280861Y-81022375D01*
X144192621Y-80907379D01*
X144077625Y-80819139D01*
X143982074Y-80779561D01*
X143951223Y-80766782D01*
X143951220Y-80766781D01*
X143943709Y-80763670D01*
X143935649Y-80762608D01*
X143935646Y-80762608D01*
X143868241Y-80753734D01*
X143809801Y-80729825D01*
X143770711Y-80680239D01*
X143761106Y-80617832D01*
X143783478Y-80558787D01*
X143832024Y-80518412D01*
X143835853Y-80516626D01*
X143846336Y-80513818D01*
X143878985Y-80490955D01*
X143888057Y-80485177D01*
X143914607Y-80469848D01*
X143952415Y-80455621D01*
X143983814Y-80454595D01*
X143983814Y-80454189D01*
X143991941Y-80454189D01*
X144000000Y-80455250D01*
X144143709Y-80436330D01*
X144277625Y-80380861D01*
X144392621Y-80292621D01*
X144480861Y-80177625D01*
X144536330Y-80043709D01*
X144555250Y-79900000D01*
X144536330Y-79756291D01*
X144480861Y-79622375D01*
X144392621Y-79507379D01*
X144277625Y-79419139D01*
X144241592Y-79404214D01*
X144151223Y-79366782D01*
X144151220Y-79366781D01*
X144143709Y-79363670D01*
X144135649Y-79362608D01*
X144135646Y-79362608D01*
X144008059Y-79345811D01*
X144000000Y-79344750D01*
X143991941Y-79345811D01*
X143864353Y-79362608D01*
X143864348Y-79362609D01*
X143856291Y-79363670D01*
X143848781Y-79366780D01*
X143848776Y-79366782D01*
X143729885Y-79416028D01*
X143729883Y-79416029D01*
X143722375Y-79419139D01*
X143715933Y-79424082D01*
X143715928Y-79424085D01*
X143613821Y-79502435D01*
X143613817Y-79502438D01*
X143607379Y-79507379D01*
X143602438Y-79513817D01*
X143602435Y-79513821D01*
X143524085Y-79615928D01*
X143524082Y-79615933D01*
X143519139Y-79622375D01*
X143516029Y-79629883D01*
X143516028Y-79629885D01*
X143466781Y-79748778D01*
X143466779Y-79748784D01*
X143463670Y-79756291D01*
X143462608Y-79764350D01*
X143461874Y-79767094D01*
X143437088Y-79814706D01*
X143394503Y-79847382D01*
X143342099Y-79859000D01*
X139112022Y-79859000D01*
X139064569Y-79849561D01*
X139024340Y-79822681D01*
X138997463Y-79782456D01*
X138980861Y-79742375D01*
X138892621Y-79627379D01*
X138777625Y-79539139D01*
X138716501Y-79513821D01*
X138651223Y-79486782D01*
X138651220Y-79486781D01*
X138643709Y-79483670D01*
X138635649Y-79482608D01*
X138635646Y-79482608D01*
X138508059Y-79465811D01*
X138500000Y-79464750D01*
X138491941Y-79465811D01*
X138364353Y-79482608D01*
X138364348Y-79482609D01*
X138356291Y-79483670D01*
X138348781Y-79486780D01*
X138348776Y-79486782D01*
X138229885Y-79536028D01*
X138229883Y-79536029D01*
X138222375Y-79539139D01*
X138215933Y-79544082D01*
X138215928Y-79544085D01*
X138113821Y-79622435D01*
X138113817Y-79622438D01*
X138107379Y-79627379D01*
X138102438Y-79633817D01*
X138102435Y-79633821D01*
X138024085Y-79735928D01*
X138024082Y-79735933D01*
X138019139Y-79742375D01*
X138016031Y-79749879D01*
X138016028Y-79749885D01*
X137966782Y-79868776D01*
X137966780Y-79868781D01*
X137963670Y-79876291D01*
X137962609Y-79884348D01*
X137962608Y-79884353D01*
X137945811Y-80011941D01*
X137944750Y-80020000D01*
X137963670Y-80163709D01*
X138019139Y-80297625D01*
X138024084Y-80304069D01*
X138024085Y-80304071D01*
X138085395Y-80383971D01*
X138107379Y-80412621D01*
X138222375Y-80500861D01*
X138356291Y-80556330D01*
X138500000Y-80575250D01*
X138643709Y-80556330D01*
X138657929Y-80550439D01*
X138705382Y-80541000D01*
X143570474Y-80541000D01*
X143635264Y-80559273D01*
X143680959Y-80608705D01*
X143694092Y-80674729D01*
X143670792Y-80737886D01*
X143617926Y-80779561D01*
X143529885Y-80816028D01*
X143529883Y-80816029D01*
X143522375Y-80819139D01*
X143515933Y-80824082D01*
X143515928Y-80824085D01*
X143413822Y-80902434D01*
X143413817Y-80902438D01*
X143407379Y-80907379D01*
X143402436Y-80913821D01*
X143396686Y-80919572D01*
X143395440Y-80918326D01*
X143361464Y-80946212D01*
X143306619Y-80959000D01*
X138520302Y-80959000D01*
X138509496Y-80958528D01*
X138504087Y-80958054D01*
X138480628Y-80956002D01*
X138480625Y-80956002D01*
X138469822Y-80955057D01*
X138459344Y-80957864D01*
X138448537Y-80958810D01*
X138448443Y-80957741D01*
X138415213Y-80959917D01*
X138308061Y-80945811D01*
X138308059Y-80945811D01*
X138300000Y-80944750D01*
X138291941Y-80945811D01*
X138164353Y-80962608D01*
X138164348Y-80962609D01*
X138156291Y-80963670D01*
X138148781Y-80966780D01*
X138148776Y-80966782D01*
X138029885Y-81016028D01*
X138029883Y-81016029D01*
X138022375Y-81019139D01*
X138015933Y-81024082D01*
X138015928Y-81024085D01*
X137913821Y-81102435D01*
X137913817Y-81102438D01*
X137907379Y-81107379D01*
X137902438Y-81113817D01*
X137902435Y-81113821D01*
X137824085Y-81215928D01*
X137824082Y-81215933D01*
X137819139Y-81222375D01*
X137816029Y-81229883D01*
X137816028Y-81229885D01*
X137766782Y-81348776D01*
X137766780Y-81348781D01*
X137763670Y-81356291D01*
X137762609Y-81364348D01*
X137762608Y-81364353D01*
X137752161Y-81443709D01*
X137744750Y-81500000D01*
X134404500Y-81500000D01*
X134404500Y-76918912D01*
X134413939Y-76871459D01*
X134440819Y-76831231D01*
X135364008Y-75908042D01*
X137172049Y-74100000D01*
X145444571Y-74100000D01*
X145464244Y-74312310D01*
X145465812Y-74317821D01*
X145465814Y-74317831D01*
X145521024Y-74511870D01*
X145521026Y-74511876D01*
X145522595Y-74517389D01*
X145617634Y-74708255D01*
X145746128Y-74878407D01*
X145903698Y-75022052D01*
X146084981Y-75134298D01*
X146283802Y-75211321D01*
X146493390Y-75250500D01*
X146700881Y-75250500D01*
X146706610Y-75250500D01*
X146916198Y-75211321D01*
X147115019Y-75134298D01*
X147296302Y-75022052D01*
X147453872Y-74878407D01*
X147582366Y-74708255D01*
X147677405Y-74517389D01*
X147735756Y-74312310D01*
X147755429Y-74100000D01*
X147735756Y-73887690D01*
X147677405Y-73682611D01*
X147582366Y-73491745D01*
X147453872Y-73321593D01*
X147296302Y-73177948D01*
X147291438Y-73174936D01*
X147291435Y-73174934D01*
X147119890Y-73068718D01*
X147119889Y-73068717D01*
X147115019Y-73065702D01*
X147109681Y-73063634D01*
X147109677Y-73063632D01*
X146921545Y-72990750D01*
X146921540Y-72990748D01*
X146916198Y-72988679D01*
X146910560Y-72987625D01*
X146712239Y-72950552D01*
X146712236Y-72950551D01*
X146706610Y-72949500D01*
X146493390Y-72949500D01*
X146487764Y-72950551D01*
X146487760Y-72950552D01*
X146289439Y-72987625D01*
X146289436Y-72987625D01*
X146283802Y-72988679D01*
X146278461Y-72990747D01*
X146278454Y-72990750D01*
X146090322Y-73063632D01*
X146090313Y-73063636D01*
X146084981Y-73065702D01*
X146080114Y-73068715D01*
X146080109Y-73068718D01*
X145908564Y-73174934D01*
X145908555Y-73174940D01*
X145903698Y-73177948D01*
X145899475Y-73181797D01*
X145899468Y-73181803D01*
X145750360Y-73317734D01*
X145750354Y-73317739D01*
X145746128Y-73321593D01*
X145742681Y-73326156D01*
X145742675Y-73326164D01*
X145621086Y-73487173D01*
X145621083Y-73487177D01*
X145617634Y-73491745D01*
X145615082Y-73496870D01*
X145615079Y-73496875D01*
X145525153Y-73677473D01*
X145522595Y-73682611D01*
X145521027Y-73688119D01*
X145521024Y-73688129D01*
X145465814Y-73882168D01*
X145465811Y-73882179D01*
X145464244Y-73887690D01*
X145444571Y-74100000D01*
X137172049Y-74100000D01*
X138207279Y-73064769D01*
X138259740Y-73033558D01*
X138320736Y-73031162D01*
X138410633Y-73050270D01*
X138582863Y-73050270D01*
X138589367Y-73050270D01*
X138764195Y-73013110D01*
X138927477Y-72940412D01*
X139072076Y-72835355D01*
X139191672Y-72702529D01*
X139281039Y-72547741D01*
X139336271Y-72377755D01*
X139354954Y-72200000D01*
X139336271Y-72022245D01*
X139281039Y-71852259D01*
X139191672Y-71697471D01*
X139072076Y-71564645D01*
X139066818Y-71560825D01*
X139066816Y-71560823D01*
X138932735Y-71463408D01*
X138932734Y-71463407D01*
X138927477Y-71459588D01*
X138921545Y-71456946D01*
X138921540Y-71456944D01*
X138770128Y-71389531D01*
X138770123Y-71389529D01*
X138764195Y-71386890D01*
X138757845Y-71385540D01*
X138757838Y-71385538D01*
X138595730Y-71351082D01*
X138595725Y-71351081D01*
X138589367Y-71349730D01*
X138410633Y-71349730D01*
X138404275Y-71351081D01*
X138404269Y-71351082D01*
X138242161Y-71385538D01*
X138242151Y-71385540D01*
X138235805Y-71386890D01*
X138229879Y-71389528D01*
X138229871Y-71389531D01*
X138078459Y-71456944D01*
X138078450Y-71456948D01*
X138072523Y-71459588D01*
X138067269Y-71463404D01*
X138067264Y-71463408D01*
X137933183Y-71560823D01*
X137933176Y-71560828D01*
X137927924Y-71564645D01*
X137923579Y-71569469D01*
X137923574Y-71569475D01*
X137812675Y-71692642D01*
X137812670Y-71692647D01*
X137808328Y-71697471D01*
X137805083Y-71703091D01*
X137805079Y-71703097D01*
X137722209Y-71846632D01*
X137722206Y-71846637D01*
X137718961Y-71852259D01*
X137716955Y-71858431D01*
X137716953Y-71858437D01*
X137665737Y-72016064D01*
X137663729Y-72022245D01*
X137663050Y-72028697D01*
X137663049Y-72028706D01*
X137646086Y-72190099D01*
X137645046Y-72200000D01*
X137645725Y-72206460D01*
X137663049Y-72371293D01*
X137663729Y-72377755D01*
X137665444Y-72383034D01*
X137663064Y-72443634D01*
X137631851Y-72496097D01*
X133691465Y-76436485D01*
X133675573Y-76452377D01*
X133675571Y-76452379D01*
X133668674Y-76459277D01*
X133664245Y-76467968D01*
X133664245Y-76467969D01*
X133658474Y-76479295D01*
X133648311Y-76495878D01*
X133640833Y-76506169D01*
X133640825Y-76506183D01*
X133635095Y-76514071D01*
X133632080Y-76523349D01*
X133632078Y-76523354D01*
X133628149Y-76535447D01*
X133620705Y-76553418D01*
X133614931Y-76564749D01*
X133614927Y-76564758D01*
X133610502Y-76573445D01*
X133608976Y-76583071D01*
X133608973Y-76583084D01*
X133606984Y-76595645D01*
X133602445Y-76614553D01*
X133598515Y-76626650D01*
X133598513Y-76626656D01*
X133595500Y-76635934D01*
X133595500Y-76645691D01*
X133595500Y-87469483D01*
X133581985Y-87525778D01*
X133544385Y-87569801D01*
X133433183Y-87650593D01*
X133433176Y-87650598D01*
X133427924Y-87654415D01*
X133423579Y-87659239D01*
X133423574Y-87659245D01*
X133312675Y-87782412D01*
X133312670Y-87782417D01*
X133308328Y-87787241D01*
X133305083Y-87792861D01*
X133305079Y-87792867D01*
X133222209Y-87936402D01*
X133222206Y-87936407D01*
X133218961Y-87942029D01*
X133216955Y-87948201D01*
X133216953Y-87948207D01*
X133165737Y-88105834D01*
X133163729Y-88112015D01*
X133163050Y-88118467D01*
X133163049Y-88118476D01*
X133146086Y-88279869D01*
X133145046Y-88289770D01*
X133145725Y-88296230D01*
X133163049Y-88461063D01*
X133163050Y-88461070D01*
X133163729Y-88467525D01*
X133218961Y-88637511D01*
X133308328Y-88792299D01*
X133427924Y-88925125D01*
X133433182Y-88928945D01*
X133433183Y-88928946D01*
X133544385Y-89009739D01*
X133581985Y-89053762D01*
X133595500Y-89110057D01*
X133595500Y-90904499D01*
X133578887Y-90966499D01*
X133533500Y-91011886D01*
X133471500Y-91028499D01*
X126360071Y-91028499D01*
X126303776Y-91014984D01*
X126259753Y-90977384D01*
X126237598Y-90923897D01*
X126242140Y-90866181D01*
X126272390Y-90816818D01*
X126272389Y-90816818D01*
X126910037Y-90179170D01*
X126957858Y-90149433D01*
X127013899Y-90143914D01*
X127100000Y-90155250D01*
X127243709Y-90136330D01*
X127377625Y-90080861D01*
X127492621Y-89992621D01*
X127580861Y-89877625D01*
X127636330Y-89743709D01*
X127655250Y-89600000D01*
X127636330Y-89456291D01*
X127580861Y-89322375D01*
X127492621Y-89207379D01*
X127377625Y-89119139D01*
X127341592Y-89104214D01*
X127251223Y-89066782D01*
X127251220Y-89066781D01*
X127243709Y-89063670D01*
X127235649Y-89062608D01*
X127235646Y-89062608D01*
X127108059Y-89045811D01*
X127100000Y-89044750D01*
X127091941Y-89045811D01*
X126964353Y-89062608D01*
X126964348Y-89062609D01*
X126956291Y-89063670D01*
X126948781Y-89066780D01*
X126948776Y-89066782D01*
X126829885Y-89116028D01*
X126829883Y-89116029D01*
X126822375Y-89119139D01*
X126815933Y-89124082D01*
X126815928Y-89124085D01*
X126713821Y-89202435D01*
X126713817Y-89202438D01*
X126707379Y-89207379D01*
X126702438Y-89213817D01*
X126702435Y-89213821D01*
X126624085Y-89315928D01*
X126624082Y-89315933D01*
X126619139Y-89322375D01*
X126616029Y-89329883D01*
X126616028Y-89329885D01*
X126566782Y-89448776D01*
X126566780Y-89448781D01*
X126563670Y-89456291D01*
X126562609Y-89464348D01*
X126562608Y-89464353D01*
X126553281Y-89535196D01*
X126541554Y-89573854D01*
X126518023Y-89606690D01*
X124201392Y-91923322D01*
X124201390Y-91923324D01*
X124201391Y-91923324D01*
X124116360Y-92008355D01*
X124111774Y-92018187D01*
X124111775Y-92018187D01*
X124108138Y-92025986D01*
X124097339Y-92044690D01*
X124092402Y-92051741D01*
X124092400Y-92051744D01*
X124086182Y-92060626D01*
X124083376Y-92071094D01*
X124083373Y-92071102D01*
X124081147Y-92079411D01*
X124073759Y-92099710D01*
X124070121Y-92107512D01*
X124070119Y-92107516D01*
X124065538Y-92117343D01*
X124064592Y-92128144D01*
X124064591Y-92128151D01*
X124063841Y-92136719D01*
X124060091Y-92157988D01*
X124057863Y-92166302D01*
X124057861Y-92166313D01*
X124055057Y-92176783D01*
X124056001Y-92187585D01*
X124056002Y-92187585D01*
X124056752Y-92196159D01*
X124056752Y-92217762D01*
X124055057Y-92237141D01*
X124057863Y-92247617D01*
X124057864Y-92247618D01*
X124060090Y-92255925D01*
X124063842Y-92277203D01*
X124065538Y-92296581D01*
X124073759Y-92314211D01*
X124081148Y-92334513D01*
X124086182Y-92353298D01*
X124092401Y-92362180D01*
X124092403Y-92362184D01*
X124097333Y-92369224D01*
X124108139Y-92387940D01*
X124116360Y-92405569D01*
X124124031Y-92413240D01*
X124124032Y-92413241D01*
X124858110Y-93147319D01*
X124888360Y-93196682D01*
X124892902Y-93254398D01*
X124870747Y-93307885D01*
X124826724Y-93345485D01*
X124770429Y-93359000D01*
X123293381Y-93359000D01*
X123238536Y-93346212D01*
X123204559Y-93318326D01*
X123203314Y-93319572D01*
X123197566Y-93313824D01*
X123192621Y-93307379D01*
X123178782Y-93296760D01*
X123084071Y-93224085D01*
X123084069Y-93224084D01*
X123077625Y-93219139D01*
X123041592Y-93204214D01*
X122951223Y-93166782D01*
X122951220Y-93166781D01*
X122943709Y-93163670D01*
X122935649Y-93162608D01*
X122935646Y-93162608D01*
X122808059Y-93145811D01*
X122800000Y-93144750D01*
X122791941Y-93145811D01*
X122664353Y-93162608D01*
X122664348Y-93162609D01*
X122656291Y-93163670D01*
X122648781Y-93166780D01*
X122648776Y-93166782D01*
X122529885Y-93216028D01*
X122529883Y-93216029D01*
X122522375Y-93219139D01*
X122515933Y-93224082D01*
X122515928Y-93224085D01*
X122413821Y-93302435D01*
X122413817Y-93302438D01*
X122407379Y-93307379D01*
X122402438Y-93313817D01*
X122402435Y-93313821D01*
X122324085Y-93415928D01*
X122324082Y-93415933D01*
X122319139Y-93422375D01*
X122316029Y-93429883D01*
X122316028Y-93429885D01*
X122266782Y-93548776D01*
X122266780Y-93548781D01*
X122263670Y-93556291D01*
X122262609Y-93564348D01*
X122262608Y-93564353D01*
X122248494Y-93671565D01*
X122244750Y-93700000D01*
X110100500Y-93700000D01*
X110100500Y-78794518D01*
X110950000Y-78794518D01*
X110950353Y-78801114D01*
X110955573Y-78849667D01*
X110959111Y-78864641D01*
X111003547Y-78983777D01*
X111011962Y-78999189D01*
X111087498Y-79100092D01*
X111099907Y-79112501D01*
X111200810Y-79188037D01*
X111216222Y-79196452D01*
X111335358Y-79240888D01*
X111350332Y-79244426D01*
X111398885Y-79249646D01*
X111405482Y-79250000D01*
X112683674Y-79250000D01*
X112696549Y-79246549D01*
X112700000Y-79233674D01*
X113200000Y-79233674D01*
X113203450Y-79246549D01*
X113216326Y-79250000D01*
X114494518Y-79250000D01*
X114501114Y-79249646D01*
X114549667Y-79244426D01*
X114564641Y-79240888D01*
X114683777Y-79196452D01*
X114699189Y-79188037D01*
X114800092Y-79112501D01*
X114812501Y-79100092D01*
X114888037Y-78999189D01*
X114896452Y-78983777D01*
X114940888Y-78864641D01*
X114944426Y-78849667D01*
X114949646Y-78801114D01*
X114950000Y-78794518D01*
X114950000Y-77516326D01*
X114946549Y-77503450D01*
X114933674Y-77500000D01*
X113216326Y-77500000D01*
X113203450Y-77503450D01*
X113200000Y-77516326D01*
X113200000Y-79233674D01*
X112700000Y-79233674D01*
X112700000Y-77516326D01*
X112696549Y-77503450D01*
X112683674Y-77500000D01*
X110966326Y-77500000D01*
X110953450Y-77503450D01*
X110950000Y-77516326D01*
X110950000Y-78794518D01*
X110100500Y-78794518D01*
X110100500Y-77250000D01*
X115794396Y-77250000D01*
X115814779Y-77508994D01*
X115815914Y-77513723D01*
X115815915Y-77513727D01*
X115874289Y-77756873D01*
X115874291Y-77756881D01*
X115875427Y-77761610D01*
X115974846Y-78001628D01*
X115977382Y-78005767D01*
X115977386Y-78005774D01*
X116108042Y-78218986D01*
X116110588Y-78223140D01*
X116279311Y-78420689D01*
X116476860Y-78589412D01*
X116698372Y-78725154D01*
X116938390Y-78824573D01*
X117191006Y-78885221D01*
X117450000Y-78905604D01*
X117708994Y-78885221D01*
X117961610Y-78824573D01*
X118201628Y-78725154D01*
X118423140Y-78589412D01*
X118620689Y-78420689D01*
X118789412Y-78223140D01*
X118925154Y-78001628D01*
X119024573Y-77761610D01*
X119085221Y-77508994D01*
X119105604Y-77250000D01*
X119085221Y-76991006D01*
X119024573Y-76738390D01*
X118925154Y-76498372D01*
X118896968Y-76452377D01*
X118791957Y-76281013D01*
X118791956Y-76281012D01*
X118789412Y-76276860D01*
X118620689Y-76079311D01*
X118423140Y-75910588D01*
X118418989Y-75908044D01*
X118418986Y-75908042D01*
X118205774Y-75777386D01*
X118205767Y-75777382D01*
X118201628Y-75774846D01*
X118197133Y-75772984D01*
X118197131Y-75772983D01*
X117966110Y-75677291D01*
X117961610Y-75675427D01*
X117956881Y-75674291D01*
X117956873Y-75674289D01*
X117713727Y-75615915D01*
X117713723Y-75615914D01*
X117708994Y-75614779D01*
X117704143Y-75614397D01*
X117704142Y-75614397D01*
X117454854Y-75594778D01*
X117450000Y-75594396D01*
X117445146Y-75594778D01*
X117195857Y-75614397D01*
X117195854Y-75614397D01*
X117191006Y-75614779D01*
X117186278Y-75615913D01*
X117186272Y-75615915D01*
X116943126Y-75674289D01*
X116943114Y-75674292D01*
X116938390Y-75675427D01*
X116933893Y-75677289D01*
X116933889Y-75677291D01*
X116702868Y-75772983D01*
X116702860Y-75772986D01*
X116698372Y-75774846D01*
X116694237Y-75777379D01*
X116694225Y-75777386D01*
X116481013Y-75908042D01*
X116481003Y-75908048D01*
X116476860Y-75910588D01*
X116473159Y-75913748D01*
X116473152Y-75913754D01*
X116283011Y-76076150D01*
X116283004Y-76076156D01*
X116279311Y-76079311D01*
X116276156Y-76083004D01*
X116276150Y-76083011D01*
X116113754Y-76273152D01*
X116113748Y-76273159D01*
X116110588Y-76276860D01*
X116108048Y-76281003D01*
X116108042Y-76281013D01*
X115977386Y-76494225D01*
X115977379Y-76494237D01*
X115974846Y-76498372D01*
X115972986Y-76502860D01*
X115972983Y-76502868D01*
X115877291Y-76733889D01*
X115875427Y-76738390D01*
X115874292Y-76743114D01*
X115874289Y-76743126D01*
X115815915Y-76986272D01*
X115815913Y-76986278D01*
X115814779Y-76991006D01*
X115794396Y-77250000D01*
X110100500Y-77250000D01*
X110100500Y-76983674D01*
X110950000Y-76983674D01*
X110953450Y-76996549D01*
X110966326Y-77000000D01*
X112683674Y-77000000D01*
X112696549Y-76996549D01*
X112700000Y-76983674D01*
X113200000Y-76983674D01*
X113203450Y-76996549D01*
X113216326Y-77000000D01*
X114933674Y-77000000D01*
X114946549Y-76996549D01*
X114950000Y-76983674D01*
X114950000Y-75705482D01*
X114949646Y-75698885D01*
X114944426Y-75650332D01*
X114940888Y-75635358D01*
X114896452Y-75516222D01*
X114888037Y-75500810D01*
X114812501Y-75399907D01*
X114800092Y-75387498D01*
X114699189Y-75311962D01*
X114683777Y-75303547D01*
X114564641Y-75259111D01*
X114549667Y-75255573D01*
X114501114Y-75250353D01*
X114494518Y-75250000D01*
X113216326Y-75250000D01*
X113203450Y-75253450D01*
X113200000Y-75266326D01*
X113200000Y-76983674D01*
X112700000Y-76983674D01*
X112700000Y-75266326D01*
X112696549Y-75253450D01*
X112683674Y-75250000D01*
X111405482Y-75250000D01*
X111398885Y-75250353D01*
X111350332Y-75255573D01*
X111335358Y-75259111D01*
X111216222Y-75303547D01*
X111200810Y-75311962D01*
X111099907Y-75387498D01*
X111087498Y-75399907D01*
X111011962Y-75500810D01*
X111003547Y-75516222D01*
X110959111Y-75635358D01*
X110955573Y-75650332D01*
X110950353Y-75698885D01*
X110950000Y-75705482D01*
X110950000Y-76983674D01*
X110100500Y-76983674D01*
X110100500Y-72294518D01*
X110950000Y-72294518D01*
X110950353Y-72301114D01*
X110955573Y-72349667D01*
X110959111Y-72364641D01*
X111003547Y-72483777D01*
X111011962Y-72499189D01*
X111087498Y-72600092D01*
X111099907Y-72612501D01*
X111200810Y-72688037D01*
X111216222Y-72696452D01*
X111335358Y-72740888D01*
X111350332Y-72744426D01*
X111398885Y-72749646D01*
X111405482Y-72750000D01*
X112683674Y-72750000D01*
X112696549Y-72746549D01*
X112700000Y-72733674D01*
X113200000Y-72733674D01*
X113203450Y-72746549D01*
X113216326Y-72750000D01*
X114494518Y-72750000D01*
X114501114Y-72749646D01*
X114549667Y-72744426D01*
X114564641Y-72740888D01*
X114683777Y-72696452D01*
X114699189Y-72688037D01*
X114800092Y-72612501D01*
X114812501Y-72600092D01*
X114888037Y-72499189D01*
X114896452Y-72483777D01*
X114940888Y-72364641D01*
X114944426Y-72349667D01*
X114949646Y-72301114D01*
X114950000Y-72294518D01*
X114950000Y-71016326D01*
X114946549Y-71003450D01*
X114933674Y-71000000D01*
X113216326Y-71000000D01*
X113203450Y-71003450D01*
X113200000Y-71016326D01*
X113200000Y-72733674D01*
X112700000Y-72733674D01*
X112700000Y-71016326D01*
X112696549Y-71003450D01*
X112683674Y-71000000D01*
X110966326Y-71000000D01*
X110953450Y-71003450D01*
X110950000Y-71016326D01*
X110950000Y-72294518D01*
X110100500Y-72294518D01*
X110100500Y-70750000D01*
X115794396Y-70750000D01*
X115814779Y-71008994D01*
X115815914Y-71013723D01*
X115815915Y-71013727D01*
X115874289Y-71256873D01*
X115874291Y-71256881D01*
X115875427Y-71261610D01*
X115877291Y-71266110D01*
X115959014Y-71463408D01*
X115974846Y-71501628D01*
X115977382Y-71505767D01*
X115977386Y-71505774D01*
X116108042Y-71718986D01*
X116110588Y-71723140D01*
X116279311Y-71920689D01*
X116476860Y-72089412D01*
X116698372Y-72225154D01*
X116938390Y-72324573D01*
X117191006Y-72385221D01*
X117450000Y-72405604D01*
X117708994Y-72385221D01*
X117961610Y-72324573D01*
X118201628Y-72225154D01*
X118423140Y-72089412D01*
X118620689Y-71920689D01*
X118789412Y-71723140D01*
X118925154Y-71501628D01*
X119024573Y-71261610D01*
X119085221Y-71008994D01*
X119105604Y-70750000D01*
X119085221Y-70491006D01*
X119024573Y-70238390D01*
X118925154Y-69998372D01*
X118789412Y-69776860D01*
X118620689Y-69579311D01*
X118423140Y-69410588D01*
X118418989Y-69408044D01*
X118418986Y-69408042D01*
X118205774Y-69277386D01*
X118205767Y-69277382D01*
X118201628Y-69274846D01*
X118197133Y-69272984D01*
X118197131Y-69272983D01*
X117966110Y-69177291D01*
X117961610Y-69175427D01*
X117956881Y-69174291D01*
X117956873Y-69174289D01*
X117713727Y-69115915D01*
X117713723Y-69115914D01*
X117708994Y-69114779D01*
X117704143Y-69114397D01*
X117704142Y-69114397D01*
X117454854Y-69094778D01*
X117450000Y-69094396D01*
X117445146Y-69094778D01*
X117195857Y-69114397D01*
X117195854Y-69114397D01*
X117191006Y-69114779D01*
X117186278Y-69115913D01*
X117186272Y-69115915D01*
X116943126Y-69174289D01*
X116943114Y-69174292D01*
X116938390Y-69175427D01*
X116933893Y-69177289D01*
X116933889Y-69177291D01*
X116702868Y-69272983D01*
X116702860Y-69272986D01*
X116698372Y-69274846D01*
X116694237Y-69277379D01*
X116694225Y-69277386D01*
X116481013Y-69408042D01*
X116481003Y-69408048D01*
X116476860Y-69410588D01*
X116473159Y-69413748D01*
X116473152Y-69413754D01*
X116283011Y-69576150D01*
X116283004Y-69576156D01*
X116279311Y-69579311D01*
X116276156Y-69583004D01*
X116276150Y-69583011D01*
X116113754Y-69773152D01*
X116113748Y-69773159D01*
X116110588Y-69776860D01*
X116108048Y-69781003D01*
X116108042Y-69781013D01*
X115977386Y-69994225D01*
X115977379Y-69994237D01*
X115974846Y-69998372D01*
X115972986Y-70002860D01*
X115972983Y-70002868D01*
X115877291Y-70233889D01*
X115875427Y-70238390D01*
X115874292Y-70243114D01*
X115874289Y-70243126D01*
X115815915Y-70486272D01*
X115815913Y-70486278D01*
X115814779Y-70491006D01*
X115794396Y-70750000D01*
X110100500Y-70750000D01*
X110100500Y-70483674D01*
X110950000Y-70483674D01*
X110953450Y-70496549D01*
X110966326Y-70500000D01*
X112683674Y-70500000D01*
X112696549Y-70496549D01*
X112700000Y-70483674D01*
X113200000Y-70483674D01*
X113203450Y-70496549D01*
X113216326Y-70500000D01*
X114933674Y-70500000D01*
X114946549Y-70496549D01*
X114950000Y-70483674D01*
X114950000Y-69205482D01*
X114949646Y-69198885D01*
X114944426Y-69150332D01*
X114940888Y-69135358D01*
X114896452Y-69016222D01*
X114888037Y-69000810D01*
X114812501Y-68899907D01*
X114800092Y-68887498D01*
X114699189Y-68811962D01*
X114683777Y-68803547D01*
X114564641Y-68759111D01*
X114549667Y-68755573D01*
X114501114Y-68750353D01*
X114494518Y-68750000D01*
X113216326Y-68750000D01*
X113203450Y-68753450D01*
X113200000Y-68766326D01*
X113200000Y-70483674D01*
X112700000Y-70483674D01*
X112700000Y-68766326D01*
X112696549Y-68753450D01*
X112683674Y-68750000D01*
X111405482Y-68750000D01*
X111398885Y-68750353D01*
X111350332Y-68755573D01*
X111335358Y-68759111D01*
X111216222Y-68803547D01*
X111200810Y-68811962D01*
X111099907Y-68887498D01*
X111087498Y-68899907D01*
X111011962Y-69000810D01*
X111003547Y-69016222D01*
X110959111Y-69135358D01*
X110955573Y-69150332D01*
X110950353Y-69198885D01*
X110950000Y-69205482D01*
X110950000Y-70483674D01*
X110100500Y-70483674D01*
X110100500Y-62950000D01*
X145494571Y-62950000D01*
X145514244Y-63162310D01*
X145515812Y-63167821D01*
X145515814Y-63167831D01*
X145571024Y-63361870D01*
X145571026Y-63361876D01*
X145572595Y-63367389D01*
X145667634Y-63558255D01*
X145796128Y-63728407D01*
X145953698Y-63872052D01*
X146134981Y-63984298D01*
X146333802Y-64061321D01*
X146543390Y-64100500D01*
X146750881Y-64100500D01*
X146756610Y-64100500D01*
X146966198Y-64061321D01*
X147165019Y-63984298D01*
X147346302Y-63872052D01*
X147503872Y-63728407D01*
X147632366Y-63558255D01*
X147727405Y-63367389D01*
X147785756Y-63162310D01*
X147805429Y-62950000D01*
X147785756Y-62737690D01*
X147727405Y-62532611D01*
X147632366Y-62341745D01*
X147503872Y-62171593D01*
X147346302Y-62027948D01*
X147341438Y-62024936D01*
X147341435Y-62024934D01*
X147169890Y-61918718D01*
X147169889Y-61918717D01*
X147165019Y-61915702D01*
X147159681Y-61913634D01*
X147159677Y-61913632D01*
X146971545Y-61840750D01*
X146971540Y-61840748D01*
X146966198Y-61838679D01*
X146960560Y-61837625D01*
X146762239Y-61800552D01*
X146762236Y-61800551D01*
X146756610Y-61799500D01*
X146543390Y-61799500D01*
X146537764Y-61800551D01*
X146537760Y-61800552D01*
X146339439Y-61837625D01*
X146339436Y-61837625D01*
X146333802Y-61838679D01*
X146328461Y-61840747D01*
X146328454Y-61840750D01*
X146140322Y-61913632D01*
X146140313Y-61913636D01*
X146134981Y-61915702D01*
X146130114Y-61918715D01*
X146130109Y-61918718D01*
X145958564Y-62024934D01*
X145958555Y-62024940D01*
X145953698Y-62027948D01*
X145949475Y-62031797D01*
X145949468Y-62031803D01*
X145800360Y-62167734D01*
X145800354Y-62167739D01*
X145796128Y-62171593D01*
X145792681Y-62176156D01*
X145792675Y-62176164D01*
X145671086Y-62337173D01*
X145671083Y-62337177D01*
X145667634Y-62341745D01*
X145665082Y-62346870D01*
X145665079Y-62346875D01*
X145575153Y-62527473D01*
X145572595Y-62532611D01*
X145571027Y-62538119D01*
X145571024Y-62538129D01*
X145515814Y-62732168D01*
X145515811Y-62732179D01*
X145514244Y-62737690D01*
X145494571Y-62950000D01*
X110100500Y-62950000D01*
X110100500Y-60124000D01*
X110117113Y-60062000D01*
X110162500Y-60016613D01*
X110224500Y-60000000D01*
X149775500Y-60000000D01*
X149837500Y-60016613D01*
G37*
G04 #@! TD.AperFunction*
M02*
