M48
; DRILL file {KiCad 7.0.0-da2b9df05c~163~ubuntu22.04.1} date 2023年03月30日 16時17分36秒
; FORMAT={-:-/ absolute / inch / decimal}
; #@! TF.CreationDate,2023-03-30T16:17:36+09:00
; #@! TF.GenerationSoftware,Kicad,Pcbnew,7.0.0-da2b9df05c~163~ubuntu22.04.1
; #@! TF.FileFunction,Plated,1,2,PTH
FMAT,2
INCH
; #@! TA.AperFunction,Plated,PTH,ViaDrill
T1C0.0236
; #@! TA.AperFunction,Plated,PTH,ComponentDrill
T2C0.0295
; #@! TA.AperFunction,Plated,PTH,ComponentDrill
T3C0.0394
; #@! TA.AperFunction,Plated,PTH,ViaDrill
T4C0.0394
; #@! TA.AperFunction,Plated,PTH,ComponentDrill
T5C0.0433
; #@! TA.AperFunction,Plated,PTH,ComponentDrill
T6C0.0728
; #@! TA.AperFunction,Plated,PTH,ViaDrill
T7C0.1260
%
G90
G05
T1
X4.8346Y-3.689
X4.9444Y-3.6246
X4.9803Y-3.3346
X5.0039Y-3.5276
X5.2008Y-4.2087
X5.3445Y-4.2815
X5.4449Y-3.2087
X5.4528Y-3.1504
X5.6614Y-3.2008
X5.6693Y-3.1457
T2
X5.3248Y-4.4094
X5.3248Y-4.4882
X5.3248Y-4.5669
X5.3248Y-4.6457
T3
X4.626Y-4.315
X4.7874Y-3.937
X4.9902Y-3.9272
X5.0039Y-4.3071
X5.1575Y-3.9272
X5.1693Y-4.3031
X5.7717Y-2.9173
X5.7736Y-2.4783
T4
X5.2756Y-3.476
X5.2756Y-3.6122
X5.4528Y-2.8425
T5
X4.4469Y-2.7854
X4.4469Y-3.0413
X4.624Y-2.7854
X4.624Y-3.0413
T6
X4.4449Y-4.3031
X4.8228Y-4.2953
T7
X5.7087Y-4.0433
T0
M30
