G04 #@! TF.GenerationSoftware,KiCad,Pcbnew,7.0.0-da2b9df05c~163~ubuntu22.04.1*
G04 #@! TF.CreationDate,2023-02-22T18:49:52+09:00*
G04 #@! TF.ProjectId,staticdetector,73746174-6963-4646-9574-6563746f722e,rev?*
G04 #@! TF.SameCoordinates,Original*
G04 #@! TF.FileFunction,Soldermask,Top*
G04 #@! TF.FilePolarity,Negative*
%FSLAX46Y46*%
G04 Gerber Fmt 4.6, Leading zero omitted, Abs format (unit mm)*
G04 Created by KiCad (PCBNEW 7.0.0-da2b9df05c~163~ubuntu22.04.1) date 2023-02-22 18:49:52*
%MOMM*%
%LPD*%
G01*
G04 APERTURE LIST*
G04 Aperture macros list*
%AMRoundRect*
0 Rectangle with rounded corners*
0 $1 Rounding radius*
0 $2 $3 $4 $5 $6 $7 $8 $9 X,Y pos of 4 corners*
0 Add a 4 corners polygon primitive as box body*
4,1,4,$2,$3,$4,$5,$6,$7,$8,$9,$2,$3,0*
0 Add four circle primitives for the rounded corners*
1,1,$1+$1,$2,$3*
1,1,$1+$1,$4,$5*
1,1,$1+$1,$6,$7*
1,1,$1+$1,$8,$9*
0 Add four rect primitives between the rounded corners*
20,1,$1+$1,$2,$3,$4,$5,0*
20,1,$1+$1,$4,$5,$6,$7,0*
20,1,$1+$1,$6,$7,$8,$9,0*
20,1,$1+$1,$8,$9,$2,$3,0*%
%AMFreePoly0*
4,1,33,3.939037,1.051276,4.003921,1.007921,4.047276,0.943037,4.062500,0.866500,4.062500,-0.866500,4.047276,-0.943037,4.003921,-1.007921,3.939037,-1.051276,3.862500,-1.066500,0.737500,-1.066500,0.660963,-1.051276,0.596079,-1.007921,0.552724,-0.943037,0.537500,-0.866500,0.537500,-0.650000,-0.737500,-0.650000,-0.814037,-0.634776,-0.878921,-0.591421,-0.922276,-0.526537,-0.937500,-0.450000,
-0.937500,0.450000,-0.922276,0.526537,-0.878921,0.591421,-0.814037,0.634776,-0.737500,0.650000,0.537500,0.650000,0.537500,0.866500,0.552724,0.943037,0.596079,1.007921,0.660963,1.051276,0.737500,1.066500,3.862500,1.066500,3.939037,1.051276,3.939037,1.051276,$1*%
%AMFreePoly1*
4,1,39,0.025584,0.944911,0.071157,0.944911,0.127504,0.936810,0.264055,0.896715,0.315837,0.873066,0.435559,0.796125,0.478580,0.758847,0.571777,0.651292,0.602554,0.603402,0.661673,0.473948,0.677710,0.419330,0.697964,0.278464,0.700000,0.250000,0.700000,-0.250000,0.697964,-0.278464,0.677710,-0.419330,0.661673,-0.473948,0.602554,-0.603402,0.571777,-0.651292,0.478580,-0.758847,
0.435559,-0.796125,0.315837,-0.873066,0.264055,-0.896715,0.127504,-0.936810,0.071157,-0.944911,0.025584,-0.944911,0.000000,-0.950000,-0.500000,-0.950000,-0.576537,-0.934776,-0.641421,-0.891421,-0.684776,-0.826537,-0.700000,-0.750000,-0.700000,0.750000,-0.684776,0.826537,-0.641421,0.891421,-0.576537,0.934776,-0.500000,0.950000,0.000000,0.950000,0.025584,0.944911,0.025584,0.944911,
$1*%
%AMFreePoly2*
4,1,39,0.576537,0.934776,0.641421,0.891421,0.684776,0.826537,0.700000,0.750000,0.700000,-0.750000,0.684776,-0.826537,0.641421,-0.891421,0.576537,-0.934776,0.500000,-0.950000,0.000000,-0.950000,-0.025584,-0.944911,-0.071157,-0.944911,-0.127504,-0.936810,-0.264055,-0.896715,-0.315837,-0.873066,-0.435559,-0.796125,-0.478580,-0.758847,-0.571777,-0.651292,-0.602554,-0.603402,-0.661673,-0.473948,
-0.677710,-0.419330,-0.697964,-0.278464,-0.700000,-0.250000,-0.700000,0.250000,-0.697964,0.278464,-0.677710,0.419330,-0.661673,0.473948,-0.602554,0.603402,-0.571777,0.651292,-0.478580,0.758847,-0.435559,0.796125,-0.315837,0.873066,-0.264055,0.896715,-0.127504,0.936810,-0.071157,0.944911,-0.025584,0.944911,0.000000,0.950000,0.500000,0.950000,0.576537,0.934776,0.576537,0.934776,
$1*%
G04 Aperture macros list end*
%ADD10C,3.600000*%
%ADD11RoundRect,0.450000X-0.375000X-0.625000X0.375000X-0.625000X0.375000X0.625000X-0.375000X0.625000X0*%
%ADD12RoundRect,0.200000X0.500000X0.350000X-0.500000X0.350000X-0.500000X-0.350000X0.500000X-0.350000X0*%
%ADD13RoundRect,0.200000X-0.650000X-0.450000X0.650000X-0.450000X0.650000X0.450000X-0.650000X0.450000X0*%
%ADD14FreePoly0,0.000000*%
%ADD15RoundRect,0.200000X0.500000X-1.600000X0.500000X1.600000X-0.500000X1.600000X-0.500000X-1.600000X0*%
%ADD16C,30.400000*%
%ADD17FreePoly1,180.000000*%
%ADD18FreePoly2,180.000000*%
%ADD19RoundRect,0.200000X-1.100000X-0.600000X1.100000X-0.600000X1.100000X0.600000X-1.100000X0.600000X0*%
%ADD20RoundRect,0.200000X-3.200000X-2.900000X3.200000X-2.900000X3.200000X2.900000X-3.200000X2.900000X0*%
%ADD21FreePoly1,0.000000*%
%ADD22FreePoly2,0.000000*%
%ADD23O,1.600000X2.150000*%
%ADD24RoundRect,0.450000X0.350000X0.625000X-0.350000X0.625000X-0.350000X-0.625000X0.350000X-0.625000X0*%
%ADD25RoundRect,0.450000X0.625000X-0.312500X0.625000X0.312500X-0.625000X0.312500X-0.625000X-0.312500X0*%
%ADD26RoundRect,0.450000X0.312500X0.625000X-0.312500X0.625000X-0.312500X-0.625000X0.312500X-0.625000X0*%
%ADD27RoundRect,0.450000X-0.312500X-0.625000X0.312500X-0.625000X0.312500X0.625000X-0.312500X0.625000X0*%
%ADD28C,20.400000*%
%ADD29RoundRect,0.200000X2.750000X-3.000000X2.750000X3.000000X-2.750000X3.000000X-2.750000X-3.000000X0*%
G04 APERTURE END LIST*
D10*
X130000000Y-117000000D03*
D11*
X145500000Y-76500000D03*
X142700000Y-76500000D03*
D12*
X114600000Y-107500000D03*
X117000000Y-106550000D03*
X117000000Y-108450000D03*
D13*
X120000000Y-109000000D03*
D14*
X120087500Y-107500000D03*
D13*
X120000000Y-106000000D03*
D15*
X120000000Y-76500000D03*
X120000000Y-83300000D03*
X116000000Y-83300000D03*
X116000000Y-76500000D03*
D16*
X130000000Y-60000000D03*
D17*
X137700000Y-77500000D03*
D18*
X139000000Y-77500000D03*
D11*
X145500000Y-80000000D03*
X142700000Y-80000000D03*
D19*
X115375000Y-92755000D03*
D20*
X121675000Y-90475000D03*
D19*
X115375000Y-88195000D03*
D21*
X134800000Y-77500000D03*
D22*
X133500000Y-77500000D03*
D23*
X116999999Y-116999999D03*
X118999999Y-116999999D03*
X120999999Y-116999999D03*
D24*
X123000000Y-117000000D03*
D25*
X122000000Y-98037500D03*
X122000000Y-100962500D03*
D26*
X115037500Y-97000000D03*
X117962500Y-97000000D03*
X115000000Y-102000000D03*
X117925000Y-102000000D03*
D27*
X126925000Y-77500000D03*
X124000000Y-77500000D03*
D28*
X137500000Y-98700000D03*
D29*
X137500000Y-83400000D03*
X137500000Y-114000000D03*
G36*
X140443265Y-110936486D02*
G01*
X140449162Y-110949131D01*
X140449332Y-110949715D01*
X140451983Y-110969850D01*
X140452000Y-110970111D01*
X140452000Y-117029889D01*
X140451983Y-117030150D01*
X140449332Y-117050284D01*
X140449162Y-117050868D01*
X140443266Y-117063511D01*
X140441786Y-117064638D01*
X140440018Y-117064059D01*
X140439491Y-117062276D01*
X140448000Y-117019499D01*
X140448000Y-110980501D01*
X140439490Y-110937721D01*
X140440017Y-110935938D01*
X140441785Y-110935359D01*
X140443265Y-110936486D01*
G37*
G36*
X119350199Y-108148000D02*
G01*
X120625000Y-108148000D01*
X120626414Y-108148586D01*
X120627000Y-108150000D01*
X120627000Y-108350000D01*
X120626414Y-108351414D01*
X120625000Y-108352000D01*
X119350199Y-108352000D01*
X119289565Y-108364060D01*
X119287921Y-108363656D01*
X119287175Y-108362136D01*
X119287863Y-108360589D01*
X119336866Y-108317991D01*
X119356677Y-108253188D01*
X119339138Y-108187735D01*
X119289364Y-108141323D01*
X119284788Y-108138991D01*
X119283717Y-108137496D01*
X119284319Y-108135758D01*
X119286086Y-108135247D01*
X119350199Y-108148000D01*
G37*
G36*
X119350199Y-106648000D02*
G01*
X120625000Y-106648000D01*
X120626414Y-106648586D01*
X120627000Y-106650000D01*
X120627000Y-106850000D01*
X120626414Y-106851414D01*
X120625000Y-106852000D01*
X119350199Y-106852000D01*
X119286083Y-106864753D01*
X119284316Y-106864242D01*
X119283714Y-106862504D01*
X119284785Y-106861009D01*
X119289366Y-106858674D01*
X119339139Y-106812262D01*
X119356677Y-106746809D01*
X119336865Y-106682006D01*
X119287864Y-106639410D01*
X119287176Y-106637863D01*
X119287922Y-106636343D01*
X119289566Y-106635939D01*
X119350199Y-106648000D01*
G37*
G36*
X140443265Y-80336486D02*
G01*
X140449162Y-80349131D01*
X140449332Y-80349715D01*
X140451983Y-80369850D01*
X140452000Y-80370111D01*
X140452000Y-86429889D01*
X140451983Y-86430150D01*
X140449332Y-86450284D01*
X140449162Y-86450868D01*
X140443266Y-86463511D01*
X140441786Y-86464638D01*
X140440018Y-86464059D01*
X140439491Y-86462276D01*
X140448000Y-86419499D01*
X140448000Y-80380501D01*
X140439490Y-80337721D01*
X140440017Y-80335938D01*
X140441785Y-80335359D01*
X140443265Y-80336486D01*
G37*
G36*
X120693265Y-81636486D02*
G01*
X120699162Y-81649131D01*
X120699332Y-81649715D01*
X120701983Y-81669850D01*
X120702000Y-81670111D01*
X120702000Y-84929889D01*
X120701983Y-84930150D01*
X120699332Y-84950284D01*
X120699162Y-84950868D01*
X120693266Y-84963511D01*
X120691786Y-84964638D01*
X120690018Y-84964059D01*
X120689491Y-84962276D01*
X120698000Y-84919499D01*
X120698000Y-81680501D01*
X120689490Y-81637721D01*
X120690017Y-81635938D01*
X120691785Y-81635359D01*
X120693265Y-81636486D01*
G37*
G36*
X116693265Y-81636486D02*
G01*
X116699162Y-81649131D01*
X116699332Y-81649715D01*
X116701983Y-81669850D01*
X116702000Y-81670111D01*
X116702000Y-84929889D01*
X116701983Y-84930150D01*
X116699332Y-84950284D01*
X116699162Y-84950868D01*
X116693266Y-84963511D01*
X116691786Y-84964638D01*
X116690018Y-84964059D01*
X116689491Y-84962276D01*
X116698000Y-84919499D01*
X116698000Y-81680501D01*
X116689490Y-81637721D01*
X116690017Y-81635938D01*
X116691785Y-81635359D01*
X116693265Y-81636486D01*
G37*
G36*
X120693265Y-74836486D02*
G01*
X120699162Y-74849131D01*
X120699332Y-74849715D01*
X120701983Y-74869850D01*
X120702000Y-74870111D01*
X120702000Y-78129889D01*
X120701983Y-78130150D01*
X120699332Y-78150284D01*
X120699162Y-78150868D01*
X120693266Y-78163511D01*
X120691786Y-78164638D01*
X120690018Y-78164059D01*
X120689491Y-78162276D01*
X120698000Y-78119499D01*
X120698000Y-74880501D01*
X120689490Y-74837721D01*
X120690017Y-74835938D01*
X120691785Y-74835359D01*
X120693265Y-74836486D01*
G37*
G36*
X116693265Y-74836486D02*
G01*
X116699162Y-74849131D01*
X116699332Y-74849715D01*
X116701983Y-74869850D01*
X116702000Y-74870111D01*
X116702000Y-78129889D01*
X116701983Y-78130150D01*
X116699332Y-78150284D01*
X116699162Y-78150868D01*
X116693266Y-78163511D01*
X116691786Y-78164638D01*
X116690018Y-78164059D01*
X116689491Y-78162276D01*
X116698000Y-78119499D01*
X116698000Y-74880501D01*
X116689490Y-74837721D01*
X116690017Y-74835938D01*
X116691785Y-74835359D01*
X116693265Y-74836486D01*
G37*
M02*
