G04 #@! TF.GenerationSoftware,KiCad,Pcbnew,7.0.0-da2b9df05c~163~ubuntu22.04.1*
G04 #@! TF.CreationDate,2023-02-22T18:49:52+09:00*
G04 #@! TF.ProjectId,staticdetector,73746174-6963-4646-9574-6563746f722e,rev?*
G04 #@! TF.SameCoordinates,Original*
G04 #@! TF.FileFunction,Copper,L1,Top*
G04 #@! TF.FilePolarity,Positive*
%FSLAX46Y46*%
G04 Gerber Fmt 4.6, Leading zero omitted, Abs format (unit mm)*
G04 Created by KiCad (PCBNEW 7.0.0-da2b9df05c~163~ubuntu22.04.1) date 2023-02-22 18:49:52*
%MOMM*%
%LPD*%
G01*
G04 APERTURE LIST*
G04 Aperture macros list*
%AMRoundRect*
0 Rectangle with rounded corners*
0 $1 Rounding radius*
0 $2 $3 $4 $5 $6 $7 $8 $9 X,Y pos of 4 corners*
0 Add a 4 corners polygon primitive as box body*
4,1,4,$2,$3,$4,$5,$6,$7,$8,$9,$2,$3,0*
0 Add four circle primitives for the rounded corners*
1,1,$1+$1,$2,$3*
1,1,$1+$1,$4,$5*
1,1,$1+$1,$6,$7*
1,1,$1+$1,$8,$9*
0 Add four rect primitives between the rounded corners*
20,1,$1+$1,$2,$3,$4,$5,0*
20,1,$1+$1,$4,$5,$6,$7,0*
20,1,$1+$1,$6,$7,$8,$9,0*
20,1,$1+$1,$8,$9,$2,$3,0*%
%AMFreePoly0*
4,1,9,3.862500,-0.866500,0.737500,-0.866500,0.737500,-0.450000,-0.737500,-0.450000,-0.737500,0.450000,0.737500,0.450000,0.737500,0.866500,3.862500,0.866500,3.862500,-0.866500,3.862500,-0.866500,$1*%
%AMFreePoly1*
4,1,19,0.000000,0.744911,0.071157,0.744911,0.207708,0.704816,0.327430,0.627875,0.420627,0.520320,0.479746,0.390866,0.500000,0.250000,0.500000,-0.250000,0.479746,-0.390866,0.420627,-0.520320,0.327430,-0.627875,0.207708,-0.704816,0.071157,-0.744911,0.000000,-0.744911,0.000000,-0.750000,-0.500000,-0.750000,-0.500000,0.750000,0.000000,0.750000,0.000000,0.744911,0.000000,0.744911,
$1*%
%AMFreePoly2*
4,1,19,0.500000,-0.750000,0.000000,-0.750000,0.000000,-0.744911,-0.071157,-0.744911,-0.207708,-0.704816,-0.327430,-0.627875,-0.420627,-0.520320,-0.479746,-0.390866,-0.500000,-0.250000,-0.500000,0.250000,-0.479746,0.390866,-0.420627,0.520320,-0.327430,0.627875,-0.207708,0.704816,-0.071157,0.744911,0.000000,0.744911,0.000000,0.750000,0.500000,0.750000,0.500000,-0.750000,0.500000,-0.750000,
$1*%
G04 Aperture macros list end*
G04 #@! TA.AperFunction,SMDPad,CuDef*
%ADD10RoundRect,0.250000X-0.375000X-0.625000X0.375000X-0.625000X0.375000X0.625000X-0.375000X0.625000X0*%
G04 #@! TD*
G04 #@! TA.AperFunction,SMDPad,CuDef*
%ADD11R,1.000000X0.700000*%
G04 #@! TD*
G04 #@! TA.AperFunction,SMDPad,CuDef*
%ADD12R,1.300000X0.900000*%
G04 #@! TD*
G04 #@! TA.AperFunction,SMDPad,CuDef*
%ADD13FreePoly0,0.000000*%
G04 #@! TD*
G04 #@! TA.AperFunction,SMDPad,CuDef*
%ADD14R,1.000000X3.200000*%
G04 #@! TD*
G04 #@! TA.AperFunction,SMDPad,CuDef*
%ADD15C,30.000000*%
G04 #@! TD*
G04 #@! TA.AperFunction,SMDPad,CuDef*
%ADD16FreePoly1,180.000000*%
G04 #@! TD*
G04 #@! TA.AperFunction,SMDPad,CuDef*
%ADD17FreePoly2,180.000000*%
G04 #@! TD*
G04 #@! TA.AperFunction,SMDPad,CuDef*
%ADD18R,2.200000X1.200000*%
G04 #@! TD*
G04 #@! TA.AperFunction,SMDPad,CuDef*
%ADD19R,6.400000X5.800000*%
G04 #@! TD*
G04 #@! TA.AperFunction,SMDPad,CuDef*
%ADD20FreePoly1,0.000000*%
G04 #@! TD*
G04 #@! TA.AperFunction,SMDPad,CuDef*
%ADD21FreePoly2,0.000000*%
G04 #@! TD*
G04 #@! TA.AperFunction,ComponentPad*
%ADD22O,1.200000X1.750000*%
G04 #@! TD*
G04 #@! TA.AperFunction,ComponentPad*
%ADD23RoundRect,0.250000X0.350000X0.625000X-0.350000X0.625000X-0.350000X-0.625000X0.350000X-0.625000X0*%
G04 #@! TD*
G04 #@! TA.AperFunction,SMDPad,CuDef*
%ADD24RoundRect,0.250000X0.625000X-0.312500X0.625000X0.312500X-0.625000X0.312500X-0.625000X-0.312500X0*%
G04 #@! TD*
G04 #@! TA.AperFunction,SMDPad,CuDef*
%ADD25RoundRect,0.250000X0.312500X0.625000X-0.312500X0.625000X-0.312500X-0.625000X0.312500X-0.625000X0*%
G04 #@! TD*
G04 #@! TA.AperFunction,SMDPad,CuDef*
%ADD26RoundRect,0.250000X-0.312500X-0.625000X0.312500X-0.625000X0.312500X0.625000X-0.312500X0.625000X0*%
G04 #@! TD*
G04 #@! TA.AperFunction,SMDPad,CuDef*
%ADD27C,20.000000*%
G04 #@! TD*
G04 #@! TA.AperFunction,SMDPad,CuDef*
%ADD28R,5.500000X6.000000*%
G04 #@! TD*
G04 #@! TA.AperFunction,ViaPad*
%ADD29C,0.500000*%
G04 #@! TD*
G04 #@! TA.AperFunction,ViaPad*
%ADD30C,6.000000*%
G04 #@! TD*
G04 #@! TA.AperFunction,Conductor*
%ADD31C,0.508000*%
G04 #@! TD*
G04 APERTURE END LIST*
G36*
X138600000Y-77800000D02*
G01*
X138100000Y-77800000D01*
X138100000Y-77200000D01*
X138600000Y-77200000D01*
X138600000Y-77800000D01*
G37*
G36*
X134400000Y-77800000D02*
G01*
X133900000Y-77800000D01*
X133900000Y-77200000D01*
X134400000Y-77200000D01*
X134400000Y-77800000D01*
G37*
D10*
X145500000Y-76500000D03*
X142700000Y-76500000D03*
D11*
X114599999Y-107499999D03*
X116999999Y-106549999D03*
X116999999Y-108449999D03*
D12*
X119999999Y-108999999D03*
D13*
X120087500Y-107500000D03*
D12*
X119999999Y-105999999D03*
D14*
X119999999Y-76499999D03*
X119999999Y-83299999D03*
X115999999Y-83299999D03*
X115999999Y-76499999D03*
D15*
X130000000Y-60000000D03*
D16*
X137700000Y-77500000D03*
D17*
X139000000Y-77500000D03*
D10*
X145500000Y-80000000D03*
X142700000Y-80000000D03*
D18*
X115374999Y-92754999D03*
D19*
X121674999Y-90474999D03*
D18*
X115374999Y-88194999D03*
D20*
X134800000Y-77500000D03*
D21*
X133500000Y-77500000D03*
D22*
X116999999Y-116999999D03*
X118999999Y-116999999D03*
X120999999Y-116999999D03*
D23*
X123000000Y-117000000D03*
D24*
X122000000Y-98037500D03*
X122000000Y-100962500D03*
D25*
X115037500Y-97000000D03*
X117962500Y-97000000D03*
X115000000Y-102000000D03*
X117925000Y-102000000D03*
D26*
X126925000Y-77500000D03*
X124000000Y-77500000D03*
D27*
X137500000Y-98700000D03*
D28*
X137499999Y-83399999D03*
X137499999Y-113999999D03*
D29*
X125500000Y-102000000D03*
X134500000Y-79000000D03*
X127500000Y-108000000D03*
X131500000Y-78000000D03*
X125500000Y-108000000D03*
X137000000Y-75500000D03*
D30*
X137500000Y-98500000D03*
D31*
X124000000Y-111500000D02*
X123000000Y-111500000D01*
X123000000Y-111500000D02*
X118500000Y-111500000D01*
X123000000Y-117000000D02*
X123000000Y-111500000D01*
X126000000Y-114000000D02*
X137500000Y-114000000D01*
X119000000Y-117000000D02*
X121000000Y-119000000D01*
X121000000Y-119000000D02*
X122899896Y-119000000D01*
X122899896Y-119000000D02*
X126000000Y-115899896D01*
X126000000Y-115899896D02*
X126000000Y-114000000D01*
X127500000Y-108000000D02*
X124000000Y-111500000D01*
X118500000Y-111500000D02*
X117000000Y-113000000D01*
X117925000Y-102000000D02*
X125500000Y-102000000D01*
X120087500Y-107500000D02*
X125000000Y-107500000D01*
X125000000Y-107500000D02*
X125500000Y-108000000D01*
X115000000Y-102000000D02*
X115000000Y-103342000D01*
X120842000Y-103342000D02*
X125500000Y-108000000D01*
X115000000Y-103342000D02*
X120842000Y-103342000D01*
X117000000Y-104000000D02*
X114000000Y-104000000D01*
X116137604Y-99000000D02*
X120000000Y-99000000D01*
X118500000Y-105500000D02*
X117000000Y-104000000D01*
X120000000Y-99000000D02*
X120000000Y-100000000D01*
X120000000Y-97500000D02*
X120000000Y-99000000D01*
X114000000Y-104000000D02*
X114000000Y-101137604D01*
X114000000Y-101137604D02*
X116137604Y-99000000D01*
X117950000Y-108450000D02*
X118000000Y-108500000D01*
X117000000Y-108450000D02*
X117950000Y-108450000D01*
X118000000Y-108500000D02*
X118500000Y-108000000D01*
X118500000Y-108000000D02*
X118500000Y-105500000D01*
X113500000Y-107500000D02*
X113500000Y-110000000D01*
X114600000Y-107500000D02*
X113500000Y-107500000D01*
X113500000Y-110000000D02*
X116500000Y-113000000D01*
X116500000Y-113000000D02*
X117000000Y-113000000D01*
X120000000Y-106000000D02*
X119000000Y-106000000D01*
X119000000Y-106000000D02*
X118500000Y-105500000D01*
X117962500Y-97000000D02*
X119500000Y-97000000D01*
X119500000Y-97000000D02*
X120000000Y-97500000D01*
X120000000Y-100000000D02*
X120962500Y-100962500D01*
X120962500Y-100962500D02*
X122000000Y-100962500D01*
X134500000Y-79000000D02*
X136500000Y-79000000D01*
X136500000Y-79000000D02*
X137000000Y-79500000D01*
X136000000Y-78500000D02*
X136500000Y-79000000D01*
X131500000Y-77500000D02*
X131500000Y-78000000D01*
X139500000Y-75500000D02*
X140500000Y-76500000D01*
X137000000Y-75500000D02*
X139500000Y-75500000D01*
X141000000Y-77500000D02*
X140500000Y-77500000D01*
X140500000Y-77500000D02*
X139000000Y-77500000D01*
X140500000Y-76500000D02*
X140500000Y-77500000D01*
X126500000Y-90475000D02*
X126500000Y-104500000D01*
X126500000Y-104500000D02*
X136000000Y-114000000D01*
X136000000Y-114000000D02*
X137500000Y-114000000D01*
X115375000Y-92755000D02*
X113500000Y-94630000D01*
X113500000Y-94630000D02*
X113500000Y-95425000D01*
X113500000Y-95425000D02*
X115075000Y-97000000D01*
X133500000Y-77500000D02*
X131500000Y-77500000D01*
X134800000Y-77500000D02*
X136000000Y-77500000D01*
X136000000Y-77500000D02*
X136000000Y-78500000D01*
X136000000Y-77500000D02*
X136500000Y-77500000D01*
X140000000Y-79500000D02*
X140500000Y-80000000D01*
X137000000Y-79500000D02*
X140000000Y-79500000D01*
X140500000Y-80000000D02*
X142700000Y-80000000D01*
X136500000Y-77500000D02*
X137700000Y-77500000D01*
X142000000Y-76500000D02*
X141000000Y-77500000D01*
X142700000Y-76500000D02*
X142000000Y-76500000D01*
X147000000Y-80000000D02*
X147000000Y-76500000D01*
X147000000Y-81500000D02*
X147000000Y-80000000D01*
X147000000Y-80000000D02*
X145500000Y-80000000D01*
X137500000Y-83400000D02*
X145100000Y-83400000D01*
X145100000Y-83400000D02*
X147000000Y-81500000D01*
X147000000Y-76500000D02*
X145500000Y-76500000D01*
X126500000Y-90475000D02*
X128525000Y-90475000D01*
X121675000Y-90475000D02*
X126500000Y-90475000D01*
X128525000Y-90475000D02*
X135600000Y-83400000D01*
X135600000Y-83400000D02*
X137500000Y-83400000D01*
X120000000Y-83300000D02*
X120000000Y-86000000D01*
X120000000Y-86000000D02*
X116000000Y-86000000D01*
X116000000Y-86000000D02*
X115375000Y-86625000D01*
X115375000Y-86625000D02*
X115375000Y-88195000D01*
X116000000Y-76500000D02*
X116000000Y-83300000D01*
X120000000Y-76500000D02*
X120000000Y-83300000D01*
X120000000Y-76500000D02*
X121500000Y-76500000D01*
X121500000Y-76500000D02*
X122500000Y-77500000D01*
X122500000Y-77500000D02*
X124000000Y-77500000D01*
X128500000Y-77500000D02*
X130000000Y-76000000D01*
X126925000Y-77500000D02*
X128500000Y-77500000D01*
X130000000Y-76000000D02*
X130000000Y-60000000D01*
G04 #@! TA.AperFunction,Conductor*
G36*
X114784704Y-60016085D02*
G01*
X114829935Y-60060166D01*
X114847586Y-60120805D01*
X114864570Y-60780188D01*
X114864690Y-60781750D01*
X114864692Y-60781771D01*
X114924677Y-61556705D01*
X114924801Y-61558306D01*
X114925001Y-61559856D01*
X114925005Y-61559888D01*
X115024806Y-62330725D01*
X115025009Y-62332292D01*
X115025286Y-62333815D01*
X115025292Y-62333850D01*
X115164645Y-63098542D01*
X115164928Y-63100094D01*
X115165282Y-63101598D01*
X115165289Y-63101627D01*
X115343826Y-63858148D01*
X115343832Y-63858171D01*
X115344187Y-63859675D01*
X115562311Y-64609020D01*
X115562825Y-64610499D01*
X115562829Y-64610510D01*
X115818191Y-65344624D01*
X115818198Y-65344644D01*
X115818720Y-65346143D01*
X116112736Y-66069089D01*
X116443579Y-66775941D01*
X116810370Y-67464825D01*
X116811182Y-67466177D01*
X116811196Y-67466202D01*
X117190200Y-68097379D01*
X117212138Y-68133913D01*
X117647818Y-68781431D01*
X118116253Y-69405663D01*
X118616201Y-70004952D01*
X119146338Y-70577710D01*
X119705256Y-71122418D01*
X120291474Y-71637631D01*
X120903437Y-72121984D01*
X121539523Y-72574191D01*
X122198045Y-72993053D01*
X122877256Y-73377461D01*
X123575355Y-73726393D01*
X124290491Y-74038926D01*
X125020768Y-74314230D01*
X125764248Y-74551575D01*
X126518962Y-74750333D01*
X127282906Y-74909974D01*
X128054056Y-75030078D01*
X128830365Y-75110324D01*
X129477883Y-75143701D01*
X129537150Y-75162341D01*
X129579936Y-75207390D01*
X129595500Y-75267537D01*
X129595500Y-75781089D01*
X129586061Y-75828542D01*
X129559181Y-75868770D01*
X128368769Y-77059181D01*
X128328541Y-77086061D01*
X128281088Y-77095500D01*
X127761999Y-77095500D01*
X127699999Y-77078887D01*
X127654612Y-77033500D01*
X127637999Y-76971500D01*
X127637999Y-76848353D01*
X127637999Y-76848352D01*
X127637999Y-76843482D01*
X127623146Y-76749696D01*
X127565550Y-76636658D01*
X127475842Y-76546950D01*
X127362804Y-76489354D01*
X127353167Y-76487827D01*
X127353162Y-76487826D01*
X127273839Y-76475263D01*
X127273833Y-76475262D01*
X127269019Y-76474500D01*
X127264140Y-76474500D01*
X126585852Y-76474500D01*
X126585839Y-76474500D01*
X126580982Y-76474501D01*
X126576180Y-76475261D01*
X126576173Y-76475262D01*
X126496831Y-76487828D01*
X126496830Y-76487828D01*
X126487196Y-76489354D01*
X126478510Y-76493779D01*
X126478503Y-76493782D01*
X126382853Y-76542519D01*
X126382849Y-76542521D01*
X126374158Y-76546950D01*
X126367259Y-76553848D01*
X126367256Y-76553851D01*
X126291351Y-76629756D01*
X126291348Y-76629759D01*
X126284450Y-76636658D01*
X126280021Y-76645349D01*
X126280019Y-76645353D01*
X126239902Y-76724088D01*
X126226854Y-76749696D01*
X126225327Y-76759330D01*
X126225326Y-76759337D01*
X126212763Y-76838660D01*
X126212762Y-76838667D01*
X126212000Y-76843481D01*
X126212000Y-76848353D01*
X126212000Y-76848359D01*
X126212000Y-78151647D01*
X126212000Y-78151659D01*
X126212001Y-78156518D01*
X126212761Y-78161320D01*
X126212762Y-78161326D01*
X126220234Y-78208504D01*
X126226854Y-78250304D01*
X126231280Y-78258991D01*
X126231282Y-78258996D01*
X126280019Y-78354646D01*
X126284450Y-78363342D01*
X126374158Y-78453050D01*
X126487196Y-78510646D01*
X126580981Y-78525500D01*
X127269018Y-78525499D01*
X127362804Y-78510646D01*
X127475842Y-78453050D01*
X127565550Y-78363342D01*
X127623146Y-78250304D01*
X127638000Y-78156519D01*
X127638000Y-78028500D01*
X127654613Y-77966500D01*
X127700000Y-77921113D01*
X127762000Y-77904500D01*
X128554309Y-77904500D01*
X128564066Y-77904500D01*
X128585447Y-77897552D01*
X128604353Y-77893014D01*
X128626555Y-77889498D01*
X128646576Y-77879296D01*
X128664558Y-77871848D01*
X128676645Y-77867921D01*
X128676644Y-77867921D01*
X128685929Y-77864905D01*
X128704113Y-77851692D01*
X128720696Y-77841529D01*
X128740723Y-77831326D01*
X128763511Y-77808537D01*
X128763515Y-77808535D01*
X130308534Y-76263515D01*
X130308536Y-76263511D01*
X130331326Y-76240723D01*
X130341532Y-76220692D01*
X130351694Y-76204109D01*
X130364904Y-76185929D01*
X130371848Y-76164556D01*
X130379291Y-76146586D01*
X130389498Y-76126555D01*
X130393013Y-76104356D01*
X130397558Y-76085426D01*
X130399683Y-76078887D01*
X130404499Y-76064066D01*
X130404499Y-76031840D01*
X130404500Y-76031834D01*
X130404500Y-75267537D01*
X130420064Y-75207390D01*
X130462850Y-75162341D01*
X130522116Y-75143701D01*
X131169635Y-75110324D01*
X131945944Y-75030078D01*
X132717094Y-74909974D01*
X133481038Y-74750333D01*
X134235752Y-74551575D01*
X134979232Y-74314230D01*
X135709509Y-74038926D01*
X136424645Y-73726393D01*
X137122744Y-73377461D01*
X137801955Y-72993053D01*
X138460477Y-72574191D01*
X139096563Y-72121984D01*
X139708526Y-71637631D01*
X140294744Y-71122418D01*
X140853662Y-70577710D01*
X141383799Y-70004952D01*
X141883747Y-69405663D01*
X142352182Y-68781431D01*
X142787862Y-68133913D01*
X143189630Y-67464825D01*
X143556421Y-66775941D01*
X143887264Y-66069089D01*
X144181280Y-65346143D01*
X144437689Y-64609020D01*
X144655813Y-63859675D01*
X144835072Y-63100094D01*
X144974991Y-62332292D01*
X145075199Y-61558306D01*
X145135430Y-60780188D01*
X145152413Y-60120805D01*
X145170065Y-60060166D01*
X145215296Y-60016085D01*
X145276372Y-60000000D01*
X147275500Y-60000000D01*
X147337500Y-60016613D01*
X147382887Y-60062000D01*
X147399500Y-60124000D01*
X147399500Y-76047225D01*
X147383689Y-76107814D01*
X147340290Y-76152953D01*
X147280368Y-76171129D01*
X147219205Y-76157710D01*
X147197342Y-76146570D01*
X147126555Y-76110502D01*
X147116916Y-76108975D01*
X147116912Y-76108974D01*
X147031834Y-76095500D01*
X147009641Y-76091985D01*
X147000000Y-76090458D01*
X146990359Y-76091985D01*
X146977807Y-76093973D01*
X146958409Y-76095500D01*
X146399499Y-76095500D01*
X146337499Y-76078887D01*
X146292112Y-76033500D01*
X146275499Y-75971500D01*
X146275499Y-75848353D01*
X146275499Y-75848352D01*
X146275499Y-75843482D01*
X146260646Y-75749696D01*
X146203050Y-75636658D01*
X146113342Y-75546950D01*
X146000304Y-75489354D01*
X145990667Y-75487827D01*
X145990662Y-75487826D01*
X145911339Y-75475263D01*
X145911333Y-75475262D01*
X145906519Y-75474500D01*
X145901640Y-75474500D01*
X145098352Y-75474500D01*
X145098339Y-75474500D01*
X145093482Y-75474501D01*
X145088680Y-75475261D01*
X145088673Y-75475262D01*
X145009331Y-75487828D01*
X145009330Y-75487828D01*
X144999696Y-75489354D01*
X144991010Y-75493779D01*
X144991003Y-75493782D01*
X144895353Y-75542519D01*
X144895349Y-75542521D01*
X144886658Y-75546950D01*
X144879759Y-75553848D01*
X144879756Y-75553851D01*
X144803851Y-75629756D01*
X144803848Y-75629759D01*
X144796950Y-75636658D01*
X144792521Y-75645349D01*
X144792519Y-75645353D01*
X144743926Y-75740723D01*
X144739354Y-75749696D01*
X144737827Y-75759330D01*
X144737826Y-75759337D01*
X144725263Y-75838660D01*
X144725262Y-75838667D01*
X144724500Y-75843481D01*
X144724500Y-75848353D01*
X144724500Y-75848359D01*
X144724500Y-77151647D01*
X144724500Y-77151659D01*
X144724501Y-77156518D01*
X144725261Y-77161320D01*
X144725262Y-77161326D01*
X144725724Y-77164243D01*
X144739354Y-77250304D01*
X144743780Y-77258991D01*
X144743782Y-77258996D01*
X144777139Y-77324461D01*
X144796950Y-77363342D01*
X144886658Y-77453050D01*
X144999696Y-77510646D01*
X145093481Y-77525500D01*
X145906518Y-77525499D01*
X146000304Y-77510646D01*
X146113342Y-77453050D01*
X146203050Y-77363342D01*
X146260646Y-77250304D01*
X146275500Y-77156519D01*
X146275500Y-77028500D01*
X146292113Y-76966500D01*
X146337500Y-76921113D01*
X146399500Y-76904500D01*
X146471500Y-76904500D01*
X146533500Y-76921113D01*
X146578887Y-76966500D01*
X146595500Y-77028500D01*
X146595500Y-79471500D01*
X146578887Y-79533500D01*
X146533500Y-79578887D01*
X146471500Y-79595500D01*
X146399499Y-79595500D01*
X146337499Y-79578887D01*
X146292112Y-79533500D01*
X146275499Y-79471500D01*
X146275499Y-79348353D01*
X146275499Y-79348352D01*
X146275499Y-79343482D01*
X146260646Y-79249696D01*
X146203050Y-79136658D01*
X146113342Y-79046950D01*
X146000304Y-78989354D01*
X145990667Y-78987827D01*
X145990662Y-78987826D01*
X145911339Y-78975263D01*
X145911333Y-78975262D01*
X145906519Y-78974500D01*
X145901640Y-78974500D01*
X145098352Y-78974500D01*
X145098339Y-78974500D01*
X145093482Y-78974501D01*
X145088680Y-78975261D01*
X145088673Y-78975262D01*
X145009331Y-78987828D01*
X145009330Y-78987828D01*
X144999696Y-78989354D01*
X144991010Y-78993779D01*
X144991003Y-78993782D01*
X144895353Y-79042519D01*
X144895349Y-79042521D01*
X144886658Y-79046950D01*
X144879759Y-79053848D01*
X144879756Y-79053851D01*
X144803851Y-79129756D01*
X144803848Y-79129759D01*
X144796950Y-79136658D01*
X144792521Y-79145349D01*
X144792519Y-79145353D01*
X144743926Y-79240723D01*
X144739354Y-79249696D01*
X144737827Y-79259330D01*
X144737826Y-79259337D01*
X144725263Y-79338660D01*
X144725262Y-79338667D01*
X144724500Y-79343481D01*
X144724500Y-79348353D01*
X144724500Y-79348359D01*
X144724500Y-80651647D01*
X144724500Y-80651659D01*
X144724501Y-80656518D01*
X144725261Y-80661320D01*
X144725262Y-80661326D01*
X144736243Y-80730662D01*
X144739354Y-80750304D01*
X144743780Y-80758991D01*
X144743782Y-80758996D01*
X144792519Y-80854646D01*
X144796950Y-80863342D01*
X144886658Y-80953050D01*
X144999696Y-81010646D01*
X145093481Y-81025500D01*
X145906518Y-81025499D01*
X146000304Y-81010646D01*
X146113342Y-80953050D01*
X146203050Y-80863342D01*
X146260646Y-80750304D01*
X146275500Y-80656519D01*
X146275500Y-80528500D01*
X146292113Y-80466500D01*
X146337500Y-80421113D01*
X146399500Y-80404500D01*
X146471500Y-80404500D01*
X146533500Y-80421113D01*
X146578887Y-80466500D01*
X146595500Y-80528500D01*
X146595500Y-81281089D01*
X146586061Y-81328542D01*
X146559181Y-81368770D01*
X144968769Y-82959181D01*
X144928541Y-82986061D01*
X144881088Y-82995500D01*
X140524500Y-82995500D01*
X140462500Y-82978887D01*
X140417113Y-82933500D01*
X140400500Y-82871500D01*
X140400500Y-80528500D01*
X140417113Y-80466500D01*
X140462500Y-80421113D01*
X140524500Y-80404500D01*
X140564066Y-80404500D01*
X141800501Y-80404500D01*
X141862501Y-80421113D01*
X141907888Y-80466500D01*
X141924501Y-80528500D01*
X141924501Y-80656518D01*
X141925261Y-80661320D01*
X141925262Y-80661326D01*
X141936243Y-80730662D01*
X141939354Y-80750304D01*
X141943780Y-80758991D01*
X141943782Y-80758996D01*
X141992519Y-80854646D01*
X141996950Y-80863342D01*
X142086658Y-80953050D01*
X142199696Y-81010646D01*
X142293481Y-81025500D01*
X143106518Y-81025499D01*
X143200304Y-81010646D01*
X143313342Y-80953050D01*
X143403050Y-80863342D01*
X143460646Y-80750304D01*
X143475500Y-80656519D01*
X143475499Y-79343482D01*
X143460646Y-79249696D01*
X143403050Y-79136658D01*
X143313342Y-79046950D01*
X143200304Y-78989354D01*
X143190667Y-78987827D01*
X143190662Y-78987826D01*
X143111339Y-78975263D01*
X143111333Y-78975262D01*
X143106519Y-78974500D01*
X143101640Y-78974500D01*
X142298352Y-78974500D01*
X142298339Y-78974500D01*
X142293482Y-78974501D01*
X142288680Y-78975261D01*
X142288673Y-78975262D01*
X142209331Y-78987828D01*
X142209330Y-78987828D01*
X142199696Y-78989354D01*
X142191010Y-78993779D01*
X142191003Y-78993782D01*
X142095353Y-79042519D01*
X142095349Y-79042521D01*
X142086658Y-79046950D01*
X142079759Y-79053848D01*
X142079756Y-79053851D01*
X142003851Y-79129756D01*
X142003848Y-79129759D01*
X141996950Y-79136658D01*
X141992521Y-79145349D01*
X141992519Y-79145353D01*
X141943926Y-79240723D01*
X141939354Y-79249696D01*
X141937827Y-79259330D01*
X141937826Y-79259337D01*
X141925263Y-79338660D01*
X141925262Y-79338667D01*
X141924500Y-79343481D01*
X141924500Y-79348353D01*
X141924500Y-79348359D01*
X141924500Y-79471500D01*
X141907887Y-79533500D01*
X141862500Y-79578887D01*
X141800500Y-79595500D01*
X140718912Y-79595500D01*
X140671459Y-79586061D01*
X140631231Y-79559181D01*
X140263522Y-79191472D01*
X140263515Y-79191465D01*
X140263511Y-79191462D01*
X140240723Y-79168674D01*
X140232025Y-79164242D01*
X140220703Y-79158473D01*
X140204109Y-79148304D01*
X140193824Y-79140831D01*
X140193823Y-79140830D01*
X140185929Y-79135095D01*
X140164555Y-79128150D01*
X140146575Y-79120703D01*
X140135250Y-79114932D01*
X140135247Y-79114931D01*
X140126555Y-79110502D01*
X140116922Y-79108976D01*
X140116913Y-79108973D01*
X140104348Y-79106983D01*
X140085442Y-79102444D01*
X140073352Y-79098516D01*
X140073346Y-79098515D01*
X140064066Y-79095500D01*
X140054304Y-79095500D01*
X137218912Y-79095500D01*
X137171459Y-79086061D01*
X137131231Y-79059181D01*
X136440819Y-78368769D01*
X136413939Y-78328541D01*
X136404500Y-78281088D01*
X136404500Y-78028500D01*
X136421113Y-77966500D01*
X136466500Y-77921113D01*
X136528500Y-77904500D01*
X136531834Y-77904500D01*
X136972503Y-77904500D01*
X137018589Y-77913382D01*
X137058073Y-77938757D01*
X137085297Y-77976989D01*
X137133625Y-78082814D01*
X137133631Y-78082826D01*
X137135467Y-78086845D01*
X137137857Y-78090565D01*
X137137861Y-78090571D01*
X137149528Y-78108725D01*
X137159079Y-78123586D01*
X137179142Y-78146740D01*
X137250326Y-78228893D01*
X137250331Y-78228898D01*
X137253233Y-78232247D01*
X137256581Y-78235148D01*
X137256583Y-78235150D01*
X137273431Y-78249749D01*
X137286242Y-78260850D01*
X137289956Y-78263237D01*
X137289959Y-78263239D01*
X137403469Y-78336187D01*
X137407196Y-78338582D01*
X137446925Y-78356725D01*
X137584880Y-78397232D01*
X137628111Y-78403448D01*
X138193905Y-78403448D01*
X138200000Y-78403448D01*
X138258722Y-78391767D01*
X138281110Y-78376807D01*
X138325808Y-78358292D01*
X138374192Y-78358292D01*
X138418889Y-78376807D01*
X138441278Y-78391767D01*
X138500000Y-78403448D01*
X139067463Y-78403448D01*
X139071889Y-78403448D01*
X139115120Y-78397232D01*
X139253075Y-78356725D01*
X139292804Y-78338582D01*
X139413758Y-78260850D01*
X139446767Y-78232247D01*
X139540921Y-78123586D01*
X139564533Y-78086845D01*
X139591179Y-78028500D01*
X139614703Y-77976989D01*
X139641927Y-77938757D01*
X139681411Y-77913382D01*
X139727497Y-77904500D01*
X140458409Y-77904500D01*
X140477807Y-77906027D01*
X140500000Y-77909542D01*
X140509641Y-77908015D01*
X140522193Y-77906027D01*
X140541591Y-77904500D01*
X141054309Y-77904500D01*
X141064066Y-77904500D01*
X141085447Y-77897552D01*
X141104353Y-77893014D01*
X141126555Y-77889498D01*
X141146576Y-77879296D01*
X141164558Y-77871848D01*
X141176645Y-77867921D01*
X141176644Y-77867921D01*
X141185929Y-77864905D01*
X141204113Y-77851692D01*
X141220696Y-77841529D01*
X141240723Y-77831326D01*
X141263511Y-77808537D01*
X141263515Y-77808535D01*
X141778974Y-77293074D01*
X141828336Y-77262825D01*
X141886052Y-77258283D01*
X141939539Y-77280438D01*
X141977139Y-77324461D01*
X141996950Y-77363342D01*
X142086658Y-77453050D01*
X142199696Y-77510646D01*
X142293481Y-77525500D01*
X143106518Y-77525499D01*
X143200304Y-77510646D01*
X143313342Y-77453050D01*
X143403050Y-77363342D01*
X143460646Y-77250304D01*
X143475500Y-77156519D01*
X143475499Y-75843482D01*
X143460646Y-75749696D01*
X143403050Y-75636658D01*
X143313342Y-75546950D01*
X143200304Y-75489354D01*
X143190667Y-75487827D01*
X143190662Y-75487826D01*
X143111339Y-75475263D01*
X143111333Y-75475262D01*
X143106519Y-75474500D01*
X143101640Y-75474500D01*
X142298352Y-75474500D01*
X142298339Y-75474500D01*
X142293482Y-75474501D01*
X142288680Y-75475261D01*
X142288673Y-75475262D01*
X142209331Y-75487828D01*
X142209330Y-75487828D01*
X142199696Y-75489354D01*
X142191010Y-75493779D01*
X142191003Y-75493782D01*
X142095353Y-75542519D01*
X142095349Y-75542521D01*
X142086658Y-75546950D01*
X142079759Y-75553848D01*
X142079756Y-75553851D01*
X142003851Y-75629756D01*
X142003848Y-75629759D01*
X141996950Y-75636658D01*
X141992521Y-75645349D01*
X141992519Y-75645353D01*
X141943926Y-75740723D01*
X141939354Y-75749696D01*
X141937827Y-75759330D01*
X141937826Y-75759337D01*
X141925263Y-75838660D01*
X141925262Y-75838667D01*
X141924500Y-75843481D01*
X141924500Y-75848353D01*
X141924500Y-75848359D01*
X141924500Y-76008501D01*
X141906215Y-76073311D01*
X141856752Y-76119007D01*
X141853379Y-76120724D01*
X141835453Y-76128147D01*
X141823349Y-76132080D01*
X141823346Y-76132081D01*
X141814072Y-76135095D01*
X141806180Y-76140828D01*
X141806177Y-76140830D01*
X141795881Y-76148310D01*
X141779301Y-76158470D01*
X141767974Y-76164241D01*
X141767967Y-76164245D01*
X141759277Y-76168674D01*
X141752380Y-76175570D01*
X141752374Y-76175575D01*
X141736488Y-76191461D01*
X141736488Y-76191462D01*
X141736485Y-76191465D01*
X141736486Y-76191465D01*
X141116181Y-76811769D01*
X141066818Y-76842019D01*
X141009102Y-76846561D01*
X140955615Y-76824406D01*
X140918015Y-76780383D01*
X140904500Y-76724088D01*
X140904500Y-76445691D01*
X140904500Y-76435934D01*
X140897551Y-76414548D01*
X140893014Y-76395646D01*
X140889498Y-76373445D01*
X140879294Y-76353419D01*
X140871847Y-76335439D01*
X140867920Y-76323351D01*
X140867919Y-76323350D01*
X140864905Y-76314072D01*
X140859167Y-76306174D01*
X140851695Y-76295889D01*
X140841527Y-76279297D01*
X140835757Y-76267974D01*
X140831326Y-76259277D01*
X140740723Y-76168674D01*
X139763515Y-75191465D01*
X139763511Y-75191462D01*
X139740723Y-75168674D01*
X139728294Y-75162341D01*
X139720703Y-75158473D01*
X139704109Y-75148304D01*
X139693824Y-75140831D01*
X139693823Y-75140830D01*
X139685929Y-75135095D01*
X139664555Y-75128150D01*
X139646575Y-75120703D01*
X139635250Y-75114932D01*
X139635247Y-75114931D01*
X139626555Y-75110502D01*
X139616922Y-75108976D01*
X139616913Y-75108973D01*
X139604348Y-75106983D01*
X139585442Y-75102444D01*
X139573352Y-75098516D01*
X139573346Y-75098515D01*
X139564066Y-75095500D01*
X139554304Y-75095500D01*
X137008260Y-75095500D01*
X137006263Y-75095500D01*
X137000000Y-75094508D01*
X136993737Y-75095500D01*
X136968166Y-75095500D01*
X136963353Y-75096262D01*
X136963343Y-75096263D01*
X136883087Y-75108974D01*
X136883081Y-75108975D01*
X136873445Y-75110502D01*
X136864750Y-75114932D01*
X136864748Y-75114933D01*
X136767972Y-75164243D01*
X136767969Y-75164245D01*
X136759277Y-75168674D01*
X136752378Y-75175572D01*
X136752375Y-75175575D01*
X136675575Y-75252375D01*
X136675572Y-75252378D01*
X136668674Y-75259277D01*
X136664245Y-75267969D01*
X136664243Y-75267972D01*
X136614932Y-75364748D01*
X136614929Y-75364755D01*
X136610502Y-75373445D01*
X136608976Y-75383079D01*
X136608974Y-75383086D01*
X136594376Y-75475262D01*
X136590458Y-75500000D01*
X136591985Y-75509641D01*
X136608974Y-75616913D01*
X136608975Y-75616918D01*
X136610502Y-75626555D01*
X136614930Y-75635246D01*
X136614932Y-75635251D01*
X136664243Y-75732027D01*
X136668674Y-75740723D01*
X136759277Y-75831326D01*
X136873445Y-75889498D01*
X136968166Y-75904500D01*
X136993737Y-75904500D01*
X137000000Y-75905492D01*
X137006263Y-75904500D01*
X139281088Y-75904500D01*
X139328541Y-75913939D01*
X139368769Y-75940819D01*
X140059181Y-76631230D01*
X140086061Y-76671458D01*
X140095500Y-76718911D01*
X140095500Y-76971500D01*
X140078887Y-77033500D01*
X140033500Y-77078887D01*
X139971500Y-77095500D01*
X139727497Y-77095500D01*
X139681411Y-77086618D01*
X139641927Y-77061243D01*
X139614703Y-77023011D01*
X139566374Y-76917185D01*
X139566370Y-76917178D01*
X139564533Y-76913155D01*
X139540921Y-76876414D01*
X139505288Y-76835291D01*
X139449673Y-76771106D01*
X139449668Y-76771101D01*
X139446767Y-76767753D01*
X139426279Y-76750000D01*
X139417098Y-76742044D01*
X139417096Y-76742042D01*
X139413758Y-76739150D01*
X139410045Y-76736764D01*
X139410040Y-76736760D01*
X139296530Y-76663812D01*
X139296524Y-76663808D01*
X139292804Y-76661418D01*
X139288773Y-76659577D01*
X139257103Y-76645114D01*
X139257097Y-76645111D01*
X139253075Y-76643275D01*
X139247016Y-76641496D01*
X139119374Y-76604017D01*
X139119372Y-76604016D01*
X139115120Y-76602768D01*
X139110735Y-76602137D01*
X139110733Y-76602137D01*
X139076268Y-76597181D01*
X139076259Y-76597180D01*
X139071889Y-76596552D01*
X138500000Y-76596552D01*
X138494025Y-76597740D01*
X138494020Y-76597741D01*
X138453259Y-76605849D01*
X138453255Y-76605850D01*
X138441278Y-76608233D01*
X138418886Y-76623194D01*
X138374191Y-76641707D01*
X138325809Y-76641707D01*
X138281113Y-76623194D01*
X138258722Y-76608233D01*
X138246742Y-76605850D01*
X138246740Y-76605849D01*
X138205979Y-76597741D01*
X138205975Y-76597740D01*
X138200000Y-76596552D01*
X137628111Y-76596552D01*
X137623741Y-76597180D01*
X137623731Y-76597181D01*
X137589266Y-76602137D01*
X137589261Y-76602138D01*
X137584880Y-76602768D01*
X137580629Y-76604015D01*
X137580625Y-76604017D01*
X137451174Y-76642027D01*
X137451169Y-76642028D01*
X137446925Y-76643275D01*
X137442906Y-76645109D01*
X137442896Y-76645114D01*
X137411226Y-76659577D01*
X137411219Y-76659580D01*
X137407196Y-76661418D01*
X137403481Y-76663805D01*
X137403469Y-76663812D01*
X137289959Y-76736760D01*
X137289947Y-76736768D01*
X137286242Y-76739150D01*
X137282909Y-76742037D01*
X137282901Y-76742044D01*
X137256583Y-76764849D01*
X137256574Y-76764857D01*
X137253233Y-76767753D01*
X137250338Y-76771093D01*
X137250326Y-76771106D01*
X137161982Y-76873063D01*
X137161978Y-76873068D01*
X137159079Y-76876414D01*
X137156687Y-76880135D01*
X137156681Y-76880144D01*
X137137861Y-76909428D01*
X137137854Y-76909440D01*
X137135467Y-76913155D01*
X137133634Y-76917167D01*
X137133625Y-76917185D01*
X137085297Y-77023011D01*
X137058073Y-77061243D01*
X137018589Y-77086618D01*
X136972503Y-77095500D01*
X136531834Y-77095500D01*
X136041591Y-77095500D01*
X136022193Y-77093973D01*
X136009641Y-77091985D01*
X136000000Y-77090458D01*
X135990359Y-77091985D01*
X135977807Y-77093973D01*
X135958409Y-77095500D01*
X135527497Y-77095500D01*
X135481411Y-77086618D01*
X135441927Y-77061243D01*
X135414703Y-77023011D01*
X135366374Y-76917185D01*
X135366370Y-76917178D01*
X135364533Y-76913155D01*
X135340921Y-76876414D01*
X135305288Y-76835291D01*
X135249673Y-76771106D01*
X135249668Y-76771101D01*
X135246767Y-76767753D01*
X135226279Y-76750000D01*
X135217098Y-76742044D01*
X135217096Y-76742042D01*
X135213758Y-76739150D01*
X135210045Y-76736764D01*
X135210040Y-76736760D01*
X135096530Y-76663812D01*
X135096524Y-76663808D01*
X135092804Y-76661418D01*
X135088773Y-76659577D01*
X135057103Y-76645114D01*
X135057097Y-76645111D01*
X135053075Y-76643275D01*
X135047016Y-76641496D01*
X134919374Y-76604017D01*
X134919372Y-76604016D01*
X134915120Y-76602768D01*
X134910735Y-76602137D01*
X134910733Y-76602137D01*
X134876268Y-76597181D01*
X134876259Y-76597180D01*
X134871889Y-76596552D01*
X134300000Y-76596552D01*
X134294025Y-76597740D01*
X134294020Y-76597741D01*
X134253259Y-76605849D01*
X134253255Y-76605850D01*
X134241278Y-76608233D01*
X134218886Y-76623194D01*
X134174191Y-76641707D01*
X134125809Y-76641707D01*
X134081113Y-76623194D01*
X134058722Y-76608233D01*
X134046742Y-76605850D01*
X134046740Y-76605849D01*
X134005979Y-76597741D01*
X134005975Y-76597740D01*
X134000000Y-76596552D01*
X133428111Y-76596552D01*
X133423741Y-76597180D01*
X133423731Y-76597181D01*
X133389266Y-76602137D01*
X133389261Y-76602138D01*
X133384880Y-76602768D01*
X133380629Y-76604015D01*
X133380625Y-76604017D01*
X133251174Y-76642027D01*
X133251169Y-76642028D01*
X133246925Y-76643275D01*
X133242906Y-76645109D01*
X133242896Y-76645114D01*
X133211226Y-76659577D01*
X133211219Y-76659580D01*
X133207196Y-76661418D01*
X133203481Y-76663805D01*
X133203469Y-76663812D01*
X133089959Y-76736760D01*
X133089947Y-76736768D01*
X133086242Y-76739150D01*
X133082909Y-76742037D01*
X133082901Y-76742044D01*
X133056583Y-76764849D01*
X133056574Y-76764857D01*
X133053233Y-76767753D01*
X133050338Y-76771093D01*
X133050326Y-76771106D01*
X132961982Y-76873063D01*
X132961978Y-76873068D01*
X132959079Y-76876414D01*
X132956687Y-76880135D01*
X132956681Y-76880144D01*
X132937861Y-76909428D01*
X132937854Y-76909440D01*
X132935467Y-76913155D01*
X132933634Y-76917167D01*
X132933625Y-76917185D01*
X132885297Y-77023011D01*
X132858073Y-77061243D01*
X132818589Y-77086618D01*
X132772503Y-77095500D01*
X131541591Y-77095500D01*
X131522193Y-77093973D01*
X131509641Y-77091985D01*
X131500000Y-77090458D01*
X131490359Y-77091985D01*
X131468166Y-77095500D01*
X131383087Y-77108974D01*
X131383081Y-77108975D01*
X131373445Y-77110502D01*
X131364750Y-77114932D01*
X131364748Y-77114933D01*
X131267972Y-77164243D01*
X131267969Y-77164245D01*
X131259277Y-77168674D01*
X131252378Y-77175572D01*
X131252375Y-77175575D01*
X131175575Y-77252375D01*
X131175572Y-77252378D01*
X131168674Y-77259277D01*
X131164245Y-77267969D01*
X131164243Y-77267972D01*
X131114932Y-77364748D01*
X131114929Y-77364755D01*
X131110502Y-77373445D01*
X131108976Y-77383079D01*
X131108974Y-77383086D01*
X131098987Y-77446148D01*
X131090458Y-77500000D01*
X131091985Y-77509641D01*
X131093973Y-77522193D01*
X131095500Y-77541591D01*
X131095500Y-77993737D01*
X131094508Y-78000000D01*
X131095500Y-78006263D01*
X131095500Y-78031834D01*
X131096262Y-78036647D01*
X131096263Y-78036656D01*
X131108974Y-78116912D01*
X131108975Y-78116916D01*
X131110502Y-78126555D01*
X131168674Y-78240723D01*
X131259277Y-78331326D01*
X131273518Y-78338582D01*
X131364748Y-78385067D01*
X131364750Y-78385067D01*
X131373445Y-78389498D01*
X131500000Y-78409542D01*
X131626555Y-78389498D01*
X131740723Y-78331326D01*
X131831326Y-78240723D01*
X131889498Y-78126555D01*
X131904500Y-78031834D01*
X131904500Y-78026953D01*
X131904882Y-78022102D01*
X131906186Y-78022204D01*
X131921113Y-77966500D01*
X131966500Y-77921113D01*
X132028500Y-77904500D01*
X132772503Y-77904500D01*
X132818589Y-77913382D01*
X132858073Y-77938757D01*
X132885297Y-77976989D01*
X132933625Y-78082814D01*
X132933631Y-78082826D01*
X132935467Y-78086845D01*
X132937857Y-78090565D01*
X132937861Y-78090571D01*
X132949528Y-78108725D01*
X132959079Y-78123586D01*
X132979142Y-78146740D01*
X133050326Y-78228893D01*
X133050331Y-78228898D01*
X133053233Y-78232247D01*
X133056581Y-78235148D01*
X133056583Y-78235150D01*
X133073431Y-78249749D01*
X133086242Y-78260850D01*
X133089956Y-78263237D01*
X133089959Y-78263239D01*
X133203469Y-78336187D01*
X133207196Y-78338582D01*
X133246925Y-78356725D01*
X133384880Y-78397232D01*
X133428111Y-78403448D01*
X133993905Y-78403448D01*
X134000000Y-78403448D01*
X134058722Y-78391767D01*
X134081111Y-78376806D01*
X134125804Y-78358292D01*
X134174189Y-78358291D01*
X134218886Y-78376805D01*
X134241278Y-78391767D01*
X134294376Y-78402329D01*
X134349225Y-78428402D01*
X134385115Y-78477394D01*
X134393436Y-78537552D01*
X134372193Y-78594446D01*
X134326482Y-78634430D01*
X134267972Y-78664243D01*
X134267969Y-78664245D01*
X134259277Y-78668674D01*
X134252378Y-78675572D01*
X134252375Y-78675575D01*
X134175575Y-78752375D01*
X134175572Y-78752378D01*
X134168674Y-78759277D01*
X134164245Y-78767969D01*
X134164243Y-78767972D01*
X134114932Y-78864748D01*
X134114929Y-78864755D01*
X134110502Y-78873445D01*
X134108976Y-78883079D01*
X134108974Y-78883086D01*
X134094376Y-78975262D01*
X134090458Y-79000000D01*
X134091985Y-79009641D01*
X134108974Y-79116913D01*
X134108975Y-79116918D01*
X134110502Y-79126555D01*
X134114930Y-79135246D01*
X134114932Y-79135251D01*
X134143579Y-79191472D01*
X134168674Y-79240723D01*
X134259277Y-79331326D01*
X134373445Y-79389498D01*
X134468166Y-79404500D01*
X134493737Y-79404500D01*
X134500000Y-79405492D01*
X134506263Y-79404500D01*
X136281088Y-79404500D01*
X136328541Y-79413939D01*
X136368769Y-79440819D01*
X136736485Y-79808535D01*
X136736488Y-79808537D01*
X136759277Y-79831326D01*
X136779293Y-79841524D01*
X136795882Y-79851690D01*
X136814071Y-79864905D01*
X136835442Y-79871848D01*
X136853423Y-79879296D01*
X136864745Y-79885065D01*
X136873445Y-79889498D01*
X136895650Y-79893014D01*
X136914548Y-79897551D01*
X136935934Y-79904500D01*
X136968166Y-79904500D01*
X137064066Y-79904500D01*
X139781088Y-79904500D01*
X139828541Y-79913939D01*
X139868769Y-79940819D01*
X139965769Y-80037819D01*
X139996019Y-80087182D01*
X140000561Y-80144898D01*
X139978406Y-80198385D01*
X139934383Y-80235985D01*
X139878088Y-80249500D01*
X134735180Y-80249500D01*
X134729205Y-80250688D01*
X134729200Y-80250689D01*
X134703259Y-80255849D01*
X134703255Y-80255850D01*
X134691278Y-80258233D01*
X134681122Y-80265018D01*
X134681119Y-80265020D01*
X134651651Y-80284710D01*
X134651648Y-80284712D01*
X134641496Y-80291496D01*
X134634712Y-80301648D01*
X134634710Y-80301651D01*
X134615020Y-80331119D01*
X134615018Y-80331122D01*
X134608233Y-80341278D01*
X134605850Y-80353255D01*
X134605849Y-80353259D01*
X134600689Y-80379200D01*
X134600688Y-80379205D01*
X134599500Y-80385180D01*
X134599500Y-80391275D01*
X134599500Y-83777088D01*
X134590061Y-83824541D01*
X134563181Y-83864769D01*
X128393769Y-90034181D01*
X128353541Y-90061061D01*
X128306088Y-90070500D01*
X126541591Y-90070500D01*
X126522193Y-90068973D01*
X126509641Y-90066985D01*
X126500000Y-90065458D01*
X126490359Y-90066985D01*
X126477807Y-90068973D01*
X126458409Y-90070500D01*
X125149500Y-90070500D01*
X125087500Y-90053887D01*
X125042113Y-90008500D01*
X125025500Y-89946500D01*
X125025500Y-87566275D01*
X125025500Y-87560180D01*
X125016767Y-87516278D01*
X124983504Y-87466496D01*
X124973348Y-87459710D01*
X124943880Y-87440020D01*
X124943878Y-87440019D01*
X124933722Y-87433233D01*
X124921742Y-87430850D01*
X124921740Y-87430849D01*
X124895799Y-87425689D01*
X124895795Y-87425688D01*
X124889820Y-87424500D01*
X118460180Y-87424500D01*
X118454205Y-87425688D01*
X118454200Y-87425689D01*
X118428259Y-87430849D01*
X118428255Y-87430850D01*
X118416278Y-87433233D01*
X118406122Y-87440018D01*
X118406119Y-87440020D01*
X118376651Y-87459710D01*
X118376648Y-87459712D01*
X118366496Y-87466496D01*
X118359712Y-87476648D01*
X118359710Y-87476651D01*
X118340020Y-87506119D01*
X118340018Y-87506122D01*
X118333233Y-87516278D01*
X118330850Y-87528255D01*
X118330849Y-87528259D01*
X118325689Y-87554200D01*
X118325688Y-87554205D01*
X118324500Y-87560180D01*
X118324500Y-93389820D01*
X118325688Y-93395795D01*
X118325689Y-93395799D01*
X118330849Y-93421740D01*
X118330850Y-93421742D01*
X118333233Y-93433722D01*
X118340019Y-93443878D01*
X118340020Y-93443880D01*
X118356583Y-93468668D01*
X118366496Y-93483504D01*
X118416278Y-93516767D01*
X118460180Y-93525500D01*
X124883725Y-93525500D01*
X124889820Y-93525500D01*
X124933722Y-93516767D01*
X124983504Y-93483504D01*
X125016767Y-93433722D01*
X125025500Y-93389820D01*
X125025500Y-91003500D01*
X125042113Y-90941500D01*
X125087500Y-90896113D01*
X125149500Y-90879500D01*
X125971500Y-90879500D01*
X126033500Y-90896113D01*
X126078887Y-90941500D01*
X126095500Y-91003500D01*
X126095500Y-101761249D01*
X126078232Y-101824370D01*
X126031238Y-101869911D01*
X125967606Y-101885188D01*
X125905058Y-101865946D01*
X125861016Y-101817545D01*
X125835758Y-101767974D01*
X125835755Y-101767971D01*
X125831326Y-101759277D01*
X125740723Y-101668674D01*
X125626555Y-101610502D01*
X125616916Y-101608975D01*
X125616912Y-101608974D01*
X125536656Y-101596263D01*
X125536647Y-101596262D01*
X125531834Y-101595500D01*
X125526954Y-101595500D01*
X125508260Y-101595500D01*
X125506263Y-101595500D01*
X125500000Y-101594508D01*
X125493737Y-101595500D01*
X123113539Y-101595500D01*
X123052951Y-101579690D01*
X123007812Y-101536291D01*
X122989635Y-101476370D01*
X123003053Y-101415208D01*
X123006213Y-101409004D01*
X123006212Y-101409004D01*
X123010646Y-101400304D01*
X123025500Y-101306519D01*
X123025499Y-100618482D01*
X123010646Y-100524696D01*
X122953050Y-100411658D01*
X122863342Y-100321950D01*
X122750304Y-100264354D01*
X122740667Y-100262827D01*
X122740662Y-100262826D01*
X122661339Y-100250263D01*
X122661333Y-100250262D01*
X122656519Y-100249500D01*
X122651640Y-100249500D01*
X121348352Y-100249500D01*
X121348339Y-100249500D01*
X121343482Y-100249501D01*
X121338680Y-100250261D01*
X121338673Y-100250262D01*
X121259331Y-100262828D01*
X121259330Y-100262828D01*
X121249696Y-100264354D01*
X121241010Y-100268779D01*
X121241003Y-100268782D01*
X121145353Y-100317519D01*
X121145349Y-100317521D01*
X121136658Y-100321950D01*
X121129759Y-100328848D01*
X121129759Y-100328849D01*
X121103008Y-100355600D01*
X121047420Y-100387692D01*
X120983234Y-100387692D01*
X120927647Y-100355598D01*
X120707299Y-100135250D01*
X120440819Y-99868769D01*
X120413939Y-99828541D01*
X120404500Y-99781088D01*
X120404500Y-99041591D01*
X120406027Y-99022193D01*
X120408015Y-99009641D01*
X120409542Y-99000000D01*
X120406027Y-98977807D01*
X120404500Y-98958409D01*
X120404500Y-98574027D01*
X120423726Y-98507706D01*
X120475442Y-98461952D01*
X120543612Y-98450951D01*
X120607095Y-98478116D01*
X120646206Y-98535023D01*
X120688370Y-98662267D01*
X120694432Y-98675266D01*
X120778890Y-98812194D01*
X120787794Y-98823455D01*
X120901544Y-98937205D01*
X120912805Y-98946109D01*
X121049733Y-99030567D01*
X121062732Y-99036629D01*
X121215874Y-99087375D01*
X121229041Y-99090194D01*
X121321890Y-99099680D01*
X121328168Y-99100000D01*
X121733674Y-99100000D01*
X121746549Y-99096549D01*
X121750000Y-99083674D01*
X121750000Y-99083673D01*
X122250000Y-99083673D01*
X122253450Y-99096548D01*
X122266326Y-99099999D01*
X122671829Y-99099999D01*
X122678111Y-99099678D01*
X122770959Y-99090194D01*
X122784122Y-99087376D01*
X122937267Y-99036629D01*
X122950266Y-99030567D01*
X123087194Y-98946109D01*
X123098455Y-98937205D01*
X123212205Y-98823455D01*
X123221109Y-98812194D01*
X123305567Y-98675266D01*
X123311629Y-98662267D01*
X123362375Y-98509125D01*
X123365194Y-98495958D01*
X123374680Y-98403109D01*
X123375000Y-98396832D01*
X123375000Y-98303826D01*
X123371549Y-98290950D01*
X123358674Y-98287500D01*
X122266326Y-98287500D01*
X122253450Y-98290950D01*
X122250000Y-98303826D01*
X122250000Y-99083673D01*
X121750000Y-99083673D01*
X121750000Y-97771174D01*
X122250000Y-97771174D01*
X122253450Y-97784049D01*
X122266326Y-97787500D01*
X123358673Y-97787500D01*
X123371548Y-97784049D01*
X123374999Y-97771174D01*
X123374999Y-97678171D01*
X123374678Y-97671888D01*
X123365194Y-97579040D01*
X123362376Y-97565877D01*
X123311629Y-97412732D01*
X123305567Y-97399733D01*
X123221109Y-97262805D01*
X123212205Y-97251544D01*
X123098455Y-97137794D01*
X123087194Y-97128890D01*
X122950266Y-97044432D01*
X122937267Y-97038370D01*
X122784125Y-96987624D01*
X122770958Y-96984805D01*
X122678109Y-96975319D01*
X122671832Y-96975000D01*
X122266326Y-96975000D01*
X122253450Y-96978450D01*
X122250000Y-96991326D01*
X122250000Y-97771174D01*
X121750000Y-97771174D01*
X121750000Y-96991327D01*
X121746549Y-96978451D01*
X121733674Y-96975001D01*
X121328171Y-96975001D01*
X121321888Y-96975321D01*
X121229040Y-96984805D01*
X121215877Y-96987623D01*
X121062732Y-97038370D01*
X121049733Y-97044432D01*
X120912805Y-97128890D01*
X120901544Y-97137794D01*
X120787794Y-97251544D01*
X120778890Y-97262805D01*
X120694432Y-97399733D01*
X120688370Y-97412732D01*
X120646206Y-97539977D01*
X120607095Y-97596884D01*
X120543612Y-97624049D01*
X120475442Y-97613048D01*
X120423726Y-97567294D01*
X120404500Y-97500973D01*
X120404500Y-97445691D01*
X120404500Y-97435934D01*
X120397551Y-97414548D01*
X120393014Y-97395650D01*
X120389498Y-97373445D01*
X120379296Y-97353423D01*
X120371848Y-97335442D01*
X120367921Y-97323355D01*
X120364905Y-97314071D01*
X120351690Y-97295882D01*
X120341523Y-97279291D01*
X120335757Y-97267974D01*
X120331326Y-97259277D01*
X120308537Y-97236488D01*
X120308535Y-97236485D01*
X119763515Y-96691465D01*
X119763511Y-96691462D01*
X119740723Y-96668674D01*
X119732025Y-96664242D01*
X119720703Y-96658473D01*
X119704109Y-96648304D01*
X119693824Y-96640831D01*
X119693823Y-96640830D01*
X119685929Y-96635095D01*
X119664555Y-96628150D01*
X119646575Y-96620703D01*
X119635250Y-96614932D01*
X119635247Y-96614931D01*
X119626555Y-96610502D01*
X119616922Y-96608976D01*
X119616913Y-96608973D01*
X119604348Y-96606983D01*
X119585442Y-96602444D01*
X119573352Y-96598516D01*
X119573346Y-96598515D01*
X119564066Y-96595500D01*
X119554304Y-96595500D01*
X118799499Y-96595500D01*
X118737499Y-96578887D01*
X118692112Y-96533500D01*
X118675499Y-96471500D01*
X118675499Y-96348353D01*
X118675499Y-96348352D01*
X118675499Y-96343482D01*
X118660646Y-96249696D01*
X118603050Y-96136658D01*
X118513342Y-96046950D01*
X118400304Y-95989354D01*
X118390667Y-95987827D01*
X118390662Y-95987826D01*
X118311339Y-95975263D01*
X118311333Y-95975262D01*
X118306519Y-95974500D01*
X118301640Y-95974500D01*
X117623352Y-95974500D01*
X117623339Y-95974500D01*
X117618482Y-95974501D01*
X117613680Y-95975261D01*
X117613673Y-95975262D01*
X117534331Y-95987828D01*
X117534330Y-95987828D01*
X117524696Y-95989354D01*
X117516010Y-95993779D01*
X117516003Y-95993782D01*
X117420353Y-96042519D01*
X117420349Y-96042521D01*
X117411658Y-96046950D01*
X117404759Y-96053848D01*
X117404756Y-96053851D01*
X117328851Y-96129756D01*
X117328848Y-96129759D01*
X117321950Y-96136658D01*
X117317521Y-96145349D01*
X117317519Y-96145353D01*
X117268785Y-96240999D01*
X117264354Y-96249696D01*
X117262827Y-96259330D01*
X117262826Y-96259337D01*
X117250263Y-96338660D01*
X117250262Y-96338667D01*
X117249500Y-96343481D01*
X117249500Y-96348353D01*
X117249500Y-96348359D01*
X117249500Y-97651647D01*
X117249500Y-97651659D01*
X117249501Y-97656518D01*
X117250261Y-97661320D01*
X117250262Y-97661326D01*
X117251248Y-97667550D01*
X117264354Y-97750304D01*
X117268780Y-97758991D01*
X117268782Y-97758996D01*
X117283306Y-97787500D01*
X117321950Y-97863342D01*
X117411658Y-97953050D01*
X117524696Y-98010646D01*
X117618481Y-98025500D01*
X118306518Y-98025499D01*
X118400304Y-98010646D01*
X118513342Y-97953050D01*
X118603050Y-97863342D01*
X118660646Y-97750304D01*
X118675500Y-97656519D01*
X118675500Y-97528500D01*
X118692113Y-97466500D01*
X118737500Y-97421113D01*
X118799500Y-97404500D01*
X119281088Y-97404500D01*
X119328541Y-97413939D01*
X119368769Y-97440819D01*
X119559181Y-97631231D01*
X119586061Y-97671459D01*
X119595500Y-97718912D01*
X119595500Y-98471500D01*
X119578887Y-98533500D01*
X119533500Y-98578887D01*
X119471500Y-98595500D01*
X116201670Y-98595500D01*
X116073538Y-98595500D01*
X116064257Y-98598515D01*
X116064252Y-98598516D01*
X116052159Y-98602445D01*
X116033256Y-98606983D01*
X116020691Y-98608973D01*
X116020681Y-98608976D01*
X116011049Y-98610502D01*
X116002357Y-98614930D01*
X116002352Y-98614932D01*
X115991018Y-98620707D01*
X115973057Y-98628147D01*
X115960953Y-98632080D01*
X115960950Y-98632081D01*
X115951676Y-98635095D01*
X115943784Y-98640828D01*
X115943781Y-98640830D01*
X115933485Y-98648310D01*
X115916905Y-98658470D01*
X115905577Y-98664242D01*
X115905572Y-98664244D01*
X115896881Y-98668674D01*
X115889982Y-98675572D01*
X115889979Y-98675575D01*
X115874090Y-98691465D01*
X113691465Y-100874089D01*
X113675573Y-100889981D01*
X113675571Y-100889983D01*
X113668674Y-100896881D01*
X113664245Y-100905572D01*
X113664245Y-100905573D01*
X113658474Y-100916899D01*
X113648311Y-100933482D01*
X113640833Y-100943773D01*
X113640825Y-100943787D01*
X113635095Y-100951675D01*
X113632080Y-100960953D01*
X113632078Y-100960958D01*
X113628149Y-100973051D01*
X113620705Y-100991022D01*
X113614931Y-101002353D01*
X113614927Y-101002362D01*
X113610502Y-101011049D01*
X113608976Y-101020675D01*
X113608973Y-101020688D01*
X113606984Y-101033249D01*
X113602445Y-101052157D01*
X113598515Y-101064254D01*
X113598513Y-101064260D01*
X113595500Y-101073538D01*
X113595500Y-101083295D01*
X113595500Y-103958409D01*
X113593972Y-103977807D01*
X113590458Y-104000000D01*
X113595500Y-104031834D01*
X113610502Y-104126555D01*
X113614933Y-104135251D01*
X113662449Y-104228507D01*
X113668674Y-104240723D01*
X113759277Y-104331326D01*
X113815117Y-104359778D01*
X113864748Y-104385067D01*
X113864750Y-104385067D01*
X113873445Y-104389498D01*
X114000000Y-104409542D01*
X114009641Y-104408015D01*
X114022193Y-104406027D01*
X114041591Y-104404500D01*
X116781088Y-104404500D01*
X116828541Y-104413939D01*
X116868769Y-104440819D01*
X118059181Y-105631230D01*
X118086061Y-105671458D01*
X118095500Y-105718911D01*
X118095500Y-105788596D01*
X118080332Y-105848023D01*
X118038540Y-105892911D01*
X117980347Y-105912280D01*
X117919989Y-105901391D01*
X117872234Y-105862907D01*
X117862505Y-105849911D01*
X117850092Y-105837498D01*
X117749189Y-105761962D01*
X117733777Y-105753547D01*
X117614641Y-105709111D01*
X117599667Y-105705573D01*
X117551114Y-105700353D01*
X117544518Y-105700000D01*
X117266326Y-105700000D01*
X117253450Y-105703450D01*
X117250000Y-105716326D01*
X117250000Y-107383674D01*
X117253450Y-107396549D01*
X117266326Y-107400000D01*
X117544518Y-107400000D01*
X117551114Y-107399646D01*
X117599667Y-107394426D01*
X117614641Y-107390888D01*
X117733777Y-107346452D01*
X117749189Y-107338037D01*
X117850092Y-107262501D01*
X117862505Y-107250088D01*
X117872234Y-107237093D01*
X117919989Y-107198609D01*
X117980347Y-107187720D01*
X118038540Y-107207089D01*
X118080332Y-107251977D01*
X118095500Y-107311404D01*
X118095500Y-107781088D01*
X118086061Y-107828541D01*
X118059181Y-107868769D01*
X117918769Y-108009181D01*
X117878541Y-108036061D01*
X117831088Y-108045500D01*
X117710500Y-108045500D01*
X117663047Y-108036061D01*
X117622819Y-108009181D01*
X117615289Y-108001651D01*
X117608504Y-107991496D01*
X117571095Y-107966500D01*
X117568880Y-107965020D01*
X117568878Y-107965019D01*
X117558722Y-107958233D01*
X117546742Y-107955850D01*
X117546740Y-107955849D01*
X117520799Y-107950689D01*
X117520795Y-107950688D01*
X117514820Y-107949500D01*
X116485180Y-107949500D01*
X116479205Y-107950688D01*
X116479200Y-107950689D01*
X116453259Y-107955849D01*
X116453255Y-107955850D01*
X116441278Y-107958233D01*
X116431122Y-107965018D01*
X116431119Y-107965020D01*
X116401651Y-107984710D01*
X116401648Y-107984712D01*
X116391496Y-107991496D01*
X116384712Y-108001648D01*
X116384710Y-108001651D01*
X116365020Y-108031119D01*
X116365018Y-108031122D01*
X116358233Y-108041278D01*
X116355850Y-108053255D01*
X116355849Y-108053259D01*
X116350689Y-108079200D01*
X116350688Y-108079205D01*
X116349500Y-108085180D01*
X116349500Y-108814820D01*
X116350688Y-108820795D01*
X116350689Y-108820799D01*
X116355849Y-108846740D01*
X116355850Y-108846742D01*
X116358233Y-108858722D01*
X116391496Y-108908504D01*
X116441278Y-108941767D01*
X116485180Y-108950500D01*
X117508725Y-108950500D01*
X117514820Y-108950500D01*
X117558722Y-108941767D01*
X117608504Y-108908504D01*
X117615290Y-108898347D01*
X117622819Y-108890819D01*
X117663047Y-108863939D01*
X117710500Y-108854500D01*
X117767243Y-108854500D01*
X117813818Y-108865681D01*
X117814071Y-108864905D01*
X117935934Y-108904500D01*
X118054309Y-108904500D01*
X118064066Y-108904500D01*
X118185929Y-108864905D01*
X118263515Y-108808535D01*
X118263518Y-108808531D01*
X118289590Y-108789590D01*
X118302800Y-108771406D01*
X118315424Y-108756624D01*
X118638320Y-108433728D01*
X118687682Y-108403481D01*
X118745398Y-108398939D01*
X118798885Y-108421094D01*
X118836485Y-108465117D01*
X118850000Y-108521412D01*
X118850000Y-108733674D01*
X118853450Y-108746549D01*
X118866326Y-108750000D01*
X121133674Y-108750000D01*
X121146549Y-108746549D01*
X121150000Y-108733674D01*
X121150000Y-108643948D01*
X121166613Y-108581948D01*
X121212000Y-108536561D01*
X121274000Y-108519948D01*
X123943905Y-108519948D01*
X123950000Y-108519948D01*
X124008722Y-108508267D01*
X124058504Y-108475004D01*
X124091767Y-108425222D01*
X124103448Y-108366500D01*
X124103448Y-108028500D01*
X124120061Y-107966500D01*
X124165448Y-107921113D01*
X124227448Y-107904500D01*
X124781088Y-107904500D01*
X124828541Y-107913939D01*
X124868769Y-107940819D01*
X125236485Y-108308535D01*
X125240425Y-108311397D01*
X125240429Y-108311401D01*
X125255556Y-108322391D01*
X125257176Y-108323568D01*
X125261658Y-108328050D01*
X125267305Y-108330927D01*
X125268921Y-108332101D01*
X125306177Y-108359170D01*
X125306178Y-108359170D01*
X125314071Y-108364905D01*
X125323349Y-108367919D01*
X125323350Y-108367920D01*
X125344460Y-108374779D01*
X125369045Y-108382767D01*
X125374696Y-108385646D01*
X125380959Y-108386638D01*
X125435934Y-108404500D01*
X125493737Y-108404500D01*
X125500000Y-108405492D01*
X125506263Y-108404500D01*
X125564066Y-108404500D01*
X125619040Y-108386638D01*
X125625304Y-108385646D01*
X125630954Y-108382767D01*
X125685929Y-108364905D01*
X125732694Y-108330927D01*
X125738342Y-108328050D01*
X125742824Y-108323567D01*
X125789590Y-108289590D01*
X125823567Y-108242824D01*
X125828050Y-108238342D01*
X125830927Y-108232694D01*
X125864905Y-108185929D01*
X125882767Y-108130954D01*
X125885646Y-108125304D01*
X125886638Y-108119040D01*
X125904500Y-108064066D01*
X125904500Y-108006263D01*
X125905492Y-108000000D01*
X125904500Y-107993737D01*
X125904500Y-107935934D01*
X125886638Y-107880959D01*
X125885646Y-107874696D01*
X125882767Y-107869045D01*
X125864905Y-107814071D01*
X125859170Y-107806178D01*
X125859170Y-107806177D01*
X125832101Y-107768921D01*
X125830927Y-107767305D01*
X125828050Y-107761658D01*
X125823568Y-107757176D01*
X125808535Y-107736485D01*
X125263515Y-107191465D01*
X125263511Y-107191462D01*
X121105515Y-103033465D01*
X121105511Y-103033462D01*
X121082723Y-103010674D01*
X121074025Y-103006242D01*
X121062703Y-103000473D01*
X121046109Y-102990304D01*
X121035824Y-102982831D01*
X121035823Y-102982830D01*
X121027929Y-102977095D01*
X121006555Y-102970150D01*
X120988575Y-102962703D01*
X120977250Y-102956932D01*
X120977247Y-102956931D01*
X120968555Y-102952502D01*
X120958922Y-102950976D01*
X120958913Y-102950973D01*
X120946348Y-102948983D01*
X120927442Y-102944444D01*
X120915352Y-102940516D01*
X120915346Y-102940515D01*
X120906066Y-102937500D01*
X120896304Y-102937500D01*
X118730115Y-102937500D01*
X118669527Y-102921690D01*
X118624388Y-102878291D01*
X118606211Y-102818371D01*
X118617099Y-102768738D01*
X118615699Y-102768283D01*
X118618714Y-102759000D01*
X118623146Y-102750304D01*
X118638000Y-102656519D01*
X118638000Y-102528500D01*
X118654613Y-102466500D01*
X118700000Y-102421113D01*
X118762000Y-102404500D01*
X125493737Y-102404500D01*
X125500000Y-102405492D01*
X125506263Y-102404500D01*
X125531834Y-102404500D01*
X125626555Y-102389498D01*
X125740723Y-102331326D01*
X125831326Y-102240723D01*
X125835758Y-102232025D01*
X125861016Y-102182455D01*
X125905058Y-102134054D01*
X125967606Y-102114812D01*
X126031238Y-102130089D01*
X126078232Y-102175630D01*
X126095500Y-102238751D01*
X126095500Y-104435934D01*
X126095500Y-104564066D01*
X126098515Y-104573346D01*
X126098516Y-104573352D01*
X126102444Y-104585442D01*
X126106983Y-104604348D01*
X126108973Y-104616913D01*
X126108976Y-104616922D01*
X126110502Y-104626555D01*
X126114931Y-104635247D01*
X126114932Y-104635250D01*
X126120703Y-104646575D01*
X126128150Y-104664554D01*
X126135095Y-104685929D01*
X126140830Y-104693823D01*
X126140831Y-104693824D01*
X126148304Y-104704109D01*
X126158473Y-104720703D01*
X126168674Y-104740723D01*
X126175575Y-104747624D01*
X126191462Y-104763511D01*
X126191465Y-104763515D01*
X134563181Y-113135231D01*
X134590061Y-113175459D01*
X134599500Y-113222912D01*
X134599500Y-113471500D01*
X134582887Y-113533500D01*
X134537500Y-113578887D01*
X134475500Y-113595500D01*
X126041591Y-113595500D01*
X126022193Y-113593973D01*
X126009641Y-113591985D01*
X126000000Y-113590458D01*
X125990359Y-113591985D01*
X125968166Y-113595500D01*
X125883087Y-113608974D01*
X125883081Y-113608975D01*
X125873445Y-113610502D01*
X125864750Y-113614932D01*
X125864748Y-113614933D01*
X125767972Y-113664243D01*
X125767969Y-113664245D01*
X125759277Y-113668674D01*
X125752378Y-113675572D01*
X125752375Y-113675575D01*
X125675575Y-113752375D01*
X125675572Y-113752378D01*
X125668674Y-113759277D01*
X125664245Y-113767969D01*
X125664243Y-113767972D01*
X125614932Y-113864748D01*
X125614929Y-113864755D01*
X125610502Y-113873445D01*
X125608976Y-113883079D01*
X125608974Y-113883086D01*
X125592639Y-113986227D01*
X125590458Y-114000000D01*
X125591985Y-114009641D01*
X125593973Y-114022193D01*
X125595500Y-114041591D01*
X125595500Y-115680984D01*
X125586061Y-115728437D01*
X125559181Y-115768665D01*
X123962180Y-117365665D01*
X123912817Y-117395915D01*
X123855101Y-117400457D01*
X123801614Y-117378302D01*
X123764014Y-117334279D01*
X123750499Y-117277984D01*
X123750499Y-116348353D01*
X123750499Y-116343482D01*
X123735646Y-116249696D01*
X123717297Y-116213685D01*
X123682480Y-116145353D01*
X123678050Y-116136658D01*
X123588342Y-116046950D01*
X123569697Y-116037450D01*
X123475304Y-115989354D01*
X123476150Y-115987692D01*
X123445526Y-115970011D01*
X123415220Y-115928297D01*
X123404500Y-115877862D01*
X123404500Y-112028500D01*
X123421113Y-111966500D01*
X123466500Y-111921113D01*
X123528500Y-111904500D01*
X124054309Y-111904500D01*
X124064066Y-111904500D01*
X124085447Y-111897552D01*
X124104353Y-111893014D01*
X124126555Y-111889498D01*
X124146572Y-111879297D01*
X124164558Y-111871848D01*
X124176645Y-111867921D01*
X124176644Y-111867921D01*
X124185929Y-111864905D01*
X124204113Y-111851692D01*
X124220696Y-111841529D01*
X124240723Y-111831326D01*
X124263511Y-111808537D01*
X124263515Y-111808535D01*
X127808534Y-108263515D01*
X127823564Y-108242827D01*
X127828050Y-108238342D01*
X127830929Y-108232690D01*
X127864904Y-108185929D01*
X127882764Y-108130959D01*
X127885646Y-108125304D01*
X127886638Y-108119034D01*
X127904499Y-108064066D01*
X127904499Y-108006270D01*
X127905492Y-108000000D01*
X127904499Y-107993730D01*
X127904499Y-107935934D01*
X127886639Y-107880966D01*
X127885646Y-107874696D01*
X127882763Y-107869039D01*
X127864904Y-107814072D01*
X127852199Y-107796585D01*
X127832100Y-107768921D01*
X127832098Y-107768919D01*
X127830929Y-107767310D01*
X127828050Y-107761658D01*
X127823564Y-107757172D01*
X127789590Y-107710410D01*
X127742827Y-107676435D01*
X127738342Y-107671950D01*
X127732689Y-107669070D01*
X127731075Y-107667897D01*
X127693821Y-107640830D01*
X127693818Y-107640828D01*
X127685928Y-107635096D01*
X127676652Y-107632082D01*
X127676648Y-107632080D01*
X127632841Y-107617847D01*
X127632840Y-107617846D01*
X127630960Y-107617236D01*
X127625304Y-107614354D01*
X127619033Y-107613360D01*
X127617136Y-107612743D01*
X127617135Y-107612743D01*
X127573347Y-107598516D01*
X127573344Y-107598515D01*
X127564066Y-107595501D01*
X127554306Y-107595501D01*
X127508259Y-107595501D01*
X127506270Y-107595501D01*
X127500000Y-107594508D01*
X127493730Y-107595501D01*
X127435934Y-107595501D01*
X127426655Y-107598515D01*
X127426653Y-107598516D01*
X127382844Y-107612750D01*
X127382842Y-107612750D01*
X127380965Y-107613361D01*
X127374696Y-107614354D01*
X127369040Y-107617235D01*
X127367144Y-107617850D01*
X127367141Y-107617851D01*
X127323348Y-107632081D01*
X127323344Y-107632082D01*
X127314071Y-107635096D01*
X127306182Y-107640827D01*
X127306179Y-107640829D01*
X127268914Y-107667903D01*
X127268912Y-107667905D01*
X127267309Y-107669070D01*
X127261658Y-107671950D01*
X127257172Y-107676435D01*
X127255559Y-107677606D01*
X127255556Y-107677608D01*
X127240425Y-107688602D01*
X127240415Y-107688610D01*
X127236485Y-107691466D01*
X127233043Y-107694907D01*
X127233037Y-107694913D01*
X123868769Y-111059181D01*
X123828541Y-111086061D01*
X123781088Y-111095500D01*
X123041591Y-111095500D01*
X123022193Y-111093973D01*
X123009641Y-111091985D01*
X123000000Y-111090458D01*
X122990359Y-111091985D01*
X122977807Y-111093973D01*
X122958409Y-111095500D01*
X118468166Y-111095500D01*
X118468162Y-111095500D01*
X118468154Y-111095501D01*
X118435934Y-111095501D01*
X118426656Y-111098515D01*
X118426652Y-111098516D01*
X118414561Y-111102445D01*
X118395644Y-111106986D01*
X118383081Y-111108975D01*
X118383076Y-111108976D01*
X118373445Y-111110502D01*
X118364759Y-111114927D01*
X118364751Y-111114930D01*
X118353410Y-111120709D01*
X118335445Y-111128150D01*
X118323353Y-111132079D01*
X118323348Y-111132081D01*
X118314071Y-111135096D01*
X118306181Y-111140827D01*
X118306173Y-111140832D01*
X118295885Y-111148307D01*
X118279304Y-111158468D01*
X118267971Y-111164242D01*
X118267962Y-111164247D01*
X118259277Y-111168674D01*
X118252379Y-111175571D01*
X118252377Y-111175573D01*
X118236487Y-111191462D01*
X118236485Y-111191464D01*
X118236484Y-111191466D01*
X118236485Y-111191466D01*
X116868769Y-112559181D01*
X116828541Y-112586061D01*
X116781088Y-112595500D01*
X116718911Y-112595500D01*
X116671458Y-112586061D01*
X116631230Y-112559181D01*
X113940819Y-109868769D01*
X113913939Y-109828541D01*
X113904500Y-109781088D01*
X113904500Y-109494518D01*
X118850000Y-109494518D01*
X118850353Y-109501114D01*
X118855573Y-109549667D01*
X118859111Y-109564641D01*
X118903547Y-109683777D01*
X118911962Y-109699189D01*
X118987498Y-109800092D01*
X118999907Y-109812501D01*
X119100810Y-109888037D01*
X119116222Y-109896452D01*
X119235358Y-109940888D01*
X119250332Y-109944426D01*
X119298885Y-109949646D01*
X119305482Y-109950000D01*
X119733674Y-109950000D01*
X119746549Y-109946549D01*
X119750000Y-109933674D01*
X120250000Y-109933674D01*
X120253450Y-109946549D01*
X120266326Y-109950000D01*
X120694518Y-109950000D01*
X120701114Y-109949646D01*
X120749667Y-109944426D01*
X120764641Y-109940888D01*
X120883777Y-109896452D01*
X120899189Y-109888037D01*
X121000092Y-109812501D01*
X121012501Y-109800092D01*
X121088037Y-109699189D01*
X121096452Y-109683777D01*
X121140888Y-109564641D01*
X121144426Y-109549667D01*
X121149646Y-109501114D01*
X121150000Y-109494518D01*
X121150000Y-109266326D01*
X121146549Y-109253450D01*
X121133674Y-109250000D01*
X120266326Y-109250000D01*
X120253450Y-109253450D01*
X120250000Y-109266326D01*
X120250000Y-109933674D01*
X119750000Y-109933674D01*
X119750000Y-109266326D01*
X119746549Y-109253450D01*
X119733674Y-109250000D01*
X118866326Y-109250000D01*
X118853450Y-109253450D01*
X118850000Y-109266326D01*
X118850000Y-109494518D01*
X113904500Y-109494518D01*
X113904500Y-108115654D01*
X113916406Y-108062637D01*
X113949836Y-108019800D01*
X113998372Y-107995370D01*
X114052690Y-107994037D01*
X114085180Y-108000500D01*
X115108725Y-108000500D01*
X115114820Y-108000500D01*
X115158722Y-107991767D01*
X115208504Y-107958504D01*
X115241767Y-107908722D01*
X115250500Y-107864820D01*
X115250500Y-107135180D01*
X115241767Y-107091278D01*
X115208504Y-107041496D01*
X115158722Y-107008233D01*
X115146742Y-107005850D01*
X115146740Y-107005849D01*
X115120799Y-107000689D01*
X115120795Y-107000688D01*
X115114820Y-106999500D01*
X114085180Y-106999500D01*
X114079205Y-107000688D01*
X114079200Y-107000689D01*
X114053259Y-107005849D01*
X114053255Y-107005850D01*
X114041278Y-107008233D01*
X114031122Y-107015018D01*
X114031119Y-107015020D01*
X114001651Y-107034710D01*
X114001648Y-107034712D01*
X113991496Y-107041496D01*
X113984710Y-107051650D01*
X113977181Y-107059181D01*
X113936953Y-107086061D01*
X113889500Y-107095500D01*
X113541591Y-107095500D01*
X113522193Y-107093973D01*
X113509641Y-107091985D01*
X113500000Y-107090458D01*
X113490359Y-107091985D01*
X113468166Y-107095500D01*
X113383087Y-107108974D01*
X113383081Y-107108975D01*
X113373445Y-107110502D01*
X113364750Y-107114932D01*
X113364748Y-107114933D01*
X113267972Y-107164243D01*
X113267969Y-107164245D01*
X113259277Y-107168674D01*
X113252378Y-107175572D01*
X113252375Y-107175575D01*
X113175575Y-107252375D01*
X113175572Y-107252378D01*
X113168674Y-107259277D01*
X113164245Y-107267969D01*
X113164243Y-107267972D01*
X113114932Y-107364748D01*
X113114929Y-107364755D01*
X113110502Y-107373445D01*
X113108976Y-107383079D01*
X113108974Y-107383086D01*
X113097113Y-107457982D01*
X113090458Y-107500000D01*
X113091985Y-107509641D01*
X113093973Y-107522193D01*
X113095500Y-107541591D01*
X113095500Y-109935934D01*
X113095500Y-110064066D01*
X113098515Y-110073346D01*
X113098516Y-110073352D01*
X113102444Y-110085442D01*
X113106983Y-110104348D01*
X113108973Y-110116913D01*
X113108976Y-110116922D01*
X113110502Y-110126555D01*
X113114931Y-110135247D01*
X113114932Y-110135250D01*
X113120703Y-110146575D01*
X113128150Y-110164554D01*
X113135095Y-110185929D01*
X113140830Y-110193823D01*
X113140831Y-110193824D01*
X113148304Y-110204109D01*
X113158473Y-110220703D01*
X113168674Y-110240723D01*
X113191462Y-110263511D01*
X113191465Y-110263515D01*
X116168674Y-113240723D01*
X116259277Y-113331326D01*
X116267972Y-113335756D01*
X116267973Y-113335757D01*
X116279294Y-113341525D01*
X116295891Y-113351696D01*
X116306171Y-113359166D01*
X116306174Y-113359167D01*
X116314071Y-113364905D01*
X116335442Y-113371848D01*
X116353423Y-113379296D01*
X116364745Y-113385065D01*
X116373445Y-113389498D01*
X116395650Y-113393014D01*
X116414548Y-113397551D01*
X116435934Y-113404500D01*
X116468166Y-113404500D01*
X116564066Y-113404500D01*
X116935934Y-113404500D01*
X117031834Y-113404500D01*
X117054309Y-113404500D01*
X117064066Y-113404500D01*
X117085447Y-113397552D01*
X117104353Y-113393014D01*
X117126555Y-113389498D01*
X117146576Y-113379296D01*
X117164558Y-113371848D01*
X117176645Y-113367921D01*
X117176644Y-113367921D01*
X117185929Y-113364905D01*
X117204113Y-113351692D01*
X117220696Y-113341529D01*
X117240723Y-113331326D01*
X117263511Y-113308537D01*
X117263515Y-113308535D01*
X118631230Y-111940818D01*
X118671458Y-111913939D01*
X118718911Y-111904500D01*
X122471500Y-111904500D01*
X122533500Y-111921113D01*
X122578887Y-111966500D01*
X122595500Y-112028500D01*
X122595500Y-115877862D01*
X122584780Y-115928297D01*
X122554474Y-115970011D01*
X122523849Y-115987692D01*
X122524696Y-115989354D01*
X122420353Y-116042519D01*
X122420349Y-116042521D01*
X122411658Y-116046950D01*
X122404759Y-116053848D01*
X122404756Y-116053851D01*
X122328851Y-116129756D01*
X122328848Y-116129759D01*
X122321950Y-116136658D01*
X122317521Y-116145349D01*
X122317519Y-116145353D01*
X122277374Y-116224143D01*
X122264354Y-116249696D01*
X122262827Y-116259330D01*
X122262826Y-116259337D01*
X122250263Y-116338660D01*
X122250262Y-116338667D01*
X122249500Y-116343481D01*
X122249500Y-116348353D01*
X122249500Y-116348359D01*
X122249500Y-117651647D01*
X122249500Y-117651659D01*
X122249501Y-117656518D01*
X122264354Y-117750304D01*
X122268780Y-117758991D01*
X122268782Y-117758996D01*
X122316301Y-117852256D01*
X122321950Y-117863342D01*
X122411658Y-117953050D01*
X122524696Y-118010646D01*
X122618481Y-118025500D01*
X123002984Y-118025499D01*
X123059278Y-118039014D01*
X123103301Y-118076613D01*
X123125456Y-118130101D01*
X123120914Y-118187817D01*
X123090665Y-118237180D01*
X123007338Y-118320506D01*
X122768662Y-118559183D01*
X122728437Y-118586061D01*
X122680984Y-118595500D01*
X121218912Y-118595500D01*
X121171459Y-118586061D01*
X121131231Y-118559181D01*
X120804429Y-118232379D01*
X120773741Y-118181641D01*
X120770121Y-118122456D01*
X120794397Y-118068356D01*
X120841017Y-118031714D01*
X120899319Y-118020908D01*
X121043935Y-118029331D01*
X121216711Y-117998865D01*
X121377804Y-117929377D01*
X121518530Y-117824610D01*
X121631302Y-117690214D01*
X121710040Y-117533433D01*
X121750500Y-117362721D01*
X121750500Y-116681291D01*
X121735241Y-116550745D01*
X121726378Y-116526395D01*
X121704603Y-116466567D01*
X121675237Y-116385883D01*
X121644186Y-116338673D01*
X121582800Y-116245340D01*
X121582799Y-116245339D01*
X121578830Y-116239304D01*
X121451218Y-116118908D01*
X121444962Y-116115296D01*
X121305536Y-116034799D01*
X121305534Y-116034798D01*
X121299281Y-116031188D01*
X121251243Y-116016806D01*
X121138130Y-115982941D01*
X121138123Y-115982939D01*
X121131210Y-115980870D01*
X121124001Y-115980450D01*
X121123995Y-115980449D01*
X120963274Y-115971088D01*
X120963266Y-115971088D01*
X120956065Y-115970669D01*
X120948953Y-115971922D01*
X120948953Y-115971923D01*
X120790405Y-115999880D01*
X120790403Y-115999880D01*
X120783289Y-116001135D01*
X120776656Y-116003995D01*
X120776653Y-116003997D01*
X120628830Y-116067761D01*
X120628827Y-116067762D01*
X120622196Y-116070623D01*
X120616405Y-116074933D01*
X120616400Y-116074937D01*
X120487261Y-116171078D01*
X120487257Y-116171081D01*
X120481470Y-116175390D01*
X120476832Y-116180916D01*
X120476828Y-116180921D01*
X120373339Y-116304254D01*
X120373335Y-116304259D01*
X120368698Y-116309786D01*
X120365460Y-116316231D01*
X120365458Y-116316236D01*
X120293199Y-116460116D01*
X120293196Y-116460121D01*
X120289960Y-116466567D01*
X120288295Y-116473589D01*
X120288294Y-116473594D01*
X120251165Y-116630250D01*
X120251164Y-116630257D01*
X120249500Y-116637279D01*
X120249500Y-117318709D01*
X120249916Y-117322270D01*
X120249917Y-117322283D01*
X120255564Y-117370596D01*
X120247641Y-117430772D01*
X120212107Y-117479980D01*
X120157477Y-117506428D01*
X120096838Y-117503781D01*
X120044721Y-117472671D01*
X119786819Y-117214769D01*
X119759939Y-117174541D01*
X119750500Y-117127088D01*
X119750500Y-116684889D01*
X119750500Y-116681291D01*
X119735241Y-116550745D01*
X119726378Y-116526395D01*
X119704603Y-116466567D01*
X119675237Y-116385883D01*
X119644186Y-116338673D01*
X119582800Y-116245340D01*
X119582799Y-116245339D01*
X119578830Y-116239304D01*
X119451218Y-116118908D01*
X119444962Y-116115296D01*
X119305536Y-116034799D01*
X119305534Y-116034798D01*
X119299281Y-116031188D01*
X119251243Y-116016806D01*
X119138130Y-115982941D01*
X119138123Y-115982939D01*
X119131210Y-115980870D01*
X119124001Y-115980450D01*
X119123995Y-115980449D01*
X118963274Y-115971088D01*
X118963266Y-115971088D01*
X118956065Y-115970669D01*
X118948953Y-115971922D01*
X118948953Y-115971923D01*
X118790405Y-115999880D01*
X118790403Y-115999880D01*
X118783289Y-116001135D01*
X118776656Y-116003995D01*
X118776653Y-116003997D01*
X118628830Y-116067761D01*
X118628827Y-116067762D01*
X118622196Y-116070623D01*
X118616405Y-116074933D01*
X118616400Y-116074937D01*
X118487261Y-116171078D01*
X118487257Y-116171081D01*
X118481470Y-116175390D01*
X118476832Y-116180916D01*
X118476828Y-116180921D01*
X118373339Y-116304254D01*
X118373335Y-116304259D01*
X118368698Y-116309786D01*
X118365459Y-116316235D01*
X118365454Y-116316243D01*
X118292673Y-116461161D01*
X118254642Y-116505905D01*
X118200288Y-116528133D01*
X118141802Y-116522861D01*
X118092301Y-116491269D01*
X118062886Y-116440445D01*
X118027512Y-116319973D01*
X118023146Y-116309067D01*
X117932295Y-116132840D01*
X117925935Y-116122944D01*
X117803382Y-115967105D01*
X117795264Y-115958591D01*
X117645427Y-115828756D01*
X117635850Y-115821937D01*
X117464153Y-115722808D01*
X117453450Y-115717920D01*
X117266095Y-115653075D01*
X117260511Y-115651720D01*
X117252318Y-115652306D01*
X117250000Y-115662964D01*
X117250000Y-118332181D01*
X117252505Y-118343072D01*
X117263679Y-118342939D01*
X117355670Y-118320622D01*
X117366788Y-118316774D01*
X117547121Y-118234419D01*
X117557319Y-118228531D01*
X117718806Y-118113536D01*
X117727703Y-118105827D01*
X117864517Y-117962341D01*
X117871784Y-117953100D01*
X117978971Y-117786314D01*
X117984363Y-117775856D01*
X118058049Y-117591798D01*
X118061361Y-117580516D01*
X118063436Y-117569751D01*
X118091223Y-117512311D01*
X118143893Y-117476293D01*
X118207500Y-117471234D01*
X118265202Y-117498475D01*
X118301718Y-117550801D01*
X118324763Y-117614117D01*
X118328733Y-117620153D01*
X118328735Y-117620157D01*
X118395313Y-117721383D01*
X118421170Y-117760696D01*
X118548782Y-117881092D01*
X118700719Y-117968812D01*
X118868790Y-118019130D01*
X119043935Y-118029331D01*
X119216711Y-117998865D01*
X119286217Y-117968882D01*
X119334127Y-117958748D01*
X119382227Y-117967952D01*
X119423010Y-117995060D01*
X120736485Y-119308535D01*
X120736488Y-119308537D01*
X120759277Y-119331326D01*
X120767970Y-119335755D01*
X120767974Y-119335758D01*
X120779302Y-119341530D01*
X120795888Y-119351693D01*
X120814071Y-119364904D01*
X120835444Y-119371848D01*
X120853418Y-119379293D01*
X120873445Y-119389498D01*
X120894742Y-119392870D01*
X120895639Y-119393013D01*
X120914565Y-119397557D01*
X120926653Y-119401485D01*
X120926656Y-119401485D01*
X120935934Y-119404500D01*
X120968166Y-119404500D01*
X121064066Y-119404500D01*
X122835830Y-119404500D01*
X122931730Y-119404500D01*
X122954205Y-119404500D01*
X122963962Y-119404500D01*
X122985343Y-119397552D01*
X123004249Y-119393014D01*
X123026451Y-119389498D01*
X123046472Y-119379296D01*
X123064454Y-119371848D01*
X123076541Y-119367921D01*
X123076540Y-119367921D01*
X123085825Y-119364905D01*
X123104009Y-119351692D01*
X123120592Y-119341529D01*
X123140619Y-119331326D01*
X123163407Y-119308537D01*
X123163411Y-119308535D01*
X125404181Y-117067765D01*
X128145788Y-117067765D01*
X128146282Y-117072262D01*
X128146283Y-117072267D01*
X128174917Y-117332506D01*
X128174918Y-117332513D01*
X128175414Y-117337018D01*
X128176559Y-117341398D01*
X128176561Y-117341408D01*
X128238244Y-117577346D01*
X128243928Y-117599088D01*
X128245693Y-117603242D01*
X128245696Y-117603250D01*
X128348099Y-117844223D01*
X128349870Y-117848390D01*
X128352226Y-117852251D01*
X128352229Y-117852256D01*
X128488618Y-118075737D01*
X128490982Y-118079610D01*
X128526639Y-118122456D01*
X128655409Y-118277191D01*
X128664255Y-118287820D01*
X128667630Y-118290844D01*
X128667631Y-118290845D01*
X128772330Y-118384656D01*
X128865998Y-118468582D01*
X129091910Y-118618044D01*
X129337176Y-118733020D01*
X129596569Y-118811060D01*
X129864561Y-118850500D01*
X130065369Y-118850500D01*
X130067631Y-118850500D01*
X130270156Y-118835677D01*
X130534553Y-118776780D01*
X130787558Y-118680014D01*
X131023777Y-118547441D01*
X131238177Y-118381888D01*
X131426186Y-118186881D01*
X131583799Y-117966579D01*
X131707656Y-117725675D01*
X131795118Y-117469305D01*
X131844319Y-117202933D01*
X131854212Y-116932235D01*
X131824586Y-116662982D01*
X131756072Y-116400912D01*
X131650130Y-116151610D01*
X131509018Y-115920390D01*
X131335745Y-115712180D01*
X131280817Y-115662964D01*
X131137382Y-115534446D01*
X131137378Y-115534442D01*
X131134002Y-115531418D01*
X130908090Y-115381956D01*
X130903996Y-115380036D01*
X130903991Y-115380034D01*
X130666929Y-115268904D01*
X130666925Y-115268902D01*
X130662824Y-115266980D01*
X130658477Y-115265672D01*
X130658474Y-115265671D01*
X130407772Y-115190246D01*
X130407771Y-115190245D01*
X130403431Y-115188940D01*
X130398957Y-115188281D01*
X130398950Y-115188280D01*
X130139913Y-115150158D01*
X130139907Y-115150157D01*
X130135439Y-115149500D01*
X129932369Y-115149500D01*
X129930120Y-115149664D01*
X129930109Y-115149665D01*
X129734363Y-115163992D01*
X129734359Y-115163992D01*
X129729844Y-115164323D01*
X129725426Y-115165307D01*
X129725420Y-115165308D01*
X129469877Y-115222232D01*
X129469861Y-115222236D01*
X129465447Y-115223220D01*
X129461216Y-115224838D01*
X129461210Y-115224840D01*
X129216673Y-115318367D01*
X129216663Y-115318371D01*
X129212442Y-115319986D01*
X129208494Y-115322201D01*
X129208489Y-115322204D01*
X128980176Y-115450340D01*
X128980171Y-115450343D01*
X128976223Y-115452559D01*
X128972639Y-115455325D01*
X128972635Y-115455329D01*
X128765407Y-115615343D01*
X128765394Y-115615354D01*
X128761823Y-115618112D01*
X128758685Y-115621366D01*
X128758678Y-115621373D01*
X128576958Y-115809857D01*
X128576952Y-115809864D01*
X128573814Y-115813119D01*
X128571189Y-115816787D01*
X128571179Y-115816800D01*
X128418834Y-116029740D01*
X128418830Y-116029745D01*
X128416201Y-116033421D01*
X128414132Y-116037444D01*
X128414129Y-116037450D01*
X128294416Y-116270293D01*
X128294411Y-116270304D01*
X128292344Y-116274325D01*
X128290884Y-116278602D01*
X128290879Y-116278616D01*
X128206348Y-116526395D01*
X128206344Y-116526407D01*
X128204882Y-116530695D01*
X128204057Y-116535159D01*
X128204057Y-116535161D01*
X128156504Y-116792606D01*
X128156502Y-116792619D01*
X128155681Y-116797067D01*
X128155515Y-116801593D01*
X128155515Y-116801599D01*
X128147723Y-117014820D01*
X128145788Y-117067765D01*
X125404181Y-117067765D01*
X126308535Y-116163411D01*
X126308537Y-116163407D01*
X126331326Y-116140619D01*
X126341527Y-116120598D01*
X126351692Y-116104008D01*
X126364904Y-116085825D01*
X126371849Y-116064447D01*
X126379290Y-116046482D01*
X126389498Y-116026451D01*
X126393013Y-116004253D01*
X126397553Y-115985340D01*
X126404500Y-115963962D01*
X126404500Y-115835830D01*
X126404500Y-114528500D01*
X126421113Y-114466500D01*
X126466500Y-114421113D01*
X126528500Y-114404500D01*
X134475500Y-114404500D01*
X134537500Y-114421113D01*
X134582887Y-114466500D01*
X134599500Y-114528500D01*
X134599500Y-117014820D01*
X134600688Y-117020795D01*
X134600689Y-117020799D01*
X134605849Y-117046740D01*
X134605850Y-117046742D01*
X134608233Y-117058722D01*
X134641496Y-117108504D01*
X134691278Y-117141767D01*
X134735180Y-117150500D01*
X140258725Y-117150500D01*
X140264820Y-117150500D01*
X140308722Y-117141767D01*
X140358504Y-117108504D01*
X140391767Y-117058722D01*
X140400500Y-117014820D01*
X140400500Y-110985180D01*
X140391767Y-110941278D01*
X140358504Y-110891496D01*
X140308722Y-110858233D01*
X140296742Y-110855850D01*
X140296740Y-110855849D01*
X140270799Y-110850689D01*
X140270795Y-110850688D01*
X140264820Y-110849500D01*
X134735180Y-110849500D01*
X134729205Y-110850688D01*
X134729200Y-110850689D01*
X134703259Y-110855849D01*
X134703255Y-110855850D01*
X134691278Y-110858233D01*
X134681122Y-110865018D01*
X134681119Y-110865020D01*
X134651651Y-110884710D01*
X134651648Y-110884712D01*
X134641496Y-110891496D01*
X134634712Y-110901648D01*
X134634710Y-110901651D01*
X134615020Y-110931119D01*
X134615018Y-110931122D01*
X134608233Y-110941278D01*
X134605850Y-110953255D01*
X134605849Y-110953259D01*
X134600689Y-110979200D01*
X134600688Y-110979205D01*
X134599500Y-110985180D01*
X134599500Y-110991275D01*
X134599500Y-111728088D01*
X134585985Y-111784383D01*
X134548385Y-111828406D01*
X134494898Y-111850561D01*
X134437182Y-111846019D01*
X134387819Y-111815769D01*
X128873084Y-106301034D01*
X130257611Y-106301034D01*
X130264821Y-106312481D01*
X130663866Y-106676259D01*
X130666734Y-106678716D01*
X131167848Y-107081961D01*
X131170898Y-107084264D01*
X131695850Y-107455869D01*
X131699038Y-107457982D01*
X132245901Y-107796585D01*
X132249169Y-107798472D01*
X132815859Y-108102778D01*
X132819251Y-108104467D01*
X133403585Y-108373304D01*
X133407069Y-108374779D01*
X134006855Y-108607136D01*
X134010424Y-108608394D01*
X134623360Y-108803383D01*
X134627023Y-108804425D01*
X135250804Y-108961313D01*
X135254490Y-108962120D01*
X135886747Y-109080309D01*
X135890524Y-109080895D01*
X136528842Y-109159937D01*
X136532608Y-109160286D01*
X137174606Y-109199883D01*
X137178396Y-109200000D01*
X137821604Y-109200000D01*
X137825393Y-109199883D01*
X138467391Y-109160286D01*
X138471157Y-109159937D01*
X139109475Y-109080895D01*
X139113252Y-109080309D01*
X139745509Y-108962120D01*
X139749195Y-108961313D01*
X140372976Y-108804425D01*
X140376639Y-108803383D01*
X140989575Y-108608394D01*
X140993144Y-108607136D01*
X141592930Y-108374779D01*
X141596414Y-108373304D01*
X142180748Y-108104467D01*
X142184140Y-108102778D01*
X142750830Y-107798472D01*
X142754098Y-107796585D01*
X143300961Y-107457982D01*
X143304149Y-107455869D01*
X143829101Y-107084264D01*
X143832151Y-107081961D01*
X144333265Y-106678716D01*
X144336133Y-106676259D01*
X144735177Y-106312481D01*
X144742387Y-106301034D01*
X144735714Y-106289267D01*
X137511542Y-99065095D01*
X137500000Y-99058431D01*
X137488457Y-99065095D01*
X130264284Y-106289267D01*
X130257611Y-106301034D01*
X128873084Y-106301034D01*
X126940819Y-104368769D01*
X126913939Y-104328541D01*
X126904500Y-104281088D01*
X126904500Y-100502091D01*
X126919557Y-100442867D01*
X126961072Y-100398027D01*
X127018961Y-100378458D01*
X127079168Y-100388915D01*
X127127069Y-100426857D01*
X127151033Y-100483070D01*
X127173591Y-100628397D01*
X127174296Y-100632161D01*
X127311888Y-101260426D01*
X127312829Y-101264167D01*
X127488835Y-101882766D01*
X127489997Y-101886418D01*
X127703758Y-102493029D01*
X127705144Y-102496606D01*
X127955845Y-103088910D01*
X127957435Y-103092366D01*
X128244128Y-103668122D01*
X128245942Y-103671501D01*
X128567530Y-104228507D01*
X128569535Y-104231746D01*
X128924818Y-104767923D01*
X128927009Y-104771017D01*
X129314617Y-105284293D01*
X129317020Y-105287279D01*
X129735473Y-105775699D01*
X129738063Y-105778540D01*
X129888966Y-105934165D01*
X129900481Y-105941012D01*
X129912103Y-105934342D01*
X137134904Y-98711542D01*
X137141568Y-98700000D01*
X137134904Y-98688457D01*
X129912103Y-91465656D01*
X129900481Y-91458986D01*
X129888966Y-91465833D01*
X129738062Y-91621459D01*
X129735480Y-91624291D01*
X129317020Y-92112720D01*
X129314617Y-92115706D01*
X128927009Y-92628982D01*
X128924818Y-92632076D01*
X128569535Y-93168253D01*
X128567530Y-93171492D01*
X128245942Y-93728498D01*
X128244128Y-93731877D01*
X127957435Y-94307633D01*
X127955845Y-94311089D01*
X127705144Y-94903393D01*
X127703758Y-94906970D01*
X127489997Y-95513581D01*
X127488835Y-95517233D01*
X127312829Y-96135832D01*
X127311888Y-96139573D01*
X127174296Y-96767838D01*
X127173591Y-96771602D01*
X127151033Y-96916930D01*
X127127069Y-96973143D01*
X127079168Y-97011085D01*
X127018961Y-97021542D01*
X126961072Y-97001973D01*
X126919557Y-96957133D01*
X126904500Y-96897909D01*
X126904500Y-91098964D01*
X130257611Y-91098964D01*
X130264284Y-91110731D01*
X137488457Y-98334904D01*
X137499999Y-98341568D01*
X137511542Y-98334904D01*
X144735714Y-91110731D01*
X144742387Y-91098964D01*
X144735177Y-91087517D01*
X144336133Y-90723740D01*
X144333265Y-90721283D01*
X143832151Y-90318038D01*
X143829101Y-90315735D01*
X143304149Y-89944130D01*
X143300961Y-89942017D01*
X142754098Y-89603414D01*
X142750830Y-89601527D01*
X142184140Y-89297221D01*
X142180748Y-89295532D01*
X141596414Y-89026695D01*
X141592930Y-89025220D01*
X140993144Y-88792863D01*
X140989575Y-88791605D01*
X140376639Y-88596616D01*
X140372976Y-88595574D01*
X139749195Y-88438686D01*
X139745509Y-88437879D01*
X139113252Y-88319690D01*
X139109475Y-88319104D01*
X138471157Y-88240062D01*
X138467391Y-88239713D01*
X137825393Y-88200116D01*
X137821604Y-88200000D01*
X137178396Y-88200000D01*
X137174606Y-88200116D01*
X136532608Y-88239713D01*
X136528842Y-88240062D01*
X135890524Y-88319104D01*
X135886747Y-88319690D01*
X135254490Y-88437879D01*
X135250804Y-88438686D01*
X134627023Y-88595574D01*
X134623360Y-88596616D01*
X134010424Y-88791605D01*
X134006855Y-88792863D01*
X133407069Y-89025220D01*
X133403585Y-89026695D01*
X132819251Y-89295532D01*
X132815859Y-89297221D01*
X132249169Y-89601527D01*
X132245901Y-89603414D01*
X131699038Y-89942017D01*
X131695850Y-89944130D01*
X131170898Y-90315735D01*
X131167848Y-90318038D01*
X130666734Y-90721283D01*
X130663866Y-90723741D01*
X130264821Y-91087517D01*
X130257611Y-91098964D01*
X126904500Y-91098964D01*
X126904500Y-91003500D01*
X126921113Y-90941500D01*
X126966500Y-90896113D01*
X127028500Y-90879500D01*
X128579309Y-90879500D01*
X128589066Y-90879500D01*
X128610447Y-90872552D01*
X128629353Y-90868014D01*
X128651555Y-90864498D01*
X128671572Y-90854297D01*
X128689558Y-90846848D01*
X128701645Y-90842921D01*
X128701644Y-90842921D01*
X128710929Y-90839905D01*
X128729113Y-90826692D01*
X128745696Y-90816529D01*
X128765723Y-90806326D01*
X128788511Y-90783537D01*
X128788515Y-90783535D01*
X134387818Y-85184231D01*
X134437182Y-85153981D01*
X134494898Y-85149439D01*
X134548385Y-85171594D01*
X134585985Y-85215617D01*
X134599500Y-85271912D01*
X134599500Y-86414820D01*
X134600688Y-86420795D01*
X134600689Y-86420799D01*
X134605849Y-86446740D01*
X134605850Y-86446742D01*
X134608233Y-86458722D01*
X134641496Y-86508504D01*
X134691278Y-86541767D01*
X134735180Y-86550500D01*
X140258725Y-86550500D01*
X140264820Y-86550500D01*
X140308722Y-86541767D01*
X140358504Y-86508504D01*
X140391767Y-86458722D01*
X140400500Y-86414820D01*
X140400500Y-83928500D01*
X140417113Y-83866500D01*
X140462500Y-83821113D01*
X140524500Y-83804500D01*
X145154309Y-83804500D01*
X145164066Y-83804500D01*
X145185447Y-83797552D01*
X145204353Y-83793014D01*
X145226555Y-83789498D01*
X145246572Y-83779297D01*
X145264558Y-83771848D01*
X145276645Y-83767921D01*
X145276644Y-83767921D01*
X145285929Y-83764905D01*
X145304113Y-83751692D01*
X145320696Y-83741529D01*
X145340723Y-83731326D01*
X145363511Y-83708537D01*
X145363515Y-83708535D01*
X147187819Y-81884229D01*
X147237182Y-81853980D01*
X147294898Y-81849438D01*
X147348385Y-81871593D01*
X147385985Y-81915616D01*
X147399500Y-81971911D01*
X147399500Y-94539543D01*
X147381327Y-94604170D01*
X147332135Y-94649854D01*
X147266342Y-94663204D01*
X147203234Y-94640308D01*
X147161308Y-94587877D01*
X147044148Y-94311078D01*
X147042564Y-94307633D01*
X146755871Y-93731877D01*
X146754057Y-93728498D01*
X146432469Y-93171492D01*
X146430464Y-93168253D01*
X146075181Y-92632076D01*
X146072990Y-92628982D01*
X145685382Y-92115706D01*
X145682979Y-92112720D01*
X145264526Y-91624300D01*
X145261936Y-91621459D01*
X145111032Y-91465833D01*
X145099517Y-91458986D01*
X145087895Y-91465656D01*
X137865095Y-98688457D01*
X137858431Y-98700000D01*
X137865095Y-98711542D01*
X145087895Y-105934342D01*
X145099517Y-105941012D01*
X145111031Y-105934166D01*
X145261937Y-105778540D01*
X145264526Y-105775699D01*
X145682979Y-105287279D01*
X145685382Y-105284293D01*
X146072990Y-104771017D01*
X146075181Y-104767923D01*
X146430464Y-104231746D01*
X146432469Y-104228507D01*
X146754057Y-103671501D01*
X146755871Y-103668122D01*
X147042564Y-103092366D01*
X147044148Y-103088921D01*
X147161308Y-102812123D01*
X147203234Y-102759692D01*
X147266342Y-102736796D01*
X147332135Y-102750146D01*
X147381327Y-102795830D01*
X147399500Y-102860457D01*
X147399500Y-117407010D01*
X147390061Y-117454463D01*
X147363181Y-117494691D01*
X144994691Y-119863181D01*
X144954463Y-119890061D01*
X144907010Y-119899500D01*
X115092990Y-119899500D01*
X115045537Y-119890061D01*
X115005309Y-119863181D01*
X112636819Y-117494691D01*
X112609939Y-117454463D01*
X112600500Y-117407010D01*
X112600500Y-117324450D01*
X115900000Y-117324450D01*
X115900280Y-117330339D01*
X115914403Y-117478242D01*
X115916630Y-117489793D01*
X115972487Y-117680026D01*
X115976853Y-117690932D01*
X116067704Y-117867159D01*
X116074064Y-117877055D01*
X116196617Y-118032894D01*
X116204735Y-118041408D01*
X116354572Y-118171243D01*
X116364149Y-118178062D01*
X116535846Y-118277191D01*
X116546549Y-118282079D01*
X116733904Y-118346924D01*
X116739488Y-118348279D01*
X116747681Y-118347693D01*
X116750000Y-118337036D01*
X116750000Y-117266326D01*
X116746549Y-117253450D01*
X116733674Y-117250000D01*
X115916326Y-117250000D01*
X115903450Y-117253450D01*
X115900000Y-117266326D01*
X115900000Y-117324450D01*
X112600500Y-117324450D01*
X112600500Y-116733674D01*
X115900000Y-116733674D01*
X115903450Y-116746549D01*
X115916326Y-116750000D01*
X116733674Y-116750000D01*
X116746549Y-116746549D01*
X116750000Y-116733674D01*
X116750000Y-115667819D01*
X116747494Y-115656927D01*
X116736320Y-115657060D01*
X116644329Y-115679377D01*
X116633211Y-115683225D01*
X116452878Y-115765580D01*
X116442680Y-115771468D01*
X116281193Y-115886463D01*
X116272296Y-115894172D01*
X116135482Y-116037658D01*
X116128215Y-116046899D01*
X116021028Y-116213685D01*
X116015636Y-116224143D01*
X115941950Y-116408201D01*
X115938637Y-116419484D01*
X115901117Y-116614165D01*
X115900000Y-116625866D01*
X115900000Y-116733674D01*
X112600500Y-116733674D01*
X112600500Y-106944518D01*
X116000000Y-106944518D01*
X116000353Y-106951114D01*
X116005573Y-106999667D01*
X116009111Y-107014641D01*
X116053547Y-107133777D01*
X116061962Y-107149189D01*
X116137498Y-107250092D01*
X116149907Y-107262501D01*
X116250810Y-107338037D01*
X116266222Y-107346452D01*
X116385358Y-107390888D01*
X116400332Y-107394426D01*
X116448885Y-107399646D01*
X116455482Y-107400000D01*
X116733674Y-107400000D01*
X116746549Y-107396549D01*
X116750000Y-107383674D01*
X116750000Y-106816326D01*
X116746549Y-106803450D01*
X116733674Y-106800000D01*
X116016326Y-106800000D01*
X116003450Y-106803450D01*
X116000000Y-106816326D01*
X116000000Y-106944518D01*
X112600500Y-106944518D01*
X112600500Y-106283674D01*
X116000000Y-106283674D01*
X116003450Y-106296549D01*
X116016326Y-106300000D01*
X116733674Y-106300000D01*
X116746549Y-106296549D01*
X116750000Y-106283674D01*
X116750000Y-105716326D01*
X116746549Y-105703450D01*
X116733674Y-105700000D01*
X116455482Y-105700000D01*
X116448885Y-105700353D01*
X116400332Y-105705573D01*
X116385358Y-105709111D01*
X116266222Y-105753547D01*
X116250810Y-105761962D01*
X116149907Y-105837498D01*
X116137498Y-105849907D01*
X116061962Y-105950810D01*
X116053547Y-105966222D01*
X116009111Y-106085358D01*
X116005573Y-106100332D01*
X116000353Y-106148885D01*
X116000000Y-106155482D01*
X116000000Y-106283674D01*
X112600500Y-106283674D01*
X112600500Y-95489066D01*
X113095500Y-95489066D01*
X113098515Y-95498346D01*
X113098516Y-95498352D01*
X113102444Y-95510442D01*
X113106983Y-95529348D01*
X113108973Y-95541913D01*
X113108976Y-95541922D01*
X113110502Y-95551555D01*
X113114931Y-95560247D01*
X113114932Y-95560250D01*
X113120703Y-95571575D01*
X113128150Y-95589554D01*
X113135095Y-95610929D01*
X113140830Y-95618823D01*
X113140831Y-95618824D01*
X113148304Y-95629109D01*
X113158473Y-95645703D01*
X113168674Y-95665723D01*
X113191462Y-95688511D01*
X113191465Y-95688515D01*
X113752646Y-96249696D01*
X114288181Y-96785230D01*
X114315061Y-96825458D01*
X114324500Y-96872911D01*
X114324500Y-97651647D01*
X114324500Y-97651659D01*
X114324501Y-97656518D01*
X114325261Y-97661320D01*
X114325262Y-97661326D01*
X114326248Y-97667550D01*
X114339354Y-97750304D01*
X114343780Y-97758991D01*
X114343782Y-97758996D01*
X114358306Y-97787500D01*
X114396950Y-97863342D01*
X114486658Y-97953050D01*
X114599696Y-98010646D01*
X114693481Y-98025500D01*
X115381518Y-98025499D01*
X115475304Y-98010646D01*
X115588342Y-97953050D01*
X115678050Y-97863342D01*
X115735646Y-97750304D01*
X115750500Y-97656519D01*
X115750499Y-96343482D01*
X115735646Y-96249696D01*
X115678050Y-96136658D01*
X115588342Y-96046950D01*
X115475304Y-95989354D01*
X115465667Y-95987827D01*
X115465662Y-95987826D01*
X115386339Y-95975263D01*
X115386333Y-95975262D01*
X115381519Y-95974500D01*
X115376640Y-95974500D01*
X114698349Y-95974500D01*
X114698336Y-95974500D01*
X114693482Y-95974501D01*
X114688682Y-95975261D01*
X114684136Y-95975619D01*
X114631491Y-95968336D01*
X114586731Y-95939682D01*
X114265873Y-95618824D01*
X113940819Y-95293769D01*
X113913939Y-95253541D01*
X113904500Y-95206088D01*
X113904500Y-94848912D01*
X113913939Y-94801459D01*
X113940819Y-94761231D01*
X115160230Y-93541819D01*
X115200458Y-93514939D01*
X115247911Y-93505500D01*
X116483725Y-93505500D01*
X116489820Y-93505500D01*
X116533722Y-93496767D01*
X116583504Y-93463504D01*
X116616767Y-93413722D01*
X116625500Y-93369820D01*
X116625500Y-92140180D01*
X116616767Y-92096278D01*
X116583504Y-92046496D01*
X116533722Y-92013233D01*
X116521742Y-92010850D01*
X116521740Y-92010849D01*
X116495799Y-92005689D01*
X116495795Y-92005688D01*
X116489820Y-92004500D01*
X114260180Y-92004500D01*
X114254205Y-92005688D01*
X114254200Y-92005689D01*
X114228259Y-92010849D01*
X114228255Y-92010850D01*
X114216278Y-92013233D01*
X114206122Y-92020018D01*
X114206119Y-92020020D01*
X114176651Y-92039710D01*
X114176648Y-92039712D01*
X114166496Y-92046496D01*
X114159712Y-92056648D01*
X114159710Y-92056651D01*
X114140020Y-92086119D01*
X114140018Y-92086122D01*
X114133233Y-92096278D01*
X114130850Y-92108255D01*
X114130849Y-92108259D01*
X114125689Y-92134200D01*
X114125688Y-92134205D01*
X114124500Y-92140180D01*
X114124500Y-93369820D01*
X114124735Y-93371002D01*
X114118352Y-93422761D01*
X114089281Y-93468668D01*
X113191465Y-94366485D01*
X113175573Y-94382377D01*
X113175571Y-94382379D01*
X113168674Y-94389277D01*
X113164245Y-94397968D01*
X113164245Y-94397969D01*
X113158474Y-94409295D01*
X113148311Y-94425878D01*
X113140833Y-94436169D01*
X113140825Y-94436183D01*
X113135095Y-94444071D01*
X113132080Y-94453349D01*
X113132078Y-94453354D01*
X113128149Y-94465447D01*
X113120705Y-94483418D01*
X113114931Y-94494749D01*
X113114927Y-94494758D01*
X113110502Y-94503445D01*
X113108976Y-94513071D01*
X113108973Y-94513084D01*
X113106984Y-94525645D01*
X113102445Y-94544553D01*
X113098515Y-94556650D01*
X113098513Y-94556656D01*
X113095500Y-94565934D01*
X113095500Y-94598166D01*
X113095500Y-95360934D01*
X113095500Y-95489066D01*
X112600500Y-95489066D01*
X112600500Y-88809820D01*
X114124500Y-88809820D01*
X114125688Y-88815795D01*
X114125689Y-88815799D01*
X114130849Y-88841740D01*
X114130850Y-88841742D01*
X114133233Y-88853722D01*
X114166496Y-88903504D01*
X114216278Y-88936767D01*
X114260180Y-88945500D01*
X116483725Y-88945500D01*
X116489820Y-88945500D01*
X116533722Y-88936767D01*
X116583504Y-88903504D01*
X116616767Y-88853722D01*
X116625500Y-88809820D01*
X116625500Y-87580180D01*
X116616767Y-87536278D01*
X116583504Y-87486496D01*
X116533722Y-87453233D01*
X116521742Y-87450850D01*
X116521740Y-87450849D01*
X116495799Y-87445689D01*
X116495795Y-87445688D01*
X116489820Y-87444500D01*
X116483725Y-87444500D01*
X115903500Y-87444500D01*
X115841500Y-87427887D01*
X115796113Y-87382500D01*
X115779500Y-87320500D01*
X115779500Y-86843912D01*
X115788939Y-86796459D01*
X115815819Y-86756231D01*
X116131230Y-86440819D01*
X116171458Y-86413939D01*
X116218911Y-86404500D01*
X119958409Y-86404500D01*
X119977807Y-86406027D01*
X120000000Y-86409542D01*
X120126555Y-86389498D01*
X120240723Y-86331326D01*
X120331326Y-86240723D01*
X120389498Y-86126555D01*
X120404500Y-86031834D01*
X120409542Y-86000000D01*
X120406027Y-85977807D01*
X120404500Y-85958409D01*
X120404500Y-85173152D01*
X120419142Y-85114698D01*
X120459612Y-85070048D01*
X120514251Y-85050500D01*
X120514820Y-85050500D01*
X120558722Y-85041767D01*
X120608504Y-85008504D01*
X120641767Y-84958722D01*
X120650500Y-84914820D01*
X120650500Y-81685180D01*
X120641767Y-81641278D01*
X120608504Y-81591496D01*
X120558722Y-81558233D01*
X120546742Y-81555850D01*
X120546740Y-81555849D01*
X120520796Y-81550688D01*
X120520788Y-81550687D01*
X120514820Y-81549500D01*
X120514251Y-81549500D01*
X120459612Y-81529952D01*
X120419142Y-81485302D01*
X120404500Y-81426848D01*
X120404500Y-78373152D01*
X120419142Y-78314698D01*
X120459612Y-78270048D01*
X120514251Y-78250500D01*
X120514820Y-78250500D01*
X120558722Y-78241767D01*
X120608504Y-78208504D01*
X120641767Y-78158722D01*
X120650500Y-78114820D01*
X120650500Y-77028500D01*
X120667113Y-76966500D01*
X120712500Y-76921113D01*
X120774500Y-76904500D01*
X121281088Y-76904500D01*
X121328541Y-76913939D01*
X121368769Y-76940819D01*
X121782597Y-77354646D01*
X122168674Y-77740723D01*
X122259277Y-77831326D01*
X122273635Y-77838641D01*
X122279297Y-77841527D01*
X122295889Y-77851695D01*
X122306174Y-77859167D01*
X122314072Y-77864905D01*
X122335441Y-77871848D01*
X122353419Y-77879294D01*
X122373445Y-77889498D01*
X122395646Y-77893014D01*
X122414548Y-77897551D01*
X122435934Y-77904500D01*
X122468166Y-77904500D01*
X122564066Y-77904500D01*
X123163001Y-77904500D01*
X123225001Y-77921113D01*
X123270388Y-77966500D01*
X123287001Y-78028500D01*
X123287001Y-78156518D01*
X123287761Y-78161320D01*
X123287762Y-78161326D01*
X123295234Y-78208504D01*
X123301854Y-78250304D01*
X123306280Y-78258991D01*
X123306282Y-78258996D01*
X123355019Y-78354646D01*
X123359450Y-78363342D01*
X123449158Y-78453050D01*
X123562196Y-78510646D01*
X123655981Y-78525500D01*
X124344018Y-78525499D01*
X124437804Y-78510646D01*
X124550842Y-78453050D01*
X124640550Y-78363342D01*
X124698146Y-78250304D01*
X124713000Y-78156519D01*
X124712999Y-76843482D01*
X124698146Y-76749696D01*
X124640550Y-76636658D01*
X124550842Y-76546950D01*
X124437804Y-76489354D01*
X124428167Y-76487827D01*
X124428162Y-76487826D01*
X124348839Y-76475263D01*
X124348833Y-76475262D01*
X124344019Y-76474500D01*
X124339140Y-76474500D01*
X123660852Y-76474500D01*
X123660839Y-76474500D01*
X123655982Y-76474501D01*
X123651180Y-76475261D01*
X123651173Y-76475262D01*
X123571831Y-76487828D01*
X123571830Y-76487828D01*
X123562196Y-76489354D01*
X123553510Y-76493779D01*
X123553503Y-76493782D01*
X123457853Y-76542519D01*
X123457849Y-76542521D01*
X123449158Y-76546950D01*
X123442259Y-76553848D01*
X123442256Y-76553851D01*
X123366351Y-76629756D01*
X123366348Y-76629759D01*
X123359450Y-76636658D01*
X123355021Y-76645349D01*
X123355019Y-76645353D01*
X123314902Y-76724088D01*
X123301854Y-76749696D01*
X123300327Y-76759330D01*
X123300326Y-76759337D01*
X123287763Y-76838660D01*
X123287762Y-76838667D01*
X123287000Y-76843481D01*
X123287000Y-76848353D01*
X123287000Y-76848359D01*
X123287000Y-76971500D01*
X123270387Y-77033500D01*
X123225000Y-77078887D01*
X123163000Y-77095500D01*
X122718911Y-77095500D01*
X122671458Y-77086061D01*
X122631230Y-77059181D01*
X122215324Y-76643275D01*
X121763515Y-76191465D01*
X121763511Y-76191462D01*
X121740723Y-76168674D01*
X121732023Y-76164241D01*
X121720703Y-76158473D01*
X121704109Y-76148304D01*
X121693824Y-76140831D01*
X121693823Y-76140830D01*
X121685929Y-76135095D01*
X121664555Y-76128150D01*
X121646575Y-76120703D01*
X121635250Y-76114932D01*
X121635247Y-76114931D01*
X121626555Y-76110502D01*
X121616922Y-76108976D01*
X121616913Y-76108973D01*
X121604348Y-76106983D01*
X121585442Y-76102444D01*
X121573352Y-76098516D01*
X121573346Y-76098515D01*
X121564066Y-76095500D01*
X121554304Y-76095500D01*
X120774500Y-76095500D01*
X120712500Y-76078887D01*
X120667113Y-76033500D01*
X120650500Y-75971500D01*
X120650500Y-74891275D01*
X120650500Y-74885180D01*
X120641767Y-74841278D01*
X120608504Y-74791496D01*
X120558722Y-74758233D01*
X120546742Y-74755850D01*
X120546740Y-74755849D01*
X120520799Y-74750689D01*
X120520795Y-74750688D01*
X120514820Y-74749500D01*
X119485180Y-74749500D01*
X119479205Y-74750688D01*
X119479200Y-74750689D01*
X119453259Y-74755849D01*
X119453255Y-74755850D01*
X119441278Y-74758233D01*
X119431122Y-74765018D01*
X119431119Y-74765020D01*
X119401651Y-74784710D01*
X119401648Y-74784712D01*
X119391496Y-74791496D01*
X119384712Y-74801648D01*
X119384710Y-74801651D01*
X119365020Y-74831119D01*
X119365018Y-74831122D01*
X119358233Y-74841278D01*
X119355850Y-74853255D01*
X119355849Y-74853259D01*
X119350689Y-74879200D01*
X119350688Y-74879205D01*
X119349500Y-74885180D01*
X119349500Y-78114820D01*
X119350688Y-78120795D01*
X119350689Y-78120799D01*
X119355849Y-78146740D01*
X119355850Y-78146742D01*
X119358233Y-78158722D01*
X119391496Y-78208504D01*
X119441278Y-78241767D01*
X119485180Y-78250500D01*
X119485749Y-78250500D01*
X119540388Y-78270048D01*
X119580858Y-78314698D01*
X119595500Y-78373152D01*
X119595500Y-81426848D01*
X119580858Y-81485302D01*
X119540388Y-81529952D01*
X119485749Y-81549500D01*
X119485180Y-81549500D01*
X119479212Y-81550687D01*
X119479203Y-81550688D01*
X119453259Y-81555849D01*
X119453255Y-81555850D01*
X119441278Y-81558233D01*
X119431122Y-81565018D01*
X119431119Y-81565020D01*
X119401651Y-81584710D01*
X119401648Y-81584712D01*
X119391496Y-81591496D01*
X119384712Y-81601648D01*
X119384710Y-81601651D01*
X119365020Y-81631119D01*
X119365018Y-81631122D01*
X119358233Y-81641278D01*
X119355850Y-81653255D01*
X119355849Y-81653259D01*
X119350689Y-81679200D01*
X119350688Y-81679205D01*
X119349500Y-81685180D01*
X119349500Y-84914820D01*
X119350688Y-84920795D01*
X119350689Y-84920799D01*
X119355849Y-84946740D01*
X119355850Y-84946742D01*
X119358233Y-84958722D01*
X119391496Y-85008504D01*
X119441278Y-85041767D01*
X119485180Y-85050500D01*
X119485749Y-85050500D01*
X119540388Y-85070048D01*
X119580858Y-85114698D01*
X119595500Y-85173152D01*
X119595500Y-85471500D01*
X119578887Y-85533500D01*
X119533500Y-85578887D01*
X119471500Y-85595500D01*
X116753342Y-85595500D01*
X116687799Y-85576762D01*
X116642064Y-85526211D01*
X116629961Y-85459125D01*
X116655146Y-85395779D01*
X116710009Y-85355318D01*
X116733777Y-85346452D01*
X116749189Y-85338037D01*
X116850092Y-85262501D01*
X116862501Y-85250092D01*
X116938037Y-85149189D01*
X116946452Y-85133777D01*
X116990888Y-85014641D01*
X116994426Y-84999667D01*
X116999646Y-84951114D01*
X117000000Y-84944518D01*
X117000000Y-83566326D01*
X116996549Y-83553450D01*
X116983674Y-83550000D01*
X115016326Y-83550000D01*
X115003450Y-83553450D01*
X115000000Y-83566326D01*
X115000000Y-84944518D01*
X115000353Y-84951114D01*
X115005573Y-84999667D01*
X115009111Y-85014641D01*
X115053547Y-85133777D01*
X115061962Y-85149189D01*
X115137498Y-85250092D01*
X115149907Y-85262501D01*
X115250810Y-85338037D01*
X115266222Y-85346452D01*
X115385358Y-85390888D01*
X115400332Y-85394426D01*
X115448885Y-85399646D01*
X115455482Y-85400000D01*
X115762337Y-85400000D01*
X115825458Y-85417268D01*
X115870999Y-85464263D01*
X115886276Y-85527896D01*
X115867033Y-85590444D01*
X115820119Y-85633130D01*
X115814071Y-85635096D01*
X115806181Y-85640827D01*
X115806173Y-85640832D01*
X115795885Y-85648307D01*
X115779304Y-85658468D01*
X115767971Y-85664242D01*
X115767962Y-85664247D01*
X115759277Y-85668674D01*
X115752379Y-85675571D01*
X115752377Y-85675573D01*
X115736487Y-85691462D01*
X115736485Y-85691464D01*
X115736484Y-85691466D01*
X115736485Y-85691466D01*
X115066465Y-86361485D01*
X115050573Y-86377377D01*
X115050571Y-86377379D01*
X115043674Y-86384277D01*
X115039245Y-86392968D01*
X115039245Y-86392969D01*
X115033474Y-86404295D01*
X115023311Y-86420878D01*
X115015833Y-86431169D01*
X115015825Y-86431183D01*
X115010095Y-86439071D01*
X115007080Y-86448349D01*
X115007078Y-86448354D01*
X115003149Y-86460447D01*
X114995705Y-86478418D01*
X114989931Y-86489749D01*
X114989927Y-86489758D01*
X114985502Y-86498445D01*
X114983976Y-86508071D01*
X114983973Y-86508084D01*
X114981984Y-86520645D01*
X114977445Y-86539553D01*
X114973515Y-86551650D01*
X114973513Y-86551656D01*
X114970500Y-86560934D01*
X114970500Y-86570691D01*
X114970500Y-87320500D01*
X114953887Y-87382500D01*
X114908500Y-87427887D01*
X114846500Y-87444500D01*
X114260180Y-87444500D01*
X114254205Y-87445688D01*
X114254200Y-87445689D01*
X114228259Y-87450849D01*
X114228255Y-87450850D01*
X114216278Y-87453233D01*
X114206122Y-87460018D01*
X114206119Y-87460020D01*
X114176651Y-87479710D01*
X114176648Y-87479712D01*
X114166496Y-87486496D01*
X114159712Y-87496648D01*
X114159710Y-87496651D01*
X114140020Y-87526119D01*
X114140018Y-87526122D01*
X114133233Y-87536278D01*
X114130850Y-87548255D01*
X114130849Y-87548259D01*
X114125689Y-87574200D01*
X114125688Y-87574205D01*
X114124500Y-87580180D01*
X114124500Y-88809820D01*
X112600500Y-88809820D01*
X112600500Y-83033674D01*
X115000000Y-83033674D01*
X115003450Y-83046549D01*
X115016326Y-83050000D01*
X115733674Y-83050000D01*
X115746549Y-83046549D01*
X115750000Y-83033674D01*
X116250000Y-83033674D01*
X116253450Y-83046549D01*
X116266326Y-83050000D01*
X116983674Y-83050000D01*
X116996549Y-83046549D01*
X117000000Y-83033674D01*
X117000000Y-81655482D01*
X116999646Y-81648885D01*
X116994426Y-81600332D01*
X116990888Y-81585358D01*
X116946452Y-81466222D01*
X116938037Y-81450810D01*
X116862501Y-81349907D01*
X116850092Y-81337498D01*
X116749189Y-81261962D01*
X116733777Y-81253547D01*
X116614641Y-81209111D01*
X116599667Y-81205573D01*
X116551114Y-81200353D01*
X116544518Y-81200000D01*
X116266326Y-81200000D01*
X116253450Y-81203450D01*
X116250000Y-81216326D01*
X116250000Y-83033674D01*
X115750000Y-83033674D01*
X115750000Y-81216326D01*
X115746549Y-81203450D01*
X115733674Y-81200000D01*
X115455482Y-81200000D01*
X115448885Y-81200353D01*
X115400332Y-81205573D01*
X115385358Y-81209111D01*
X115266222Y-81253547D01*
X115250810Y-81261962D01*
X115149907Y-81337498D01*
X115137498Y-81349907D01*
X115061962Y-81450810D01*
X115053547Y-81466222D01*
X115009111Y-81585358D01*
X115005573Y-81600332D01*
X115000353Y-81648885D01*
X115000000Y-81655482D01*
X115000000Y-83033674D01*
X112600500Y-83033674D01*
X112600500Y-78144518D01*
X115000000Y-78144518D01*
X115000353Y-78151114D01*
X115005573Y-78199667D01*
X115009111Y-78214641D01*
X115053547Y-78333777D01*
X115061962Y-78349189D01*
X115137498Y-78450092D01*
X115149907Y-78462501D01*
X115250810Y-78538037D01*
X115266222Y-78546452D01*
X115385358Y-78590888D01*
X115400332Y-78594426D01*
X115448885Y-78599646D01*
X115455482Y-78600000D01*
X115733674Y-78600000D01*
X115746549Y-78596549D01*
X115750000Y-78583674D01*
X116250000Y-78583674D01*
X116253450Y-78596549D01*
X116266326Y-78600000D01*
X116544518Y-78600000D01*
X116551114Y-78599646D01*
X116599667Y-78594426D01*
X116614641Y-78590888D01*
X116733777Y-78546452D01*
X116749189Y-78538037D01*
X116850092Y-78462501D01*
X116862501Y-78450092D01*
X116938037Y-78349189D01*
X116946452Y-78333777D01*
X116990888Y-78214641D01*
X116994426Y-78199667D01*
X116999646Y-78151114D01*
X117000000Y-78144518D01*
X117000000Y-76766326D01*
X116996549Y-76753450D01*
X116983674Y-76750000D01*
X116266326Y-76750000D01*
X116253450Y-76753450D01*
X116250000Y-76766326D01*
X116250000Y-78583674D01*
X115750000Y-78583674D01*
X115750000Y-76766326D01*
X115746549Y-76753450D01*
X115733674Y-76750000D01*
X115016326Y-76750000D01*
X115003450Y-76753450D01*
X115000000Y-76766326D01*
X115000000Y-78144518D01*
X112600500Y-78144518D01*
X112600500Y-76233674D01*
X115000000Y-76233674D01*
X115003450Y-76246549D01*
X115016326Y-76250000D01*
X115733674Y-76250000D01*
X115746549Y-76246549D01*
X115750000Y-76233674D01*
X116250000Y-76233674D01*
X116253450Y-76246549D01*
X116266326Y-76250000D01*
X116983674Y-76250000D01*
X116996549Y-76246549D01*
X117000000Y-76233674D01*
X117000000Y-74855482D01*
X116999646Y-74848885D01*
X116994426Y-74800332D01*
X116990888Y-74785358D01*
X116946452Y-74666222D01*
X116938037Y-74650810D01*
X116862501Y-74549907D01*
X116850092Y-74537498D01*
X116749189Y-74461962D01*
X116733777Y-74453547D01*
X116614641Y-74409111D01*
X116599667Y-74405573D01*
X116551114Y-74400353D01*
X116544518Y-74400000D01*
X116266326Y-74400000D01*
X116253450Y-74403450D01*
X116250000Y-74416326D01*
X116250000Y-76233674D01*
X115750000Y-76233674D01*
X115750000Y-74416326D01*
X115746549Y-74403450D01*
X115733674Y-74400000D01*
X115455482Y-74400000D01*
X115448885Y-74400353D01*
X115400332Y-74405573D01*
X115385358Y-74409111D01*
X115266222Y-74453547D01*
X115250810Y-74461962D01*
X115149907Y-74537498D01*
X115137498Y-74549907D01*
X115061962Y-74650810D01*
X115053547Y-74666222D01*
X115009111Y-74785358D01*
X115005573Y-74800332D01*
X115000353Y-74848885D01*
X115000000Y-74855482D01*
X115000000Y-76233674D01*
X112600500Y-76233674D01*
X112600500Y-60124000D01*
X112617113Y-60062000D01*
X112662500Y-60016613D01*
X112724500Y-60000000D01*
X114723628Y-60000000D01*
X114784704Y-60016085D01*
G37*
G04 #@! TD.AperFunction*
M02*
